<svg width="12.439990551181104in" height="8.775770078740159in" viewBox="0 0 12.439990551181104 8.775770078740159" xmlns="http://www.w3.org/2000/svg" xmlnsXlink="http://www.w3.org/1999/xlink">
  <g transform="translate(0 8.775770078740159)">
    <g transform="scale(1, -1)"><g fill="none" stroke="rgb(-11,-11,-11)"><g transform="matrix(1,0,0,-1,8.188499212598426,4.5847354330708665)"><path class="outline" d="M 3.913170472440945 -1.1726165354330707 C 3.913170472440945 -1.1726165354330707 3.7929929133858273 -1.1583133858267711 3.7929929133858273 -1.1583133858267711 C 3.7929929133858273 -1.1583133858267711 3.600516929133859 -1.1507507874015745 3.600516929133859 -1.1507507874015745 C 3.600516929133859 -1.1507507874015745 3.4134696850393706 -1.1967681102362202 3.4134696850393706 -1.1967681102362202 C 3.4134696850393706 -1.1967681102362202 3.2464724409448826 -1.2927685039370074 3.2464724409448826 -1.2927685039370074 C 3.2464724409448826 -1.2927685039370074 3.1125779527559065 -1.4312472440944881 3.1125779527559065 -1.4312472440944881 C 3.1125779527559065 -1.4312472440944881 2.1406496062992133 -2.768992125984252 2.1406496062992133 -2.768992125984252 C 2.1406496062992133 -2.768992125984252 2.0503236220472445 -2.9391255905511806 2.0503236220472445 -2.9391255905511806 C 2.0503236220472445 -2.9391255905511806 2.010627165354332 -3.1276153543307084 2.010627165354332 -3.1276153543307084 C 2.010627165354332 -3.1276153543307084 2.0246629921259847 -3.3197279527559056 2.0246629921259847 -3.3197279527559056 C 2.0246629921259847 -3.3197279527559056 2.09133346456693 -3.500446456692913 2.09133346456693 -3.500446456692913 C 2.09133346456693 -3.500446456692913 2.142073228346457 -3.6103220472440944 2.142073228346457 -3.6103220472440944 C 2.142073228346457 -3.6103220472440944 2.168743700787402 -3.680585039370079 2.168743700787402 -3.680585039370079 C 2.168743700787402 -3.680585039370079 2.1763196850393713 -3.7553566929133853 2.1763196850393713 -3.7553566929133853 C 2.1763196850393713 -3.7553566929133853 2.1642854330708663 -3.8295413385826764 2.1642854330708663 -3.8295413385826764 C 2.1642854330708663 -3.8295413385826764 2.1334610236220484 -3.8980834645669282 2.1334610236220484 -3.8980834645669282 C 2.1334610236220484 -3.8980834645669282 2.085946850393701 -3.9563122047244095 2.085946850393701 -3.9563122047244095 C 2.085946850393701 -3.9563122047244095 2.0249807086614178 -4.00025905511811 2.0249807086614178 -4.00025905511811 C 2.0249807086614178 -4.00025905511811 1.9547177165354335 -4.026929527559055 1.9547177165354335 -4.026929527559055 C 1.9547177165354335 -4.026929527559055 1.8799460629921265 -4.034505905511811 1.8799460629921265 -4.034505905511811 C 1.8799460629921265 -4.034505905511811 1.805761417322835 -4.022471259842519 1.805761417322835 -4.022471259842519 C 1.805761417322835 -4.022471259842519 1.7372192913385833 -3.9916468503937006 1.7372192913385833 -3.9916468503937006 C 1.7372192913385833 -3.9916468503937006 1.678990551181103 -3.944132677165354 1.678990551181103 -3.944132677165354 C 1.678990551181103 -3.944132677165354 1.635043700787402 -3.8831665354330704 1.635043700787402 -3.8831665354330704 C 1.635043700787402 -3.8831665354330704 1.5712968503937017 -3.7802901574803145 1.5712968503937017 -3.7802901574803145 C 1.5712968503937017 -3.7802901574803145 1.457202362204725 -3.6250913385826764 1.457202362204725 -3.6250913385826764 C 1.457202362204725 -3.6250913385826764 1.304602755905513 -3.507543307086614 1.304602755905513 -3.507543307086614 C 1.304602755905513 -3.507543307086614 1.1254255905511814 -3.436834645669291 1.1254255905511814 -3.436834645669291 C 1.1254255905511814 -3.436834645669291 0.9336763779527563 -3.4184917322834645 0.9336763779527563 -3.4184917322834645 C 0.9336763779527563 -3.4184917322834645 -0.7182019685039362 -3.4926779527559053 -0.7182019685039362 -3.4926779527559053 C -0.7182019685039362 -3.4926779527559053 -0.9075346456692911 -3.5281350393700786 -0.9075346456692911 -3.5281350393700786 C -0.9075346456692911 -3.5281350393700786 -1.0796523622047243 -3.6146204724409445 -1.0796523622047243 -3.6146204724409445 C -1.0796523622047243 -3.6146204724409445 -1.221100787401574 -3.7453740157480313 -1.221100787401574 -3.7453740157480313 C -1.221100787401574 -3.7453740157480313 -1.3208240157480309 -3.910175590551181 -1.3208240157480309 -3.910175590551181 C -1.3208240157480309 -3.910175590551181 -1.375092519685039 -4.0183519685039375 -1.375092519685039 -4.0183519685039375 C -1.375092519685039 -4.0183519685039375 -1.413397637795275 -4.0830118110236215 -1.413397637795275 -4.0830118110236215 C -1.413397637795275 -4.0830118110236215 -1.4671326771653537 -4.135554330708661 -1.4671326771653537 -4.135554330708661 C -1.4671326771653537 -4.135554330708661 -1.5326358267716529 -4.172399212598425 -1.5326358267716529 -4.172399212598425 C -1.5326358267716529 -4.172399212598425 -1.6054429133858261 -4.191034645669291 -1.6054429133858261 -4.191034645669291 C -1.6054429133858261 -4.191034645669291 -1.6805929133858268 -4.190191338582676 -1.6805929133858268 -4.190191338582676 C -1.6805929133858268 -4.190191338582676 -1.7529633858267708 -4.169926771653542 -1.7529633858267708 -4.169926771653542 C -1.7529633858267708 -4.169926771653542 -1.8176236220472433 -4.131621653543307 -1.8176236220472433 -4.131621653543307 C -1.8176236220472433 -4.131621653543307 -1.8701661417322832 -4.077886614173228 -1.8701661417322832 -4.077886614173228 C -1.8701661417322832 -4.077886614173228 -1.907010629921259 -4.012383464566929 -1.907010629921259 -4.012383464566929 C -1.907010629921259 -4.012383464566929 -1.925646456692913 -3.9395763779527555 -1.925646456692913 -3.9395763779527555 C -1.925646456692913 -3.9395763779527555 -1.9248031496062987 -3.8644263779527557 -1.9248031496062987 -3.8644263779527557 C -1.9248031496062987 -3.8644263779527557 -1.9045385826771644 -3.792055905511811 -1.9045385826771644 -3.792055905511811 C -1.9045385826771644 -3.792055905511811 -1.8638519685039365 -3.678074015748031 -1.8638519685039365 -3.678074015748031 C -1.8638519685039365 -3.678074015748031 -1.8136496062992125 -3.4921066929133855 -1.8136496062992125 -3.4921066929133855 C -1.8136496062992125 -3.4921066929133855 -1.816890944881889 -3.299509448818897 -1.816890944881889 -3.299509448818897 C -1.816890944881889 -3.299509448818897 -1.873324015748031 -3.1153370078740155 -1.873324015748031 -3.1153370078740155 C -1.873324015748031 -3.1153370078740155 -1.9785366141732283 -2.953985039370078 -1.9785366141732283 -2.953985039370078 C -1.9785366141732283 -2.953985039370078 -3.0664669291338584 -1.7087488188976372 -3.0664669291338584 -1.7087488188976372 C -3.0664669291338584 -1.7087488188976372 -3.212235433070866 -1.5828291338582667 -3.212235433070866 -1.5828291338582667 C -3.212235433070866 -1.5828291338582667 -3.3871661417322834 -1.5021850393700777 -3.3871661417322834 -1.5021850393700777 C -3.3871661417322834 -1.5021850393700777 -3.5775850393700783 -1.4731196850393704 -3.5775850393700783 -1.4731196850393704 C -3.5775850393700783 -1.4731196850393704 -3.7686082677165347 -1.4979051181102356 -3.7686082677165347 -1.4979051181102356 C -3.7686082677165347 -1.4979051181102356 -3.88701968503937 -1.5229232283464564 -3.88701968503937 -1.5229232283464564 C -3.88701968503937 -1.5229232283464564 -3.96145590551181 -1.5332901574803146 -3.96145590551181 -1.5332901574803146 C -3.96145590551181 -1.5332901574803146 -4.036038582677165 -1.52403779527559 -4.036038582677165 -1.52403779527559 C -4.036038582677165 -1.52403779527559 -4.105685433070866 -1.4957976377952753 -4.105685433070866 -1.4957976377952753 C -4.105685433070866 -1.4957976377952753 -4.165649999999999 -1.4504940944881886 -4.165649999999999 -1.4504940944881886 C -4.165649999999999 -1.4504940944881886 -4.211845669291338 -1.391213779527558 -4.211845669291338 -1.391213779527558 C -4.211845669291338 -1.391213779527558 -4.2411248031496065 -1.3219972440944878 -4.2411248031496065 -1.3219972440944878 C -4.2411248031496065 -1.3219972440944878 -4.251491338582677 -1.247561023622047 -4.251491338582677 -1.247561023622047 C -4.251491338582677 -1.247561023622047 -4.242239370078739 -1.1729783464566923 -4.242239370078739 -1.1729783464566923 C -4.242239370078739 -1.1729783464566923 -4.2139992125984245 -1.103331496062992 -4.2139992125984245 -1.103331496062992 C -4.2139992125984245 -1.103331496062992 -4.16869527559055 -1.0433669291338576 -4.16869527559055 -1.0433669291338576 C -4.16869527559055 -1.0433669291338576 -4.109415354330708 -0.9971712598425194 -4.109415354330708 -0.9971712598425194 C -4.109415354330708 -0.9971712598425194 -4.040198818897638 -0.9678921259842517 -4.040198818897638 -0.9678921259842517 C -4.040198818897638 -0.9678921259842517 -3.9257165354330708 -0.928635826771653 -3.9257165354330708 -0.928635826771653 C -3.9257165354330708 -0.928635826771653 -3.749020472440944 -0.8519370078740153 -3.749020472440944 -0.8519370078740153 C -3.749020472440944 -0.8519370078740153 -3.600463385826771 -0.7293200787401571 -3.600463385826771 -0.7293200787401571 C -3.600463385826771 -0.7293200787401571 -3.491656692913385 -0.5703696850393697 -3.491656692913385 -0.5703696850393697 C -3.491656692913385 -0.5703696850393697 -3.4311055118110225 -0.38750984251968484 -3.4311055118110225 -0.38750984251968484 C -3.4311055118110225 -0.38750984251968484 -3.135853937007874 1.2394606299212603 -3.135853937007874 1.2394606299212603 C -3.135853937007874 1.2394606299212603 -3.1282917322834645 1.4319366141732288 -3.1282917322834645 1.4319366141732288 C -3.1282917322834645 1.4319366141732288 -3.1743090551181097 1.6189834645669297 -3.1743090551181097 1.6189834645669297 C -3.1743090551181097 1.6189834645669297 -3.2703090551181093 1.785981102362205 -3.2703090551181093 1.785981102362205 C -3.2703090551181093 1.785981102362205 -3.408788188976377 1.919875590551182 -3.408788188976377 1.919875590551182 C -3.408788188976377 1.919875590551182 -3.5021763779527553 1.9968551181102365 -3.5021763779527553 1.9968551181102365 C -3.5021763779527553 1.9968551181102365 -3.556691338582677 2.0485877952755907 -3.556691338582677 2.0485877952755907 C -3.556691338582677 2.0485877952755907 -3.5959594488188973 2.112667322834646 -3.5959594488188973 2.112667322834646 C -3.5959594488188973 2.112667322834646 -3.6173047244094483 2.184727165354331 -3.6173047244094483 2.184727165354331 C -3.6173047244094483 2.184727165354331 -3.619272047244094 2.259855905511811 -3.619272047244094 2.259855905511811 C -3.619272047244094 2.259855905511811 -3.601727559055118 2.33293346456693 -3.601727559055118 2.33293346456693 C -3.601727559055118 2.33293346456693 -3.5658669291338576 2.3989807086614174 -3.5658669291338576 2.3989807086614174 C -3.5658669291338576 2.3989807086614174 -3.5141338582677157 2.453495669291339 -3.5141338582677157 2.453495669291339 C -3.5141338582677157 2.453495669291339 -3.4500543307086606 2.4927637795275595 -3.4500543307086606 2.4927637795275595 C -3.4500543307086606 2.4927637795275595 -3.377994881889763 2.514108661417323 -3.377994881889763 2.514108661417323 C -3.377994881889763 2.514108661417323 -3.302866141732283 2.5160759842519687 -3.302866141732283 2.5160759842519687 C -3.302866141732283 2.5160759842519687 -3.2297881889763778 2.4985318897637803 -3.2297881889763778 2.4985318897637803 C -3.2297881889763778 2.4985318897637803 -3.1637409448818894 2.4626712598425198 -3.1637409448818894 2.4626712598425198 C -3.1637409448818894 2.4626712598425198 -3.061670866141732 2.397641338582677 -3.061670866141732 2.397641338582677 C -3.061670866141732 2.397641338582677 -2.891537007874015 2.307315748031496 -2.891537007874015 2.307315748031496 C -2.891537007874015 2.307315748031496 -2.703047244094488 2.267619291338583 -2.703047244094488 2.267619291338583 C -2.703047244094488 2.267619291338583 -2.5109350393700787 2.281655118110237 -2.5109350393700787 2.281655118110237 C -2.5109350393700787 2.281655118110237 -2.330216535433071 2.348325590551181 -2.330216535433071 2.348325590551181 C -2.330216535433071 2.348325590551181 -0.8741133858267709 3.13188779527559 -0.8741133858267709 3.13188779527559 C -0.8741133858267709 3.13188779527559 -0.7189145669291332 3.2459822834645675 -0.7189145669291332 3.2459822834645675 C -0.7189145669291332 3.2459822834645675 -0.6013669291338584 3.3985818897637796 -0.6013669291338584 3.3985818897637796 C -0.6013669291338584 3.3985818897637796 -0.5306578740157472 3.57775905511811 -0.5306578740157472 3.57775905511811 C -0.5306578740157472 3.57775905511811 -0.5123153543307087 3.7695082677165352 -0.5123153543307087 3.7695082677165352 C -0.5123153543307087 3.7695082677165352 -0.5103570866141728 3.8905181102362207 -0.5103570866141728 3.8905181102362207 C -0.5103570866141728 3.8905181102362207 -0.5038999999999999 3.9653944881889767 -0.5038999999999999 3.9653944881889767 C -0.5038999999999999 3.9653944881889767 -0.4782838582677159 4.036048425196851 -0.4782838582677159 4.036048425196851 C -0.4782838582677159 4.036048425196851 -0.4352539370078732 4.097665354330709 -0.4352539370078732 4.097665354330709 C -0.4352539370078732 4.097665354330709 -0.3777425196850384 4.146045275590551 -0.3777425196850384 4.146045275590551 C -0.3777425196850384 4.146045275590551 -0.3096692913385827 4.177891732283465 -0.3096692913385827 4.177891732283465 C -0.3096692913385827 4.177891732283465 -0.2356728346456689 4.1910346456692915 -0.2356728346456689 4.1910346456692915 C -0.2356728346456689 4.1910346456692915 -0.1607960629921255 4.184577559055119 -0.1607960629921255 4.184577559055119 C -0.1607960629921255 4.184577559055119 -0.09014212598425125 4.158961417322835 -0.09014212598425125 4.158961417322835 C -0.09014212598425125 4.158961417322835 -0.02852559055118085 4.115931496062993 -0.02852559055118085 4.115931496062993 C -0.02852559055118085 4.115931496062993 0.019854330708661442 4.058420078740158 0.019854330708661442 4.058420078740158 C 0.019854330708661442 4.058420078740158 0.05170118110236269 3.990346456692914 0.05170118110236269 3.990346456692914 C 0.05170118110236269 3.990346456692914 0.06484370078740216 3.9163503937007875 0.06484370078740216 3.9163503937007875 C 0.06484370078740216 3.9163503937007875 0.07764133858267751 3.7960031496063 0.07764133858267751 3.7960031496063 C 0.07764133858267751 3.7960031496063 0.11309842519685075 3.606670472440945 0.11309842519685075 3.606670472440945 C 0.11309842519685075 3.606670472440945 0.19958385826771696 3.4345527559055116 0.19958385826771696 3.4345527559055116 C 0.19958385826771696 3.4345527559055116 0.33033740157480357 3.2931043307086623 0.33033740157480357 3.2931043307086623 C 0.33033740157480357 3.2931043307086623 0.49513897637795296 3.1933811023622054 0.49513897637795296 3.1933811023622054 C 0.49513897637795296 3.1933811023622054 2.0156181102362205 2.543497244094489 2.0156181102362205 2.543497244094489 C 2.0156181102362205 2.543497244094489 2.201585433070867 2.493294488188976 2.201585433070867 2.493294488188976 C 2.201585433070867 2.493294488188976 2.394182677165355 2.4965362204724415 2.394182677165355 2.4965362204724415 C 2.394182677165355 2.4965362204724415 2.578355118110236 2.552968897637796 2.578355118110236 2.552968897637796 C 2.578355118110236 2.552968897637796 2.7397070866141733 2.6581818897637794 2.7397070866141733 2.6581818897637794 C 2.7397070866141733 2.6581818897637794 2.835537401574803 2.732099212598425 2.835537401574803 2.732099212598425 C 2.835537401574803 2.732099212598425 2.8981039370078747 2.773735826771653 2.8981039370078747 2.773735826771653 C 2.8981039370078747 2.773735826771653 2.969314960629922 2.7977602362204723 2.969314960629922 2.7977602362204723 C 2.969314960629922 2.7977602362204723 3.044317716535433 2.802535039370079 3.044317716535433 2.802535039370079 C 3.044317716535433 2.802535039370079 3.118000393700788 2.7877354330708664 3.118000393700788 2.7877354330708664 C 3.118000393700788 2.7877354330708664 3.185342125984252 2.7543696850393706 3.185342125984252 2.7543696850393706 C 3.185342125984252 2.7543696850393706 3.2417535433070865 2.7047114173228346 3.2417535433070865 2.7047114173228346 C 3.2417535433070865 2.7047114173228346 3.283390157480315 2.6421444881889773 3.283390157480315 2.6421444881889773 C 3.283390157480315 2.6421444881889773 3.307414566929135 2.5709334645669295 3.307414566929135 2.5709334645669295 C 3.307414566929135 2.5709334645669295 3.312189763779528 2.4959311023622046 3.312189763779528 2.4959311023622046 C 3.312189763779528 2.4959311023622046 3.297389763779528 2.4222480314960633 3.297389763779528 2.4222480314960633 C 3.297389763779528 2.4222480314960633 3.2640240157480322 2.3549066929133855 3.2640240157480322 2.3549066929133855 C 3.2640240157480322 2.3549066929133855 3.214365748031496 2.298495275590552 3.214365748031496 2.298495275590552 C 3.214365748031496 2.298495275590552 3.1282535433070864 2.213454330708662 3.1282535433070864 2.213454330708662 C 3.1282535433070864 2.213454330708662 3.0023342519685046 2.0676858267716542 3.0023342519685046 2.0676858267716542 C 3.0023342519685046 2.0676858267716542 2.921690157480316 1.892755118110237 2.921690157480316 1.892755118110237 C 2.921690157480316 1.892755118110237 2.8926248031496073 1.7023362204724408 2.8926248031496073 1.7023362204724408 C 2.8926248031496073 1.7023362204724408 2.9174102362204732 1.5113129921259842 2.9174102362204732 1.5113129921259842 C 2.9174102362204732 1.5113129921259842 3.3573137795275594 -0.08264133858267676 3.3573137795275594 -0.08264133858267676 C 3.3573137795275594 -0.08264133858267676 3.4340125984251975 -0.2593374015748026 3.4340125984251975 -0.2593374015748026 C 3.4340125984251975 -0.2593374015748026 3.556629133858268 -0.40789488188976364 3.556629133858268 -0.40789488188976364 C 3.556629133858268 -0.40789488188976364 3.7155799212598426 -0.5167015748031494 3.7155799212598426 -0.5167015748031494 C 3.7155799212598426 -0.5167015748031494 3.8984397637795283 -0.5772523622047239 3.8984397637795283 -0.5772523622047239 C 3.8984397637795283 -0.5772523622047239 4.015979921259842 -0.6060889763779522 4.015979921259842 -0.6060889763779522 C 4.015979921259842 -0.6060889763779522 4.08754251968504 -0.6290452755905507 4.08754251968504 -0.6290452755905507 C 4.08754251968504 -0.6290452755905507 4.150724803149607 -0.6697413385826768 4.150724803149607 -0.6697413385826768 C 4.150724803149607 -0.6697413385826768 4.201221653543308 -0.7254035433070862 4.201221653543308 -0.7254035433070862 C 4.201221653543308 -0.7254035433070862 4.23559094488189 -0.7922385826771648 4.23559094488189 -0.7922385826771648 C 4.23559094488189 -0.7922385826771648 4.251491338582678 -0.8656917322834644 4.251491338582678 -0.8656917322834644 C 4.251491338582678 -0.8656917322834644 4.247838976377953 -0.9407574803149601 4.247838976377953 -0.9407574803149601 C 4.247838976377953 -0.9407574803149601 4.224882283464567 -1.0123196850393699 4.224882283464567 -1.0123196850393699 C 4.224882283464567 -1.0123196850393699 4.184186220472442 -1.0755023622047242 4.184186220472442 -1.0755023622047242 C 4.184186220472442 -1.0755023622047242 4.128524015748032 -1.1259988188976378 4.128524015748032 -1.1259988188976378 C 4.128524015748032 -1.1259988188976378 4.061688976377953 -1.1603685039370073 4.061688976377953 -1.1603685039370073 C 4.061688976377953 -1.1603685039370073 3.9882358267716542 -1.176268897637795 3.9882358267716542 -1.176268897637795 C 3.9882358267716542 -1.176268897637795 3.913170472440945 -1.1726165354330707 3.913170472440945 -1.1726165354330707" stroke-width="0.01"></path></g></g><g fill="none" stroke="rgb(-11,-11,-11)"><g transform="matrix(1,0,0,-1,8.14834842519685,4.7473374015748036)"><path class="outline" d="M 0.42322834645669233 0 C 0.42322834645669233 0 0.42161783482229326 -0.03688678088729588 0.42161783482229326 -0.03688678088729588 C 0.42161783482229326 -0.03688678088729588 0.4167985568850875 -0.07349283109919295 0.4167985568850875 -0.07349283109919295 C 0.4167985568850875 -0.07349283109919295 0.408807190260137 -0.10953955649023978 0.408807190260137 -0.10953955649023978 C 0.408807190260137 -0.10953955649023978 0.3977045540727757 -0.14475261971460357 0.3977045540727757 -0.14475261971460357 C 0.3977045540727757 -0.14475261971460357 0.3835751460883453 -0.1788640280989178 0.3835751460883453 -0.1788640280989178 C 0.3835751460883453 -0.1788640280989178 0.36652649963317757 -0.21161417322834644 0.36652649963317757 -0.21161417322834644 C 0.36652649963317757 -0.21161417322834644 0.3466883652010494 -0.24275380672337546 0.3466883652010494 -0.24275380672337546 C 0.3466883652010494 -0.24275380672337546 0.32421172297358275 -0.2720459371704839 0.32421172297358275 -0.2720459371704839 C 0.32421172297358275 -0.2720459371704839 0.2992676337698967 -0.2992676337698967 0.2992676337698967 -0.2992676337698967 C 0.2992676337698967 -0.2992676337698967 0.2720459371704839 -0.32421172297358275 0.2720459371704839 -0.32421172297358275 C 0.2720459371704839 -0.32421172297358275 0.24275380672337546 -0.3466883652010494 0.24275380672337546 -0.3466883652010494 C 0.24275380672337546 -0.3466883652010494 0.21161417322834644 -0.36652649963317757 0.21161417322834644 -0.36652649963317757 C 0.21161417322834644 -0.36652649963317757 0.1788640280989178 -0.3835751460883453 0.1788640280989178 -0.3835751460883453 C 0.1788640280989178 -0.3835751460883453 0.14475261971460415 -0.3977045540727757 0.14475261971460415 -0.3977045540727757 C 0.14475261971460415 -0.3977045540727757 0.10953955649024033 -0.408807190260137 0.10953955649024033 -0.408807190260137 C 0.10953955649024033 -0.408807190260137 0.07349283109919295 -0.4167985568850875 0.07349283109919295 -0.4167985568850875 C 0.07349283109919295 -0.4167985568850875 0.036886780887296994 -0.42161783482229326 0.036886780887296994 -0.42161783482229326 C 0.036886780887296994 -0.42161783482229326 0 -0.42322834645669233 0 -0.42322834645669233 C 0 -0.42322834645669233 -0.03688678088729588 -0.42161783482229326 -0.03688678088729588 -0.42161783482229326 C -0.03688678088729588 -0.42161783482229326 -0.0734928310991924 -0.4167985568850875 -0.0734928310991924 -0.4167985568850875 C -0.0734928310991924 -0.4167985568850875 -0.10953955649023978 -0.408807190260137 -0.10953955649023978 -0.408807190260137 C -0.10953955649023978 -0.408807190260137 -0.14475261971460357 -0.3977045540727757 -0.14475261971460357 -0.3977045540727757 C -0.14475261971460357 -0.3977045540727757 -0.17886402809891724 -0.38357514608834586 -0.17886402809891724 -0.38357514608834586 C -0.17886402809891724 -0.38357514608834586 -0.21161417322834533 -0.36652649963317757 -0.21161417322834533 -0.36652649963317757 C -0.21161417322834533 -0.36652649963317757 -0.2427538067233749 -0.3466883652010494 -0.2427538067233749 -0.3466883652010494 C -0.2427538067233749 -0.3466883652010494 -0.27204593717048337 -0.3242117229735833 -0.27204593717048337 -0.3242117229735833 C -0.27204593717048337 -0.3242117229735833 -0.2992676337698961 -0.29926763376989723 -0.2992676337698961 -0.29926763376989723 C -0.2992676337698961 -0.29926763376989723 -0.32421172297358275 -0.2720459371704845 -0.32421172297358275 -0.2720459371704845 C -0.32421172297358275 -0.2720459371704845 -0.3466883652010494 -0.24275380672337601 -0.3466883652010494 -0.24275380672337601 C -0.3466883652010494 -0.24275380672337601 -0.36652649963317646 -0.21161417322834702 -0.36652649963317646 -0.21161417322834702 C -0.36652649963317646 -0.21161417322834702 -0.3835751460883453 -0.17886402809891835 -0.3835751460883453 -0.17886402809891835 C -0.3835751460883453 -0.17886402809891835 -0.39770455407277516 -0.1447526197146047 -0.39770455407277516 -0.1447526197146047 C -0.39770455407277516 -0.1447526197146047 -0.408807190260137 -0.10953955649024089 -0.408807190260137 -0.10953955649024089 C -0.408807190260137 -0.10953955649024089 -0.41679855688508693 -0.07349283109919351 -0.41679855688508693 -0.07349283109919351 C -0.41679855688508693 -0.07349283109919351 -0.42161783482229326 -0.036886780887296994 -0.42161783482229326 -0.036886780887296994 C -0.42161783482229326 -0.036886780887296994 -0.4232283464566929 -1.1189649382048822e-15 -0.4232283464566929 -1.1189649382048822e-15 C -0.4232283464566929 -1.1189649382048822e-15 -0.42161783482229326 0.03688678088729475 -0.42161783482229326 0.03688678088729475 C -0.42161783482229326 0.03688678088729475 -0.41679855688508805 0.07349283109919127 -0.41679855688508805 0.07349283109919127 C -0.41679855688508805 0.07349283109919127 -0.408807190260137 0.10953955649023865 -0.408807190260137 0.10953955649023865 C -0.408807190260137 0.10953955649023865 -0.3977045540727763 0.14475261971460246 -0.3977045540727763 0.14475261971460246 C -0.3977045540727763 0.14475261971460246 -0.3835751460883464 0.17886402809891724 -0.3835751460883464 0.17886402809891724 C -0.3835751460883464 0.17886402809891724 -0.36652649963317757 0.21161417322834533 -0.36652649963317757 0.21161417322834533 C -0.36652649963317757 0.21161417322834533 -0.3466883652010505 0.2427538067233749 -0.3466883652010505 0.2427538067233749 C -0.3466883652010505 0.2427538067233749 -0.3242117229735839 0.27204593717048337 -0.3242117229735839 0.27204593717048337 C -0.3242117229735839 0.27204593717048337 -0.29926763376989723 0.2992676337698961 -0.29926763376989723 0.2992676337698961 C -0.29926763376989723 0.2992676337698961 -0.2720459371704845 0.32421172297358164 -0.2720459371704845 0.32421172297358164 C -0.2720459371704845 0.32421172297358164 -0.24275380672337715 0.3466883652010483 -0.24275380672337715 0.3466883652010483 C -0.24275380672337715 0.3466883652010483 -0.21161417322834758 0.36652649963317646 -0.21161417322834758 0.36652649963317646 C -0.21161417322834758 0.36652649963317646 -0.17886402809891946 0.3835751460883453 -0.17886402809891946 0.3835751460883453 C -0.17886402809891946 0.3835751460883453 -0.1447526197146047 0.39770455407277516 -0.1447526197146047 0.39770455407277516 C -0.1447526197146047 0.39770455407277516 -0.10953955649024089 0.4088071902601359 -0.10953955649024089 0.4088071902601359 C -0.10953955649024089 0.4088071902601359 -0.07349283109919463 0.41679855688508693 -0.07349283109919463 0.41679855688508693 C -0.07349283109919463 0.41679855688508693 -0.03688678088729811 0.42161783482229326 -0.03688678088729811 0.42161783482229326 C -0.03688678088729811 0.42161783482229326 -1.1189649382048822e-15 0.4232283464566929 -1.1189649382048822e-15 0.4232283464566929 C -1.1189649382048822e-15 0.4232283464566929 0.03688678088729475 0.42161783482229326 0.03688678088729475 0.42161783482229326 C 0.03688678088729475 0.42161783482229326 0.07349283109919127 0.41679855688508805 0.07349283109919127 0.41679855688508805 C 0.07349283109919127 0.41679855688508805 0.1095395564902381 0.408807190260137 0.1095395564902381 0.408807190260137 C 0.1095395564902381 0.408807190260137 0.1447526197146019 0.3977045540727763 0.1447526197146019 0.3977045540727763 C 0.1447526197146019 0.3977045540727763 0.1788640280989161 0.3835751460883464 0.1788640280989161 0.3835751460883464 C 0.1788640280989161 0.3835751460883464 0.21161417322834478 0.36652649963317874 0.21161417322834478 0.36652649963317874 C 0.21161417322834478 0.36652649963317874 0.2427538067233738 0.3466883652010505 0.2427538067233738 0.3466883652010505 C 0.2427538067233738 0.3466883652010505 0.27204593717048225 0.3242117229735839 0.27204593717048225 0.3242117229735839 C 0.27204593717048225 0.3242117229735839 0.29926763376989557 0.2992676337698984 0.29926763376989557 0.2992676337698984 C 0.29926763376989557 0.2992676337698984 0.32421172297358164 0.2720459371704856 0.32421172297358164 0.2720459371704856 C 0.32421172297358164 0.2720459371704856 0.3466883652010483 0.24275380672337715 0.3466883652010483 0.24275380672337715 C 0.3466883652010483 0.24275380672337715 0.36652649963317646 0.21161417322834758 0.36652649963317646 0.21161417322834758 C 0.36652649963317646 0.21161417322834758 0.38357514608834475 0.17886402809891946 0.38357514608834475 0.17886402809891946 C 0.38357514608834475 0.17886402809891946 0.39770455407277516 0.14475261971460582 0.39770455407277516 0.14475261971460582 C 0.39770455407277516 0.14475261971460582 0.4088071902601359 0.10953955649024201 0.4088071902601359 0.10953955649024201 C 0.4088071902601359 0.10953955649024201 0.41679855688508693 0.07349283109919463 0.41679855688508693 0.07349283109919463 C 0.41679855688508693 0.07349283109919463 0.42161783482229326 0.03688678088729811 0.42161783482229326 0.03688678088729811 C 0.42161783482229326 0.03688678088729811 0.42322834645669233 0 0.42322834645669233 0" stroke-width="0.01"></path></g></g><g fill="none" stroke="rgb(-11,-11,-11)"><g transform="matrix(1,0,0,-1,8.1570031496063,4.714656692913386)"><path class="outline" d="M 2.119323790943253 -2.739021817182003 C 2.119323790943253 -2.739021817182003 1.4829124978106636 -2.0633410119081854 1.4829124978106636 -2.0633410119081854 C 1.4829124978106636 -2.0633410119081854 0.8659423454487685 -2.3953467540325537 0.8659423454487685 -2.3953467540325537 C 0.8659423454487685 -2.3953467540325537 1.079250289919981 -3.298709142815501 1.079250289919981 -3.298709142815501 C 1.079250289919981 -3.298709142815501 0.9657951608297055 -3.2878560044480274 0.9657951608297055 -3.2878560044480274 C 0.9657951608297055 -3.2878560044480274 -0.6860831856269868 -3.3620422249204682 -0.6860831856269868 -3.3620422249204682 C -0.6860831856269868 -3.3620422249204682 -0.7981086356342268 -3.3830215209970897 -0.7981086356342268 -3.3830215209970897 C -0.7981086356342268 -3.3830215209970897 -0.6666360610277037 -2.4641750448279187 -0.6666360610277037 -2.4641750448279187 C -0.6666360610277037 -2.4641750448279187 -1.3108832006295699 -2.1888105503413775 -1.3108832006295699 -2.1888105503413775 C -1.3108832006295699 -2.1888105503413775 -1.8841650282243492 -2.9188186535784255 -1.8841650282243492 -2.9188186535784255 C -1.8841650282243492 -2.9188186535784255 -1.9464178312962785 -2.823349311534642 -1.9464178312962785 -2.823349311534642 C -1.9464178312962785 -2.823349311534642 -3.0343481462569084 -1.578113091062201 -3.0343481462569084 -1.578113091062201 C -3.0343481462569084 -1.578113091062201 -3.1205972443599865 -1.5036082496544676 -3.1205972443599865 -1.5036082496544676 C -3.1205972443599865 -1.5036082496544676 -2.3202423322448404 -1.033506240197662 -2.3202423322448404 -1.033506240197662 C -2.3202423322448404 -1.033506240197662 -2.5066352227197903 -0.35812658986060725 -2.5066352227197903 -0.35812658986060725 C -2.5066352227197903 -0.35812658986060725 -3.434813913383569 -0.365069416362733 -3.434813913383569 -0.365069416362733 C -3.434813913383569 -0.365069416362733 -3.3989867289340725 -0.256874114684249 -3.3989867289340725 -0.256874114684249 C -3.3989867289340725 -0.256874114684249 -3.103735154130924 1.3700963577566958 -3.103735154130924 1.3700963577566958 C -3.103735154130924 1.3700963577566958 -3.099260742729683 1.48398147048079 -3.099260742729683 1.48398147048079 C -3.099260742729683 1.48398147048079 -2.2327070661935333 1.1513426117708496 -2.2327070661935333 1.1513426117708496 C -2.2327070661935333 1.1513426117708496 -1.820888059291873 1.7181627660204555 -1.820888059291873 1.7181627660204555 C -1.820888059291873 1.7181627660204555 -2.405026127560011 2.439513306217204 -2.405026127560011 2.439513306217204 C -2.405026127560011 2.439513306217204 -2.2980977525561213 2.4789613183866166 -2.2980977525561213 2.4789613183866166 C -2.2980977525561213 2.4789613183866166 -0.8419946029498213 3.2625235231110254 -0.8419946029498213 3.2625235231110254 C -0.8419946029498213 3.2625235231110254 -0.750165951656251 3.3300316444228093 -0.750165951656251 3.3300316444228093 C -0.750165951656251 3.3300316444228093 -0.46994610360443606 2.4451357627508528 -0.46994610360443606 2.4451357627508528 C -0.46994610360443606 2.4451357627508528 0.22997668890006814 2.4765692837390416 0.22997668890006814 2.4765692837390416 C 0.22997668890006814 2.4765692837390416 0.42974712267855586 3.3830215209970893 0.42974712267855586 3.3830215209970893 C 0.42974712267855586 3.3830215209970893 0.5272577592549023 3.3240168301976403 0.5272577592549023 3.3240168301976403 C 0.5272577592549023 3.3240168301976403 2.0477368931131696 2.6741329719299243 2.0477368931131696 2.6741329719299243 C 2.0477368931131696 2.6741329719299243 2.157770838380957 2.6444288386323334 2.157770838380957 2.6444288386323334 C 2.157770838380957 2.6444288386323334 1.6406455969222293 1.8736205814837585 1.6406455969222293 1.8736205814837585 C 1.6406455969222293 1.8736205814837585 2.101616036450656 1.3459973867794477 2.101616036450656 1.3459973867794477 C 2.101616036450656 1.3459973867794477 2.9348637610663624 1.754974298187554 2.9348637610663624 1.754974298187554 C 2.9348637610663624 1.754974298187554 2.949529019097422 1.6419487199614198 2.949529019097422 1.6419487199614198 C 2.949529019097422 1.6419487199614198 3.389432562404508 0.04799438925275907 3.389432562404508 0.04799438925275907 C 3.389432562404508 0.04799438925275907 3.4348139133835685 -0.056554050381874305 3.4348139133835685 -0.056554050381874305 C 3.4348139133835685 -0.056554050381874305 2.5097494366652477 -0.1328403437512056 2.5097494366652477 -0.1328403437512056 C 2.5097494366652477 -0.1328403437512056 2.3846473801693713 -0.8222092269839143 2.3846473801693713 -0.8222092269839143 C 2.3846473801693713 -0.8222092269839143 3.2239198638306545 -1.2186755973246888 3.2239198638306545 -1.2186755973246888 C 3.2239198638306545 -1.2186755973246888 3.1446967356328552 -1.300611516259052 3.1446967356328552 -1.300611516259052 C 3.1446967356328552 -1.300611516259052 2.172768389176162 -2.638356398148815 2.172768389176162 -2.638356398148815 C 2.172768389176162 -2.638356398148815 2.119323790943253 -2.739021817182003 2.119323790943253 -2.739021817182003" stroke-width="0.01"></path></g></g><g fill="none" stroke="rgb(-11,-11,-11)"><g transform="matrix(1,0,0,-1,8.148971145081674,4.74662293358189)"><path class="outline" d="M 0.4330708661417316 0 C 0.4330708661417316 0 0.4314229007483931 -0.037744613000953886 0.4314229007483931 -0.037744613000953886 C 0.4314229007483931 -0.037744613000953886 0.4264915465800895 -0.07520196670615067 0.4264915465800895 -0.07520196670615067 C 0.4264915465800895 -0.07520196670615067 0.41831433421967473 -0.1120869880365246 0.41831433421967473 -0.1120869880365246 C 0.41831433421967473 -0.1120869880365246 0.4069534971907474 -0.14811895970796643 0.4069534971907474 -0.14811895970796643 C 0.4069534971907474 -0.14811895970796643 0.3924954983229581 -0.1830236566593577 0.3924954983229581 -0.1830236566593577 C 0.3924954983229581 -0.1830236566593577 0.37505037171766986 -0.2165354330708661 0.37505037171766986 -0.2165354330708661 C 0.37505037171766986 -0.2165354330708661 0.3547508853220042 -0.24839924408903546 0.3547508853220042 -0.24839924408903546 C 0.3547508853220042 -0.24839924408903546 0.3317515304845962 -0.278372586872123 0.3317515304845962 -0.278372586872123 C 0.3317515304845962 -0.278372586872123 0.3062273461831501 -0.3062273461831501 0.3062273461831501 -0.3062273461831501 C 0.3062273461831501 -0.3062273461831501 0.278372586872123 -0.3317515304845962 0.278372586872123 -0.3317515304845962 C 0.278372586872123 -0.3317515304845962 0.24839924408903546 -0.3547508853220042 0.24839924408903546 -0.3547508853220042 C 0.24839924408903546 -0.3547508853220042 0.2165354330708661 -0.37505037171766986 0.2165354330708661 -0.37505037171766986 C 0.2165354330708661 -0.37505037171766986 0.1830236566593577 -0.3924954983229581 0.1830236566593577 -0.3924954983229581 C 0.1830236566593577 -0.3924954983229581 0.148118959707967 -0.4069534971907474 0.148118959707967 -0.4069534971907474 C 0.148118959707967 -0.4069534971907474 0.1120869880365246 -0.41831433421967473 0.1120869880365246 -0.41831433421967473 C 0.1120869880365246 -0.41831433421967473 0.07520196670615123 -0.4264915465800895 0.07520196670615123 -0.4264915465800895 C 0.07520196670615123 -0.4264915465800895 0.037744613000955 -0.4314229007483931 0.037744613000955 -0.4314229007483931 C 0.037744613000955 -0.4314229007483931 0 -0.4330708661417316 0 -0.4330708661417316 C 0 -0.4330708661417316 -0.037744613000953886 -0.4314229007483931 -0.037744613000953886 -0.4314229007483931 C -0.037744613000953886 -0.4314229007483931 -0.0752019667061501 -0.4264915465800895 -0.0752019667061501 -0.4264915465800895 C -0.0752019667061501 -0.4264915465800895 -0.1120869880365246 -0.41831433421967473 -0.1120869880365246 -0.41831433421967473 C -0.1120869880365246 -0.41831433421967473 -0.14811895970796587 -0.4069534971907474 -0.14811895970796587 -0.4069534971907474 C -0.14811895970796587 -0.4069534971907474 -0.1830236566593571 -0.3924954983229581 -0.1830236566593571 -0.3924954983229581 C -0.1830236566593571 -0.3924954983229581 -0.21653543307086498 -0.37505037171766986 -0.21653543307086498 -0.37505037171766986 C -0.21653543307086498 -0.37505037171766986 -0.24839924408903546 -0.3547508853220042 -0.24839924408903546 -0.3547508853220042 C -0.24839924408903546 -0.3547508853220042 -0.278372586872123 -0.33175153048459677 -0.278372586872123 -0.33175153048459677 C -0.278372586872123 -0.33175153048459677 -0.30622734618314956 -0.3062273461831507 -0.30622734618314956 -0.3062273461831507 C -0.30622734618314956 -0.3062273461831507 -0.3317515304845962 -0.2783725868721236 -0.3317515304845962 -0.2783725868721236 C -0.3317515304845962 -0.2783725868721236 -0.3547508853220031 -0.24839924408903602 -0.3547508853220031 -0.24839924408903602 C -0.3547508853220031 -0.24839924408903602 -0.37505037171766986 -0.21653543307086667 -0.37505037171766986 -0.21653543307086667 C -0.37505037171766986 -0.21653543307086667 -0.3924954983229581 -0.1830236566593588 -0.3924954983229581 -0.1830236566593588 C -0.3924954983229581 -0.1830236566593588 -0.4069534971907474 -0.14811895970796757 -0.4069534971907474 -0.14811895970796757 C -0.4069534971907474 -0.14811895970796757 -0.4183143342196742 -0.11208698803652573 -0.4183143342196742 -0.11208698803652573 C -0.4183143342196742 -0.11208698803652573 -0.42649154658009003 -0.07520196670615178 -0.42649154658009003 -0.07520196670615178 C -0.42649154658009003 -0.07520196670615178 -0.43142290074839257 -0.037744613000955 -0.43142290074839257 -0.037744613000955 C -0.43142290074839257 -0.037744613000955 -0.4330708661417322 -1.118964938204882e-15 -0.4330708661417322 -1.118964938204882e-15 C -0.4330708661417322 -1.118964938204882e-15 -0.4314229007483937 0.03774461300095277 -0.4314229007483937 0.03774461300095277 C -0.4314229007483937 0.03774461300095277 -0.42649154658009003 0.0752019667061501 -0.42649154658009003 0.0752019667061501 C -0.42649154658009003 0.0752019667061501 -0.4183143342196753 0.11208698803652349 -0.4183143342196753 0.11208698803652349 C -0.4183143342196753 0.11208698803652349 -0.4069534971907474 0.14811895970796587 -0.4069534971907474 0.14811895970796587 C -0.4069534971907474 0.14811895970796587 -0.3924954983229592 0.1830236566593571 -0.3924954983229592 0.1830236566593571 C -0.3924954983229592 0.1830236566593571 -0.37505037171767097 0.21653543307086498 -0.37505037171767097 0.21653543307086498 C -0.37505037171767097 0.21653543307086498 -0.3547508853220042 0.24839924408903435 -0.3547508853220042 0.24839924408903435 C -0.3547508853220042 0.24839924408903435 -0.3317515304845973 0.2783725868721219 -0.3317515304845973 0.2783725868721219 C -0.3317515304845973 0.2783725868721219 -0.3062273461831507 0.30622734618314956 -0.3062273461831507 0.30622734618314956 C -0.3062273461831507 0.30622734618314956 -0.27837258687212413 0.3317515304845951 -0.27837258687212413 0.3317515304845951 C -0.27837258687212413 0.3317515304845951 -0.24839924408903657 0.3547508853220031 -0.24839924408903657 0.3547508853220031 C -0.24839924408903657 0.3547508853220031 -0.21653543307086723 0.37505037171766875 -0.21653543307086723 0.37505037171766875 C -0.21653543307086723 0.37505037171766875 -0.18302365665935935 0.3924954983229581 -0.18302365665935935 0.3924954983229581 C -0.18302365665935935 0.3924954983229581 -0.14811895970796812 0.4069534971907463 -0.14811895970796812 0.4069534971907463 C -0.14811895970796812 0.4069534971907463 -0.11208698803652573 0.4183143342196742 -0.11208698803652573 0.4183143342196742 C -0.11208698803652573 0.4183143342196742 -0.07520196670615234 0.4264915465800889 -0.07520196670615234 0.4264915465800889 C -0.07520196670615234 0.4264915465800889 -0.03774461300095612 0.43142290074839257 -0.03774461300095612 0.43142290074839257 C -0.03774461300095612 0.43142290074839257 -1.118964938204882e-15 0.4330708661417322 -1.118964938204882e-15 0.4330708661417322 C -1.118964938204882e-15 0.4330708661417322 0.03774461300095277 0.4314229007483937 0.03774461300095277 0.4314229007483937 C 0.03774461300095277 0.4314229007483937 0.075201966706149 0.42649154658009003 0.075201966706149 0.42649154658009003 C 0.075201966706149 0.42649154658009003 0.11208698803652292 0.4183143342196753 0.11208698803652292 0.4183143342196753 C 0.11208698803652292 0.4183143342196753 0.14811895970796476 0.4069534971907474 0.14811895970796476 0.4069534971907474 C 0.14811895970796476 0.4069534971907474 0.183023656659356 0.3924954983229592 0.183023656659356 0.3924954983229592 C 0.183023656659356 0.3924954983229592 0.21653543307086442 0.37505037171767097 0.21653543307086442 0.37505037171767097 C 0.21653543307086442 0.37505037171767097 0.2483992440890338 0.3547508853220053 0.2483992440890338 0.3547508853220053 C 0.2483992440890338 0.3547508853220053 0.27837258687212135 0.3317515304845973 0.27837258687212135 0.3317515304845973 C 0.27837258687212135 0.3317515304845973 0.30622734618314845 0.3062273461831518 0.30622734618314845 0.3062273461831518 C 0.30622734618314845 0.3062273461831518 0.3317515304845951 0.27837258687212413 0.3317515304845951 0.27837258687212413 C 0.3317515304845951 0.27837258687212413 0.3547508853220025 0.24839924408903657 0.3547508853220025 0.24839924408903657 C 0.3547508853220025 0.24839924408903657 0.37505037171766875 0.21653543307086723 0.37505037171766875 0.21653543307086723 C 0.37505037171766875 0.21653543307086723 0.39249549832295694 0.18302365665935935 0.39249549832295694 0.18302365665935935 C 0.39249549832295694 0.18302365665935935 0.4069534971907463 0.14811895970796923 0.4069534971907463 0.14811895970796923 C 0.4069534971907463 0.14811895970796923 0.4183143342196742 0.11208698803652684 0.4183143342196742 0.11208698803652684 C 0.4183143342196742 0.11208698803652684 0.4264915465800889 0.07520196670615346 0.4264915465800889 0.07520196670615346 C 0.4264915465800889 0.07520196670615346 0.4314229007483931 0.03774461300095612 0.4314229007483931 0.03774461300095612 C 0.4314229007483931 0.03774461300095612 0.4330708661417316 0 0.4330708661417316 0" stroke-width="0.01"></path></g></g></g>
  </g>
</svg>