<svg width="24.015748031496067in" height="6.850393700787391in" viewBox="0 0 24.015748031496067 6.850393700787391" xmlns="http://www.w3.org/2000/svg" xmlnsXlink="http://www.w3.org/1999/xlink">
  <g transform="translate(0 6.850393700787391)">
    <g transform="scale(1, -1)"><g fill="none" stroke="rgb(0,0,0)"><g transform="matrix(1,0,0,-1,12.007874015748033,3.425196850393694)"><path class="outline" d="M 12.007874015748033 3.4251968503936934 C 12.007874015748033 3.4251968503936934 12.007874015748033 -3.425196850393694 12.007874015748033 -3.425196850393694 C 12.007874015748033 -3.425196850393694 -12.007874015748033 -3.4251968503936827 -12.007874015748033 -3.4251968503936827 C -12.007874015748033 -3.4251968503936827 -12.007874015748033 3.4251968503936934 -12.007874015748033 3.4251968503936934 C -12.007874015748033 3.4251968503936934 12.007874015748033 3.4251968503936934 12.007874015748033 3.4251968503936934" stroke-width="0.01"></path></g></g><g fill="none" stroke="rgb(0,0,0)"><g transform="matrix(1,0,0,-1,22.047244094488196,3.4251968503936894)"><path class="outline" d="M 0.17716535433070865 0 C 0.17716535433070865 0 0.17649118666979927 -0.015440978045844945 0.17649118666979927 -0.015440978045844945 C 0.17649118666979927 -0.015440978045844945 0.17447381451003638 -0.030764440925243518 0.17447381451003638 -0.030764440925243518 C 0.17447381451003638 -0.030764440925243518 0.17112859127168492 -0.045853767833123595 0.17112859127168492 -0.045853767833123595 C 0.17112859127168492 -0.045853767833123595 0.16648097612348717 -0.06059411988053196 0.16648097612348717 -0.06059411988053196 C 0.16648097612348717 -0.06059411988053196 0.1605663402230265 -0.074873314087919 0.1605663402230265 -0.074873314087919 C 0.1605663402230265 -0.074873314087919 0.1534296975208668 -0.08858267716535433 0.1534296975208668 -0.08858267716535433 C 0.1534296975208668 -0.08858267716535433 0.1451253621771822 -0.10161787258187839 0.1451253621771822 -0.10161787258187839 C 0.1451253621771822 -0.10161787258187839 0.135716535198243 -0.11387969462950506 0.135716535198243 -0.11387969462950506 C 0.135716535198243 -0.11387969462950506 0.12527482343856258 -0.12527482343856194 0.12527482343856258 -0.12527482343856194 C 0.12527482343856258 -0.12527482343856194 0.11387969462950442 -0.13571653519824425 0.11387969462950442 -0.13571653519824425 C 0.11387969462950442 -0.13571653519824425 0.10161787258187586 -0.14512536217718408 0.10161787258187586 -0.14512536217718408 C 0.10161787258187586 -0.14512536217718408 0.08858267716535433 -0.15342969752086552 0.08858267716535433 -0.15342969752086552 C 0.08858267716535433 -0.15342969752086552 0.07487331408791838 -0.160566340223029 0.07487331408791838 -0.160566340223029 C 0.07487331408791838 -0.160566340223029 0.06059411988053196 -0.16648097612348778 0.06059411988053196 -0.16648097612348778 C 0.06059411988053196 -0.16648097612348778 0.04585376783312233 -0.17112859127168553 0.04585376783312233 -0.17112859127168553 C 0.04585376783312233 -0.17112859127168553 0.030764440925244146 -0.17447381451003702 0.030764440925244146 -0.17447381451003702 C 0.030764440925244146 -0.17447381451003702 0.015440978045844315 -0.17649118666979738 0.015440978045844315 -0.17649118666979738 C 0.015440978045844315 -0.17649118666979738 0 -0.17716535433070865 0 -0.17716535433070865 C 0 -0.17716535433070865 -0.015440978045844315 -0.17649118666979738 -0.015440978045844315 -0.17649118666979738 C -0.015440978045844315 -0.17649118666979738 -0.030764440925244146 -0.17447381451003702 -0.030764440925244146 -0.17447381451003702 C -0.030764440925244146 -0.17447381451003702 -0.04585376783312233 -0.17112859127168553 -0.04585376783312233 -0.17112859127168553 C -0.04585376783312233 -0.17112859127168553 -0.06059411988053196 -0.16648097612348778 -0.06059411988053196 -0.16648097612348778 C -0.06059411988053196 -0.16648097612348778 -0.07487331408791838 -0.160566340223029 -0.07487331408791838 -0.160566340223029 C -0.07487331408791838 -0.160566340223029 -0.08858267716535433 -0.15342969752086552 -0.08858267716535433 -0.15342969752086552 C -0.08858267716535433 -0.15342969752086552 -0.10161787258187586 -0.14512536217718408 -0.10161787258187586 -0.14512536217718408 C -0.10161787258187586 -0.14512536217718408 -0.11387969462950442 -0.13571653519824425 -0.11387969462950442 -0.13571653519824425 C -0.11387969462950442 -0.13571653519824425 -0.12527482343856258 -0.12527482343856194 -0.12527482343856258 -0.12527482343856194 C -0.12527482343856258 -0.12527482343856194 -0.135716535198243 -0.11387969462950506 -0.135716535198243 -0.11387969462950506 C -0.135716535198243 -0.11387969462950506 -0.1451253621771822 -0.10161787258187839 -0.1451253621771822 -0.10161787258187839 C -0.1451253621771822 -0.10161787258187839 -0.1534296975208668 -0.08858267716535495 -0.1534296975208668 -0.08858267716535495 C -0.1534296975208668 -0.08858267716535495 -0.1605663402230265 -0.07487331408791963 -0.1605663402230265 -0.07487331408791963 C -0.1605663402230265 -0.07487331408791963 -0.16648097612348717 -0.06059411988053196 -0.16648097612348717 -0.06059411988053196 C -0.16648097612348717 -0.06059411988053196 -0.17112859127168492 -0.045853767833124226 -0.17112859127168492 -0.045853767833124226 C -0.17112859127168492 -0.045853767833124226 -0.17447381451003638 -0.030764440925244146 -0.17447381451003638 -0.030764440925244146 C -0.17447381451003638 -0.030764440925244146 -0.17649118666979927 -0.015440978045845575 -0.17649118666979927 -0.015440978045845575 C -0.17649118666979927 -0.015440978045845575 -0.17716535433070865 -6.294177777402462e-16 -0.17716535433070865 -6.294177777402462e-16 C -0.17716535433070865 -6.294177777402462e-16 -0.17649118666979927 0.015440978045844315 -0.17649118666979927 0.015440978045844315 C -0.17649118666979927 0.015440978045844315 -0.17447381451003638 0.030764440925242886 -0.17447381451003638 0.030764440925242886 C -0.17447381451003638 0.030764440925242886 -0.17112859127168492 0.045853767833123595 -0.17112859127168492 0.045853767833123595 C -0.17112859127168492 0.045853767833123595 -0.16648097612348717 0.06059411988053134 -0.16648097612348717 0.06059411988053134 C -0.16648097612348717 0.06059411988053134 -0.1605663402230265 0.074873314087919 -0.1605663402230265 0.074873314087919 C -0.1605663402230265 0.074873314087919 -0.1534296975208668 0.0885826771653537 -0.1534296975208668 0.0885826771653537 C -0.1534296975208668 0.0885826771653537 -0.1451253621771822 0.10161787258187777 -0.1451253621771822 0.10161787258187777 C -0.1451253621771822 0.10161787258187777 -0.135716535198243 0.11387969462950442 -0.135716535198243 0.11387969462950442 C -0.135716535198243 0.11387969462950442 -0.12527482343856258 0.1252748234385613 -0.12527482343856258 0.1252748234385613 C -0.12527482343856258 0.1252748234385613 -0.11387969462950442 0.13571653519824425 -0.11387969462950442 0.13571653519824425 C -0.11387969462950442 0.13571653519824425 -0.1016178725818809 0.14512536217718344 -0.1016178725818809 0.14512536217718344 C -0.1016178725818809 0.14512536217718344 -0.08858267716535433 0.1534296975208649 -0.08858267716535433 0.1534296975208649 C -0.08858267716535433 0.1534296975208649 -0.07487331408791838 0.16056634022302838 -0.07487331408791838 0.16056634022302838 C -0.07487331408791838 0.16056634022302838 -0.06059411988053196 0.16648097612348778 -0.06059411988053196 0.16648097612348778 C -0.06059411988053196 0.16648097612348778 -0.04585376783312233 0.17112859127168553 -0.04585376783312233 0.17112859127168553 C -0.04585376783312233 0.17112859127168553 -0.030764440925244146 0.17447381451003702 -0.030764440925244146 0.17447381451003702 C -0.030764440925244146 0.17447381451003702 -0.015440978045844315 0.17649118666979738 -0.015440978045844315 0.17649118666979738 C -0.015440978045844315 0.17649118666979738 0 0.17716535433070865 0 0.17716535433070865 C 0 0.17716535433070865 0.015440978045844315 0.17649118666979802 0.015440978045844315 0.17649118666979802 C 0.015440978045844315 0.17649118666979802 0.030764440925244146 0.17447381451003702 0.030764440925244146 0.17447381451003702 C 0.030764440925244146 0.17447381451003702 0.04585376783312233 0.17112859127168553 0.04585376783312233 0.17112859127168553 C 0.04585376783312233 0.17112859127168553 0.06059411988053196 0.16648097612348842 0.06059411988053196 0.16648097612348842 C 0.06059411988053196 0.16648097612348842 0.07487331408791838 0.160566340223029 0.07487331408791838 0.160566340223029 C 0.07487331408791838 0.160566340223029 0.08858267716535433 0.15342969752086552 0.08858267716535433 0.15342969752086552 C 0.08858267716535433 0.15342969752086552 0.10161787258187586 0.14512536217718408 0.10161787258187586 0.14512536217718408 C 0.10161787258187586 0.14512536217718408 0.11387969462950442 0.1357165351982449 0.11387969462950442 0.1357165351982449 C 0.11387969462950442 0.1357165351982449 0.12527482343856258 0.12527482343856258 0.12527482343856258 0.12527482343856258 C 0.12527482343856258 0.12527482343856258 0.135716535198243 0.11387969462950569 0.135716535198243 0.11387969462950569 C 0.135716535198243 0.11387969462950569 0.1451253621771822 0.10161787258187902 0.1451253621771822 0.10161787258187902 C 0.1451253621771822 0.10161787258187902 0.1534296975208668 0.08858267716535495 0.1534296975208668 0.08858267716535495 C 0.1534296975208668 0.08858267716535495 0.1605663402230265 0.07487331408792026 0.1605663402230265 0.07487331408792026 C 0.1605663402230265 0.07487331408792026 0.16648097612348717 0.06059411988053259 0.16648097612348717 0.06059411988053259 C 0.16648097612348717 0.06059411988053259 0.17112859127168492 0.04585376783312485 0.17112859127168492 0.04585376783312485 C 0.17112859127168492 0.04585376783312485 0.17447381451003638 0.030764440925244777 0.17447381451003638 0.030764440925244777 C 0.17447381451003638 0.030764440925244777 0.17649118666979927 0.015440978045846205 0.17649118666979927 0.015440978045846205 C 0.17649118666979927 0.015440978045846205 0.17716535433070865 0 0.17716535433070865 0" stroke-width="0.01"></path></g></g><g fill="none" stroke="rgb(0,0,0)"><g transform="matrix(1,0,0,-1,1.9685039370078738,3.4251968503936894)"><path class="outline" d="M 0.17716535433070865 0 C 0.17716535433070865 0 0.1764911866697974 -0.015440978045844917 0.1764911866697974 -0.015440978045844917 C 0.1764911866697974 -0.015440978045844917 0.1744738145100367 -0.030764440925243462 0.1744738145100367 -0.030764440925243462 C 0.1744738145100367 -0.030764440925243462 0.17112859127168525 -0.04585376783312351 0.17112859127168525 -0.04585376783312351 C 0.17112859127168525 -0.04585376783312351 0.1664809761234875 -0.06059411988053186 0.1664809761234875 -0.06059411988053186 C 0.1664809761234875 -0.06059411988053186 0.16056634022302843 -0.07487331408791888 0.16056634022302843 -0.07487331408791888 C 0.16056634022302843 -0.07487331408791888 0.15342969752086494 -0.08858267716535417 0.15342969752086494 -0.08858267716535417 C 0.15342969752086494 -0.08858267716535417 0.1451253621771835 -0.10161787258187821 0.1451253621771835 -0.10161787258187821 C 0.1451253621771835 -0.10161787258187821 0.13571653519824403 -0.11387969462950487 0.13571653519824403 -0.11387969462950487 C 0.13571653519824403 -0.11387969462950487 0.12527482343856142 -0.12527482343856172 0.12527482343856142 -0.12527482343856172 C 0.12527482343856142 -0.12527482343856172 0.11387969462950487 -0.13571653519824403 0.11387969462950487 -0.13571653519824403 C 0.11387969462950487 -0.13571653519824403 0.10161787258187821 -0.14512536217718383 0.10161787258187821 -0.14512536217718383 C 0.10161787258187821 -0.14512536217718383 0.08858267716535417 -0.15342969752086527 0.08858267716535417 -0.15342969752086527 C 0.08858267716535417 -0.15342969752086527 0.07487331408791918 -0.16056634022302874 0.07487331408791918 -0.16056634022302874 C 0.07487331408791918 -0.16056634022302874 0.06059411988053186 -0.1664809761234875 0.06059411988053186 -0.1664809761234875 C 0.06059411988053186 -0.1664809761234875 0.04585376783312383 -0.17112859127168525 0.04585376783312383 -0.17112859127168525 C 0.04585376783312383 -0.17112859127168525 0.030764440925243778 -0.1744738145100367 0.030764440925243778 -0.1744738145100367 C 0.030764440925243778 -0.1744738145100367 0.015440978045844917 -0.17649118666979707 0.015440978045844917 -0.17649118666979707 C 0.015440978045844917 -0.17649118666979707 0 -0.17716535433070835 0 -0.17716535433070835 C 0 -0.17716535433070835 -0.015440978045844917 -0.17649118666979707 -0.015440978045844917 -0.17649118666979707 C -0.015440978045844917 -0.17649118666979707 -0.030764440925243462 -0.1744738145100367 -0.030764440925243462 -0.1744738145100367 C -0.030764440925243462 -0.1744738145100367 -0.04585376783312351 -0.17112859127168525 -0.04585376783312351 -0.17112859127168525 C -0.04585376783312351 -0.17112859127168525 -0.060594119880531545 -0.1664809761234875 -0.060594119880531545 -0.1664809761234875 C -0.060594119880531545 -0.1664809761234875 -0.07487331408791888 -0.16056634022302874 -0.07487331408791888 -0.16056634022302874 C -0.07487331408791888 -0.16056634022302874 -0.08858267716535417 -0.15342969752086527 -0.08858267716535417 -0.15342969752086527 C -0.08858267716535417 -0.15342969752086527 -0.1016178725818779 -0.14512536217718383 -0.1016178725818779 -0.14512536217718383 C -0.1016178725818779 -0.14512536217718383 -0.11387969462950487 -0.13571653519824403 -0.11387969462950487 -0.13571653519824403 C -0.11387969462950487 -0.13571653519824403 -0.12527482343856142 -0.12527482343856172 -0.12527482343856142 -0.12527482343856172 C -0.12527482343856142 -0.12527482343856172 -0.13571653519824403 -0.11387969462950487 -0.13571653519824403 -0.11387969462950487 C -0.13571653519824403 -0.11387969462950487 -0.1451253621771832 -0.10161787258187821 -0.1451253621771832 -0.10161787258187821 C -0.1451253621771832 -0.10161787258187821 -0.15342969752086494 -0.0885826771653548 -0.15342969752086494 -0.0885826771653548 C -0.15342969752086494 -0.0885826771653548 -0.16056634022302843 -0.0748733140879195 -0.16056634022302843 -0.0748733140879195 C -0.16056634022302843 -0.0748733140879195 -0.1664809761234875 -0.06059411988053186 -0.1664809761234875 -0.06059411988053186 C -0.1664809761234875 -0.06059411988053186 -0.17112859127168525 -0.04585376783312414 -0.17112859127168525 -0.04585376783312414 C -0.17112859127168525 -0.04585376783312414 -0.1744738145100367 -0.030764440925244094 -0.1744738145100367 -0.030764440925244094 C -0.1744738145100367 -0.030764440925244094 -0.1764911866697974 -0.015440978045845547 -0.1764911866697974 -0.015440978045845547 C -0.1764911866697974 -0.015440978045845547 -0.17716535433070865 -6.294177777402451e-16 -0.17716535433070865 -6.294177777402451e-16 C -0.17716535433070865 -6.294177777402451e-16 -0.1764911866697974 0.01544097804584429 -0.1764911866697974 0.01544097804584429 C -0.1764911866697974 0.01544097804584429 -0.1744738145100367 0.030764440925242834 -0.1744738145100367 0.030764440925242834 C -0.1744738145100367 0.030764440925242834 -0.17112859127168525 0.04585376783312351 -0.17112859127168525 0.04585376783312351 C -0.17112859127168525 0.04585376783312351 -0.1664809761234878 0.06059411988053123 -0.1664809761234878 0.06059411988053123 C -0.1664809761234878 0.06059411988053123 -0.16056634022302874 0.07487331408791888 -0.16056634022302874 0.07487331408791888 C -0.16056634022302874 0.07487331408791888 -0.15342969752086527 0.08858267716535355 -0.15342969752086527 0.08858267716535355 C -0.15342969752086527 0.08858267716535355 -0.14512536217718383 0.10161787258187759 -0.14512536217718383 0.10161787258187759 C -0.14512536217718383 0.10161787258187759 -0.13571653519824434 0.11387969462950423 -0.13571653519824434 0.11387969462950423 C -0.13571653519824434 0.11387969462950423 -0.12527482343856206 0.1252748234385611 -0.12527482343856206 0.1252748234385611 C -0.12527482343856206 0.1252748234385611 -0.11387969462950549 0.13571653519824403 -0.11387969462950549 0.13571653519824403 C -0.11387969462950549 0.13571653519824403 -0.10161787258187853 0.1451253621771832 -0.10161787258187853 0.1451253621771832 C -0.10161787258187853 0.1451253621771832 -0.0885826771653548 0.15342969752086463 -0.0885826771653548 0.15342969752086463 C -0.0885826771653548 0.15342969752086463 -0.07487331408791982 0.1605663402230281 -0.07487331408791982 0.1605663402230281 C -0.07487331408791982 0.1605663402230281 -0.06059411988053249 0.1664809761234875 -0.06059411988053249 0.1664809761234875 C -0.06059411988053249 0.1664809761234875 -0.045853767833124455 0.17112859127168525 -0.045853767833124455 0.17112859127168525 C -0.045853767833124455 0.17112859127168525 -0.030764440925244094 0.1744738145100367 -0.030764440925244094 0.1744738145100367 C -0.030764440925244094 0.1744738145100367 -0.015440978045845547 0.17649118666979707 -0.015440978045845547 0.17649118666979707 C -0.015440978045845547 0.17649118666979707 -6.294177777402451e-16 0.17716535433070835 -6.294177777402451e-16 0.17716535433070835 C -6.294177777402451e-16 0.17716535433070835 0.01544097804584429 0.1764911866697977 0.01544097804584429 0.1764911866697977 C 0.01544097804584429 0.1764911866697977 0.030764440925242834 0.1744738145100367 0.030764440925242834 0.1744738145100367 C 0.030764440925242834 0.1744738145100367 0.04585376783312289 0.17112859127168525 0.04585376783312289 0.17112859127168525 C 0.04585376783312289 0.17112859127168525 0.06059411988053123 0.16648097612348814 0.06059411988053123 0.16648097612348814 C 0.06059411988053123 0.16648097612348814 0.07487331408791856 0.16056634022302874 0.07487331408791856 0.16056634022302874 C 0.07487331408791856 0.16056634022302874 0.08858267716535355 0.15342969752086527 0.08858267716535355 0.15342969752086527 C 0.08858267716535355 0.15342969752086527 0.10161787258187759 0.14512536217718383 0.10161787258187759 0.14512536217718383 C 0.10161787258187759 0.14512536217718383 0.11387969462950423 0.13571653519824467 0.11387969462950423 0.13571653519824467 C 0.11387969462950423 0.13571653519824467 0.12527482343856078 0.12527482343856236 0.12527482343856078 0.12527482343856236 C 0.12527482343856078 0.12527482343856236 0.1357165351982434 0.11387969462950549 0.1357165351982434 0.11387969462950549 C 0.1357165351982434 0.11387969462950549 0.1451253621771832 0.10161787258187885 0.1451253621771832 0.10161787258187885 C 0.1451253621771832 0.10161787258187885 0.15342969752086463 0.0885826771653548 0.15342969752086463 0.0885826771653548 C 0.15342969752086463 0.0885826771653548 0.1605663402230281 0.07487331408792013 0.1605663402230281 0.07487331408792013 C 0.1605663402230281 0.07487331408792013 0.1664809761234872 0.06059411988053249 0.1664809761234872 0.06059411988053249 C 0.1664809761234872 0.06059411988053249 0.17112859127168492 0.045853767833124774 0.17112859127168492 0.045853767833124774 C 0.17112859127168492 0.045853767833124774 0.1744738145100367 0.03076444092524472 0.1744738145100367 0.03076444092524472 C 0.1744738145100367 0.03076444092524472 0.1764911866697974 0.015440978045846177 0.1764911866697974 0.015440978045846177 C 0.1764911866697974 0.015440978045846177 0.17716535433070865 0 0.17716535433070865 0" stroke-width="0.01"></path></g></g><g fill="rgb(214,214,214)" stroke="none"><g transform="matrix(1,0,0,1,12.007874015748031,3.425196850393701)"><path class="fill" d="M -0.9780589224099797 2.9606601267096035 C -0.9926568167743077 2.955794161921494 -0.9975227815624171 2.8292790774306513 -0.9975227815624171 2.425404000017575 C -0.9975227815624171 1.9485394507828588 -1.0007667580878234 1.8901478733255466 -1.0267185702910733 1.8528421432833748 C -1.0413164646554014 1.828512319342828 -1.14998967825651 1.7165951292163129 -1.2683948214338376 1.6030559508270947 C -1.4630334129582117 1.4165273006162362 -1.6349641688047423 1.2137787677783467 -1.7485033471939604 1.0321160823555975 C -1.7922970302869445 0.9623705870593635 -1.7922970302869445 0.9623705870593635 -1.5441328260933675 0.9623705870593635 C -1.2975906101624937 0.9623705870593635 -1.2975906101624939 0.9623705870593635 -1.1272818425786666 0.7920618194755362 C -0.9731929576218704 0.6379729345187402 -0.9521071102067298 0.6217530518917089 -0.8985814975375269 0.6217530518917089 C -0.8515438379191365 0.6217530518917089 -0.828836002241293 0.6103991340527871 -0.7963962369872306 0.5714714157479123 C -0.773688401309387 0.5438976152819592 -0.7542245421569496 0.5082138735024907 -0.7542245421569496 0.49199399087545953 C -0.7542245421569496 0.44009036646895977 -0.8320799787666991 0.36223492985921013 -0.885605591435902 0.36223492985921013 C -0.9521071102067298 0.36223492985921013 -1.0137426641894483 0.4271144603673348 -1.0137426641894483 0.49523796740086573 C -1.0137426641894483 0.5422756270192561 -1.034828511604589 0.5714714157479123 -1.1726975139343538 0.7077184298149741 C -1.3300303754165563 0.8650512912971765 -1.3300303754165563 0.8650512912971764 -1.5911704857117581 0.8650512912971764 C -1.85231059600696 0.8650512912971764 -1.85231059600696 0.8650512912971765 -1.9269220560913034 0.7077184298149741 C -2.0031555044383498 0.5438976152819592 -2.0842549175735057 0.3297951646051478 -2.0842549175735057 0.28762346977486675 C -2.0842549175735057 0.2697815988851325 -2.045327199268631 0.2649156340970231 -1.8701524668966942 0.2649156340970231 C -1.657672004482586 0.2649156340970231 -1.657672004482586 0.2649156340970231 -1.4760093190598367 0.08649692519968025 C -1.3121885045268218 -0.07570190107063146 -1.2911026571116815 -0.09192178369766263 -1.2359550561797754 -0.09192178369766263 C -1.1191719012651509 -0.09192178369766263 -1.064024300333245 -0.23141277429013069 -1.1532336547819164 -0.3011582695863647 C -1.244064997493291 -0.3725257531453019 -1.370580081984134 -0.3141341756879896 -1.370580081984134 -0.20221698556147458 C -1.370580081984134 -0.1568013142057873 -1.394909905924681 -0.12436154895172498 -1.5262909552036334 0.010263476852633747 C -1.6803798401604295 0.1675963383348361 -1.6803798401604295 0.16759633833483611 -1.896104279099944 0.16759633833483611 C -2.113450706302162 0.16759633833483611 -2.113450706302162 0.16759633833483611 -2.1231826358783805 0.09947283130130519 C -2.1426464950308177 -0.030286229714944185 -2.1637323424459582 -0.29467031653555226 -2.1653543307086616 -0.3952335888231455 C -2.1653543307086616 -0.4974188493734419 -2.1653543307086616 -0.4974188493734419 -2.0307293049043027 -0.4974188493734419 C -1.8977262673626472 -0.4974188493734419 -1.8977262673626472 -0.49741884937344194 -1.7274174997788199 -0.6677276169572692 C -1.5733286148220238 -0.8234384901767684 -1.5522427674068833 -0.8380363845410965 -1.4970951664749772 -0.8380363845410965 C -1.357604175882509 -0.8380363845410965 -1.3251644106284468 -1.0148331051757362 -1.4565454599073993 -1.0780906474211578 C -1.492229201686868 -1.0959325183108921 -1.506827096051196 -1.094310530048189 -1.548998790881477 -1.0732246826330485 C -1.5992804270252736 -1.0472728704297987 -1.634964168804742 -0.9840153281843771 -1.6268542274912265 -0.9353556803032835 C -1.6236102509658203 -0.9191357976762523 -1.6852458049485388 -0.8396583728037996 -1.7744551593972102 -0.7439610653043157 C -1.9269220560913032 -0.5785182625085978 -1.9269220560913034 -0.5785182625085977 -2.043705211005928 -0.5785182625085977 C -2.1604883659205525 -0.5785182625085977 -2.1604883659205525 -0.5785182625085978 -2.1312925771918962 -0.7439610653043157 C -2.0680350349464747 -1.092688541785486 -1.8815063847356162 -1.6052368327996709 -1.714441593677195 -1.8809748374592008 C -1.437081600754962 -2.343241492329589 -1.0040107346132296 -2.730896687115634 -0.608245598513669 -2.8687656894453992 C -0.4622666548703884 -2.919047325589196 -0.22383438025303018 -2.96284100868218 -0.08920935444867145 -2.96284100868218 C 0.0648795305081247 -2.96284100868218 0.3698133238963107 -2.8898515368605393 0.5093043144887788 -2.8201060415643053 C 1.0737562299094636 -2.537880083853963 1.4030198472381965 -2.0058679336873406 1.3219204341030406 -1.5062955487747807 C 1.2975906101624939 -1.3489626872925784 1.2294671031289628 -1.1608120488190168 1.1564776313073226 -1.0472728704297987 C 0.7980182252499337 -0.48768691979722323 0.09569730749948391 -0.3790137061961143 -0.34223952343035774 -0.8137065606005497 C -0.663393199445575 -1.1332382483530639 -0.6974549529623404 -1.5857729736472335 -0.4200949600401074 -1.871242907882982 C -0.3552154295319827 -1.940988403179216 -0.32764162906602967 -1.9572082858062472 -0.2854699342357486 -1.9572082858062472 C -0.17679672063463975 -1.9572082858062472 -0.1119171901265151 -1.8209612717391854 -0.18815063847356162 -1.7528377647056546 C -0.2595181220324988 -1.6879582341975299 -0.30655578165088915 -1.5679311027574991 -0.30655578165088915 -1.4462819830547653 C -0.30655578165088915 -1.3505846755552815 -0.3000678286000767 -1.318144910301219 -0.25951812203249874 -1.2435334502168758 C -0.14597894364328054 -1.0342969643281736 0.02432982394054678 -0.9304897155151741 0.2514081807189832 -0.9304897155151741 C 0.44604677224335726 -0.9304897155151741 0.5920257158866379 -1.01158912865033 0.7104308590639654 -1.1835198844968604 C 0.8126161196142618 -1.3327428046655472 0.8418119083429179 -1.4235741473769217 0.8418119083429179 -1.608480809325077 C 0.843433896605621 -1.76094770601917 0.8401899200802148 -1.7787895769089044 0.7899082839364181 -1.8793528491964977 C 0.6942109764369342 -2.075613428983575 0.4492907487687635 -2.2540321378809174 0.22059040372762395 -2.2978258209739018 C -0.13624701406706186 -2.3643273397447295 -0.5206582323277007 -2.2102384547879335 -0.7217847769028872 -1.9150365909759661 C -0.8937155327494176 -1.6668723867823891 -0.8937155327494176 -1.2824611685217504 -0.7217847769028872 -0.9223797742016585 C -0.6147335515644815 -0.6985453939486284 -0.45902267834498217 -0.5022848141615512 -0.26925005160871746 -0.3514399057301614 C -0.13462502580435873 -0.24276669212905252 -0.04054970656757792 -0.19735102077336525 0.14597894364328057 -0.14706938462956862 C 0.4590226783449822 -0.06434798323170965 0.5174142558022945 -0.057860030180897165 1.021852605502964 -0.04488412407927223 C 1.4614114246955088 -0.03353020624035041 1.5181810138901177 -0.028664241452241064 1.604146391813383 0.0037755238018212785 C 1.7420153941431478 0.05243517168291479 1.8198708307528977 0.10271680782671141 1.9269220560913034 0.21139002142782026 C 2.020997375328084 0.30546534066460107 2.020997375328084 0.305465340664601 1.3219204341030406 0.3135752819781166 C 0.622843492877997 0.32168522329163224 0.622843492877997 0.32168522329163224 0.4509127370314666 0.4968599556635689 C 0.31790969948981096 0.6314849814679276 0.27087203987142056 0.6687907115100993 0.24816420419357693 0.6606807701965837 C 0.16544280279571794 0.6347289579933338 0.07623344834704651 0.7320482537555209 0.09894128402489015 0.8228795964668953 C 0.13462502580435873 0.9672365518474728 0.36170338258279516 0.928308833542598 0.345483499955764 0.7807079016366143 C 0.34061753516765464 0.7320482537555207 0.3535934412692796 0.7142063828657865 0.5044383497006695 0.5698494274852092 C 0.6682591642336844 0.4108945777403037 0.6682591642336843 0.41089457774030363 1.3673361054587279 0.41089457774030363 C 2.0664130466837713 0.41089457774030363 2.0664130466837713 0.4108945777403037 2.0939868471497243 0.46442019040950655 C 2.1280486006664896 0.5292997209176312 2.1637323424459582 0.6882545706625366 2.1653543307086616 0.7807079016366143 C 2.1653543307086616 0.8488314086701452 2.1653543307086616 0.8488314086701453 1.742015394143148 0.8488314086701453 C 1.3186764575776344 0.8488314086701453 1.3186764575776342 0.8488314086701453 1.2700168096965407 0.8082817021025673 C 1.190539384824088 0.7401581950690365 1.0964640655873075 0.7596220542214738 1.064024300333245 0.8504533969328484 C 1.05104839423162 0.8893811152377232 1.052670382494323 0.9104669626528636 1.0705122533840574 0.9477726926950354 C 1.1191719012651509 1.0386040354064099 1.2035152909257132 1.053201929770738 1.2732607862219472 0.9785904696863946 C 1.3186764575776344 0.9299308218053011 1.3186764575776344 0.9299308218053011 1.7257955115161168 0.9299308218053011 C 2.0501931640567403 0.9299308218053011 2.132914565454599 0.9347967865934104 2.132914565454599 0.9510166692204416 C 2.132914565454599 0.9688585401101759 2.074522987997287 1.1326793546431908 1.9836916452859124 1.372733617523252 C 1.9674717626588811 1.4165273006162362 1.9674717626588814 1.4165273006162362 1.7987849833377572 1.4165273006162362 C 1.6333421805420392 1.4165273006162362 1.6268542274912268 1.4149053123535331 1.5911704857117581 1.372733617523252 C 1.5457548143560709 1.3192080048540493 1.4549234716446962 1.3127200518032367 1.4030198472381965 1.359757711421627 C 1.3576041758825093 1.400307417989205 1.3592261641452124 1.5008706902767983 1.4062638237636027 1.5462863616324856 C 1.4565454599073993 1.5917020329881728 1.536022884779852 1.5884580564627666 1.5830605443982424 1.53817642031897 C 1.618744286177711 1.5008706902767983 1.633342180542039 1.4976267137513921 1.7728331711345071 1.4976267137513921 C 1.8636645138458816 1.4976267137513921 1.9220560913031939 1.5041146668022047 1.9220560913031939 1.5138465963784233 C 1.9220560913031939 1.523578525954642 1.8750184316848035 1.6290077630303446 1.8166268542274913 1.7490348944703753 C 1.7111976171517886 1.968003309935296 1.7111976171517886 1.968003309935296 1.5019611312630865 1.968003309935296 C 1.2992125984251968 1.968003309935296 1.2894806688489782 1.966381321672593 1.2505529505441033 1.927453603367718 C 1.1937833613494941 1.870684014173109 1.1094399716889323 1.872306002435812 1.064024300333245 1.9290755916304212 C 1.021852605502964 1.9826012042996242 1.0202306172402607 2.0507247113331553 1.0607803238078386 2.0993843592142487 C 1.1029520186381196 2.1529099718834517 1.218113185290041 2.1529099718834512 1.2537969270695097 2.1010063474769516 C 1.2748827744846503 2.068566582222889 1.2894806688489784 2.065322605697483 1.4451915420684776 2.065322605697483 C 1.5376448730425551 2.065322605697483 1.6138783213896017 2.071810558748296 1.6138783213896017 2.078298511799108 C 1.6138783213896017 2.105872312265061 1.4370816007549618 2.259961197221857 1.3251644106284468 2.3329506690434973 C 1.080244182960276 2.4902835305256996 0.9164233684272614 2.547053119720309 0.1962605797870772 2.728715805143058 C -0.3471054882184671 2.866584807472823 -0.9212893332153707 2.9801239858620407 -0.9780589224099797 2.9606601267096035 C -0.9780589224099797 2.9606601267096035 -0.9780589224099797 2.9606601267096035 -0.9780589224099797 2.9606601267096035 M 0.6844790468607155 1.914477697266093 C 0.747736589106137 1.8804159437493275 0.828836002241293 1.800938518876875 0.8612757674953553 1.7360589883687503 C 0.8969595092748238 1.6695574695979225 0.9083134271137456 1.5154685846411262 0.885605591435902 1.4441011010821891 C 0.8126161196142617 1.2267546738799715 0.5595859506325754 1.1115935072280503 0.3568374177946858 1.2040468382021279 C 0.20923648588870214 1.2705483569729557 0.10380724881299952 1.4603209837092204 0.12813707275354627 1.6144098686660164 C 0.15084490843138992 1.7506568827330782 0.2708720398714206 1.8982578146390618 0.38927718304874814 1.9355635446812336 C 0.45740069008227907 1.9566493920963741 0.6244654811407001 1.9452954742574522 0.6844790468607155 1.914477697266093 C 0.6844790468607155 1.914477697266093 0.6844790468607155 1.914477697266093 0.6844790468607155 1.914477697266093"></path></g></g><g fill="none" stroke="rgb(0,0,0)"><g transform="matrix(1,0,0,1,4.527559055118111,3.4251968503936956)"><path class="outline" d="M -0.39370078740157477 -1.7716535433070866 C -0.39370078740157477 -1.7716535433070866 0.39370078740157477 -1.7716535433070866 0.39370078740157477 -1.7716535433070866 C 0.6111357282677164 -1.7716535433070866 0.7874015748031495 -1.5953876967716536 0.7874015748031495 -1.3779527559055118 C 0.7874015748031495 -1.3779527559055118 0.7874015748031495 1.3779527559055118 0.7874015748031495 1.3779527559055118 C 0.7874015748031495 1.5953876967716536 0.6111357282677164 1.7716535433070866 0.39370078740157477 1.7716535433070866 C 0.39370078740157477 1.7716535433070866 -0.39370078740157477 1.7716535433070866 -0.39370078740157477 1.7716535433070866 C -0.6111357282677164 1.7716535433070866 -0.7874015748031495 1.5953876967716536 -0.7874015748031495 1.3779527559055118 C -0.7874015748031495 1.3779527559055118 -0.7874015748031495 -1.3779527559055118 -0.7874015748031495 -1.3779527559055118 C -0.7874015748031495 -1.5953876967716536 -0.6111357282677164 -1.7716535433070866 -0.39370078740157477 -1.7716535433070866" stroke-width="0.01"></path></g></g><g fill="none" stroke="rgb(0,0,0)"><g transform="matrix(1,0,0,1,19.488188976377952,3.4251968503936956)"><path class="outline" d="M -0.39370078740157477 -1.7716535433070866 C -0.39370078740157477 -1.7716535433070866 0.39370078740157477 -1.7716535433070866 0.39370078740157477 -1.7716535433070866 C 0.6111357282677164 -1.7716535433070866 0.7874015748031495 -1.5953876967716536 0.7874015748031495 -1.3779527559055118 C 0.7874015748031495 -1.3779527559055118 0.7874015748031495 1.3779527559055118 0.7874015748031495 1.3779527559055118 C 0.7874015748031495 1.5953876967716536 0.6111357282677164 1.7716535433070866 0.39370078740157477 1.7716535433070866 C 0.39370078740157477 1.7716535433070866 -0.39370078740157477 1.7716535433070866 -0.39370078740157477 1.7716535433070866 C -0.6111357282677164 1.7716535433070866 -0.7874015748031495 1.5953876967716536 -0.7874015748031495 1.3779527559055118 C -0.7874015748031495 1.3779527559055118 -0.7874015748031495 -1.3779527559055118 -0.7874015748031495 -1.3779527559055118 C -0.7874015748031495 -1.5953876967716536 -0.6111357282677164 -1.7716535433070866 -0.39370078740157477 -1.7716535433070866" stroke-width="0.01"></path></g></g></g>
  </g>
</svg>