<svg width="26.771653543307092in" height="25.039370078740166in" viewBox="0 0 26.771653543307092 25.039370078740166" xmlns="http://www.w3.org/2000/svg" xmlnsXlink="http://www.w3.org/1999/xlink">
  <g transform="translate(0 25.039370078740166)">
    <g data-reactroot="" transform="scale(1, -1)"><g fill="none" stroke="rgb(0,0,0)"><g transform="matrix(6.123233995736766e-17,-1,-1,-6.123233995736766e-17,22.83464566929134,12.519685039370085)"><path class="outline" d="M -10.629921259842522 3.464566929133857 C -10.629921259842522 3.464566929133857 -10.629921259842522 3.9370078740157486 -10.629921259842522 3.9370078740157486 C -10.629921259842522 3.9370078740157486 -9.212598425196852 3.9370078740157486 -9.212598425196852 3.9370078740157486 C -9.212598425196852 3.9370078740157486 -9.212598425196852 3.464566929133857 -9.212598425196852 3.464566929133857 C -9.212598425196852 3.464566929133857 -7.795275590551183 3.464566929133857 -7.795275590551183 3.464566929133857 C -7.795275590551183 3.464566929133857 -7.795275590551183 3.9370078740157486 -7.795275590551183 3.9370078740157486 C -7.795275590551183 3.9370078740157486 -6.377952755905514 3.937007874015749 -6.377952755905514 3.937007874015749 C -6.377952755905514 3.937007874015749 -6.377952755905514 3.4645669291338574 -6.377952755905514 3.4645669291338574 C -6.377952755905514 3.4645669291338574 -2.1259842519685015 3.4645669291338574 -2.1259842519685015 3.4645669291338574 C -2.1259842519685015 3.4645669291338574 -2.1259842519685015 3.937007874015749 -2.1259842519685015 3.937007874015749 C -2.1259842519685015 3.937007874015749 -0.7086614173228368 3.937007874015749 -0.7086614173228368 3.937007874015749 C -0.7086614173228368 3.937007874015749 -0.7086614173228368 3.4645669291338574 -0.7086614173228368 3.4645669291338574 C -0.7086614173228368 3.4645669291338574 0.7086614173228368 3.4645669291338574 0.7086614173228368 3.4645669291338574 C 0.7086614173228368 3.4645669291338574 0.7086614173228368 3.937007874015749 0.7086614173228368 3.937007874015749 C 0.7086614173228368 3.937007874015749 2.125984251968506 3.937007874015749 2.125984251968506 3.937007874015749 C 2.125984251968506 3.937007874015749 2.125984251968506 3.4645669291338574 2.125984251968506 3.4645669291338574 C 2.125984251968506 3.4645669291338574 6.377952755905514 3.4645669291338574 6.377952755905514 3.4645669291338574 C 6.377952755905514 3.4645669291338574 6.377952755905514 3.937007874015749 6.377952755905514 3.937007874015749 C 6.377952755905514 3.937007874015749 7.795275590551183 3.9370078740157473 7.795275590551183 3.9370078740157473 C 7.795275590551183 3.9370078740157473 7.795275590551183 3.464566929133857 7.795275590551183 3.464566929133857 C 7.795275590551183 3.464566929133857 9.212598425196857 3.4645669291338574 9.212598425196857 3.4645669291338574 C 9.212598425196857 3.4645669291338574 9.212598425196857 3.937007874015749 9.212598425196857 3.937007874015749 C 9.212598425196857 3.937007874015749 10.629921259842526 3.9370078740157473 10.629921259842526 3.9370078740157473 C 10.629921259842526 3.9370078740157473 10.629921259842526 3.464566929133857 10.629921259842526 3.464566929133857 C 10.629921259842526 3.464566929133857 12.04724409448819 3.464566929133856 12.04724409448819 3.464566929133856 C 12.04724409448819 3.464566929133856 12.04724409448819 2.0472440944881836 12.04724409448819 2.0472440944881836 C 12.04724409448819 2.0472440944881836 12.519685039370081 2.0472440944881813 12.519685039370081 2.0472440944881813 C 12.519685039370081 2.0472440944881813 12.519685039370081 0.6299212598425123 12.519685039370081 0.6299212598425123 C 12.519685039370081 0.6299212598425123 12.04724409448819 0.6299212598425123 12.04724409448819 0.6299212598425123 C 12.04724409448819 0.6299212598425123 12.04724409448819 -0.7874015748031574 12.04724409448819 -0.7874015748031574 C 12.04724409448819 -0.7874015748031574 12.519685039370081 -0.7874015748031574 12.519685039370081 -0.7874015748031574 C 12.519685039370081 -0.7874015748031574 12.519685039370081 -2.204724409448825 12.519685039370081 -2.204724409448825 C 12.519685039370081 -2.204724409448825 12.04724409448819 -2.204724409448825 12.04724409448819 -2.204724409448825 C 12.04724409448819 -2.204724409448825 12.04724409448819 -3.9370078740157495 12.04724409448819 -3.9370078740157495 C 12.04724409448819 -3.9370078740157495 -12.047244094488189 -3.9370078740157495 -12.047244094488189 -3.9370078740157495 C -12.047244094488189 -3.9370078740157495 -12.04724409448819 -2.204724409448825 -12.04724409448819 -2.204724409448825 C -12.04724409448819 -2.204724409448825 -12.519685039370081 -2.204724409448825 -12.519685039370081 -2.204724409448825 C -12.519685039370081 -2.204724409448825 -12.519685039370081 -0.7874015748031558 -12.519685039370081 -0.7874015748031558 C -12.519685039370081 -0.7874015748031558 -12.04724409448819 -0.7874015748031558 -12.04724409448819 -0.7874015748031558 C -12.04724409448819 -0.7874015748031558 -12.04724409448819 0.6299212598425136 -12.04724409448819 0.6299212598425136 C -12.04724409448819 0.6299212598425136 -12.519685039370081 0.6299212598425136 -12.519685039370081 0.6299212598425136 C -12.519685039370081 0.6299212598425136 -12.519685039370081 2.0472440944881827 -12.519685039370081 2.0472440944881827 C -12.519685039370081 2.0472440944881827 -12.04724409448819 2.047244094488185 -12.04724409448819 2.047244094488185 C -12.04724409448819 2.047244094488185 -12.04724409448819 3.464566929133857 -12.04724409448819 3.464566929133857 C -12.04724409448819 3.464566929133857 -10.629921259842522 3.464566929133857 -10.629921259842522 3.464566929133857" stroke-width="0.01"></path></g></g></g>
  </g>
</svg>