<svg width="17.187305174067905in" height="9.954236588980626in" viewBox="0 0 17.187305174067905 9.954236588980626" xmlns="http://www.w3.org/2000/svg" xmlnsXlink="http://www.w3.org/1999/xlink">
  <g transform="translate(0 9.954236588980626)">
    <g transform="scale(1, -1)"><g fill="none" stroke="rgb(0,0,0)"><g transform="matrix(0.8660254037844387,0.49999999999999994,0.49999999999999994,-0.8660254037844387,3.606049949625383,3.710628704380665)"><path class="outline" d="M -1.4255998241350443 -4.568000898863724 C -1.4255998241350443 -4.568000898863724 -4.5752061233476535 0.8872772352114789 -4.5752061233476535 0.8872772352114789 C -4.5752061233476535 0.8872772352114789 -4.531755471959243 0.9149583530237498 -4.531755471959243 0.9149583530237498 C -4.531755471959243 0.9149583530237498 -4.490882731800487 0.9463211096202149 -4.490882731800487 0.9463211096202149 C -4.490882731800487 0.9463211096202149 -4.452898969103632 0.981126815485823 -4.452898969103632 0.981126815485823 C -4.452898969103632 0.981126815485823 -4.418093263238023 1.019110578182678 -4.418093263238023 1.019110578182678 C -4.418093263238023 1.019110578182678 -4.386730506641559 1.0599833183414331 -4.386730506641559 1.0599833183414331 C -4.386730506641559 1.0599833183414331 -4.359049388829288 1.103433969729846 -4.359049388829288 1.103433969729846 C -4.359049388829288 1.103433969729846 -4.3352605798220765 1.1491318466546303 -4.3352605798220765 1.1491318466546303 C -4.3352605798220765 1.1491318466546303 -4.315545126820545 1.1967291606792538 -4.315545126820545 1.1967291606792538 C -4.315545126820545 1.1967291606792538 -4.300053076326554 1.2458636675039472 -4.300053076326554 1.2458636675039472 C -4.300053076326554 1.2458636675039472 -4.288902332198716 1.2961614238635477 -4.288902332198716 1.2961614238635477 C -4.288902332198716 1.2961614238635477 -4.282177758332846 1.3472396334615426 -4.282177758332846 1.3472396334615426 C -4.282177758332846 1.3472396334615426 -4.279930532796476 1.398709560281026 -4.279930532796476 1.398709560281026 C -4.279930532796476 1.398709560281026 -4.282177758332846 1.4501794871005094 -4.282177758332846 1.4501794871005094 C -4.282177758332846 1.4501794871005094 -4.288902332198716 1.5012576966985043 -4.288902332198716 1.5012576966985043 C -4.288902332198716 1.5012576966985043 -4.300053076326554 1.551555453058105 -4.300053076326554 1.551555453058105 C -4.300053076326554 1.551555453058105 -4.315545126820545 1.6006899598827982 -4.315545126820545 1.6006899598827982 C -4.315545126820545 1.6006899598827982 -4.3352605798220765 1.6482872739074217 -4.3352605798220765 1.6482872739074217 C -4.3352605798220765 1.6482872739074217 -4.359049388829288 1.693985150832206 -4.359049388829288 1.693985150832206 C -4.359049388829288 1.693985150832206 -4.359049388829296 1.6939851508322195 -4.359049388829296 1.6939851508322195 C -4.359049388829296 1.6939851508322195 0.618891908514305 4.568000898863724 0.618891908514305 4.568000898863724 C 0.618891908514305 4.568000898863724 0.6188919085143189 4.5680008988636995 0.6188919085143189 4.5680008988636995 C 0.6188919085143189 4.5680008988636995 0.6465730263265905 4.524550247475287 0.6465730263265905 4.524550247475287 C 0.6465730263265905 4.524550247475287 0.6779357829230556 4.483677507316531 0.6779357829230556 4.483677507316531 C 0.6779357829230556 4.483677507316531 0.712741488788664 4.4456937446196765 0.712741488788664 4.4456937446196765 C 0.712741488788664 4.4456937446196765 0.7507252514855192 4.410888038754067 0.7507252514855192 4.410888038754067 C 0.7507252514855192 4.410888038754067 0.7915979916442751 4.379525282157602 0.7915979916442751 4.379525282157602 C 0.7915979916442751 4.379525282157602 0.8350486430326881 4.351844164345331 0.8350486430326881 4.351844164345331 C 0.8350486430326881 4.351844164345331 0.8807465199574719 4.32805535533812 0.8807465199574719 4.32805535533812 C 0.8807465199574719 4.32805535533812 0.9283438339820962 4.30833990233659 0.9283438339820962 4.30833990233659 C 0.9283438339820962 4.30833990233659 0.9774783408067897 4.2928478518425965 0.9774783408067897 4.2928478518425965 C 0.9774783408067897 4.2928478518425965 1.0277760971663905 4.281697107714758 1.0277760971663905 4.281697107714758 C 1.0277760971663905 4.281697107714758 1.0788543067643857 4.27497253384889 1.0788543067643857 4.27497253384889 C 1.0788543067643857 4.27497253384889 1.1303242335838688 4.272725308312519 1.1303242335838688 4.272725308312519 C 1.1303242335838688 4.272725308312519 1.1817941604033522 4.27497253384889 1.1817941604033522 4.27497253384889 C 1.1817941604033522 4.27497253384889 1.2328723700013473 4.281697107714758 1.2328723700013473 4.281697107714758 C 1.2328723700013473 4.281697107714758 1.2831701263609478 4.2928478518425965 1.2831701263609478 4.2928478518425965 C 1.2831701263609478 4.2928478518425965 1.3323046331856416 4.30833990233659 1.3323046331856416 4.30833990233659 C 1.3323046331856416 4.30833990233659 1.3799019472102658 4.32805535533812 1.3799019472102658 4.32805535533812 C 1.3799019472102658 4.32805535533812 1.425599824135043 4.351844164345327 1.425599824135043 4.351844164345327 C 1.425599824135043 4.351844164345327 4.5752061233476535 -1.1034339697298707 4.5752061233476535 -1.1034339697298707 C 4.5752061233476535 -1.1034339697298707 -1.4255998241350443 -4.568000898863724 -1.4255998241350443 -4.568000898863724" stroke-width="0.01"></path></g></g><g fill="none" stroke="rgb(0,0,0)"><g transform="matrix(0.8660254037844387,0.49999999999999994,0.49999999999999994,-0.8660254037844387,5.131171729365973,3.542769987232272)"><path class="outline" d="M 1.1811023622047243 0 C 1.1811023622047243 0 1.176607911131983 -0.10293985363896659 1.176607911131983 -0.10293985363896659 C 1.176607911131983 -0.10293985363896659 1.1631587634002458 -0.20509627283495763 1.1631587634002458 -0.20509627283495763 C 1.1631587634002458 -0.20509627283495763 1.140857275144569 -0.3056917855541579 1.140857275144569 -0.3056917855541579 C 1.140857275144569 -0.3056917855541579 1.1098731741565846 -0.40396079920354533 1.1098731741565846 -0.40396079920354533 C 1.1098731741565846 -0.40396079920354533 1.0704422681535235 -0.49915542725279477 1.0704422681535235 -0.49915542725279477 C 1.0704422681535235 -0.49915542725279477 1.0228646501391008 -0.5905511811023622 1.0228646501391008 -0.5905511811023622 C 1.0228646501391008 -0.5905511811023622 0.9675024145145574 -0.6774524838791882 0.9675024145145574 -0.6774524838791882 C 0.9675024145145574 -0.6774524838791882 0.9047769013216274 -0.7591979641966996 0.9047769013216274 -0.7591979641966996 C 0.9047769013216274 -0.7591979641966996 0.8351654895904105 -0.8351654895904105 0.8351654895904105 -0.8351654895904105 C 0.8351654895904105 -0.8351654895904105 0.7591979641967002 -0.9047769013216279 0.7591979641967002 -0.9047769013216279 C 0.7591979641967002 -0.9047769013216279 0.6774524838791882 -0.9675024145145569 0.6774524838791882 -0.9675024145145569 C 0.6774524838791882 -0.9675024145145569 0.5905511811023622 -1.0228646501391008 0.5905511811023622 -1.0228646501391008 C 0.5905511811023622 -1.0228646501391008 0.49915542725279477 -1.0704422681535235 0.49915542725279477 -1.0704422681535235 C 0.49915542725279477 -1.0704422681535235 0.40396079920354616 -1.1098731741565844 0.40396079920354616 -1.1098731741565844 C 0.40396079920354616 -1.1098731741565844 0.305691785554159 -1.1408572751445683 0.305691785554159 -1.1408572751445683 C 0.305691785554159 -1.1408572751445683 0.20509627283495763 -1.163158763400246 0.20509627283495763 -1.163158763400246 C 0.20509627283495763 -1.163158763400246 0.10293985363896714 -1.176607911131983 0.10293985363896714 -1.176607911131983 C 0.10293985363896714 -1.176607911131983 8.392237036536616e-16 -1.1811023622047243 8.392237036536616e-16 -1.1811023622047243 C 8.392237036536616e-16 -1.1811023622047243 -0.10293985363896532 -1.176607911131983 -0.10293985363896532 -1.176607911131983 C -0.10293985363896532 -1.176607911131983 -0.20509627283495593 -1.163158763400246 -0.20509627283495593 -1.163158763400246 C -0.20509627283495593 -1.163158763400246 -0.30569178555415716 -1.1408572751445694 -0.30569178555415716 -1.1408572751445694 C -0.30569178555415716 -1.1408572751445694 -0.4039607992035445 -1.1098731741565855 -0.4039607992035445 -1.1098731741565855 C -0.4039607992035445 -1.1098731741565855 -0.4991554272527935 -1.0704422681535246 -0.4991554272527935 -1.0704422681535246 C -0.4991554272527935 -1.0704422681535246 -0.590551181102361 -1.0228646501391019 -0.590551181102361 -1.0228646501391019 C -0.590551181102361 -1.0228646501391019 -0.677452483879187 -0.967502414514558 -0.677452483879187 -0.967502414514558 C -0.677452483879187 -0.967502414514558 -0.7591979641966988 -0.904776901321629 -0.7591979641966988 -0.904776901321629 C -0.7591979641966988 -0.904776901321629 -0.8351654895904094 -0.8351654895904116 -0.8351654895904094 -0.8351654895904116 C -0.8351654895904094 -0.8351654895904116 -0.9047769013216264 -0.7591979641967018 -0.9047769013216264 -0.7591979641967018 C -0.9047769013216264 -0.7591979641967018 -0.967502414514556 -0.6774524838791893 -0.967502414514556 -0.6774524838791893 C -0.967502414514556 -0.6774524838791893 -1.0228646501390997 -0.5905511811023645 -1.0228646501390997 -0.5905511811023645 C -1.0228646501390997 -0.5905511811023645 -1.0704422681535226 -0.499155427252797 -1.0704422681535226 -0.499155427252797 C -1.0704422681535226 -0.499155427252797 -1.109873174156584 -0.40396079920354755 -1.109873174156584 -0.40396079920354755 C -1.109873174156584 -0.40396079920354755 -1.1408572751445683 -0.3056917855541612 -1.1408572751445683 -0.3056917855541612 C -1.1408572751445683 -0.3056917855541612 -1.1631587634002454 -0.20509627283495988 -1.1631587634002454 -0.20509627283495988 C -1.1631587634002454 -0.20509627283495988 -1.1766079111319827 -0.10293985363896882 -1.1766079111319827 -0.10293985363896882 C -1.1766079111319827 -0.10293985363896882 -1.1811023622047243 -2.2379298764097643e-15 -1.1811023622047243 -2.2379298764097643e-15 C -1.1811023622047243 -2.2379298764097643e-15 -1.1766079111319832 0.10293985363896323 -1.1766079111319832 0.10293985363896323 C -1.1766079111319832 0.10293985363896323 -1.1631587634002463 0.20509627283495427 -1.1631587634002463 0.20509627283495427 C -1.1631587634002463 0.20509627283495427 -1.1408572751445696 0.3056917855541556 -1.1408572751445696 0.3056917855541556 C -1.1408572751445696 0.3056917855541556 -1.109873174156586 0.4039607992035431 -1.109873174156586 0.4039607992035431 C -1.109873174156586 0.4039607992035431 -1.070442268153525 0.4991554272527914 -1.070442268153525 0.4991554272527914 C -1.070442268153525 0.4991554272527914 -1.0228646501391025 0.5905511811023588 -1.0228646501391025 0.5905511811023588 C -1.0228646501391025 0.5905511811023588 -0.9675024145145594 0.6774524838791848 -0.9675024145145594 0.6774524838791848 C -0.9675024145145594 0.6774524838791848 -0.9047769013216299 0.7591979641966974 -0.9047769013216299 0.7591979641966974 C -0.9047769013216299 0.7591979641966974 -0.8351654895904133 0.8351654895904072 -0.8351654895904133 0.8351654895904072 C -0.8351654895904133 0.8351654895904072 -0.7591979641967026 0.9047769013216257 -0.7591979641967026 0.9047769013216257 C -0.7591979641967026 0.9047769013216257 -0.6774524838791912 0.9675024145145558 -0.6774524838791912 0.9675024145145558 C -0.6774524838791912 0.9675024145145558 -0.5905511811023654 1.0228646501390986 -0.5905511811023654 1.0228646501390986 C -0.5905511811023654 1.0228646501390986 -0.4991554272527981 1.0704422681535224 -0.4991554272527981 1.0704422681535224 C -0.4991554272527981 1.0704422681535224 -0.4039607992035495 1.1098731741565833 -0.4039607992035495 1.1098731741565833 C -0.4039607992035495 1.1098731741565833 -0.3056917855541623 1.1408572751445671 -0.3056917855541623 1.1408572751445671 C -0.3056917855541623 1.1408572751445671 -0.20509627283496126 1.163158763400245 -0.20509627283496126 1.163158763400245 C -0.20509627283496126 1.163158763400245 -0.10293985363897064 1.176607911131983 -0.10293985363897064 1.176607911131983 C -0.10293985363897064 1.176607911131983 -4.475859752819529e-15 1.1811023622047243 -4.475859752819529e-15 1.1811023622047243 C -4.475859752819529e-15 1.1811023622047243 0.10293985363896183 1.176607911131983 0.10293985363896183 1.176607911131983 C 0.10293985363896183 1.176607911131983 0.2050962728349526 1.163158763400246 0.2050962728349526 1.163158763400246 C 0.2050962728349526 1.163158763400246 0.30569178555415366 1.1408572751445694 0.30569178555415366 1.1408572751445694 C 0.30569178555415366 1.1408572751445694 0.4039607992035411 1.1098731741565866 0.4039607992035411 1.1098731741565866 C 0.4039607992035411 1.1098731741565866 0.49915542725279 1.0704422681535257 0.49915542725279 1.0704422681535257 C 0.49915542725279 1.0704422681535257 0.5905511811023577 1.022864650139103 0.5905511811023577 1.022864650139103 C 0.5905511811023577 1.022864650139103 0.677452483879184 0.9675024145145602 0.677452483879184 0.9675024145145602 C 0.677452483879184 0.9675024145145602 0.7591979641966956 0.9047769013216312 0.7591979641966956 0.9047769013216312 C 0.7591979641966956 0.9047769013216312 0.8351654895904066 0.8351654895904138 0.8351654895904066 0.8351654895904138 C 0.8351654895904066 0.8351654895904138 0.904776901321624 0.759197964196704 0.904776901321624 0.759197964196704 C 0.904776901321624 0.759197964196704 0.9675024145145541 0.6774524838791927 0.9675024145145541 0.6774524838791927 C 0.9675024145145541 0.6774524838791927 1.0228646501390979 0.5905511811023678 1.0228646501390979 0.5905511811023678 C 1.0228646501390979 0.5905511811023678 1.0704422681535213 0.4991554272528004 1.0704422681535213 0.4991554272528004 C 1.0704422681535213 0.4991554272528004 1.1098731741565828 0.40396079920355205 1.1098731741565828 0.40396079920355205 C 1.1098731741565828 0.40396079920355205 1.1408572751445671 0.3056917855541646 1.1408572751445671 0.3056917855541646 C 1.1408572751445671 0.3056917855541646 1.1631587634002447 0.20509627283496323 1.1631587634002447 0.20509627283496323 C 1.1631587634002447 0.20509627283496323 1.1766079111319823 0.1029398536389733 1.1766079111319823 0.1029398536389733 C 1.1766079111319823 0.1029398536389733 1.1811023622047243 0 1.1811023622047243 0" stroke-width="0.01"></path></g></g><g fill="rgb(122,122,122)" stroke="none"><g transform="matrix(1,0,0,-1,5.199169449239407,3.5193075155325224)"><path class="fill" d="M -0.15748031496063006 2.204724409448819e-16 C -0.15748031496063006 2.204724409448819e-16 -0.5118110236220472 2.0866141732283465e-16 -0.5118110236220472 2.0866141732283465e-16 C -0.5118110236220472 2.0866141732283465e-16 -0.5118110236220472 0.15748031496063003 -0.5118110236220472 0.15748031496063003 C -0.5118110236220472 0.15748031496063003 -0.15748031496063006 0.15748031496063003 -0.15748031496063006 0.15748031496063003 C -0.15748031496063006 0.15748031496063003 -0.15748031496063006 0.3346456692913389 -0.15748031496063006 0.3346456692913389 C -0.15748031496063006 0.3346456692913389 -0.5118110236220472 0.3346456692913386 -0.5118110236220472 0.3346456692913386 C -0.5118110236220472 0.3346456692913386 -0.5118110236220472 0.4921259842519685 -0.5118110236220472 0.4921259842519685 C -0.5118110236220472 0.4921259842519685 0.2755905511811024 0.4921259842519685 0.2755905511811024 0.4921259842519685 C 0.2755905511811024 0.4921259842519685 0.2755905511811024 0.39370078740157477 0.2755905511811024 0.39370078740157477 C 0.2755905511811024 0.39370078740157477 0.5118110236220472 0.39370078740157477 0.5118110236220472 0.39370078740157477 C 0.5118110236220472 0.39370078740157477 0.5118110236220472 -0.4921259842519685 0.5118110236220472 -0.4921259842519685 C 0.5118110236220472 -0.4921259842519685 0.2755905511811022 -0.4921259842519685 0.2755905511811022 -0.4921259842519685 C 0.2755905511811022 -0.4921259842519685 0.2755905511811022 -0.3346456692913385 0.2755905511811022 -0.3346456692913385 C 0.2755905511811022 -0.3346456692913385 -0.5118110236220472 -0.3346456692913385 -0.5118110236220472 -0.3346456692913385 C -0.5118110236220472 -0.3346456692913385 -0.5118110236220472 -0.17716535433070849 -0.5118110236220472 -0.17716535433070849 C -0.5118110236220472 -0.17716535433070849 -0.15748031496063014 -0.1771653543307086 -0.15748031496063014 -0.1771653543307086 C -0.15748031496063014 -0.1771653543307086 -0.15748031496063006 2.204724409448819e-16 -0.15748031496063006 2.204724409448819e-16"></path></g></g><g fill="none" stroke="rgb(0,0,0)"><g transform="matrix(6.123233995736766e-17,1,-1,6.123233995736766e-17,5.120429291759092,3.5389925549026002)"><path class="outline" d="M -0.590551181102362 -0.5905511811023622 C -0.590551181102362 -0.5905511811023622 0.590551181102362 -0.5905511811023622 0.590551181102362 -0.5905511811023622 C 0.6992686515354329 -0.5905511811023622 0.7874015748031494 -0.5024182578346457 0.7874015748031494 -0.39370078740157477 C 0.7874015748031494 -0.39370078740157477 0.7874015748031494 0.39370078740157477 0.7874015748031494 0.39370078740157477 C 0.7874015748031494 0.5024182578346457 0.6992686515354329 0.5905511811023622 0.590551181102362 0.5905511811023622 C 0.590551181102362 0.5905511811023622 -0.590551181102362 0.5905511811023622 -0.590551181102362 0.5905511811023622 C -0.6992686515354329 0.5905511811023622 -0.7874015748031494 0.5024182578346457 -0.7874015748031494 0.39370078740157477 C -0.7874015748031494 0.39370078740157477 -0.7874015748031494 -0.39370078740157477 -0.7874015748031494 -0.39370078740157477 C -0.7874015748031494 -0.5024182578346457 -0.6992686515354329 -0.5905511811023622 -0.590551181102362 -0.5905511811023622" stroke-width="0.01"></path></g></g><g fill="none" stroke="rgb(0,0,0)"><g transform="matrix(0.8660254037844387,0.49999999999999994,0.49999999999999994,-0.8660254037844387,10.941059994266856,3.710628704380665)"><path class="outline" d="M -1.4255998241350443 -4.568000898863724 C -1.4255998241350443 -4.568000898863724 -4.5752061233476535 0.8872772352114789 -4.5752061233476535 0.8872772352114789 C -4.5752061233476535 0.8872772352114789 -4.531755471959243 0.9149583530237498 -4.531755471959243 0.9149583530237498 C -4.531755471959243 0.9149583530237498 -4.490882731800487 0.9463211096202149 -4.490882731800487 0.9463211096202149 C -4.490882731800487 0.9463211096202149 -4.452898969103632 0.981126815485823 -4.452898969103632 0.981126815485823 C -4.452898969103632 0.981126815485823 -4.418093263238023 1.019110578182678 -4.418093263238023 1.019110578182678 C -4.418093263238023 1.019110578182678 -4.386730506641559 1.0599833183414331 -4.386730506641559 1.0599833183414331 C -4.386730506641559 1.0599833183414331 -4.359049388829288 1.103433969729846 -4.359049388829288 1.103433969729846 C -4.359049388829288 1.103433969729846 -4.3352605798220765 1.1491318466546303 -4.3352605798220765 1.1491318466546303 C -4.3352605798220765 1.1491318466546303 -4.315545126820545 1.1967291606792538 -4.315545126820545 1.1967291606792538 C -4.315545126820545 1.1967291606792538 -4.300053076326554 1.2458636675039472 -4.300053076326554 1.2458636675039472 C -4.300053076326554 1.2458636675039472 -4.288902332198716 1.2961614238635477 -4.288902332198716 1.2961614238635477 C -4.288902332198716 1.2961614238635477 -4.282177758332846 1.3472396334615426 -4.282177758332846 1.3472396334615426 C -4.282177758332846 1.3472396334615426 -4.279930532796476 1.398709560281026 -4.279930532796476 1.398709560281026 C -4.279930532796476 1.398709560281026 -4.282177758332846 1.4501794871005094 -4.282177758332846 1.4501794871005094 C -4.282177758332846 1.4501794871005094 -4.288902332198716 1.5012576966985043 -4.288902332198716 1.5012576966985043 C -4.288902332198716 1.5012576966985043 -4.300053076326554 1.551555453058105 -4.300053076326554 1.551555453058105 C -4.300053076326554 1.551555453058105 -4.315545126820545 1.6006899598827982 -4.315545126820545 1.6006899598827982 C -4.315545126820545 1.6006899598827982 -4.3352605798220765 1.6482872739074217 -4.3352605798220765 1.6482872739074217 C -4.3352605798220765 1.6482872739074217 -4.359049388829288 1.693985150832206 -4.359049388829288 1.693985150832206 C -4.359049388829288 1.693985150832206 -4.359049388829296 1.6939851508322195 -4.359049388829296 1.6939851508322195 C -4.359049388829296 1.6939851508322195 0.618891908514305 4.568000898863724 0.618891908514305 4.568000898863724 C 0.618891908514305 4.568000898863724 0.6188919085143189 4.5680008988636995 0.6188919085143189 4.5680008988636995 C 0.6188919085143189 4.5680008988636995 0.6465730263265905 4.524550247475287 0.6465730263265905 4.524550247475287 C 0.6465730263265905 4.524550247475287 0.6779357829230556 4.483677507316531 0.6779357829230556 4.483677507316531 C 0.6779357829230556 4.483677507316531 0.712741488788664 4.4456937446196765 0.712741488788664 4.4456937446196765 C 0.712741488788664 4.4456937446196765 0.7507252514855192 4.410888038754067 0.7507252514855192 4.410888038754067 C 0.7507252514855192 4.410888038754067 0.7915979916442751 4.379525282157602 0.7915979916442751 4.379525282157602 C 0.7915979916442751 4.379525282157602 0.8350486430326881 4.351844164345331 0.8350486430326881 4.351844164345331 C 0.8350486430326881 4.351844164345331 0.8807465199574719 4.32805535533812 0.8807465199574719 4.32805535533812 C 0.8807465199574719 4.32805535533812 0.9283438339820962 4.30833990233659 0.9283438339820962 4.30833990233659 C 0.9283438339820962 4.30833990233659 0.9774783408067897 4.2928478518425965 0.9774783408067897 4.2928478518425965 C 0.9774783408067897 4.2928478518425965 1.0277760971663905 4.281697107714758 1.0277760971663905 4.281697107714758 C 1.0277760971663905 4.281697107714758 1.0788543067643857 4.27497253384889 1.0788543067643857 4.27497253384889 C 1.0788543067643857 4.27497253384889 1.1303242335838688 4.272725308312519 1.1303242335838688 4.272725308312519 C 1.1303242335838688 4.272725308312519 1.1817941604033522 4.27497253384889 1.1817941604033522 4.27497253384889 C 1.1817941604033522 4.27497253384889 1.2328723700013473 4.281697107714758 1.2328723700013473 4.281697107714758 C 1.2328723700013473 4.281697107714758 1.2831701263609478 4.2928478518425965 1.2831701263609478 4.2928478518425965 C 1.2831701263609478 4.2928478518425965 1.3323046331856416 4.30833990233659 1.3323046331856416 4.30833990233659 C 1.3323046331856416 4.30833990233659 1.3799019472102658 4.32805535533812 1.3799019472102658 4.32805535533812 C 1.3799019472102658 4.32805535533812 1.425599824135043 4.351844164345327 1.425599824135043 4.351844164345327 C 1.425599824135043 4.351844164345327 4.5752061233476535 -1.1034339697298707 4.5752061233476535 -1.1034339697298707 C 4.5752061233476535 -1.1034339697298707 -1.4255998241350443 -4.568000898863724 -1.4255998241350443 -4.568000898863724" stroke-width="0.01"></path></g></g><g fill="none" stroke="rgb(0,0,0)"><g transform="matrix(0.8660254037844387,0.49999999999999994,0.49999999999999994,-0.8660254037844387,12.466181774007378,3.542769987232272)"><path class="outline" d="M 1.1811023622047243 0 C 1.1811023622047243 0 1.176607911131983 -0.10293985363896659 1.176607911131983 -0.10293985363896659 C 1.176607911131983 -0.10293985363896659 1.1631587634002458 -0.20509627283495763 1.1631587634002458 -0.20509627283495763 C 1.1631587634002458 -0.20509627283495763 1.140857275144569 -0.3056917855541579 1.140857275144569 -0.3056917855541579 C 1.140857275144569 -0.3056917855541579 1.1098731741565846 -0.40396079920354533 1.1098731741565846 -0.40396079920354533 C 1.1098731741565846 -0.40396079920354533 1.0704422681535235 -0.49915542725279477 1.0704422681535235 -0.49915542725279477 C 1.0704422681535235 -0.49915542725279477 1.0228646501391008 -0.5905511811023622 1.0228646501391008 -0.5905511811023622 C 1.0228646501391008 -0.5905511811023622 0.9675024145145574 -0.6774524838791882 0.9675024145145574 -0.6774524838791882 C 0.9675024145145574 -0.6774524838791882 0.9047769013216274 -0.7591979641966996 0.9047769013216274 -0.7591979641966996 C 0.9047769013216274 -0.7591979641966996 0.8351654895904105 -0.8351654895904105 0.8351654895904105 -0.8351654895904105 C 0.8351654895904105 -0.8351654895904105 0.7591979641967002 -0.9047769013216279 0.7591979641967002 -0.9047769013216279 C 0.7591979641967002 -0.9047769013216279 0.6774524838791882 -0.9675024145145569 0.6774524838791882 -0.9675024145145569 C 0.6774524838791882 -0.9675024145145569 0.5905511811023622 -1.0228646501391008 0.5905511811023622 -1.0228646501391008 C 0.5905511811023622 -1.0228646501391008 0.49915542725279477 -1.0704422681535235 0.49915542725279477 -1.0704422681535235 C 0.49915542725279477 -1.0704422681535235 0.40396079920354616 -1.1098731741565844 0.40396079920354616 -1.1098731741565844 C 0.40396079920354616 -1.1098731741565844 0.305691785554159 -1.1408572751445683 0.305691785554159 -1.1408572751445683 C 0.305691785554159 -1.1408572751445683 0.20509627283495763 -1.163158763400246 0.20509627283495763 -1.163158763400246 C 0.20509627283495763 -1.163158763400246 0.10293985363896714 -1.176607911131983 0.10293985363896714 -1.176607911131983 C 0.10293985363896714 -1.176607911131983 8.392237036536616e-16 -1.1811023622047243 8.392237036536616e-16 -1.1811023622047243 C 8.392237036536616e-16 -1.1811023622047243 -0.10293985363896532 -1.176607911131983 -0.10293985363896532 -1.176607911131983 C -0.10293985363896532 -1.176607911131983 -0.20509627283495593 -1.163158763400246 -0.20509627283495593 -1.163158763400246 C -0.20509627283495593 -1.163158763400246 -0.30569178555415716 -1.1408572751445694 -0.30569178555415716 -1.1408572751445694 C -0.30569178555415716 -1.1408572751445694 -0.4039607992035445 -1.1098731741565855 -0.4039607992035445 -1.1098731741565855 C -0.4039607992035445 -1.1098731741565855 -0.4991554272527935 -1.0704422681535246 -0.4991554272527935 -1.0704422681535246 C -0.4991554272527935 -1.0704422681535246 -0.590551181102361 -1.0228646501391019 -0.590551181102361 -1.0228646501391019 C -0.590551181102361 -1.0228646501391019 -0.677452483879187 -0.967502414514558 -0.677452483879187 -0.967502414514558 C -0.677452483879187 -0.967502414514558 -0.7591979641966988 -0.904776901321629 -0.7591979641966988 -0.904776901321629 C -0.7591979641966988 -0.904776901321629 -0.8351654895904094 -0.8351654895904116 -0.8351654895904094 -0.8351654895904116 C -0.8351654895904094 -0.8351654895904116 -0.9047769013216264 -0.7591979641967018 -0.9047769013216264 -0.7591979641967018 C -0.9047769013216264 -0.7591979641967018 -0.967502414514556 -0.6774524838791893 -0.967502414514556 -0.6774524838791893 C -0.967502414514556 -0.6774524838791893 -1.0228646501390997 -0.5905511811023645 -1.0228646501390997 -0.5905511811023645 C -1.0228646501390997 -0.5905511811023645 -1.0704422681535226 -0.499155427252797 -1.0704422681535226 -0.499155427252797 C -1.0704422681535226 -0.499155427252797 -1.109873174156584 -0.40396079920354755 -1.109873174156584 -0.40396079920354755 C -1.109873174156584 -0.40396079920354755 -1.1408572751445683 -0.3056917855541612 -1.1408572751445683 -0.3056917855541612 C -1.1408572751445683 -0.3056917855541612 -1.1631587634002454 -0.20509627283495988 -1.1631587634002454 -0.20509627283495988 C -1.1631587634002454 -0.20509627283495988 -1.1766079111319827 -0.10293985363896882 -1.1766079111319827 -0.10293985363896882 C -1.1766079111319827 -0.10293985363896882 -1.1811023622047243 -2.2379298764097643e-15 -1.1811023622047243 -2.2379298764097643e-15 C -1.1811023622047243 -2.2379298764097643e-15 -1.1766079111319832 0.10293985363896323 -1.1766079111319832 0.10293985363896323 C -1.1766079111319832 0.10293985363896323 -1.1631587634002463 0.20509627283495427 -1.1631587634002463 0.20509627283495427 C -1.1631587634002463 0.20509627283495427 -1.1408572751445696 0.3056917855541556 -1.1408572751445696 0.3056917855541556 C -1.1408572751445696 0.3056917855541556 -1.109873174156586 0.4039607992035431 -1.109873174156586 0.4039607992035431 C -1.109873174156586 0.4039607992035431 -1.070442268153525 0.4991554272527914 -1.070442268153525 0.4991554272527914 C -1.070442268153525 0.4991554272527914 -1.0228646501391025 0.5905511811023588 -1.0228646501391025 0.5905511811023588 C -1.0228646501391025 0.5905511811023588 -0.9675024145145594 0.6774524838791848 -0.9675024145145594 0.6774524838791848 C -0.9675024145145594 0.6774524838791848 -0.9047769013216299 0.7591979641966974 -0.9047769013216299 0.7591979641966974 C -0.9047769013216299 0.7591979641966974 -0.8351654895904133 0.8351654895904072 -0.8351654895904133 0.8351654895904072 C -0.8351654895904133 0.8351654895904072 -0.7591979641967026 0.9047769013216257 -0.7591979641967026 0.9047769013216257 C -0.7591979641967026 0.9047769013216257 -0.6774524838791912 0.9675024145145558 -0.6774524838791912 0.9675024145145558 C -0.6774524838791912 0.9675024145145558 -0.5905511811023654 1.0228646501390986 -0.5905511811023654 1.0228646501390986 C -0.5905511811023654 1.0228646501390986 -0.4991554272527981 1.0704422681535224 -0.4991554272527981 1.0704422681535224 C -0.4991554272527981 1.0704422681535224 -0.4039607992035495 1.1098731741565833 -0.4039607992035495 1.1098731741565833 C -0.4039607992035495 1.1098731741565833 -0.3056917855541623 1.1408572751445671 -0.3056917855541623 1.1408572751445671 C -0.3056917855541623 1.1408572751445671 -0.20509627283496126 1.163158763400245 -0.20509627283496126 1.163158763400245 C -0.20509627283496126 1.163158763400245 -0.10293985363897064 1.176607911131983 -0.10293985363897064 1.176607911131983 C -0.10293985363897064 1.176607911131983 -4.475859752819529e-15 1.1811023622047243 -4.475859752819529e-15 1.1811023622047243 C -4.475859752819529e-15 1.1811023622047243 0.10293985363896183 1.176607911131983 0.10293985363896183 1.176607911131983 C 0.10293985363896183 1.176607911131983 0.2050962728349526 1.163158763400246 0.2050962728349526 1.163158763400246 C 0.2050962728349526 1.163158763400246 0.30569178555415366 1.1408572751445694 0.30569178555415366 1.1408572751445694 C 0.30569178555415366 1.1408572751445694 0.4039607992035411 1.1098731741565866 0.4039607992035411 1.1098731741565866 C 0.4039607992035411 1.1098731741565866 0.49915542725279 1.0704422681535257 0.49915542725279 1.0704422681535257 C 0.49915542725279 1.0704422681535257 0.5905511811023577 1.022864650139103 0.5905511811023577 1.022864650139103 C 0.5905511811023577 1.022864650139103 0.677452483879184 0.9675024145145602 0.677452483879184 0.9675024145145602 C 0.677452483879184 0.9675024145145602 0.7591979641966956 0.9047769013216312 0.7591979641966956 0.9047769013216312 C 0.7591979641966956 0.9047769013216312 0.8351654895904066 0.8351654895904138 0.8351654895904066 0.8351654895904138 C 0.8351654895904066 0.8351654895904138 0.904776901321624 0.759197964196704 0.904776901321624 0.759197964196704 C 0.904776901321624 0.759197964196704 0.9675024145145541 0.6774524838791927 0.9675024145145541 0.6774524838791927 C 0.9675024145145541 0.6774524838791927 1.0228646501390979 0.5905511811023678 1.0228646501390979 0.5905511811023678 C 1.0228646501390979 0.5905511811023678 1.0704422681535213 0.4991554272528004 1.0704422681535213 0.4991554272528004 C 1.0704422681535213 0.4991554272528004 1.1098731741565828 0.40396079920355205 1.1098731741565828 0.40396079920355205 C 1.1098731741565828 0.40396079920355205 1.1408572751445671 0.3056917855541646 1.1408572751445671 0.3056917855541646 C 1.1408572751445671 0.3056917855541646 1.1631587634002447 0.20509627283496323 1.1631587634002447 0.20509627283496323 C 1.1631587634002447 0.20509627283496323 1.1766079111319823 0.1029398536389733 1.1766079111319823 0.1029398536389733 C 1.1766079111319823 0.1029398536389733 1.1811023622047243 0 1.1811023622047243 0" stroke-width="0.01"></path></g></g></g>
  </g>
</svg>