<svg width="22.17901557010985in" height="3.12992125984252in" viewBox="0 0 22.17901557010985 3.12992125984252" xmlns="http://www.w3.org/2000/svg" xmlnsXlink="http://www.w3.org/1999/xlink">
  <g transform="translate(0 3.12992125984252)">
    <g data-reactroot="" transform="scale(1, -1)"><g fill="none" stroke="rgb(0,0,0)"><g transform="matrix(1,0,0,-1,21.1160234441256,2.952755905511811)"><path class="outline" d="M -0.8858267716535433 -0.17716535433070865 C -0.8858267716535433 -0.17716535433070865 0.8858267716535438 -0.17716535433070865 0.8858267716535438 -0.17716535433070865 C 0.8858267716535438 -0.17716535433070865 0.9012677496993888 -0.17649118666979743 0.9012677496993888 -0.17649118666979743 C 0.9012677496993888 -0.17649118666979743 0.9165912125787874 -0.17447381451003685 0.9165912125787874 -0.17447381451003685 C 0.9165912125787874 -0.17447381451003685 0.9316805394866675 -0.17112859127168534 0.9316805394866675 -0.17112859127168534 C 0.9316805394866675 -0.17112859127168534 0.9464208915340758 -0.1664809761234877 0.9464208915340758 -0.1664809761234877 C 0.9464208915340758 -0.1664809761234877 0.9607000857414629 -0.16056634022302854 0.9607000857414629 -0.16056634022302854 C 0.9607000857414629 -0.16056634022302854 0.9744094488188982 -0.1534296975208651 0.9744094488188982 -0.1534296975208651 C 0.9744094488188982 -0.1534296975208651 0.9874446442354223 -0.14512536217718358 0.9874446442354223 -0.14512536217718358 C 0.9874446442354223 -0.14512536217718358 0.9997064662830489 -0.13571653519824414 0.9997064662830489 -0.13571653519824414 C 0.9997064662830489 -0.13571653519824414 1.0111015950921052 -0.12527482343856156 1.0111015950921052 -0.12527482343856156 C 1.0111015950921052 -0.12527482343856156 1.021543306851788 -0.113879694629505 1.021543306851788 -0.113879694629505 C 1.021543306851788 -0.113879694629505 1.0309521338307273 -0.10161787258187822 1.0309521338307273 -0.10161787258187822 C 1.0309521338307273 -0.10161787258187822 1.0392564691744088 -0.08858267716535433 1.0392564691744088 -0.08858267716535433 C 1.0392564691744088 -0.08858267716535433 1.0463931118765724 -0.0748733140879192 1.0463931118765724 -0.0748733140879192 C 1.0463931118765724 -0.0748733140879192 1.0523077477770317 -0.060594119880531865 1.0523077477770317 -0.060594119880531865 C 1.0523077477770317 -0.060594119880531865 1.0569553629252288 -0.045853767833123754 1.0569553629252288 -0.045853767833123754 C 1.0569553629252288 -0.045853767833123754 1.0603005861635804 -0.03076444092524356 1.0603005861635804 -0.03076444092524356 C 1.0603005861635804 -0.03076444092524356 1.0623179583233413 -0.01544097804584495 1.0623179583233413 -0.01544097804584495 C 1.0623179583233413 -0.01544097804584495 1.0629921259842525 0 1.0629921259842525 0 C 1.0629921259842525 0 1.0623179583233413 0.01544097804584495 1.0623179583233413 0.01544097804584495 C 1.0623179583233413 0.01544097804584495 1.0603005861635804 0.03076444092524356 1.0603005861635804 0.03076444092524356 C 1.0603005861635804 0.03076444092524356 1.0569553629252288 0.045853767833123754 1.0569553629252288 0.045853767833123754 C 1.0569553629252288 0.045853767833123754 1.0523077477770317 0.060594119880531865 1.0523077477770317 0.060594119880531865 C 1.0523077477770317 0.060594119880531865 1.0463931118765724 0.0748733140879192 1.0463931118765724 0.0748733140879192 C 1.0463931118765724 0.0748733140879192 1.0392564691744088 0.08858267716535433 1.0392564691744088 0.08858267716535433 C 1.0392564691744088 0.08858267716535433 1.0309521338307273 0.10161787258187822 1.0309521338307273 0.10161787258187822 C 1.0309521338307273 0.10161787258187822 1.021543306851788 0.113879694629505 1.021543306851788 0.113879694629505 C 1.021543306851788 0.113879694629505 1.0111015950921052 0.12527482343856156 1.0111015950921052 0.12527482343856156 C 1.0111015950921052 0.12527482343856156 0.9997064662830489 0.13571653519824414 0.9997064662830489 0.13571653519824414 C 0.9997064662830489 0.13571653519824414 0.9874446442354223 0.14512536217718358 0.9874446442354223 0.14512536217718358 C 0.9874446442354223 0.14512536217718358 0.9744094488188982 0.1534296975208651 0.9744094488188982 0.1534296975208651 C 0.9744094488188982 0.1534296975208651 0.9607000857414629 0.16056634022302854 0.9607000857414629 0.16056634022302854 C 0.9607000857414629 0.16056634022302854 0.9464208915340758 0.1664809761234877 0.9464208915340758 0.1664809761234877 C 0.9464208915340758 0.1664809761234877 0.9316805394866675 0.17112859127168534 0.9316805394866675 0.17112859127168534 C 0.9316805394866675 0.17112859127168534 0.9165912125787874 0.17447381451003685 0.9165912125787874 0.17447381451003685 C 0.9165912125787874 0.17447381451003685 0.9012677496993888 0.17649118666979743 0.9012677496993888 0.17649118666979743 C 0.9012677496993888 0.17649118666979743 0.8858267716535438 0.17716535433070865 0.8858267716535438 0.17716535433070865 C 0.8858267716535438 0.17716535433070865 -0.8858267716535433 0.17716535433070843 -0.8858267716535433 0.17716535433070843 C -0.8858267716535433 0.17716535433070843 -0.9012677496993882 0.1764911866697972 -0.9012677496993882 0.1764911866697972 C -0.9012677496993882 0.1764911866697972 -0.9165912125787867 0.17447381451003663 -0.9165912125787867 0.17447381451003663 C -0.9165912125787867 0.17447381451003663 -0.9316805394866668 0.1711285912716851 -0.9316805394866668 0.1711285912716851 C -0.9316805394866668 0.1711285912716851 -0.9464208915340753 0.16648097612348745 -0.9464208915340753 0.16648097612348745 C -0.9464208915340753 0.16648097612348745 -0.9607000857414623 0.16056634022302832 -0.9607000857414623 0.16056634022302832 C -0.9607000857414623 0.16056634022302832 -0.9744094488188976 0.15342969752086486 -0.9744094488188976 0.15342969752086486 C -0.9744094488188976 0.15342969752086486 -0.9874446442354217 0.14512536217718333 -0.9874446442354217 0.14512536217718333 C -0.9874446442354217 0.14512536217718333 -0.9997064662830483 0.1357165351982439 -0.9997064662830483 0.1357165351982439 C -0.9997064662830483 0.1357165351982439 -1.0111015950921045 0.12527482343856136 -1.0111015950921045 0.12527482343856136 C -1.0111015950921045 0.12527482343856136 -1.021543306851787 0.11387969462950479 -1.021543306851787 0.11387969462950479 C -1.021543306851787 0.11387969462950479 -1.0309521338307266 0.10161787258187802 -1.0309521338307266 0.10161787258187802 C -1.0309521338307266 0.10161787258187802 -1.0392564691744082 0.08858267716535417 -1.0392564691744082 0.08858267716535417 C -1.0392564691744082 0.08858267716535417 -1.0463931118765717 0.07487331408791899 -1.0463931118765717 0.07487331408791899 C -1.0463931118765717 0.07487331408791899 -1.0523077477770304 0.060594119880531684 -1.0523077477770304 0.060594119880531684 C -1.0523077477770304 0.060594119880531684 -1.0569553629252282 0.04585376783312354 -1.0569553629252282 0.04585376783312354 C -1.0569553629252282 0.04585376783312354 -1.0603005861635797 0.03076444092524345 -1.0603005861635797 0.03076444092524345 C -1.0603005861635797 0.03076444092524345 -1.0623179583233406 0.015440978045844782 -1.0623179583233406 0.015440978045844782 C -1.0623179583233406 0.015440978045844782 -1.0629921259842519 -1.3971233173638716e-16 -1.0629921259842519 -1.3971233173638716e-16 C -1.0629921259842519 -1.3971233173638716e-16 -1.0623179583233406 -0.015440978045845063 -1.0623179583233406 -0.015440978045845063 C -1.0623179583233406 -0.015440978045845063 -1.0603005861635797 -0.030764440925243726 -1.0603005861635797 -0.030764440925243726 C -1.0603005861635797 -0.030764440925243726 -1.0569553629252282 -0.04585376783312389 -1.0569553629252282 -0.04585376783312389 C -1.0569553629252282 -0.04585376783312389 -1.0523077477770304 -0.06059411988053196 -1.0523077477770304 -0.06059411988053196 C -1.0523077477770304 -0.06059411988053196 -1.0463931118765717 -0.07487331408791927 -1.0463931118765717 -0.07487331408791927 C -1.0463931118765717 -0.07487331408791927 -1.0392564691744082 -0.08858267716535438 -1.0392564691744082 -0.08858267716535438 C -1.0392564691744082 -0.08858267716535438 -1.0309521338307266 -0.10161787258187827 -1.0309521338307266 -0.10161787258187827 C -1.0309521338307266 -0.10161787258187827 -1.021543306851787 -0.11387969462950506 -1.021543306851787 -0.11387969462950506 C -1.021543306851787 -0.11387969462950506 -1.0111015950921045 -0.1252748234385616 -1.0111015950921045 -0.1252748234385616 C -1.0111015950921045 -0.1252748234385616 -0.9997064662830483 -0.13571653519824417 -0.9997064662830483 -0.13571653519824417 C -0.9997064662830483 -0.13571653519824417 -0.987444644235421 -0.14512536217718366 -0.987444644235421 -0.14512536217718366 C -0.987444644235421 -0.14512536217718366 -0.9744094488188976 -0.15342969752086513 -0.9744094488188976 -0.15342969752086513 C -0.9744094488188976 -0.15342969752086513 -0.9607000857414623 -0.16056634022302857 -0.9607000857414623 -0.16056634022302857 C -0.9607000857414623 -0.16056634022302857 -0.9464208915340753 -0.16648097612348772 -0.9464208915340753 -0.16648097612348772 C -0.9464208915340753 -0.16648097612348772 -0.9316805394866668 -0.17112859127168534 -0.9316805394866668 -0.17112859127168534 C -0.9316805394866668 -0.17112859127168534 -0.9165912125787867 -0.17447381451003685 -0.9165912125787867 -0.17447381451003685 C -0.9165912125787867 -0.17447381451003685 -0.9012677496993882 -0.17649118666979743 -0.9012677496993882 -0.17649118666979743 C -0.9012677496993882 -0.17649118666979743 -0.8858267716535433 -0.17716535433070865 -0.8858267716535433 -0.17716535433070865" stroke-width="0.01"></path></g></g><g fill="none" stroke="rgb(0,0,0)"><g transform="matrix(1,0,0,-1,4.580590373259451,2.952755905511811)"><path class="outline" d="M 0.17716535433070865 0 C 0.17716535433070865 0 0.17649118666979677 -0.015440978045844947 0.17649118666979677 -0.015440978045844947 C 0.17649118666979677 -0.015440978045844947 0.17447381451003638 -0.030764440925243556 0.17447381451003638 -0.030764440925243556 C 0.17447381451003638 -0.030764440925243556 0.17112859127168492 -0.04585376783312374 0.17112859127168492 -0.04585376783312374 C 0.17112859127168492 -0.04585376783312374 0.16648097612348717 -0.060594119880531844 0.16648097612348717 -0.060594119880531844 C 0.16648097612348717 -0.060594119880531844 0.160566340223029 -0.07487331408791917 0.160566340223029 -0.07487331408791917 C 0.160566340223029 -0.07487331408791917 0.15342969752086427 -0.0885826771653543 0.15342969752086427 -0.0885826771653543 C 0.15342969752086427 -0.0885826771653543 0.1451253621771847 -0.10161787258187821 0.1451253621771847 -0.10161787258187821 C 0.1451253621771847 -0.10161787258187821 0.135716535198243 -0.11387969462950497 0.135716535198243 -0.11387969462950497 C 0.135716535198243 -0.11387969462950497 0.12527482343856258 -0.12527482343856153 0.12527482343856258 -0.12527482343856153 C 0.12527482343856258 -0.12527482343856153 0.11387969462950442 -0.1357165351982441 0.11387969462950442 -0.1357165351982441 C 0.11387969462950442 -0.1357165351982441 0.10161787258187839 -0.14512536217718353 0.10161787258187839 -0.14512536217718353 C 0.10161787258187839 -0.14512536217718353 0.08858267716535433 -0.15342969752086505 0.08858267716535433 -0.15342969752086505 C 0.08858267716535433 -0.15342969752086505 0.07487331408791838 -0.16056634022302846 0.07487331408791838 -0.16056634022302846 C 0.07487331408791838 -0.16056634022302846 0.06059411988053196 -0.16648097612348764 0.06059411988053196 -0.16648097612348764 C 0.06059411988053196 -0.16648097612348764 0.04585376783312485 -0.17112859127168525 0.04585376783312485 -0.17112859127168525 C 0.04585376783312485 -0.17112859127168525 0.030764440925244146 -0.1744738145100368 0.030764440925244146 -0.1744738145100368 C 0.030764440925244146 -0.1744738145100368 0.015440978045844315 -0.17649118666979738 0.015440978045844315 -0.17649118666979738 C 0.015440978045844315 -0.17649118666979738 0 -0.17716535433070862 0 -0.17716535433070862 C 0 -0.17716535433070862 -0.015440978045844315 -0.1764911866697974 -0.015440978045844315 -0.1764911866697974 C -0.015440978045844315 -0.1764911866697974 -0.030764440925244146 -0.17447381451003685 -0.030764440925244146 -0.17447381451003685 C -0.030764440925244146 -0.17447381451003685 -0.04585376783312233 -0.1711285912716853 -0.04585376783312233 -0.1711285912716853 C -0.04585376783312233 -0.1711285912716853 -0.06059411988053196 -0.16648097612348772 -0.06059411988053196 -0.16648097612348772 C -0.06059411988053196 -0.16648097612348772 -0.07487331408791838 -0.16056634022302857 -0.07487331408791838 -0.16056634022302857 C -0.07487331408791838 -0.16056634022302857 -0.08858267716535433 -0.15342969752086516 -0.08858267716535433 -0.15342969752086516 C -0.08858267716535433 -0.15342969752086516 -0.10161787258187839 -0.14512536217718366 -0.10161787258187839 -0.14512536217718366 C -0.10161787258187839 -0.14512536217718366 -0.11387969462950442 -0.13571653519824425 -0.11387969462950442 -0.13571653519824425 C -0.11387969462950442 -0.13571653519824425 -0.12527482343856258 -0.12527482343856172 -0.12527482343856258 -0.12527482343856172 C -0.12527482343856258 -0.12527482343856172 -0.135716535198243 -0.11387969462950517 -0.135716535198243 -0.11387969462950517 C -0.135716535198243 -0.11387969462950517 -0.1451253621771822 -0.10161787258187845 -0.1451253621771822 -0.10161787258187845 C -0.1451253621771822 -0.10161787258187845 -0.15342969752086427 -0.08858267716535458 -0.15342969752086427 -0.08858267716535458 C -0.15342969752086427 -0.08858267716535458 -0.160566340223029 -0.07487331408791946 -0.160566340223029 -0.07487331408791946 C -0.160566340223029 -0.07487331408791946 -0.16648097612348717 -0.06059411988053217 -0.16648097612348717 -0.06059411988053217 C -0.16648097612348717 -0.06059411988053217 -0.17112859127168492 -0.045853767833124094 -0.17112859127168492 -0.045853767833124094 C -0.17112859127168492 -0.045853767833124094 -0.17447381451003638 -0.030764440925243934 -0.17447381451003638 -0.030764440925243934 C -0.17447381451003638 -0.030764440925243934 -0.17649118666979677 -0.015440978045845342 -0.17649118666979677 -0.015440978045845342 C -0.17649118666979677 -0.015440978045845342 -0.17716535433070865 -4.150826094977447e-16 -0.17716535433070865 -4.150826094977447e-16 C -0.17716535433070865 -4.150826094977447e-16 -0.17649118666979677 0.015440978045844517 -0.17649118666979677 0.015440978045844517 C -0.17649118666979677 0.015440978045844517 -0.17447381451003638 0.030764440925243112 -0.17447381451003638 0.030764440925243112 C -0.17447381451003638 0.030764440925243112 -0.17112859127168492 0.04585376783312329 -0.17112859127168492 0.04585376783312329 C -0.17112859127168492 0.04585376783312329 -0.16648097612348717 0.06059411988053139 -0.16648097612348717 0.06059411988053139 C -0.16648097612348717 0.06059411988053139 -0.160566340223029 0.07487331408791871 -0.160566340223029 0.07487331408791871 C -0.160566340223029 0.07487331408791871 -0.15342969752086427 0.08858267716535385 -0.15342969752086427 0.08858267716535385 C -0.15342969752086427 0.08858267716535385 -0.1451253621771847 0.10161787258187778 -0.1451253621771847 0.10161787258187778 C -0.1451253621771847 0.10161787258187778 -0.13571653519824553 0.11387969462950455 -0.13571653519824553 0.11387969462950455 C -0.13571653519824553 0.11387969462950455 -0.12527482343856258 0.12527482343856114 -0.12527482343856258 0.12527482343856114 C -0.12527482343856258 0.12527482343856114 -0.11387969462950442 0.13571653519824375 -0.11387969462950442 0.13571653519824375 C -0.11387969462950442 0.13571653519824375 -0.10161787258187839 0.14512536217718322 -0.10161787258187839 0.14512536217718322 C -0.10161787258187839 0.14512536217718322 -0.08858267716535433 0.15342969752086477 -0.08858267716535433 0.15342969752086477 C -0.08858267716535433 0.15342969752086477 -0.07487331408792089 0.16056634022302824 -0.07487331408792089 0.16056634022302824 C -0.07487331408792089 0.16056634022302824 -0.06059411988053196 0.16648097612348747 -0.06059411988053196 0.16648097612348747 C -0.06059411988053196 0.16648097612348747 -0.04585376783312485 0.17112859127168512 -0.04585376783312485 0.17112859127168512 C -0.04585376783312485 0.17112859127168512 -0.030764440925244146 0.1744738145100367 -0.030764440925244146 0.1744738145100367 C -0.030764440925244146 0.1744738145100367 -0.015440978045846833 0.17649118666979732 -0.015440978045846833 0.17649118666979732 C -0.015440978045846833 0.17649118666979732 0 0.17716535433070862 0 0.17716535433070862 C 0 0.17716535433070862 0.015440978045844315 0.17649118666979746 0.015440978045844315 0.17649118666979746 C 0.015440978045844315 0.17649118666979746 0.030764440925241627 0.17447381451003693 0.030764440925241627 0.17447381451003693 C 0.030764440925241627 0.17447381451003693 0.04585376783312233 0.17112859127168545 0.04585376783312233 0.17112859127168545 C 0.04585376783312233 0.17112859127168545 0.06059411988053196 0.1664809761234879 0.06059411988053196 0.1664809761234879 C 0.06059411988053196 0.1664809761234879 0.07487331408791838 0.1605663402230288 0.07487331408791838 0.1605663402230288 C 0.07487331408791838 0.1605663402230288 0.08858267716535433 0.15342969752086544 0.08858267716535433 0.15342969752086544 C 0.08858267716535433 0.15342969752086544 0.10161787258187839 0.145125362177184 0.10161787258187839 0.145125362177184 C 0.10161787258187839 0.145125362177184 0.11387969462950442 0.13571653519824461 0.11387969462950442 0.13571653519824461 C 0.11387969462950442 0.13571653519824461 0.12527482343856006 0.1252748234385621 0.12527482343856006 0.1252748234385621 C 0.12527482343856006 0.1252748234385621 0.135716535198243 0.11387969462950563 0.135716535198243 0.11387969462950563 C 0.135716535198243 0.11387969462950563 0.1451253621771822 0.10161787258187892 0.1451253621771822 0.10161787258187892 C 0.1451253621771822 0.10161787258187892 0.15342969752086427 0.08858267716535508 0.15342969752086427 0.08858267716535508 C 0.15342969752086427 0.08858267716535508 0.160566340223029 0.07487331408791999 0.160566340223029 0.07487331408791999 C 0.160566340223029 0.07487331408791999 0.16648097612348717 0.06059411988053271 0.16648097612348717 0.06059411988053271 C 0.16648097612348717 0.06059411988053271 0.17112859127168492 0.04585376783312464 0.17112859127168492 0.04585376783312464 C 0.17112859127168492 0.04585376783312464 0.17447381451003638 0.030764440925244496 0.17447381451003638 0.030764440925244496 C 0.17447381451003638 0.030764440925244496 0.17649118666979677 0.015440978045845913 0.17649118666979677 0.015440978045845913 C 0.17649118666979677 0.015440978045845913 0.17716535433070865 4.3392996820181794e-17 0.17716535433070865 4.3392996820181794e-17" stroke-width="0.01"></path></g></g></g>
  </g>
</svg>