<svg width="20.2755905511811in" height="5.196850393700783in" viewBox="0 0 20.2755905511811 5.196850393700783" xmlns="http://www.w3.org/2000/svg" xmlnsXlink="http://www.w3.org/1999/xlink">
  <g transform="translate(0 5.196850393700783)">
    <g data-reactroot="" transform="scale(1, -1)"><g fill="none" stroke="rgb(0,0,0)"><g transform="matrix(1,0,0,1,4.527559055118111,3.4251968503936956)"><path class="outline" d="M -0.39370078740157477 -1.7716535433070866 C -0.39370078740157477 -1.7716535433070866 0.39370078740157477 -1.7716535433070866 0.39370078740157477 -1.7716535433070866 C 0.6111357282677164 -1.7716535433070866 0.7874015748031495 -1.5953876967716536 0.7874015748031495 -1.3779527559055118 C 0.7874015748031495 -1.3779527559055118 0.7874015748031495 1.3779527559055118 0.7874015748031495 1.3779527559055118 C 0.7874015748031495 1.5953876967716536 0.6111357282677164 1.7716535433070866 0.39370078740157477 1.7716535433070866 C 0.39370078740157477 1.7716535433070866 -0.39370078740157477 1.7716535433070866 -0.39370078740157477 1.7716535433070866 C -0.6111357282677164 1.7716535433070866 -0.7874015748031495 1.5953876967716536 -0.7874015748031495 1.3779527559055118 C -0.7874015748031495 1.3779527559055118 -0.7874015748031495 -1.3779527559055118 -0.7874015748031495 -1.3779527559055118 C -0.7874015748031495 -1.5953876967716536 -0.6111357282677164 -1.7716535433070866 -0.39370078740157477 -1.7716535433070866" stroke-width="0.01"></path></g></g><g fill="none" stroke="rgb(0,0,0)"><g transform="matrix(1,0,0,1,19.488188976377952,3.4251968503936956)"><path class="outline" d="M -0.39370078740157477 -1.7716535433070866 C -0.39370078740157477 -1.7716535433070866 0.39370078740157477 -1.7716535433070866 0.39370078740157477 -1.7716535433070866 C 0.6111357282677164 -1.7716535433070866 0.7874015748031495 -1.5953876967716536 0.7874015748031495 -1.3779527559055118 C 0.7874015748031495 -1.3779527559055118 0.7874015748031495 1.3779527559055118 0.7874015748031495 1.3779527559055118 C 0.7874015748031495 1.5953876967716536 0.6111357282677164 1.7716535433070866 0.39370078740157477 1.7716535433070866 C 0.39370078740157477 1.7716535433070866 -0.39370078740157477 1.7716535433070866 -0.39370078740157477 1.7716535433070866 C -0.6111357282677164 1.7716535433070866 -0.7874015748031495 1.5953876967716536 -0.7874015748031495 1.3779527559055118 C -0.7874015748031495 1.3779527559055118 -0.7874015748031495 -1.3779527559055118 -0.7874015748031495 -1.3779527559055118 C -0.7874015748031495 -1.5953876967716536 -0.6111357282677164 -1.7716535433070866 -0.39370078740157477 -1.7716535433070866" stroke-width="0.01"></path></g></g></g>
  </g>
</svg>