<svg width="8.502982677165356in" height="8.382069291338583in" viewBox="0 0 8.502982677165356 8.382069291338583" xmlns="http://www.w3.org/2000/svg" xmlnsXlink="http://www.w3.org/1999/xlink">
  <g transform="translate(0 8.382069291338583)">
    <g transform="scale(1, -1)"><g fill="none" stroke="rgb(-11,-11,-11)"><g transform="matrix(1,0,0,-1,4.251491338582678,4.1910346456692915)"><path class="outline" d="M 3.135853937007874 -1.2394606299212603 C 3.135853937007874 -1.2394606299212603 3.1207084482601757 -1.3570953553272265 3.1282917322834645 -1.4319366141732288 C 3.1358750163067532 -1.5067778730192312 3.146303484085529 -1.5491665023487746 3.1743090551181097 -1.6189834645669297 C 3.2023146261506903 -1.6888004267850847 3.2240701391909217 -1.72664564897833 3.2703090551181093 -1.785981102362205 C 3.316547971045297 -1.84531655574608 3.408788188976377 -1.919875590551182 3.408788188976377 -1.919875590551182 C 3.408788188976377 -1.919875590551182 3.5021763779527553 -1.9968551181102365 3.5021763779527553 -1.9968551181102365 C 3.5021763779527553 -1.9968551181102365 3.556691338582677 -2.0485877952755907 3.556691338582677 -2.0485877952755907 C 3.556691338582677 -2.0485877952755907 3.5959594488188973 -2.112667322834646 3.5959594488188973 -2.112667322834646 C 3.5959594488188973 -2.112667322834646 3.6173047244094483 -2.184727165354331 3.6173047244094483 -2.184727165354331 C 3.6173047244094483 -2.184727165354331 3.619272047244094 -2.259855905511811 3.619272047244094 -2.259855905511811 C 3.619272047244094 -2.259855905511811 3.601727559055118 -2.33293346456693 3.601727559055118 -2.33293346456693 C 3.601727559055118 -2.33293346456693 3.5658669291338576 -2.3989807086614174 3.5658669291338576 -2.3989807086614174 C 3.5658669291338576 -2.3989807086614174 3.5141338582677157 -2.453495669291339 3.5141338582677157 -2.453495669291339 C 3.5141338582677157 -2.453495669291339 3.4500543307086606 -2.4927637795275595 3.4500543307086606 -2.4927637795275595 C 3.4500543307086606 -2.4927637795275595 3.377994881889763 -2.514108661417323 3.377994881889763 -2.514108661417323 C 3.377994881889763 -2.514108661417323 3.302866141732283 -2.5160759842519687 3.302866141732283 -2.5160759842519687 C 3.302866141732283 -2.5160759842519687 3.2297881889763778 -2.4985318897637803 3.2297881889763778 -2.4985318897637803 C 3.2297881889763778 -2.4985318897637803 3.1637409448818894 -2.4626712598425198 3.1637409448818894 -2.4626712598425198 C 3.1637409448818894 -2.4626712598425198 3.061670866141732 -2.397641338582677 3.061670866141732 -2.397641338582677 C 3.061670866141732 -2.397641338582677 2.962256992683312 -2.332955880584629 2.891537007874015 -2.307315748031496 C 2.8208170230647176 -2.281675615478363 2.778101304884191 -2.272679523910639 2.703047244094488 -2.267619291338583 C 2.6279931833047847 -2.2625590587665267 2.5844566417294215 -2.2657399686851627 2.5109350393700787 -2.281655118110237 C 2.437413437010736 -2.297570267535311 2.330216535433071 -2.348325590551181 2.330216535433071 -2.348325590551181 C 2.330216535433071 -2.348325590551181 0.8741133858267709 -3.13188779527559 0.8741133858267709 -3.13188779527559 C 0.8741133858267709 -3.13188779527559 0.7726996841825385 -3.193390681297621 0.7189145669291332 -3.2459822834645675 C 0.665129449675728 -3.298573885631514 0.6384908099325831 -3.333156107912196 0.6013669291338584 -3.3985818897637796 C 0.5642430483351336 -3.4640076716153634 0.5482187037721918 -3.5046129598379108 0.5306578740157472 -3.57775905511811 C 0.5130970442593025 -3.650905150398309 0.5123153543307087 -3.7695082677165352 0.5123153543307087 -3.7695082677165352 C 0.5123153543307087 -3.7695082677165352 0.5103570866141728 -3.8905181102362207 0.5103570866141728 -3.8905181102362207 C 0.5103570866141728 -3.8905181102362207 0.5038999999999999 -3.9653944881889767 0.5038999999999999 -3.9653944881889767 C 0.5038999999999999 -3.9653944881889767 0.4782838582677159 -4.036048425196851 0.4782838582677159 -4.036048425196851 C 0.4782838582677159 -4.036048425196851 0.4352539370078732 -4.097665354330709 0.4352539370078732 -4.097665354330709 C 0.4352539370078732 -4.097665354330709 0.3777425196850384 -4.146045275590551 0.3777425196850384 -4.146045275590551 C 0.3777425196850384 -4.146045275590551 0.3096692913385827 -4.177891732283465 0.3096692913385827 -4.177891732283465 C 0.3096692913385827 -4.177891732283465 0.2356728346456689 -4.1910346456692915 0.2356728346456689 -4.1910346456692915 C 0.2356728346456689 -4.1910346456692915 0.1607960629921255 -4.184577559055119 0.1607960629921255 -4.184577559055119 C 0.1607960629921255 -4.184577559055119 0.09014212598425125 -4.158961417322835 0.09014212598425125 -4.158961417322835 C 0.09014212598425125 -4.158961417322835 0.02852559055118085 -4.115931496062993 0.02852559055118085 -4.115931496062993 C 0.02852559055118085 -4.115931496062993 -0.019854330708661442 -4.058420078740158 -0.019854330708661442 -4.058420078740158 C -0.019854330708661442 -4.058420078740158 -0.05170118110236269 -3.990346456692914 -0.05170118110236269 -3.990346456692914 C -0.05170118110236269 -3.990346456692914 -0.06484370078740216 -3.9163503937007875 -0.06484370078740216 -3.9163503937007875 C -0.06484370078740216 -3.9163503937007875 -0.07764133858267751 -3.7960031496063 -0.07764133858267751 -3.7960031496063 C -0.07764133858267751 -3.7960031496063 -0.08905158261502477 -3.67794783115808 -0.11309842519685075 -3.606670472440945 C -0.13714526777867672 -3.5353931137238095 -0.15674470242631564 -3.496387464557819 -0.19958385826771696 -3.4345527559055116 C -0.2424230141091183 -3.3727180472532043 -0.272054455347915 -3.340662953969152 -0.33033740157480357 -3.2931043307086623 C -0.38862034780169213 -3.2455457074481724 -0.49513897637795296 -3.1933811023622054 -0.49513897637795296 -3.1933811023622054 C -0.49513897637795296 -3.1933811023622054 -2.0156181102362205 -2.543497244094489 -2.0156181102362205 -2.543497244094489 C -2.0156181102362205 -2.543497244094489 -2.126933122440205 -2.5025551248919964 -2.201585433070867 -2.493294488188976 C -2.276237743701529 -2.4840338514859557 -2.319884331339544 -2.4847685276716893 -2.394182677165355 -2.4965362204724415 C -2.4684810229911665 -2.5083039132731937 -2.5102182900405885 -2.5210926455539657 -2.578355118110237 -2.552968897637796 C -2.6464919461798853 -2.5848451497216263 -2.7397070866141733 -2.6581818897637794 -2.7397070866141733 -2.6581818897637794 C -2.7397070866141733 -2.6581818897637794 -2.8355374015748036 -2.732099212598425 -2.8355374015748036 -2.732099212598425 C -2.8355374015748036 -2.732099212598425 -2.8981039370078747 -2.773735826771653 -2.8981039370078747 -2.773735826771653 C -2.8981039370078747 -2.773735826771653 -2.9693149606299216 -2.7977602362204723 -2.9693149606299216 -2.7977602362204723 C -2.9693149606299216 -2.7977602362204723 -3.044317716535433 -2.802535039370079 -3.044317716535433 -2.802535039370079 C -3.044317716535433 -2.802535039370079 -3.118000393700788 -2.7877354330708664 -3.118000393700788 -2.7877354330708664 C -3.118000393700788 -2.7877354330708664 -3.185342125984252 -2.7543696850393706 -3.185342125984252 -2.7543696850393706 C -3.185342125984252 -2.7543696850393706 -3.2417535433070865 -2.7047114173228346 -3.2417535433070865 -2.7047114173228346 C -3.2417535433070865 -2.7047114173228346 -3.283390157480315 -2.6421444881889773 -3.283390157480315 -2.6421444881889773 C -3.283390157480315 -2.6421444881889773 -3.3074145669291344 -2.5709334645669295 -3.3074145669291344 -2.5709334645669295 C -3.3074145669291344 -2.5709334645669295 -3.312189763779528 -2.4959311023622046 -3.312189763779528 -2.4959311023622046 C -3.312189763779528 -2.4959311023622046 -3.297389763779528 -2.4222480314960633 -3.297389763779528 -2.4222480314960633 C -3.297389763779528 -2.4222480314960633 -3.2640240157480322 -2.3549066929133855 -3.2640240157480322 -2.3549066929133855 C -3.2640240157480322 -2.3549066929133855 -3.214365748031496 -2.298495275590552 -3.214365748031496 -2.298495275590552 C -3.214365748031496 -2.298495275590552 -3.128253543307087 -2.213454330708662 -3.128253543307087 -2.213454330708662 C -3.128253543307087 -2.213454330708662 -3.0430681991053694 -2.1309271641487126 -3.0023342519685046 -2.0676858267716542 C -2.9616003048316397 -2.004444489394596 -2.9433246753394453 -1.964801442901769 -2.921690157480316 -1.892755118110237 C -2.9000556396211863 -1.8207087933187047 -2.893468796633327 -1.7775559848563007 -2.8926248031496073 -1.7023362204724408 C -2.891780809665888 -1.627116456088581 -2.9174102362204732 -1.5113129921259842 -2.9174102362204732 -1.5113129921259842 C -2.9174102362204732 -1.5113129921259842 -3.3573137795275594 0.08264133858267676 -3.3573137795275594 0.08264133858267676 C -3.3573137795275594 0.08264133858267676 -3.394707950940257 0.19519795829989403 -3.4340125984251975 0.2593374015748026 C -3.473317245910138 0.3234768448497112 -3.501104538089606 0.3571431059380069 -3.556629133858268 0.40789488188976364 C -3.61215372962693 0.45864665784152037 -3.64817546333454 0.4833045761233402 -3.7155799212598426 0.5167015748031494 C -3.7829843791851454 0.5500985734829585 -3.8984397637795283 0.5772523622047239 -3.8984397637795283 0.5772523622047239 C -3.8984397637795283 0.5772523622047239 -4.015979921259842 0.6060889763779522 -4.015979921259842 0.6060889763779522 C -4.015979921259842 0.6060889763779522 -4.08754251968504 0.6290452755905507 -4.08754251968504 0.6290452755905507 C -4.08754251968504 0.6290452755905507 -4.150724803149607 0.6697413385826768 -4.150724803149607 0.6697413385826768 C -4.150724803149607 0.6697413385826768 -4.201221653543308 0.7254035433070862 -4.201221653543308 0.7254035433070862 C -4.201221653543308 0.7254035433070862 -4.23559094488189 0.7922385826771648 -4.23559094488189 0.7922385826771648 C -4.23559094488189 0.7922385826771648 -4.251491338582678 0.8656917322834644 -4.251491338582678 0.8656917322834644 C -4.251491338582678 0.8656917322834644 -4.247838976377953 0.9407574803149601 -4.247838976377953 0.9407574803149601 C -4.247838976377953 0.9407574803149601 -4.224882283464567 1.0123196850393699 -4.224882283464567 1.0123196850393699 C -4.224882283464567 1.0123196850393699 -4.184186220472442 1.0755023622047242 -4.184186220472442 1.0755023622047242 C -4.184186220472442 1.0755023622047242 -4.128524015748032 1.1259988188976378 -4.128524015748032 1.1259988188976378 C -4.128524015748032 1.1259988188976378 -4.061688976377953 1.1603685039370073 -4.061688976377953 1.1603685039370073 C -4.061688976377953 1.1603685039370073 -3.9882358267716542 1.176268897637795 -3.9882358267716542 1.176268897637795 C -3.9882358267716542 1.176268897637795 -3.913170472440945 1.1726165354330707 -3.913170472440945 1.1726165354330707 C -3.913170472440945 1.1726165354330707 -3.7929929133858273 1.1583133858267711 -3.7929929133858273 1.1583133858267711 C -3.7929929133858273 1.1583133858267711 -3.6753582763963277 1.1431675799232095 -3.600516929133859 1.1507507874015745 C -3.5256755818713903 1.1583339948799396 -3.4832866551316917 1.1687624584079628 -3.4134696850393706 1.1967681102362202 C -3.3436527149470496 1.2247737620644776 -3.3058077778101986 1.2465296183093333 -3.2464724409448826 1.2927685039370074 C -3.1871371040795666 1.3390073895646815 -3.1125779527559057 1.4312472440944881 -3.1125779527559057 1.4312472440944881 C -3.1125779527559057 1.4312472440944881 -2.1406496062992133 2.768992125984252 -2.1406496062992133 2.768992125984252 C -2.1406496062992133 2.768992125984252 -2.0759638410033108 2.8684056592015423 -2.0503236220472445 2.9391255905511806 C -2.0246834030911782 3.009845521900819 -2.0156873992677804 3.05256119600813 -2.010627165354331 3.1276153543307084 C -2.0055669314408817 3.2026695126532867 -2.0087478531949654 3.246206321237789 -2.0246629921259847 3.3197279527559056 C -2.040578131057004 3.393249584274022 -2.0913334645669295 3.500446456692913 -2.0913334645669295 3.500446456692913 C -2.0913334645669295 3.500446456692913 -2.142073228346457 3.6103220472440944 -2.142073228346457 3.6103220472440944 C -2.142073228346457 3.6103220472440944 -2.168743700787402 3.6805850393700785 -2.168743700787402 3.6805850393700785 C -2.168743700787402 3.6805850393700785 -2.1763196850393705 3.7553566929133853 -2.1763196850393705 3.7553566929133853 C -2.1763196850393705 3.7553566929133853 -2.1642854330708663 3.829541338582677 -2.1642854330708663 3.829541338582677 C -2.1642854330708663 3.829541338582677 -2.1334610236220475 3.8980834645669282 -2.1334610236220475 3.8980834645669282 C -2.1334610236220475 3.8980834645669282 -2.085946850393701 3.9563122047244095 -2.085946850393701 3.9563122047244095 C -2.085946850393701 3.9563122047244095 -2.0249807086614178 4.00025905511811 -2.0249807086614178 4.00025905511811 C -2.0249807086614178 4.00025905511811 -1.9547177165354335 4.026929527559055 -1.9547177165354335 4.026929527559055 C -1.9547177165354335 4.026929527559055 -1.8799460629921265 4.034505905511811 -1.8799460629921265 4.034505905511811 C -1.8799460629921265 4.034505905511811 -1.805761417322835 4.022471259842519 -1.805761417322835 4.022471259842519 C -1.805761417322835 4.022471259842519 -1.7372192913385833 3.9916468503937006 -1.7372192913385833 3.9916468503937006 C -1.7372192913385833 3.9916468503937006 -1.678990551181103 3.944132677165354 -1.678990551181103 3.944132677165354 C -1.678990551181103 3.944132677165354 -1.635043700787402 3.883166535433071 -1.635043700787402 3.883166535433071 C -1.635043700787402 3.883166535433071 -1.5712968503937013 3.7802901574803145 -1.5712968503937013 3.7802901574803145 C -1.5712968503937013 3.7802901574803145 -1.509793991158551 3.6788765608679994 -1.457202362204725 3.6250913385826764 C -1.404610733250899 3.5713061162973534 -1.3700286121595915 3.544667230102784 -1.3046027559055124 3.507543307086614 C -1.2391768996514334 3.470419384070444 -1.1985716491869005 3.4543954666281715 -1.1254255905511814 3.436834645669291 C -1.0522795319154623 3.4192738247104106 -0.9336763779527563 3.4184917322834645 -0.9336763779527563 3.4184917322834645 C -0.9336763779527563 3.4184917322834645 0.7182019685039362 3.4926779527559053 0.7182019685039362 3.4926779527559053 C 0.7182019685039362 3.4926779527559053 0.836257286952156 3.5040881967882527 0.9075346456692911 3.5281350393700786 C 0.9788120043864262 3.5521818819519044 1.0178176535524168 3.571781316599543 1.0796523622047243 3.6146204724409445 C 1.1414870708570317 3.657459628282346 1.1735421641410841 3.6870910695211427 1.221100787401574 3.7453740157480313 C 1.268659410662064 3.80365696197492 1.3208240157480309 3.9101755905511806 1.3208240157480309 3.9101755905511806 C 1.3208240157480309 3.9101755905511806 1.375092519685039 4.018351968503937 1.375092519685039 4.018351968503937 C 1.375092519685039 4.018351968503937 1.413397637795275 4.0830118110236215 1.413397637795275 4.0830118110236215 C 1.413397637795275 4.0830118110236215 1.4671326771653537 4.135554330708661 1.4671326771653537 4.135554330708661 C 1.4671326771653537 4.135554330708661 1.5326358267716529 4.172399212598425 1.5326358267716529 4.172399212598425 C 1.5326358267716529 4.172399212598425 1.6054429133858261 4.191034645669291 1.6054429133858261 4.191034645669291 C 1.6054429133858261 4.191034645669291 1.6805929133858268 4.190191338582677 1.6805929133858268 4.190191338582677 C 1.6805929133858268 4.190191338582677 1.7529633858267708 4.169926771653542 1.7529633858267708 4.169926771653542 C 1.7529633858267708 4.169926771653542 1.8176236220472433 4.131621653543307 1.8176236220472433 4.131621653543307 C 1.8176236220472433 4.131621653543307 1.8701661417322832 4.077886614173228 1.8701661417322832 4.077886614173228 C 1.8701661417322832 4.077886614173228 1.907010629921259 4.012383464566929 1.907010629921259 4.012383464566929 C 1.907010629921259 4.012383464566929 1.925646456692913 3.9395763779527555 1.925646456692913 3.9395763779527555 C 1.925646456692913 3.9395763779527555 1.9248031496062987 3.8644263779527557 1.9248031496062987 3.8644263779527557 C 1.9248031496062987 3.8644263779527557 1.9045385826771644 3.792055905511811 1.9045385826771644 3.792055905511811 C 1.9045385826771644 3.792055905511811 1.8638519685039365 3.6780740157480314 1.8638519685039365 3.6780740157480314 C 1.8638519685039365 3.6780740157480314 1.8229102380692401 3.566758963777958 1.8136496062992125 3.4921066929133855 C 1.8043889745291848 3.417454422048813 1.8051232450347365 3.3738078391339656 1.816890944881889 3.299509448818897 C 1.8286586447290416 3.2252110585038287 1.8414477578429953 3.183473848386735 1.873324015748031 3.1153370078740155 C 1.9052002736530669 3.047200167361296 1.9785366141732283 2.953985039370078 1.9785366141732283 2.953985039370078 C 1.9785366141732283 2.953985039370078 3.0664669291338584 1.7087488188976372 3.0664669291338584 1.7087488188976372 C 3.0664669291338584 1.7087488188976372 3.1489940474032716 1.623563189736403 3.212235433070866 1.5828291338582674 C 3.2754768187384604 1.542095077980132 3.3151198169407516 1.5238195572292077 3.3871661417322834 1.5021850393700782 C 3.459212466523815 1.4805505215109487 3.502365274986219 1.4739636785230892 3.5775850393700783 1.4731196850393697 C 3.652804803753938 1.4722756915556503 3.7686082677165347 1.4979051181102356 3.7686082677165347 1.4979051181102356 C 3.7686082677165347 1.4979051181102356 3.88701968503937 1.5229232283464564 3.88701968503937 1.5229232283464564 C 3.88701968503937 1.5229232283464564 3.96145590551181 1.5332901574803146 3.96145590551181 1.5332901574803146 C 3.96145590551181 1.5332901574803146 4.036038582677165 1.52403779527559 4.036038582677165 1.52403779527559 C 4.036038582677165 1.52403779527559 4.105685433070866 1.4957976377952753 4.105685433070866 1.4957976377952753 C 4.105685433070866 1.4957976377952753 4.165649999999999 1.4504940944881886 4.165649999999999 1.4504940944881886 C 4.165649999999999 1.4504940944881886 4.211845669291338 1.3912137795275588 4.211845669291338 1.3912137795275588 C 4.211845669291338 1.3912137795275588 4.2411248031496065 1.3219972440944878 4.2411248031496065 1.3219972440944878 C 4.2411248031496065 1.3219972440944878 4.251491338582677 1.247561023622047 4.251491338582677 1.247561023622047 C 4.251491338582677 1.247561023622047 4.242239370078739 1.1729783464566923 4.242239370078739 1.1729783464566923 C 4.242239370078739 1.1729783464566923 4.2139992125984245 1.103331496062992 4.2139992125984245 1.103331496062992 C 4.2139992125984245 1.103331496062992 4.16869527559055 1.0433669291338576 4.16869527559055 1.0433669291338576 C 4.16869527559055 1.0433669291338576 4.109415354330708 0.9971712598425194 4.109415354330708 0.9971712598425194 C 4.109415354330708 0.9971712598425194 4.040198818897638 0.9678921259842517 4.040198818897638 0.9678921259842517 C 4.040198818897638 0.9678921259842517 3.9257165354330708 0.928635826771653 3.9257165354330708 0.928635826771653 C 3.9257165354330708 0.928635826771653 3.8131598422787403 0.8912417355698528 3.749020472440944 0.8519370078740153 C 3.6848811026031476 0.8126322801781778 3.651215105511013 0.784844697888114 3.600463385826771 0.7293200787401571 C 3.549711666142529 0.6737954595922003 3.525053786711445 0.6377741006092688 3.491656692913385 0.5703696850393697 C 3.4582595991153253 0.5029652694694706 3.4311055118110225 0.38750984251968484 3.4311055118110225 0.38750984251968484 C 3.4311055118110225 0.38750984251968484 3.135853937007874 -1.2394606299212603 3.135853937007874 -1.2394606299212603" stroke-width="0.01"></path></g></g><g fill="none" stroke="rgb(-11,-11,-11)"><g transform="matrix(1,0,0,1,4.290861417322835,4.029617322834646)"><path class="outline" d="M 0 0.4232283464566929 C 0.23374256143110234 0.4232283464566929 0.4232283464566929 0.23374256143110234 0.4232283464566929 0 C 0.4232283464566929 -0.23374256143110234 0.23374256143110234 -0.4232283464566929 0 -0.4232283464566929 C -0.23374256143110234 -0.4232283464566929 -0.4232283464566929 -0.23374256143110234 -0.4232283464566929 0 C -0.4232283464566929 0.23374256143110234 -0.23374256143110234 0.4232283464566929 0 0.4232283464566929" stroke-width="0.01"></path></g></g></g>
  </g>
</svg>