<svg width="11.580732218891857in" height="27.314004705175474in" viewBox="0 0 11.580732218891857 27.314004705175474" xmlns="http://www.w3.org/2000/svg" xmlnsXlink="http://www.w3.org/1999/xlink">
  <g transform="translate(0 27.314004705175474)">
    <g data-reactroot="" transform="scale(1, -1)"><g fill="none" stroke="rgb(226,226,226)"><g transform="matrix(6.123233995736766e-17,-1,-1,-6.123233995736766e-17,10.891385274108753,1.5164768572837515)"><path class="outline" d="M 0.8464566240462154 0.6889763416773601 C 0.8464566240462159 0.6889763416773601 0.8464566240462154 0.6889763416773615 0.8464566240462154 0.6889763416773615 C 0.8464566240462154 0.6889763416773615 0.9537738904008519 0.6838292678998142 1.0196810334950377 0.6661692550631887 C 1.0855881765892235 0.6485092422265631 1.122011463727825 0.6334229344469373 1.1811022933375572 0.5993070503387788 C 1.2401931229472896 0.5651911662306204 1.2714690848107892 0.5411922273694835 1.319716466565904 0.4929448456143678 C 1.3679638483210188 0.44469746385925213 1.391962787182152 0.4134215019957539 1.4260786712903095 0.35433067238602106 C 1.460194555398467 0.29523984277628823 1.4752808631780927 0.25881655563768524 1.492940876014718 0.1929094125435015 C 1.5106008888513434 0.12700226944931775 1.5141079496554561 0.03497225677198983 1.5157479626288934 0.019685003094684777 C 1.5173879756023307 0.004397749417379722 1.5157479626288934 -0.01968507564547325 1.5157479626288934 -0.01968507564547325 C 1.5157479626288934 -0.01968507564547325 1.5157479626288934 -0.01968507564547325 1.5157479626288934 -0.01968507564547325 C 1.5157479626288934 -0.01968507564547325 1.5106006711296214 -0.12700709154514478 1.492940876014718 -0.19291342210216803 C 1.4752810808998147 -0.25881975265919127 1.4601944993883091 -0.2952407877175037 1.4260786712903095 -0.3543307449368123 C 1.39196284319231 -0.4134207021561209 1.3679634606314792 -0.44469714872361854 1.319716466565904 -0.49294491816515906 C 1.2714694725003288 -0.5411926876066996 1.2401933388064483 -0.5651942757822981 1.1811022933375601 -0.5993110598974426 C 1.122011247868672 -0.6334278440125871 1.085588176589365 -0.6485140271633414 1.0196810334950348 -0.666173264621851 C 0.9537738904007046 -0.6838325020803606 0.9146834892329293 -0.6881427204795117 0.8464566240462154 -0.6889764142281514 C 0.7782297588595014 -0.689810107976791 -0.8464567617805551 -0.68897641422815 -0.8464567617805551 -0.68897641422815 C -0.8464567617805551 -0.68897641422815 -0.8464567617805511 -0.6889764142281515 -0.8464567617805523 -0.6889764142281514 C -0.8464567617805535 -0.6889764142281513 -0.9537785838391294 -0.6838323363061707 -1.0196851082372498 -0.666173264621851 C -1.0855916326353703 -0.6485141929375313 -1.1220126157539865 -0.6334271337730738 -1.1811024310718943 -0.5993110598974426 C -1.240192246389802 -0.5651949860218114 -1.2714731595529936 -0.5411922999202758 -1.3197205413081106 -0.49294491816515906 C -1.3679679230632276 -0.4446975364100423 -1.3919669179345249 -0.4134207021561209 -1.4260827460325245 -0.3543307449368123 C -1.4601985741305241 -0.2952407877175037 -1.475285879072613 -0.2588199465002884 -1.492944950756933 -0.19291342210216803 C -1.510604022441253 -0.1270068977040477 -1.5141083972920706 -0.034972362565844003 -1.5157481003632334 -0.01968507564547325 C -1.5173878034343962 -0.004397788725102497 -1.5157481003632334 0.019685003094684777 -1.5157481003632334 0.019685003094684777 C -1.5157481003632334 0.019685003094684777 -1.5157481003632334 0.019685003094684777 -1.5157481003632334 0.019685003094684777 C -1.5157481003632334 0.019685003094684777 -1.510604188215443 0.12700226944917248 -1.492944950756933 0.1929094125435015 C -1.475285713298423 0.2588165556378305 -1.4601986301406835 0.29523984277628756 -1.4260827460325245 0.35433067238602106 C -1.3919668619243655 0.41342150199575456 -1.3679683107496547 0.4446978515487919 -1.3197205413081134 0.4929448456143678 C -1.2714727718665721 0.5411918396799437 -1.2401925821346003 0.5651915579873766 -1.1811024310718943 0.5993070503387788 C -1.1220122800091883 0.6334225426901811 -1.0855914387942733 0.648509459948286 -1.0196851082372498 0.6661692550631887 C -0.9537787776802261 0.6838290501780914 -0.9146853501243144 0.6881424846894374 -0.8464567617805523 0.6889763416773601 C -0.7782281734367902 0.6898101986652828 0.8464566240462148 0.6889763416773601 0.8464566240462154 0.6889763416773601" stroke-width="0.01"></path></g></g><g fill="none" stroke="rgb(226,226,226)"><g transform="matrix(6.123233995736766e-17,-1,-1,-6.123233995736766e-17,0.689346944783103,1.5164768572837515)"><path class="outline" d="M 0.8464566240462154 0.6889763416773601 C 0.8464566240462159 0.6889763416773601 0.8464566240462154 0.6889763416773615 0.8464566240462154 0.6889763416773615 C 0.8464566240462154 0.6889763416773615 0.9537738904008519 0.6838292678998142 1.0196810334950377 0.6661692550631887 C 1.0855881765892235 0.6485092422265631 1.122011463727825 0.6334229344469373 1.1811022933375572 0.5993070503387788 C 1.2401931229472896 0.5651911662306204 1.2714690848107892 0.5411922273694835 1.319716466565904 0.4929448456143678 C 1.3679638483210188 0.44469746385925213 1.391962787182152 0.4134215019957539 1.4260786712903095 0.35433067238602106 C 1.460194555398467 0.29523984277628823 1.4752808631780927 0.25881655563768524 1.492940876014718 0.1929094125435015 C 1.5106008888513434 0.12700226944931775 1.5141079496554561 0.03497225677198983 1.5157479626288934 0.019685003094684777 C 1.5173879756023307 0.004397749417379722 1.5157479626288934 -0.01968507564547325 1.5157479626288934 -0.01968507564547325 C 1.5157479626288934 -0.01968507564547325 1.5157479626288934 -0.01968507564547325 1.5157479626288934 -0.01968507564547325 C 1.5157479626288934 -0.01968507564547325 1.5106006711296214 -0.12700709154514478 1.492940876014718 -0.19291342210216803 C 1.4752810808998147 -0.25881975265919127 1.4601944993883091 -0.2952407877175037 1.4260786712903095 -0.3543307449368123 C 1.39196284319231 -0.4134207021561209 1.3679634606314792 -0.44469714872361854 1.319716466565904 -0.49294491816515906 C 1.2714694725003288 -0.5411926876066996 1.2401933388064483 -0.5651942757822981 1.1811022933375601 -0.5993110598974426 C 1.122011247868672 -0.6334278440125871 1.085588176589365 -0.6485140271633414 1.0196810334950348 -0.666173264621851 C 0.9537738904007046 -0.6838325020803606 0.9146834892329293 -0.6881427204795117 0.8464566240462154 -0.6889764142281514 C 0.7782297588595014 -0.689810107976791 -0.8464567617805551 -0.68897641422815 -0.8464567617805551 -0.68897641422815 C -0.8464567617805551 -0.68897641422815 -0.8464567617805511 -0.6889764142281515 -0.8464567617805523 -0.6889764142281514 C -0.8464567617805535 -0.6889764142281513 -0.9537785838391294 -0.6838323363061707 -1.0196851082372498 -0.666173264621851 C -1.0855916326353703 -0.6485141929375313 -1.1220126157539865 -0.6334271337730738 -1.1811024310718943 -0.5993110598974426 C -1.240192246389802 -0.5651949860218114 -1.2714731595529936 -0.5411922999202758 -1.3197205413081106 -0.49294491816515906 C -1.3679679230632276 -0.4446975364100423 -1.3919669179345249 -0.4134207021561209 -1.4260827460325245 -0.3543307449368123 C -1.4601985741305241 -0.2952407877175037 -1.475285879072613 -0.2588199465002884 -1.492944950756933 -0.19291342210216803 C -1.510604022441253 -0.1270068977040477 -1.5141083972920706 -0.034972362565844003 -1.5157481003632334 -0.01968507564547325 C -1.5173878034343962 -0.004397788725102497 -1.5157481003632334 0.019685003094684777 -1.5157481003632334 0.019685003094684777 C -1.5157481003632334 0.019685003094684777 -1.5157481003632334 0.019685003094684777 -1.5157481003632334 0.019685003094684777 C -1.5157481003632334 0.019685003094684777 -1.510604188215443 0.12700226944917248 -1.492944950756933 0.1929094125435015 C -1.475285713298423 0.2588165556378305 -1.4601986301406835 0.29523984277628756 -1.4260827460325245 0.35433067238602106 C -1.3919668619243655 0.41342150199575456 -1.3679683107496547 0.4446978515487919 -1.3197205413081134 0.4929448456143678 C -1.2714727718665721 0.5411918396799437 -1.2401925821346003 0.5651915579873766 -1.1811024310718943 0.5993070503387788 C -1.1220122800091883 0.6334225426901811 -1.0855914387942733 0.648509459948286 -1.0196851082372498 0.6661692550631887 C -0.9537787776802261 0.6838290501780914 -0.9146853501243144 0.6881424846894374 -0.8464567617805523 0.6889763416773601 C -0.7782281734367902 0.6898101986652828 0.8464566240462148 0.6889763416773601 0.8464566240462154 0.6889763416773601" stroke-width="0.01"></path></g></g><g fill="none" stroke="rgb(226,226,226)"><g transform="matrix(-1,1.2246467991473532e-16,-1.2246467991473532e-16,-1,2.007277252866171,26.329380101280506)"><path class="outline" d="M -1.3779449462890625 0.4854180609262161 C -1.4474647598574846 0.44528204337543176 -1.484268641129769 0.4170582332730095 -1.5410308837890625 0.3602959906137161 C -1.597793126448356 0.3035337479544227 -1.6260183012793306 0.26672149284745894 -1.6661529541015625 0.1972100531137161 C -1.7062876069237944 0.12769861337997324 -1.724050347523491 0.0848599992018429 -1.7448272705078125 0.007329682019966088 C -1.765604193492134 -0.07020063516191072 -1.7716522216796875 -0.11619278103090207 -1.7716522216796875 -0.1964667046987839 C -1.7716522216796875 -0.27674062836666574 -1.7656047420336232 -0.3227247170598583 -1.7448272705078125 -0.4002630914175339 C -1.7240497989820018 -0.47780146577520954 -1.7062889716523468 -0.520654166520987 -1.6661529541015625 -0.5901739800894089 C -1.6260169365507782 -0.6596937936578309 -1.597793126448356 -0.6964976749301155 -1.5410308837890625 -0.7532599175894089 C -1.484268641129769 -0.8100221602487023 -1.4474647598574846 -0.8382459703511246 -1.3779449462890625 -0.8783819879019089 C -1.3084251327206404 -0.9185180054526932 -1.2655724319748631 -0.9362788327823481 -1.1880340576171875 -0.9570563043081589 C -1.1104956832595119 -0.9778337758339697 -1.064505474837076 -0.9828900582720029 -0.9842376708984375 -0.9838812554800339 C -0.903969866959799 -0.9848724526880649 0.9040121997307955 -0.984872320709625 0.9842681884765625 -0.9838812554800339 C 1.0645241772223295 -0.9828901902504428 1.1105074991583224 -0.9778322200129881 1.1880340576171875 -0.9570563043081589 C 1.2655606160760526 -0.9362803886033297 1.3084251327206404 -0.9185180054526932 1.3779449462890625 -0.8783819879019089 C 1.4474647598574846 -0.8382459703511246 1.484268641129769 -0.8100221602487023 1.5410308837890625 -0.7532599175894089 C 1.597793126448356 -0.6964976749301155 1.6260169365507782 -0.6596937936578309 1.6661529541015625 -0.5901739800894089 C 1.7062889716523468 -0.520654166520987 1.7240497989820018 -0.47780146577520954 1.7448272705078125 -0.4002630914175339 C 1.7656047420336232 -0.3227247170598583 1.7716522216796875 -0.27674062836666574 1.7716522216796875 -0.1964667046987839 C 1.7716522216796875 -0.11619278103090207 1.765604193492134 -0.07020063516191072 1.7448272705078125 0.007329682019966088 C 1.724050347523491 0.0848599992018429 1.7062876069237944 0.12769861337997324 1.6661529541015625 0.1972100531137161 C 1.6260183012793306 0.26672149284745894 1.597793126448356 0.3035337479544227 1.5410308837890625 0.3602959906137161 C 1.484268641129769 0.4170582332730095 1.4474647598574846 0.44528204337543176 1.3779449462890625 0.4854180609262161 C 1.3084251327206404 0.5255540784770004 1.2655606160760526 0.5433164616276369 1.1880340576171875 0.5640923773324661 C 1.1105074991583224 0.5848682930372953 0.9842681884765625 0.5909173285043411 0.9842681884765625 0.5909173285043411 C 0.9842681884765625 0.5909173285043411 0.7873992919921875 0.9846246038949661 0.7873992919921875 0.9846246038949661 C 0.7873992919921875 0.9846246038949661 0.5905609130859375 0.5909173285043411 0.5905609130859375 0.5909173285043411 C 0.5905609130859375 0.5909173285043411 -0.5905609130859375 0.5909173285043411 -0.5905609130859375 0.5909173285043411 C -0.5905609130859375 0.5909173285043411 -0.7873992919921875 0.9846246038949661 -0.7873992919921875 0.9846246038949661 C -0.7873992919921875 0.9846246038949661 -0.9842376708984375 0.5909173285043411 -0.9842376708984375 0.5909173285043411 C -0.9842376708984375 0.5909173285043411 -1.1104956832595119 0.5848698488582769 -1.1880340576171875 0.5640923773324661 C -1.2655724319748631 0.5433149058066553 -1.3084251327206404 0.5255540784770004 -1.3779449462890625 0.4854180609262161" stroke-width="0.01"></path></g></g><g fill="none" stroke="rgb(226,226,226)"><g transform="matrix(-1,1.2246467991473532e-16,-1.2246467991473532e-16,-1,9.250776299800686,26.329380101280506)"><path class="outline" d="M -1.3779449462890625 0.4854180609262161 C -1.4474647598574846 0.44528204337543176 -1.484268641129769 0.4170582332730095 -1.5410308837890625 0.3602959906137161 C -1.597793126448356 0.3035337479544227 -1.6260183012793306 0.26672149284745894 -1.6661529541015625 0.1972100531137161 C -1.7062876069237944 0.12769861337997324 -1.724050347523491 0.0848599992018429 -1.7448272705078125 0.007329682019966088 C -1.765604193492134 -0.07020063516191072 -1.7716522216796875 -0.11619278103090207 -1.7716522216796875 -0.1964667046987839 C -1.7716522216796875 -0.27674062836666574 -1.7656047420336232 -0.3227247170598583 -1.7448272705078125 -0.4002630914175339 C -1.7240497989820018 -0.47780146577520954 -1.7062889716523468 -0.520654166520987 -1.6661529541015625 -0.5901739800894089 C -1.6260169365507782 -0.6596937936578309 -1.597793126448356 -0.6964976749301155 -1.5410308837890625 -0.7532599175894089 C -1.484268641129769 -0.8100221602487023 -1.4474647598574846 -0.8382459703511246 -1.3779449462890625 -0.8783819879019089 C -1.3084251327206404 -0.9185180054526932 -1.2655724319748631 -0.9362788327823481 -1.1880340576171875 -0.9570563043081589 C -1.1104956832595119 -0.9778337758339697 -1.064505474837076 -0.9828900582720029 -0.9842376708984375 -0.9838812554800339 C -0.903969866959799 -0.9848724526880649 0.9040121997307955 -0.984872320709625 0.9842681884765625 -0.9838812554800339 C 1.0645241772223295 -0.9828901902504428 1.1105074991583224 -0.9778322200129881 1.1880340576171875 -0.9570563043081589 C 1.2655606160760526 -0.9362803886033297 1.3084251327206404 -0.9185180054526932 1.3779449462890625 -0.8783819879019089 C 1.4474647598574846 -0.8382459703511246 1.484268641129769 -0.8100221602487023 1.5410308837890625 -0.7532599175894089 C 1.597793126448356 -0.6964976749301155 1.6260169365507782 -0.6596937936578309 1.6661529541015625 -0.5901739800894089 C 1.7062889716523468 -0.520654166520987 1.7240497989820018 -0.47780146577520954 1.7448272705078125 -0.4002630914175339 C 1.7656047420336232 -0.3227247170598583 1.7716522216796875 -0.27674062836666574 1.7716522216796875 -0.1964667046987839 C 1.7716522216796875 -0.11619278103090207 1.765604193492134 -0.07020063516191072 1.7448272705078125 0.007329682019966088 C 1.724050347523491 0.0848599992018429 1.7062876069237944 0.12769861337997324 1.6661529541015625 0.1972100531137161 C 1.6260183012793306 0.26672149284745894 1.597793126448356 0.3035337479544227 1.5410308837890625 0.3602959906137161 C 1.484268641129769 0.4170582332730095 1.4474647598574846 0.44528204337543176 1.3779449462890625 0.4854180609262161 C 1.3084251327206404 0.5255540784770004 1.2655606160760526 0.5433164616276369 1.1880340576171875 0.5640923773324661 C 1.1105074991583224 0.5848682930372953 0.9842681884765625 0.5909173285043411 0.9842681884765625 0.5909173285043411 C 0.9842681884765625 0.5909173285043411 0.7873992919921875 0.9846246038949661 0.7873992919921875 0.9846246038949661 C 0.7873992919921875 0.9846246038949661 0.5905609130859375 0.5909173285043411 0.5905609130859375 0.5909173285043411 C 0.5905609130859375 0.5909173285043411 -0.5905609130859375 0.5909173285043411 -0.5905609130859375 0.5909173285043411 C -0.5905609130859375 0.5909173285043411 -0.7873992919921875 0.9846246038949661 -0.7873992919921875 0.9846246038949661 C -0.7873992919921875 0.9846246038949661 -0.9842376708984375 0.5909173285043411 -0.9842376708984375 0.5909173285043411 C -0.9842376708984375 0.5909173285043411 -1.1104956832595119 0.5848698488582769 -1.1880340576171875 0.5640923773324661 C -1.2655724319748631 0.5433149058066553 -1.3084251327206404 0.5255540784770004 -1.3779449462890625 0.4854180609262161" stroke-width="0.01"></path></g></g></g>
  </g>
</svg>