<svg width="2.2024482256019504in" height="7.8723548270091666in" viewBox="0 0 2.2024482256019504 7.8723548270091666" xmlns="http://www.w3.org/2000/svg" xmlnsXlink="http://www.w3.org/1999/xlink">
  <g transform="translate(0 7.8723548270091666)">
    <g data-reactroot="" transform="scale(1, -1)"><g fill="none" stroke="rgb(0,0,0)"><g transform="matrix(1,8.881784197001252e-16,8.881784197001252e-16,-1,1.1184039115878086,5.502174385845656)"><path class="outline" d="M 0.9892399274753946 -2.3151979322686613 C 0.9892399274753946 -2.3151979322686613 0.9810367657423168 -2.324055524814935 0.9810367657423168 -2.324055524814935 C 0.9810367657423168 -2.324055524814935 0.9709077623564887 -2.3333370463790972 0.9709077623564887 -2.3333370463790972 C 0.9709077623564887 -2.3333370463790972 0.9600083649808205 -2.3417004481381545 0.9600083649808205 -2.3417004481381545 C 0.9600083649808205 -2.3417004481381545 0.9484215246105773 -2.3490820795547602 0.9484215246105773 -2.3490820795547602 C 0.9484215246105773 -2.3490820795547602 0.9362354240973014 -2.3554257619566834 0.9362354240973014 -2.3554257619566834 C 0.9362354240973014 -2.3554257619566834 0.9235428070240682 -2.3606832160904245 0.9235428070240682 -2.3606832160904245 C 0.9235428070240682 -2.3606832160904245 0.9104402718708166 -2.3648144295554894 0.9104402718708166 -2.3648144295554894 C 0.9104402718708166 -2.3648144295554894 0.8970275368415899 -2.3677879613229127 0.8970275368415899 -2.3677879613229127 C 0.8970275368415899 -2.3677879613229127 0.8834066809487912 -2.3695811810204774 0.8834066809487912 -2.3695811810204774 C 0.8834066809487912 -2.3695811810204774 0.8696813671302622 -2.3701804411635097 0.8696813671302622 -2.3701804411635097 C 0.8696813671302622 -2.3701804411635097 0.8559560533117334 -2.3695811810204774 0.8559560533117334 -2.3695811810204774 C 0.8559560533117334 -2.3695811810204774 0.8423351974189347 -2.3677879613229127 0.8423351974189347 -2.3677879613229127 C 0.8423351974189347 -2.3677879613229127 0.828922462389708 -2.3648144295554894 0.828922462389708 -2.3648144295554894 C 0.828922462389708 -2.3648144295554894 0.8158199272364564 -2.3606832160904245 0.8158199272364564 -2.3606832160904245 C 0.8158199272364564 -2.3606832160904245 0.8031273101632231 -2.3554257619566834 0.8031273101632231 -2.3554257619566834 C 0.8031273101632231 -2.3554257619566834 0.7915492508535957 -2.3494313296870466 0.7915492508535957 -2.3494313296870466 C 0.7915492508535957 -2.3494313296870466 0.08564571972915606 -1.946057883330224 0.08564571972915606 -1.946057883330224 C 0.08564571972915606 -1.946057883330224 0.08412561672003553 -1.9451847579995072 0.08412561672003553 -1.9451847579995072 C 0.08412561672003553 -1.9451847579995072 0.055158515794426925 -1.926730679457993 0.055158515794426925 -1.926730679457993 C 0.055158515794426925 -1.926730679457993 0.027910022355256126 -1.9058221750603495 0.027910022355256126 -1.9058221750603495 C 0.027910022355256126 -1.9058221750603495 0.0025875138906861044 -1.8826183711499438 0.0025875138906861044 -1.8826183711499438 C 0.0025875138906861044 -1.8826183711499438 -0.020616290019719617 -1.8572958626853737 -0.020616290019719617 -1.8572958626853737 C -0.020616290019719617 -1.8572958626853737 -0.041524794417362926 -1.8300473692462031 -0.041524794417362926 -1.8300473692462031 C -0.041524794417362926 -1.8300473692462031 -0.059978872958877424 -1.8010802683205942 -0.059978872958877424 -1.8010802683205942 C -0.059978872958877424 -1.8010802683205942 -0.07583807896368489 -1.7706150170374053 -0.07583807896368489 -1.7706150170374053 C -0.07583807896368489 -1.7706150170374053 -0.07916262289005822 -1.763291104332112 -0.07916262289005822 -1.763291104332112 C -0.07916262289005822 -1.763291104332112 -1.08404431401414 0.5119127246280764 -1.08404431401414 0.5119127246280764 C -1.08404431401414 0.5119127246280764 0.4456144786367785 0.5119127246280764 0.4456144786367785 0.5119127246280764 C 0.4456144786367785 0.5119127246280764 0.4456144786367785 0.9528576065178401 0.4456144786367785 0.9528576065178401 C 0.4456144786367785 0.9528576065178401 0.1503388880855974 0.9528576065178401 0.1503388880855974 0.9528576065178401 C 0.1503388880855974 0.9528576065178401 0.1503388880855974 1.5827788663603601 0.1503388880855974 1.5827788663603601 C 0.1503388880855974 1.5827788663603601 0.4456144786367788 1.5827788663603601 0.4456144786367788 1.5827788663603601 C 0.4456144786367788 1.5827788663603601 0.4456144786367785 2.0237237482501236 0.4456144786367785 2.0237237482501236 C 0.4456144786367785 2.0237237482501236 -0.04501072669202822 2.0237237482501236 -0.04501072669202822 2.0237237482501236 C -0.04501072669202822 2.0237237482501236 0.10955548710676936 2.291440283683195 0.10955548710676936 2.291440283683195 C 0.10955548710676936 2.291440283683195 0.11693711852337496 2.3030271240534383 0.11693711852337496 2.3030271240534383 C 0.11693711852337496 2.3030271240534383 0.1253005202824323 2.3139265214291065 0.1253005202824323 2.3139265214291065 C 0.1253005202824323 2.3139265214291065 0.13458204184659464 2.3240555248149346 0.13458204184659464 2.3240555248149346 C 0.13458204184659464 2.3240555248149346 0.1447110452324227 2.333337046379097 0.1447110452324227 2.333337046379097 C 0.1447110452324227 2.333337046379097 0.15561044260809098 2.341700448138154 0.15561044260809098 2.341700448138154 C 0.15561044260809098 2.341700448138154 0.16719728297833447 2.34908207955476 0.16719728297833447 2.34908207955476 C 0.16719728297833447 2.34908207955476 0.17938338349161004 2.355425761956683 0.17938338349161004 2.355425761956683 C 0.17938338349161004 2.355425761956683 0.19207600056484322 2.3606832160904245 0.19207600056484322 2.3606832160904245 C 0.19207600056484322 2.3606832160904245 0.20517853571809483 2.364814429555489 0.20517853571809483 2.364814429555489 C 0.20517853571809483 2.364814429555489 0.21859127074732185 2.3677879613229127 0.21859127074732185 2.3677879613229127 C 0.21859127074732185 2.3677879613229127 0.2322121266401206 2.3695811810204774 0.2322121266401206 2.3695811810204774 C 0.2322121266401206 2.3695811810204774 0.24593744045864943 2.3701804411635097 0.24593744045864943 2.3701804411635097 C 0.24593744045864943 2.3701804411635097 0.2459374404586497 2.3701804411635097 0.2459374404586497 2.3701804411635097 C 0.2459374404586497 2.3701804411635097 0.7665833562623182 2.3701804411635092 0.7665833562623182 2.3701804411635092 C 0.7665833562623182 2.3701804411635092 0.766583356262319 2.3701804411635092 0.766583356262319 2.3701804411635092 C 0.766583356262319 2.3701804411635092 0.7803086700808478 2.369581181020477 0.7803086700808478 2.369581181020477 C 0.7803086700808478 2.369581181020477 0.7939295259736465 2.367787961322912 0.7939295259736465 2.367787961322912 C 0.7939295259736465 2.367787961322912 0.8073422610028735 2.3648144295554885 0.8073422610028735 2.3648144295554885 C 0.8073422610028735 2.3648144295554885 0.8204447961561252 2.360683216090424 0.8204447961561252 2.360683216090424 C 0.8204447961561252 2.360683216090424 0.8331374132293584 2.3554257619566825 0.8331374132293584 2.3554257619566825 C 0.8331374132293584 2.3554257619566825 0.8428231859120705 2.350495401793431 0.8428231859120705 2.350495401793431 C 0.8428231859120705 2.350495401793431 0.847823841573196 2.347668757316089 0.847823841573196 2.347668757316089 C 0.847823841573196 2.347668757316089 0.870997522313683 2.3329054944828775 0.870997522313683 2.3329054944828775 C 0.870997522313683 2.3329054944828775 0.8927963170650193 2.3161786909647626 0.8927963170650193 2.3161786909647626 C 0.8927963170650193 2.3161786909647626 0.9130543238366754 2.297615647836438 0.9130543238366754 2.297615647836438 C 0.9130543238366754 2.297615647836438 0.9316173669650001 2.277357641064782 0.9316173669650001 2.277357641064782 C 0.9316173669650001 2.277357641064782 0.9483441704831147 2.2555588463134457 0.9483441704831147 2.2555588463134457 C 0.9483441704831147 2.2555588463134457 0.9631074333163262 2.2323851655729583 0.9631074333163262 2.2323851655729583 C 0.9631074333163262 2.2323851655729583 0.9757947981201724 2.2080129645464073 0.9757947981201724 2.2080129645464073 C 0.9757947981201724 2.2080129645464073 0.9863097063876552 2.1826277303999406 0.9863097063876552 2.1826277303999406 C 0.9863097063876552 2.1826277303999406 0.9945721333177846 2.1564226600934373 0.9945721333177846 2.1564226600934373 C 0.9945721333177846 2.1564226600934373 1.0005191968526317 2.1295971900349837 1.0005191968526317 2.1295971900349837 C 1.0005191968526317 2.1295971900349837 1.0041056362477614 2.102355478249386 1.0041056362477614 2.102355478249386 C 1.0041056362477614 2.102355478249386 1.0053041565338259 2.074904850612328 1.0053041565338259 2.074904850612328 C 1.0053041565338259 2.074904850612328 1.0041056362477614 2.047454222975271 1.0041056362477614 2.047454222975271 C 1.0041056362477614 2.047454222975271 1.0005191968526317 2.020212511189673 1.0005191968526317 2.020212511189673 C 1.0005191968526317 2.020212511189673 0.9945721333177846 1.9933870411312196 0.9945721333177846 1.9933870411312196 C 0.9945721333177846 1.9933870411312196 0.9863097063876552 1.967181970824716 0.9863097063876552 1.967181970824716 C 0.9863097063876552 1.967181970824716 0.9757947981201724 1.9417967366782496 0.9757947981201724 1.9417967366782496 C 0.9757947981201724 1.9417967366782496 0.9631074333163262 1.9174245356516983 0.9631074333163262 1.9174245356516983 C 0.9631074333163262 1.9174245356516983 0.9483441704831147 1.8942508549112111 0.9483441704831147 1.8942508549112111 C 0.9483441704831147 1.8942508549112111 0.941521200696521 1.8848786038931682 0.941521200696521 1.8848786038931682 C 0.941521200696521 1.8848786038931682 0.9398154582498727 1.8825355411386575 0.9398154582498727 1.8825355411386575 C 0.9398154582498727 1.8825355411386575 0.9361246425415698 1.876742120953536 0.9361246425415698 1.876742120953536 C 0.9361246425415698 1.876742120953536 0.9329528013406082 1.8706490706968981 0.9329528013406082 1.8706490706968981 C 0.9329528013406082 1.8706490706968981 0.9303240742737374 1.8643027621602815 0.9303240742737374 1.8643027621602815 C 0.9303240742737374 1.8643027621602815 0.928258467541205 1.8577514945836557 0.928258467541205 1.8577514945836557 C 0.928258467541205 1.8577514945836557 0.9267717016574932 1.851045127069042 0.9267717016574932 1.851045127069042 C 0.9267717016574932 1.851045127069042 0.9258750918087109 1.8442346991226428 0.9258750918087109 1.8442346991226428 C 0.9258750918087109 1.8442346991226428 0.9255754617371947 1.8373720422133784 0.9255754617371947 1.8373720422133784 C 0.9255754617371947 1.8373720422133784 0.9258750918087109 1.830509385304114 0.9258750918087109 1.830509385304114 C 0.9258750918087109 1.830509385304114 0.9267717016574932 1.8236989573577145 0.9267717016574932 1.8236989573577145 C 0.9267717016574932 1.8236989573577145 0.928258467541205 1.8169925898431007 0.928258467541205 1.8169925898431007 C 0.928258467541205 1.8169925898431007 0.9303240742737374 1.8104413222664753 0.9303240742737374 1.8104413222664753 C 0.9303240742737374 1.8104413222664753 0.9329528013406082 1.8040950137298584 0.9329528013406082 1.8040950137298584 C 0.9329528013406082 1.8040950137298584 0.9361246425415695 1.7980019634732205 0.9361246425415695 1.7980019634732205 C 0.9361246425415695 1.7980019634732205 0.9398154582498727 1.7922085432880988 0.9398154582498727 1.7922085432880988 C 0.9398154582498727 1.7922085432880988 0.9439971591294012 1.7867588446002647 0.9439971591294012 1.7867588446002647 C 0.9439971591294012 1.7867588446002647 0.9486379199114825 1.7816943429073508 0.9486379199114825 1.7816943429073508 C 0.9486379199114825 1.7816943429073508 0.9519869371166855 1.7785356467628095 0.9519869371166855 1.7785356467628095 C 0.9519869371166855 1.7785356467628095 0.9687320231427021 1.7627421660401033 0.9687320231427021 1.7627421660401033 C 0.9687320231427021 1.7627421660401033 0.9919358270531076 1.737419657575533 0.9919358270531076 1.737419657575533 C 0.9919358270531076 1.737419657575533 1.012844331450751 1.7101711641363622 1.012844331450751 1.7101711641363622 C 1.012844331450751 1.7101711641363622 1.0312984099922653 1.6812040632107534 1.0312984099922653 1.6812040632107534 C 1.0312984099922653 1.6812040632107534 1.047157615997073 1.6507388119275646 1.047157615997073 1.6507388119275646 C 1.047157615997073 1.6507388119275646 1.0603012513314267 1.6190072692444812 1.0603012513314267 1.6190072692444812 C 1.0603012513314267 1.6190072692444812 1.0706292849940882 1.5862509313613522 1.0706292849940882 1.5862509313613522 C 1.0706292849940882 1.5862509313613522 1.078063114412647 1.552719093788285 1.078063114412647 1.552719093788285 C 1.078063114412647 1.552719093788285 1.0825461636565594 1.5186669540562883 1.0825461636565594 1.5186669540562883 C 1.0825461636565594 1.5186669540562883 1.08404431401414 1.4843536695099662 1.08404431401414 1.4843536695099662 C 1.08404431401414 1.4843536695099662 1.0825461636565594 1.450040384963644 1.0825461636565594 1.450040384963644 C 1.0825461636565594 1.450040384963644 1.078063114412647 1.4159882452316472 1.078063114412647 1.4159882452316472 C 1.078063114412647 1.4159882452316472 1.0706292849940882 1.38245640765858 1.0706292849940882 1.38245640765858 C 1.0706292849940882 1.38245640765858 1.0603012513314267 1.3497000697754509 1.0603012513314267 1.3497000697754509 C 1.0603012513314267 1.3497000697754509 1.047157615997073 1.3179685270923678 1.047157615997073 1.3179685270923678 C 1.047157615997073 1.3179685270923678 1.0312984099922653 1.2875032758091787 1.0312984099922653 1.2875032758091787 C 1.0312984099922653 1.2875032758091787 1.012844331450751 1.25853617488357 1.012844331450751 1.25853617488357 C 1.012844331450751 1.25853617488357 0.9976761052739036 1.2382906773839815 0.9976761052739036 1.2382906773839815 C 0.9976761052739036 1.2382906773839815 0.9946424600385344 1.234241577884064 0.9946424600385344 1.234241577884064 C 0.9946424600385344 1.234241577884064 0.9909516443302315 1.2284481576989423 0.9909516443302315 1.2284481576989423 C 0.9909516443302315 1.2284481576989423 0.9877798031292699 1.2223551074423045 0.9877798031292699 1.2223551074423045 C 0.9877798031292699 1.2223551074423045 0.9851510760623992 1.2160087989056878 0.9851510760623992 1.2160087989056878 C 0.9851510760623992 1.2160087989056878 0.9830854693298668 1.2094575313290619 0.9830854693298668 1.2094575313290619 C 0.9830854693298668 1.2094575313290619 0.9815987034461551 1.2027511638144486 0.9815987034461551 1.2027511638144486 C 0.9815987034461551 1.2027511638144486 0.9807020935973726 1.1959407358680492 0.9807020935973726 1.1959407358680492 C 0.9807020935973726 1.1959407358680492 0.9804024635258565 1.1890780789587847 0.9804024635258565 1.1890780789587847 C 0.9804024635258565 1.1890780789587847 0.9807020935973726 1.1822154220495202 0.9807020935973726 1.1822154220495202 C 0.9807020935973726 1.1822154220495202 0.9815987034461551 1.1754049941031208 0.9815987034461551 1.1754049941031208 C 0.9815987034461551 1.1754049941031208 0.9830854693298668 1.1686986265885073 0.9830854693298668 1.1686986265885073 C 0.9830854693298668 1.1686986265885073 0.9851510760623992 1.1621473590118814 0.9851510760623992 1.1621473590118814 C 0.9851510760623992 1.1621473590118814 0.9877798031292699 1.1558010504752647 0.9877798031292699 1.1558010504752647 C 0.9877798031292699 1.1558010504752647 0.9909516443302315 1.149708000218627 0.9909516443302315 1.149708000218627 C 0.9909516443302315 1.149708000218627 0.9946424600385344 1.1439145800335053 0.9946424600385344 1.1439145800335053 C 0.9946424600385344 1.1439145800335053 0.9976761052739036 1.1398654805335877 0.9976761052739036 1.1398654805335877 C 0.9976761052739036 1.1398654805335877 1.012844331450751 1.1196199830339995 1.012844331450751 1.1196199830339995 C 1.012844331450751 1.1196199830339995 1.0312984099922653 1.0906528821083907 1.0312984099922653 1.0906528821083907 C 1.0312984099922653 1.0906528821083907 1.047157615997073 1.0601876308252018 1.047157615997073 1.0601876308252018 C 1.047157615997073 1.0601876308252018 1.0603012513314267 1.0284560881421188 1.0603012513314267 1.0284560881421188 C 1.0603012513314267 1.0284560881421188 1.0706292849940882 0.9956997502589897 1.0706292849940882 0.9956997502589897 C 1.0706292849940882 0.9956997502589897 1.078063114412647 0.9621679126859226 1.078063114412647 0.9621679126859226 C 1.078063114412647 0.9621679126859226 1.0825461636565594 0.9281157729539258 1.0825461636565594 0.9281157729539258 C 1.0825461636565594 0.9281157729539258 1.08404431401414 0.8938024884076037 1.08404431401414 0.8938024884076037 C 1.08404431401414 0.8938024884076037 1.0825461636565594 0.8594892038612816 1.0825461636565594 0.8594892038612816 C 1.0825461636565594 0.8594892038612816 1.078063114412647 0.8254370641292847 1.078063114412647 0.8254370641292847 C 1.078063114412647 0.8254370641292847 1.0706292849940882 0.7919052265562175 1.0706292849940882 0.7919052265562175 C 1.0706292849940882 0.7919052265562175 1.0603012513314267 0.7591488886730886 1.0603012513314267 0.7591488886730886 C 1.0603012513314267 0.7591488886730886 1.047157615997073 0.7274173459900055 1.047157615997073 0.7274173459900055 C 1.047157615997073 0.7274173459900055 1.0312984099922653 0.6969520947068165 1.0312984099922653 0.6969520947068165 C 1.0312984099922653 0.6969520947068165 1.012844331450751 0.6679849937812078 1.012844331450751 0.6679849937812078 C 1.012844331450751 0.6679849937812078 0.9919358270531078 0.6407365003420372 0.9919358270531078 0.6407365003420372 C 0.9919358270531078 0.6407365003420372 0.9687320231427021 0.615413991877467 0.9687320231427021 0.615413991877467 C 0.9687320231427021 0.615413991877467 0.9519869371166853 0.5996205111547603 0.9519869371166853 0.5996205111547603 C 0.9519869371166853 0.5996205111547603 0.9486379199114819 0.5964618150102191 0.9486379199114819 0.5964618150102191 C 0.9486379199114819 0.5964618150102191 0.9439971591294006 0.591397313317305 0.9439971591294006 0.591397313317305 C 0.9439971591294006 0.591397313317305 0.9398154582498721 0.585947614629471 0.9398154582498721 0.585947614629471 C 0.9398154582498721 0.585947614629471 0.9361246425415692 0.5801541944443492 0.9361246425415692 0.5801541944443492 C 0.9361246425415692 0.5801541944443492 0.9329528013406077 0.5740611441877114 0.9329528013406077 0.5740611441877114 C 0.9329528013406077 0.5740611441877114 0.9303240742737369 0.5677148356510948 0.9303240742737369 0.5677148356510948 C 0.9303240742737369 0.5677148356510948 0.9282584675412048 0.561163568074469 0.9282584675412048 0.561163568074469 C 0.9282584675412048 0.561163568074469 0.926771701657493 0.5544572005598556 0.926771701657493 0.5544572005598556 C 0.926771701657493 0.5544572005598556 0.9258750918087103 0.5476467726134562 0.9258750918087103 0.5476467726134562 C 0.9258750918087103 0.5476467726134562 0.9255754617371942 0.5407841157041918 0.9255754617371942 0.5407841157041918 C 0.9255754617371942 0.5407841157041918 0.9258750918087103 0.5339214587949274 0.9258750918087103 0.5339214587949274 C 0.9258750918087103 0.5339214587949274 0.926771701657493 0.527111030848528 0.926771701657493 0.527111030848528 C 0.926771701657493 0.527111030848528 0.9282584675412048 0.5204046633339146 0.9282584675412048 0.5204046633339146 C 0.9282584675412048 0.5204046633339146 0.9303240742737369 0.5138533957572887 0.9303240742737369 0.5138533957572887 C 0.9303240742737369 0.5138533957572887 0.9329528013406077 0.5075070872206722 0.9329528013406077 0.5075070872206722 C 0.9329528013406077 0.5075070872206722 0.9361246425415692 0.5014140369640343 0.9361246425415692 0.5014140369640343 C 0.9361246425415692 0.5014140369640343 0.9398154582498721 0.4956206167789126 0.9398154582498721 0.4956206167789126 C 0.9398154582498721 0.4956206167789126 0.9415212006965205 0.49327755402440177 0.9415212006965205 0.49327755402440177 C 0.9415212006965205 0.49327755402440177 0.9483441704831136 0.48390530300635853 0.9483441704831136 0.48390530300635853 C 0.9483441704831136 0.48390530300635853 0.9631074333163253 0.46073162226587155 0.9631074333163253 0.46073162226587155 C 0.9631074333163253 0.46073162226587155 0.9757947981201713 0.43635942123932014 0.9757947981201713 0.43635942123932014 C 0.9757947981201713 0.43635942123932014 0.9863097063876544 0.4109741870928538 0.9863097063876544 0.4109741870928538 C 0.9863097063876544 0.4109741870928538 0.9945721333177835 0.3847691167863505 0.9945721333177835 0.3847691167863505 C 0.9945721333177835 0.3847691167863505 1.0005191968526306 0.3579436467278968 1.0005191968526306 0.3579436467278968 C 1.0005191968526306 0.3579436467278968 1.0041056362477607 0.3307019349422993 1.0041056362477607 0.3307019349422993 C 1.0041056362477607 0.3307019349422993 1.005304156533825 0.3032513073052416 1.005304156533825 0.3032513073052416 C 1.005304156533825 0.3032513073052416 1.0041056362477607 0.27580067966818383 1.0041056362477607 0.27580067966818383 C 1.0041056362477607 0.27580067966818383 1.0005191968526306 0.2485589678825863 1.0005191968526306 0.2485589678825863 C 1.0005191968526306 0.2485589678825863 0.9945721333177835 0.22173349782413262 0.9945721333177835 0.22173349782413262 C 0.9945721333177835 0.22173349782413262 0.9863097063876544 0.1955284275176293 0.9863097063876544 0.1955284275176293 C 0.9863097063876544 0.1955284275176293 0.9757947981201713 0.17014319337116296 0.9757947981201713 0.17014319337116296 C 0.9757947981201713 0.17014319337116296 0.9631074333163253 0.14577099234461155 0.9631074333163253 0.14577099234461155 C 0.9631074333163253 0.14577099234461155 0.9483441704831136 0.12259731160412458 0.9483441704831136 0.12259731160412458 C 0.9483441704831136 0.12259731160412458 0.9415212006965205 0.11322506058608137 0.9415212006965205 0.11322506058608137 C 0.9415212006965205 0.11322506058608137 0.9398154582498723 0.11088199783157082 0.9398154582498723 0.11088199783157082 C 0.9398154582498723 0.11088199783157082 0.9361246425415695 0.10508857764644916 0.9361246425415695 0.10508857764644916 C 0.9361246425415695 0.10508857764644916 0.932952801340608 0.09899552738981124 0.932952801340608 0.09899552738981124 C 0.932952801340608 0.09899552738981124 0.9303240742737371 0.09264921885319463 0.9303240742737371 0.09264921885319463 C 0.9303240742737371 0.09264921885319463 0.9282584675412048 0.08609795127656876 0.9282584675412048 0.08609795127656876 C 0.9282584675412048 0.08609795127656876 0.926771701657493 0.07939158376195532 0.926771701657493 0.07939158376195532 C 0.926771701657493 0.07939158376195532 0.9258750918087106 0.07258115581555588 0.9258750918087106 0.07258115581555588 C 0.9258750918087106 0.07258115581555588 0.9255754617371945 0.06571849890629146 0.9255754617371945 0.06571849890629146 C 0.9255754617371945 0.06571849890629146 0.9258750918087106 0.058855841997027036 0.9258750918087106 0.058855841997027036 C 0.9258750918087106 0.058855841997027036 0.926771701657493 0.052045414050627535 0.926771701657493 0.052045414050627535 C 0.926771701657493 0.052045414050627535 0.9282584675412048 0.045339046536014095 0.9282584675412048 0.045339046536014095 C 0.9282584675412048 0.045339046536014095 0.9303240742737371 0.038787778959388286 0.9303240742737371 0.038787778959388286 C 0.9303240742737371 0.038787778959388286 0.932952801340608 0.032441470422771686 0.932952801340608 0.032441470422771686 C 0.932952801340608 0.032441470422771686 0.9361246425415695 0.026348420166133833 0.9361246425415695 0.026348420166133833 C 0.9361246425415695 0.026348420166133833 0.9398154582498723 0.020554999981012026 0.9398154582498723 0.020554999981012026 C 0.9398154582498723 0.020554999981012026 0.9439971591294009 0.01510530129317788 0.9439971591294009 0.01510530129317788 C 0.9439971591294009 0.01510530129317788 0.9486379199114822 0.010040799600263847 0.9486379199114822 0.010040799600263847 C 0.9486379199114822 0.010040799600263847 0.9519869371166853 0.006882103455722736 0.9519869371166853 0.006882103455722736 C 0.9519869371166853 0.006882103455722736 0.9687320231427016 -0.00891137726698359 0.9687320231427016 -0.00891137726698359 C 0.9687320231427016 -0.00891137726698359 0.9919358270531072 -0.034233885731553754 0.9919358270531072 -0.034233885731553754 C 0.9919358270531072 -0.034233885731553754 1.0128443314507507 -0.06148237917072435 1.0128443314507507 -0.06148237917072435 C 1.0128443314507507 -0.06148237917072435 1.031298409992265 -0.0904494800963331 1.031298409992265 -0.0904494800963331 C 1.031298409992265 -0.0904494800963331 1.0471576159970726 -0.12091473137952216 1.0471576159970726 -0.12091473137952216 C 1.0471576159970726 -0.12091473137952216 1.0603012513314265 -0.15264627406260517 1.0603012513314265 -0.15264627406260517 C 1.0603012513314265 -0.15264627406260517 1.070629284994088 -0.18540261194573432 1.070629284994088 -0.18540261194573432 C 1.070629284994088 -0.18540261194573432 1.0780631144126467 -0.21893444951880145 1.0780631144126467 -0.21893444951880145 C 1.0780631144126467 -0.21893444951880145 1.0825461636565592 -0.2529865892507984 1.0825461636565592 -0.2529865892507984 C 1.0825461636565592 -0.2529865892507984 1.0840443140141396 -0.2872998737971205 1.0840443140141396 -0.2872998737971205 C 1.0840443140141396 -0.2872998737971205 1.0825461636565592 -0.3216131583434426 1.0825461636565592 -0.3216131583434426 C 1.0825461636565592 -0.3216131583434426 1.0780631144126467 -0.3556652980754396 1.0780631144126467 -0.3556652980754396 C 1.0780631144126467 -0.3556652980754396 1.070629284994088 -0.3891971356485067 1.070629284994088 -0.3891971356485067 C 1.070629284994088 -0.3891971356485067 1.0603012513314265 -0.4219534735316359 1.0603012513314265 -0.4219534735316359 C 1.0603012513314265 -0.4219534735316359 1.0471576159970726 -0.4536850162147189 1.0471576159970726 -0.4536850162147189 C 1.0471576159970726 -0.4536850162147189 1.031298409992265 -0.48415026749790796 1.031298409992265 -0.48415026749790796 C 1.031298409992265 -0.48415026749790796 1.0128443314507507 -0.5131173684235167 1.0128443314507507 -0.5131173684235167 C 1.0128443314507507 -0.5131173684235167 0.9919358270531072 -0.5403658618626874 0.9919358270531072 -0.5403658618626874 C 0.9919358270531072 -0.5403658618626874 0.9687320231427016 -0.5656883703272574 0.9687320231427016 -0.5656883703272574 C 0.9687320231427016 -0.5656883703272574 0.9519869371166847 -0.5814818510499644 0.9519869371166847 -0.5814818510499644 C 0.9519869371166847 -0.5814818510499644 0.9486379199114816 -0.5846405471945053 0.9486379199114816 -0.5846405471945053 C 0.9486379199114816 -0.5846405471945053 0.9439971591294003 -0.5897050488874194 0.9439971591294003 -0.5897050488874194 C 0.9439971591294003 -0.5897050488874194 0.9398154582498718 -0.5951547475752534 0.9398154582498718 -0.5951547475752534 C 0.9398154582498718 -0.5951547475752534 0.9361246425415689 -0.6009481677603751 0.9361246425415689 -0.6009481677603751 C 0.9361246425415689 -0.6009481677603751 0.9329528013406074 -0.607041218017013 0.9329528013406074 -0.607041218017013 C 0.9329528013406074 -0.607041218017013 0.9303240742737365 -0.6133875265536296 0.9303240742737365 -0.6133875265536296 C 0.9303240742737365 -0.6133875265536296 0.9282584675412044 -0.6199387941302554 0.9282584675412044 -0.6199387941302554 C 0.9282584675412044 -0.6199387941302554 0.9267717016574927 -0.6266451616448688 0.9267717016574927 -0.6266451616448688 C 0.9267717016574927 -0.6266451616448688 0.9258750918087101 -0.6334555895912681 0.9258750918087101 -0.6334555895912681 C 0.9258750918087101 -0.6334555895912681 0.925575461737194 -0.6403182465005326 0.925575461737194 -0.6403182465005326 C 0.925575461737194 -0.6403182465005326 0.9258750918087101 -0.6471809034097971 0.9258750918087101 -0.6471809034097971 C 0.9258750918087101 -0.6471809034097971 0.9267717016574927 -0.6539913313561964 0.9267717016574927 -0.6539913313561964 C 0.9267717016574927 -0.6539913313561964 0.9282584675412044 -0.6606976988708099 0.9282584675412044 -0.6606976988708099 C 0.9282584675412044 -0.6606976988708099 0.9303240742737365 -0.6672489664474357 0.9303240742737365 -0.6672489664474357 C 0.9303240742737365 -0.6672489664474357 0.9329528013406074 -0.6735952749840521 0.9329528013406074 -0.6735952749840521 C 0.9329528013406074 -0.6735952749840521 0.9361246425415689 -0.6796883252406901 0.9361246425415689 -0.6796883252406901 C 0.9361246425415689 -0.6796883252406901 0.9398154582498718 -0.6854817454258118 0.9398154582498718 -0.6854817454258118 C 0.9398154582498718 -0.6854817454258118 0.9415212006965201 -0.6878248081803227 0.9415212006965201 -0.6878248081803227 C 0.9415212006965201 -0.6878248081803227 0.9483441704831134 -0.6971970591983656 0.9483441704831134 -0.6971970591983656 C 0.9483441704831134 -0.6971970591983656 0.9631074333163248 -0.7203707399388526 0.9631074333163248 -0.7203707399388526 C 0.9631074333163248 -0.7203707399388526 0.975794798120171 -0.744742940965404 0.975794798120171 -0.744742940965404 C 0.975794798120171 -0.744742940965404 0.9863097063876538 -0.7701281751118705 0.9863097063876538 -0.7701281751118705 C 0.9863097063876538 -0.7701281751118705 0.9945721333177828 -0.7963332454183737 0.9945721333177828 -0.7963332454183737 C 0.9945721333177828 -0.7963332454183737 1.0005191968526301 -0.8231587154768274 1.0005191968526301 -0.8231587154768274 C 1.0005191968526301 -0.8231587154768274 1.00410563624776 -0.8504004272624248 1.00410563624776 -0.8504004272624248 C 1.00410563624776 -0.8504004272624248 1.0053041565338245 -0.8778510548994826 1.0053041565338245 -0.8778510548994826 C 1.0053041565338245 -0.8778510548994826 1.00410563624776 -0.9053016825365402 1.00410563624776 -0.9053016825365402 C 1.00410563624776 -0.9053016825365402 1.0005191968526301 -0.9325433943221377 1.0005191968526301 -0.9325433943221377 C 1.0005191968526301 -0.9325433943221377 0.9945721333177828 -0.9593688643805914 0.9945721333177828 -0.9593688643805914 C 0.9945721333177828 -0.9593688643805914 0.9863097063876538 -0.9855739346870946 0.9863097063876538 -0.9855739346870946 C 0.9863097063876538 -0.9855739346870946 0.975794798120171 -1.010959168833561 0.975794798120171 -1.010959168833561 C 0.975794798120171 -1.010959168833561 0.9631074333163248 -1.0353313698601125 0.9631074333163248 -1.0353313698601125 C 0.9631074333163248 -1.0353313698601125 0.9483441704831134 -1.0585050506005995 0.9483441704831134 -1.0585050506005995 C 0.9483441704831134 -1.0585050506005995 0.9316173669649986 -1.0803038453519358 0.9316173669649986 -1.0803038453519358 C 0.9316173669649986 -1.0803038453519358 0.9130543238366743 -1.1005618521235918 0.9130543238366743 -1.1005618521235918 C 0.9130543238366743 -1.1005618521235918 0.8986704014995403 -1.1140715273404276 0.8986704014995403 -1.1140715273404276 C 0.8986704014995403 -1.1140715273404276 0.8950744209152568 -1.1174489461446364 0.8950744209152568 -1.1174489461446364 C 0.8950744209152568 -1.1174489461446364 0.8904336601331758 -1.1225134478375507 0.8904336601331758 -1.1225134478375507 C 0.8904336601331758 -1.1225134478375507 0.886251959253647 -1.1279631465253848 0.886251959253647 -1.1279631465253848 C 0.886251959253647 -1.1279631465253848 0.8825611435453441 -1.1337565667105065 0.8825611435453441 -1.1337565667105065 C 0.8825611435453441 -1.1337565667105065 0.8793893023443826 -1.1398496169671444 0.8793893023443826 -1.1398496169671444 C 0.8793893023443826 -1.1398496169671444 0.876760575277512 -1.1461959255037608 0.876760575277512 -1.1461959255037608 C 0.876760575277512 -1.1461959255037608 0.8746949685449796 -1.1527471930803868 0.8746949685449796 -1.1527471930803868 C 0.8746949685449796 -1.1527471930803868 0.8732082026612679 -1.1594535605950003 0.8732082026612679 -1.1594535605950003 C 0.8732082026612679 -1.1594535605950003 0.8723115928124855 -1.1662639885413995 0.8723115928124855 -1.1662639885413995 C 0.8723115928124855 -1.1662639885413995 0.8720119627409694 -1.173126645450664 0.8720119627409694 -1.173126645450664 C 0.8720119627409694 -1.173126645450664 0.8723115928124855 -1.1799893023599284 0.8723115928124855 -1.1799893023599284 C 0.8723115928124855 -1.1799893023599284 0.8732082026612679 -1.1867997303063278 0.8732082026612679 -1.1867997303063278 C 0.8732082026612679 -1.1867997303063278 0.8746949685449796 -1.193506097820941 0.8746949685449796 -1.193506097820941 C 0.8746949685449796 -1.193506097820941 0.876760575277512 -1.200057365397567 0.876760575277512 -1.200057365397567 C 0.876760575277512 -1.200057365397567 0.8793893023443826 -1.206403673934184 0.8793893023443826 -1.206403673934184 C 0.8793893023443826 -1.206403673934184 0.8825611435453441 -1.2124967241908216 0.8825611435453441 -1.2124967241908216 C 0.8825611435453441 -1.2124967241908216 0.886251959253647 -1.2182901443759433 0.886251959253647 -1.2182901443759433 C 0.886251959253647 -1.2182901443759433 0.8904336601331758 -1.2237398430637774 0.8904336601331758 -1.2237398430637774 C 0.8904336601331758 -1.2237398430637774 0.8950744209152568 -1.2288043447566914 0.8950744209152568 -1.2288043447566914 C 0.8950744209152568 -1.2288043447566914 0.8986704014995403 -1.2321817635609003 0.8986704014995403 -1.2321817635609003 C 0.8986704014995403 -1.2321817635609003 0.913054323836674 -1.2456914387777356 0.913054323836674 -1.2456914387777356 C 0.913054323836674 -1.2456914387777356 0.9316173669649986 -1.2659494455493916 0.9316173669649986 -1.2659494455493916 C 0.9316173669649986 -1.2659494455493916 0.948344170483113 -1.2877482403007283 0.948344170483113 -1.2877482403007283 C 0.948344170483113 -1.2877482403007283 0.9631074333163248 -1.3109219210412153 0.9631074333163248 -1.3109219210412153 C 0.9631074333163248 -1.3109219210412153 0.975794798120171 -1.3352941220677665 0.975794798120171 -1.3352941220677665 C 0.975794798120171 -1.3352941220677665 0.9863097063876538 -1.360679356214233 0.9863097063876538 -1.360679356214233 C 0.9863097063876538 -1.360679356214233 0.9945721333177828 -1.3868844265207365 0.9945721333177828 -1.3868844265207365 C 0.9945721333177828 -1.3868844265207365 1.0005191968526301 -1.4137098965791899 1.0005191968526301 -1.4137098965791899 C 1.0005191968526301 -1.4137098965791899 1.00410563624776 -1.4409516083647878 1.00410563624776 -1.4409516083647878 C 1.00410563624776 -1.4409516083647878 1.0053041565338245 -1.4684022360018454 1.0053041565338245 -1.4684022360018454 C 1.0053041565338245 -1.4684022360018454 1.00410563624776 -1.495852863638903 1.00410563624776 -1.495852863638903 C 1.00410563624776 -1.495852863638903 1.0005191968526301 -1.5230945754245009 1.0005191968526301 -1.5230945754245009 C 1.0005191968526301 -1.5230945754245009 0.9945721333177828 -1.5499200454829543 0.9945721333177828 -1.5499200454829543 C 0.9945721333177828 -1.5499200454829543 0.9863097063876538 -1.5761251157894578 0.9863097063876538 -1.5761251157894578 C 0.9863097063876538 -1.5761251157894578 0.975794798120171 -1.6015103499359242 0.975794798120171 -1.6015103499359242 C 0.975794798120171 -1.6015103499359242 0.9631074333163248 -1.6258825509624757 0.9631074333163248 -1.6258825509624757 C 0.9631074333163248 -1.6258825509624757 0.948344170483113 -1.6490562317029627 0.948344170483113 -1.6490562317029627 C 0.948344170483113 -1.6490562317029627 0.9415212006965199 -1.6584284827210056 0.9415212006965199 -1.6584284827210056 C 0.9415212006965199 -1.6584284827210056 0.9398154582498712 -1.6607715454755168 0.9398154582498712 -1.6607715454755168 C 0.9398154582498712 -1.6607715454755168 0.9361246425415684 -1.6665649656606383 0.9361246425415684 -1.6665649656606383 C 0.9361246425415684 -1.6665649656606383 0.9329528013406069 -1.6726580159172761 0.9329528013406069 -1.6726580159172761 C 0.9329528013406069 -1.6726580159172761 0.9303240742737363 -1.6790043244538926 0.9303240742737363 -1.6790043244538926 C 0.9303240742737363 -1.6790043244538926 0.9282584675412039 -1.6855555920305187 0.9282584675412039 -1.6855555920305187 C 0.9282584675412039 -1.6855555920305187 0.9267717016574921 -1.692261959545132 0.9267717016574921 -1.692261959545132 C 0.9267717016574921 -1.692261959545132 0.9258750918087097 -1.6990723874915314 0.9258750918087097 -1.6990723874915314 C 0.9258750918087097 -1.6990723874915314 0.9255754617371936 -1.7059350444007957 0.9255754617371936 -1.7059350444007957 C 0.9255754617371936 -1.7059350444007957 0.9258750918087097 -1.7127977013100601 0.9258750918087097 -1.7127977013100601 C 0.9258750918087097 -1.7127977013100601 0.9267717016574921 -1.7196081292564596 0.9267717016574921 -1.7196081292564596 C 0.9267717016574921 -1.7196081292564596 0.9282584675412039 -1.7263144967710728 0.9282584675412039 -1.7263144967710728 C 0.9282584675412039 -1.7263144967710728 0.9303240742737363 -1.7328657643476988 0.9303240742737363 -1.7328657643476988 C 0.9303240742737363 -1.7328657643476988 0.9329528013406069 -1.7392120728843155 0.9329528013406069 -1.7392120728843155 C 0.9329528013406069 -1.7392120728843155 0.9361246425415684 -1.7453051231409533 0.9361246425415684 -1.7453051231409533 C 0.9361246425415684 -1.7453051231409533 0.9398154582498712 -1.7510985433260748 0.9398154582498712 -1.7510985433260748 C 0.9398154582498712 -1.7510985433260748 0.9439971591294001 -1.756548242013909 0.9439971591294001 -1.756548242013909 C 0.9439971591294001 -1.756548242013909 0.948637919911481 -1.761612743706823 0.948637919911481 -1.761612743706823 C 0.948637919911481 -1.761612743706823 0.9519869371166844 -1.7647714398513643 0.9519869371166844 -1.7647714398513643 C 0.9519869371166844 -1.7647714398513643 0.9687320231427012 -1.7805649205740712 0.9687320231427012 -1.7805649205740712 C 0.9687320231427012 -1.7805649205740712 0.991935827053107 -1.8058874290386415 0.991935827053107 -1.8058874290386415 C 0.991935827053107 -1.8058874290386415 1.01284433145075 -1.8331359224778119 1.01284433145075 -1.8331359224778119 C 1.01284433145075 -1.8331359224778119 1.0312984099922649 -1.8621030234034206 1.0312984099922649 -1.8621030234034206 C 1.0312984099922649 -1.8621030234034206 1.0471576159970721 -1.8925682746866097 1.0471576159970721 -1.8925682746866097 C 1.0471576159970721 -1.8925682746866097 1.0603012513314263 -1.9242998173696928 1.0603012513314263 -1.9242998173696928 C 1.0603012513314263 -1.9242998173696928 1.0706292849940873 -1.9570561552528218 1.0706292849940873 -1.9570561552528218 C 1.0706292849940873 -1.9570561552528218 1.0780631144126465 -1.9905879928258892 1.0780631144126465 -1.9905879928258892 C 1.0780631144126465 -1.9905879928258892 1.0825461636565585 -2.0246401325578858 1.0825461636565585 -2.0246401325578858 C 1.0825461636565585 -2.0246401325578858 1.0840443140141391 -2.058953417104208 1.0840443140141391 -2.058953417104208 C 1.0840443140141391 -2.058953417104208 1.0825461636565585 -2.0932667016505304 1.0825461636565585 -2.0932667016505304 C 1.0825461636565585 -2.0932667016505304 1.0780631144126465 -2.127318841382527 1.0780631144126465 -2.127318841382527 C 1.0780631144126465 -2.127318841382527 1.0706292849940873 -2.1608506789555944 1.0706292849940873 -2.1608506789555944 C 1.0706292849940873 -2.1608506789555944 1.0603012513314263 -2.1936070168387234 1.0603012513314263 -2.1936070168387234 C 1.0603012513314263 -2.1936070168387234 1.0471576159970721 -2.225338559521806 1.0471576159970721 -2.225338559521806 C 1.0471576159970721 -2.225338559521806 1.0312984099922649 -2.2558038108049954 1.0312984099922649 -2.2558038108049954 C 1.0312984099922649 -2.2558038108049954 1.01284433145075 -2.284770911730604 1.01284433145075 -2.284770911730604 C 1.01284433145075 -2.284770911730604 0.991935827053107 -2.3120194051697744 0.991935827053107 -2.3120194051697744 C 0.991935827053107 -2.3120194051697744 0.9892399274753946 -2.3151979322686613 0.9892399274753946 -2.3151979322686613" stroke-width="0.01"></path></g></g><g fill="none" stroke="rgb(0,0,0)"><g transform="matrix(-1,-1.4547323094649232e-15,-1.4547323094649232e-15,1,1.0840443140141431,2.370180441163511)"><path class="outline" d="M 0.9892399274753946 -2.3151979322686613 C 0.9892399274753946 -2.3151979322686613 0.9810367657423168 -2.324055524814935 0.9810367657423168 -2.324055524814935 C 0.9810367657423168 -2.324055524814935 0.9709077623564887 -2.3333370463790972 0.9709077623564887 -2.3333370463790972 C 0.9709077623564887 -2.3333370463790972 0.9600083649808205 -2.3417004481381545 0.9600083649808205 -2.3417004481381545 C 0.9600083649808205 -2.3417004481381545 0.9484215246105773 -2.3490820795547602 0.9484215246105773 -2.3490820795547602 C 0.9484215246105773 -2.3490820795547602 0.9362354240973014 -2.3554257619566834 0.9362354240973014 -2.3554257619566834 C 0.9362354240973014 -2.3554257619566834 0.9235428070240682 -2.3606832160904245 0.9235428070240682 -2.3606832160904245 C 0.9235428070240682 -2.3606832160904245 0.9104402718708166 -2.3648144295554894 0.9104402718708166 -2.3648144295554894 C 0.9104402718708166 -2.3648144295554894 0.8970275368415899 -2.3677879613229127 0.8970275368415899 -2.3677879613229127 C 0.8970275368415899 -2.3677879613229127 0.8834066809487912 -2.3695811810204774 0.8834066809487912 -2.3695811810204774 C 0.8834066809487912 -2.3695811810204774 0.8696813671302622 -2.3701804411635097 0.8696813671302622 -2.3701804411635097 C 0.8696813671302622 -2.3701804411635097 0.8559560533117334 -2.3695811810204774 0.8559560533117334 -2.3695811810204774 C 0.8559560533117334 -2.3695811810204774 0.8423351974189347 -2.3677879613229127 0.8423351974189347 -2.3677879613229127 C 0.8423351974189347 -2.3677879613229127 0.828922462389708 -2.3648144295554894 0.828922462389708 -2.3648144295554894 C 0.828922462389708 -2.3648144295554894 0.8158199272364564 -2.3606832160904245 0.8158199272364564 -2.3606832160904245 C 0.8158199272364564 -2.3606832160904245 0.8031273101632231 -2.3554257619566834 0.8031273101632231 -2.3554257619566834 C 0.8031273101632231 -2.3554257619566834 0.7915492508535957 -2.3494313296870466 0.7915492508535957 -2.3494313296870466 C 0.7915492508535957 -2.3494313296870466 0.08564571972915606 -1.946057883330224 0.08564571972915606 -1.946057883330224 C 0.08564571972915606 -1.946057883330224 0.08412561672003553 -1.9451847579995072 0.08412561672003553 -1.9451847579995072 C 0.08412561672003553 -1.9451847579995072 0.055158515794426925 -1.926730679457993 0.055158515794426925 -1.926730679457993 C 0.055158515794426925 -1.926730679457993 0.027910022355256126 -1.9058221750603495 0.027910022355256126 -1.9058221750603495 C 0.027910022355256126 -1.9058221750603495 0.0025875138906861044 -1.8826183711499438 0.0025875138906861044 -1.8826183711499438 C 0.0025875138906861044 -1.8826183711499438 -0.020616290019719617 -1.8572958626853737 -0.020616290019719617 -1.8572958626853737 C -0.020616290019719617 -1.8572958626853737 -0.041524794417362926 -1.8300473692462031 -0.041524794417362926 -1.8300473692462031 C -0.041524794417362926 -1.8300473692462031 -0.059978872958877424 -1.8010802683205942 -0.059978872958877424 -1.8010802683205942 C -0.059978872958877424 -1.8010802683205942 -0.07583807896368489 -1.7706150170374053 -0.07583807896368489 -1.7706150170374053 C -0.07583807896368489 -1.7706150170374053 -0.07916262289005822 -1.763291104332112 -0.07916262289005822 -1.763291104332112 C -0.07916262289005822 -1.763291104332112 -1.08404431401414 0.5119127246280764 -1.08404431401414 0.5119127246280764 C -1.08404431401414 0.5119127246280764 0.4456144786367785 0.5119127246280764 0.4456144786367785 0.5119127246280764 C 0.4456144786367785 0.5119127246280764 0.4456144786367785 0.9528576065178401 0.4456144786367785 0.9528576065178401 C 0.4456144786367785 0.9528576065178401 0.1503388880855974 0.9528576065178401 0.1503388880855974 0.9528576065178401 C 0.1503388880855974 0.9528576065178401 0.1503388880855974 1.5827788663603601 0.1503388880855974 1.5827788663603601 C 0.1503388880855974 1.5827788663603601 0.4456144786367788 1.5827788663603601 0.4456144786367788 1.5827788663603601 C 0.4456144786367788 1.5827788663603601 0.4456144786367785 2.0237237482501236 0.4456144786367785 2.0237237482501236 C 0.4456144786367785 2.0237237482501236 -0.04501072669202822 2.0237237482501236 -0.04501072669202822 2.0237237482501236 C -0.04501072669202822 2.0237237482501236 0.10955548710676936 2.291440283683195 0.10955548710676936 2.291440283683195 C 0.10955548710676936 2.291440283683195 0.11693711852337496 2.3030271240534383 0.11693711852337496 2.3030271240534383 C 0.11693711852337496 2.3030271240534383 0.1253005202824323 2.3139265214291065 0.1253005202824323 2.3139265214291065 C 0.1253005202824323 2.3139265214291065 0.13458204184659464 2.3240555248149346 0.13458204184659464 2.3240555248149346 C 0.13458204184659464 2.3240555248149346 0.1447110452324227 2.333337046379097 0.1447110452324227 2.333337046379097 C 0.1447110452324227 2.333337046379097 0.15561044260809098 2.341700448138154 0.15561044260809098 2.341700448138154 C 0.15561044260809098 2.341700448138154 0.16719728297833447 2.34908207955476 0.16719728297833447 2.34908207955476 C 0.16719728297833447 2.34908207955476 0.17938338349161004 2.355425761956683 0.17938338349161004 2.355425761956683 C 0.17938338349161004 2.355425761956683 0.19207600056484322 2.3606832160904245 0.19207600056484322 2.3606832160904245 C 0.19207600056484322 2.3606832160904245 0.20517853571809483 2.364814429555489 0.20517853571809483 2.364814429555489 C 0.20517853571809483 2.364814429555489 0.21859127074732185 2.3677879613229127 0.21859127074732185 2.3677879613229127 C 0.21859127074732185 2.3677879613229127 0.2322121266401206 2.3695811810204774 0.2322121266401206 2.3695811810204774 C 0.2322121266401206 2.3695811810204774 0.24593744045864943 2.3701804411635097 0.24593744045864943 2.3701804411635097 C 0.24593744045864943 2.3701804411635097 0.2459374404586497 2.3701804411635097 0.2459374404586497 2.3701804411635097 C 0.2459374404586497 2.3701804411635097 0.7665833562623182 2.3701804411635092 0.7665833562623182 2.3701804411635092 C 0.7665833562623182 2.3701804411635092 0.766583356262319 2.3701804411635092 0.766583356262319 2.3701804411635092 C 0.766583356262319 2.3701804411635092 0.7803086700808478 2.369581181020477 0.7803086700808478 2.369581181020477 C 0.7803086700808478 2.369581181020477 0.7939295259736465 2.367787961322912 0.7939295259736465 2.367787961322912 C 0.7939295259736465 2.367787961322912 0.8073422610028735 2.3648144295554885 0.8073422610028735 2.3648144295554885 C 0.8073422610028735 2.3648144295554885 0.8204447961561252 2.360683216090424 0.8204447961561252 2.360683216090424 C 0.8204447961561252 2.360683216090424 0.8331374132293584 2.3554257619566825 0.8331374132293584 2.3554257619566825 C 0.8331374132293584 2.3554257619566825 0.8428231859120705 2.350495401793431 0.8428231859120705 2.350495401793431 C 0.8428231859120705 2.350495401793431 0.847823841573196 2.347668757316089 0.847823841573196 2.347668757316089 C 0.847823841573196 2.347668757316089 0.870997522313683 2.3329054944828775 0.870997522313683 2.3329054944828775 C 0.870997522313683 2.3329054944828775 0.8927963170650193 2.3161786909647626 0.8927963170650193 2.3161786909647626 C 0.8927963170650193 2.3161786909647626 0.9130543238366754 2.297615647836438 0.9130543238366754 2.297615647836438 C 0.9130543238366754 2.297615647836438 0.9316173669650001 2.277357641064782 0.9316173669650001 2.277357641064782 C 0.9316173669650001 2.277357641064782 0.9483441704831147 2.2555588463134457 0.9483441704831147 2.2555588463134457 C 0.9483441704831147 2.2555588463134457 0.9631074333163262 2.2323851655729583 0.9631074333163262 2.2323851655729583 C 0.9631074333163262 2.2323851655729583 0.9757947981201724 2.2080129645464073 0.9757947981201724 2.2080129645464073 C 0.9757947981201724 2.2080129645464073 0.9863097063876552 2.1826277303999406 0.9863097063876552 2.1826277303999406 C 0.9863097063876552 2.1826277303999406 0.9945721333177846 2.1564226600934373 0.9945721333177846 2.1564226600934373 C 0.9945721333177846 2.1564226600934373 1.0005191968526317 2.1295971900349837 1.0005191968526317 2.1295971900349837 C 1.0005191968526317 2.1295971900349837 1.0041056362477614 2.102355478249386 1.0041056362477614 2.102355478249386 C 1.0041056362477614 2.102355478249386 1.0053041565338259 2.074904850612328 1.0053041565338259 2.074904850612328 C 1.0053041565338259 2.074904850612328 1.0041056362477614 2.047454222975271 1.0041056362477614 2.047454222975271 C 1.0041056362477614 2.047454222975271 1.0005191968526317 2.020212511189673 1.0005191968526317 2.020212511189673 C 1.0005191968526317 2.020212511189673 0.9945721333177846 1.9933870411312196 0.9945721333177846 1.9933870411312196 C 0.9945721333177846 1.9933870411312196 0.9863097063876552 1.967181970824716 0.9863097063876552 1.967181970824716 C 0.9863097063876552 1.967181970824716 0.9757947981201724 1.9417967366782496 0.9757947981201724 1.9417967366782496 C 0.9757947981201724 1.9417967366782496 0.9631074333163262 1.9174245356516983 0.9631074333163262 1.9174245356516983 C 0.9631074333163262 1.9174245356516983 0.9483441704831147 1.8942508549112111 0.9483441704831147 1.8942508549112111 C 0.9483441704831147 1.8942508549112111 0.941521200696521 1.8848786038931682 0.941521200696521 1.8848786038931682 C 0.941521200696521 1.8848786038931682 0.9398154582498727 1.8825355411386575 0.9398154582498727 1.8825355411386575 C 0.9398154582498727 1.8825355411386575 0.9361246425415698 1.876742120953536 0.9361246425415698 1.876742120953536 C 0.9361246425415698 1.876742120953536 0.9329528013406082 1.8706490706968981 0.9329528013406082 1.8706490706968981 C 0.9329528013406082 1.8706490706968981 0.9303240742737374 1.8643027621602815 0.9303240742737374 1.8643027621602815 C 0.9303240742737374 1.8643027621602815 0.928258467541205 1.8577514945836557 0.928258467541205 1.8577514945836557 C 0.928258467541205 1.8577514945836557 0.9267717016574932 1.851045127069042 0.9267717016574932 1.851045127069042 C 0.9267717016574932 1.851045127069042 0.9258750918087109 1.8442346991226428 0.9258750918087109 1.8442346991226428 C 0.9258750918087109 1.8442346991226428 0.9255754617371947 1.8373720422133784 0.9255754617371947 1.8373720422133784 C 0.9255754617371947 1.8373720422133784 0.9258750918087109 1.830509385304114 0.9258750918087109 1.830509385304114 C 0.9258750918087109 1.830509385304114 0.9267717016574932 1.8236989573577145 0.9267717016574932 1.8236989573577145 C 0.9267717016574932 1.8236989573577145 0.928258467541205 1.8169925898431007 0.928258467541205 1.8169925898431007 C 0.928258467541205 1.8169925898431007 0.9303240742737374 1.8104413222664753 0.9303240742737374 1.8104413222664753 C 0.9303240742737374 1.8104413222664753 0.9329528013406082 1.8040950137298584 0.9329528013406082 1.8040950137298584 C 0.9329528013406082 1.8040950137298584 0.9361246425415695 1.7980019634732205 0.9361246425415695 1.7980019634732205 C 0.9361246425415695 1.7980019634732205 0.9398154582498727 1.7922085432880988 0.9398154582498727 1.7922085432880988 C 0.9398154582498727 1.7922085432880988 0.9439971591294012 1.7867588446002647 0.9439971591294012 1.7867588446002647 C 0.9439971591294012 1.7867588446002647 0.9486379199114825 1.7816943429073508 0.9486379199114825 1.7816943429073508 C 0.9486379199114825 1.7816943429073508 0.9519869371166855 1.7785356467628095 0.9519869371166855 1.7785356467628095 C 0.9519869371166855 1.7785356467628095 0.9687320231427021 1.7627421660401033 0.9687320231427021 1.7627421660401033 C 0.9687320231427021 1.7627421660401033 0.9919358270531076 1.737419657575533 0.9919358270531076 1.737419657575533 C 0.9919358270531076 1.737419657575533 1.012844331450751 1.7101711641363622 1.012844331450751 1.7101711641363622 C 1.012844331450751 1.7101711641363622 1.0312984099922653 1.6812040632107534 1.0312984099922653 1.6812040632107534 C 1.0312984099922653 1.6812040632107534 1.047157615997073 1.6507388119275646 1.047157615997073 1.6507388119275646 C 1.047157615997073 1.6507388119275646 1.0603012513314267 1.6190072692444812 1.0603012513314267 1.6190072692444812 C 1.0603012513314267 1.6190072692444812 1.0706292849940882 1.5862509313613522 1.0706292849940882 1.5862509313613522 C 1.0706292849940882 1.5862509313613522 1.078063114412647 1.552719093788285 1.078063114412647 1.552719093788285 C 1.078063114412647 1.552719093788285 1.0825461636565594 1.5186669540562883 1.0825461636565594 1.5186669540562883 C 1.0825461636565594 1.5186669540562883 1.08404431401414 1.4843536695099662 1.08404431401414 1.4843536695099662 C 1.08404431401414 1.4843536695099662 1.0825461636565594 1.450040384963644 1.0825461636565594 1.450040384963644 C 1.0825461636565594 1.450040384963644 1.078063114412647 1.4159882452316472 1.078063114412647 1.4159882452316472 C 1.078063114412647 1.4159882452316472 1.0706292849940882 1.38245640765858 1.0706292849940882 1.38245640765858 C 1.0706292849940882 1.38245640765858 1.0603012513314267 1.3497000697754509 1.0603012513314267 1.3497000697754509 C 1.0603012513314267 1.3497000697754509 1.047157615997073 1.3179685270923678 1.047157615997073 1.3179685270923678 C 1.047157615997073 1.3179685270923678 1.0312984099922653 1.2875032758091787 1.0312984099922653 1.2875032758091787 C 1.0312984099922653 1.2875032758091787 1.012844331450751 1.25853617488357 1.012844331450751 1.25853617488357 C 1.012844331450751 1.25853617488357 0.9976761052739036 1.2382906773839815 0.9976761052739036 1.2382906773839815 C 0.9976761052739036 1.2382906773839815 0.9946424600385344 1.234241577884064 0.9946424600385344 1.234241577884064 C 0.9946424600385344 1.234241577884064 0.9909516443302315 1.2284481576989423 0.9909516443302315 1.2284481576989423 C 0.9909516443302315 1.2284481576989423 0.9877798031292699 1.2223551074423045 0.9877798031292699 1.2223551074423045 C 0.9877798031292699 1.2223551074423045 0.9851510760623992 1.2160087989056878 0.9851510760623992 1.2160087989056878 C 0.9851510760623992 1.2160087989056878 0.9830854693298668 1.2094575313290619 0.9830854693298668 1.2094575313290619 C 0.9830854693298668 1.2094575313290619 0.9815987034461551 1.2027511638144486 0.9815987034461551 1.2027511638144486 C 0.9815987034461551 1.2027511638144486 0.9807020935973726 1.1959407358680492 0.9807020935973726 1.1959407358680492 C 0.9807020935973726 1.1959407358680492 0.9804024635258565 1.1890780789587847 0.9804024635258565 1.1890780789587847 C 0.9804024635258565 1.1890780789587847 0.9807020935973726 1.1822154220495202 0.9807020935973726 1.1822154220495202 C 0.9807020935973726 1.1822154220495202 0.9815987034461551 1.1754049941031208 0.9815987034461551 1.1754049941031208 C 0.9815987034461551 1.1754049941031208 0.9830854693298668 1.1686986265885073 0.9830854693298668 1.1686986265885073 C 0.9830854693298668 1.1686986265885073 0.9851510760623992 1.1621473590118814 0.9851510760623992 1.1621473590118814 C 0.9851510760623992 1.1621473590118814 0.9877798031292699 1.1558010504752647 0.9877798031292699 1.1558010504752647 C 0.9877798031292699 1.1558010504752647 0.9909516443302315 1.149708000218627 0.9909516443302315 1.149708000218627 C 0.9909516443302315 1.149708000218627 0.9946424600385344 1.1439145800335053 0.9946424600385344 1.1439145800335053 C 0.9946424600385344 1.1439145800335053 0.9976761052739036 1.1398654805335877 0.9976761052739036 1.1398654805335877 C 0.9976761052739036 1.1398654805335877 1.012844331450751 1.1196199830339995 1.012844331450751 1.1196199830339995 C 1.012844331450751 1.1196199830339995 1.0312984099922653 1.0906528821083907 1.0312984099922653 1.0906528821083907 C 1.0312984099922653 1.0906528821083907 1.047157615997073 1.0601876308252018 1.047157615997073 1.0601876308252018 C 1.047157615997073 1.0601876308252018 1.0603012513314267 1.0284560881421188 1.0603012513314267 1.0284560881421188 C 1.0603012513314267 1.0284560881421188 1.0706292849940882 0.9956997502589897 1.0706292849940882 0.9956997502589897 C 1.0706292849940882 0.9956997502589897 1.078063114412647 0.9621679126859226 1.078063114412647 0.9621679126859226 C 1.078063114412647 0.9621679126859226 1.0825461636565594 0.9281157729539258 1.0825461636565594 0.9281157729539258 C 1.0825461636565594 0.9281157729539258 1.08404431401414 0.8938024884076037 1.08404431401414 0.8938024884076037 C 1.08404431401414 0.8938024884076037 1.0825461636565594 0.8594892038612816 1.0825461636565594 0.8594892038612816 C 1.0825461636565594 0.8594892038612816 1.078063114412647 0.8254370641292847 1.078063114412647 0.8254370641292847 C 1.078063114412647 0.8254370641292847 1.0706292849940882 0.7919052265562175 1.0706292849940882 0.7919052265562175 C 1.0706292849940882 0.7919052265562175 1.0603012513314267 0.7591488886730886 1.0603012513314267 0.7591488886730886 C 1.0603012513314267 0.7591488886730886 1.047157615997073 0.7274173459900055 1.047157615997073 0.7274173459900055 C 1.047157615997073 0.7274173459900055 1.0312984099922653 0.6969520947068165 1.0312984099922653 0.6969520947068165 C 1.0312984099922653 0.6969520947068165 1.012844331450751 0.6679849937812078 1.012844331450751 0.6679849937812078 C 1.012844331450751 0.6679849937812078 0.9919358270531078 0.6407365003420372 0.9919358270531078 0.6407365003420372 C 0.9919358270531078 0.6407365003420372 0.9687320231427021 0.615413991877467 0.9687320231427021 0.615413991877467 C 0.9687320231427021 0.615413991877467 0.9519869371166853 0.5996205111547603 0.9519869371166853 0.5996205111547603 C 0.9519869371166853 0.5996205111547603 0.9486379199114819 0.5964618150102191 0.9486379199114819 0.5964618150102191 C 0.9486379199114819 0.5964618150102191 0.9439971591294006 0.591397313317305 0.9439971591294006 0.591397313317305 C 0.9439971591294006 0.591397313317305 0.9398154582498721 0.585947614629471 0.9398154582498721 0.585947614629471 C 0.9398154582498721 0.585947614629471 0.9361246425415692 0.5801541944443492 0.9361246425415692 0.5801541944443492 C 0.9361246425415692 0.5801541944443492 0.9329528013406077 0.5740611441877114 0.9329528013406077 0.5740611441877114 C 0.9329528013406077 0.5740611441877114 0.9303240742737369 0.5677148356510948 0.9303240742737369 0.5677148356510948 C 0.9303240742737369 0.5677148356510948 0.9282584675412048 0.561163568074469 0.9282584675412048 0.561163568074469 C 0.9282584675412048 0.561163568074469 0.926771701657493 0.5544572005598556 0.926771701657493 0.5544572005598556 C 0.926771701657493 0.5544572005598556 0.9258750918087103 0.5476467726134562 0.9258750918087103 0.5476467726134562 C 0.9258750918087103 0.5476467726134562 0.9255754617371942 0.5407841157041918 0.9255754617371942 0.5407841157041918 C 0.9255754617371942 0.5407841157041918 0.9258750918087103 0.5339214587949274 0.9258750918087103 0.5339214587949274 C 0.9258750918087103 0.5339214587949274 0.926771701657493 0.527111030848528 0.926771701657493 0.527111030848528 C 0.926771701657493 0.527111030848528 0.9282584675412048 0.5204046633339146 0.9282584675412048 0.5204046633339146 C 0.9282584675412048 0.5204046633339146 0.9303240742737369 0.5138533957572887 0.9303240742737369 0.5138533957572887 C 0.9303240742737369 0.5138533957572887 0.9329528013406077 0.5075070872206722 0.9329528013406077 0.5075070872206722 C 0.9329528013406077 0.5075070872206722 0.9361246425415692 0.5014140369640343 0.9361246425415692 0.5014140369640343 C 0.9361246425415692 0.5014140369640343 0.9398154582498721 0.4956206167789126 0.9398154582498721 0.4956206167789126 C 0.9398154582498721 0.4956206167789126 0.9415212006965205 0.49327755402440177 0.9415212006965205 0.49327755402440177 C 0.9415212006965205 0.49327755402440177 0.9483441704831136 0.48390530300635876 0.9483441704831136 0.48390530300635876 C 0.9483441704831136 0.48390530300635876 0.9631074333163251 0.4607316222658717 0.9631074333163251 0.4607316222658717 C 0.9631074333163251 0.4607316222658717 0.9757947981201713 0.4363594212393204 0.9757947981201713 0.4363594212393204 C 0.9757947981201713 0.4363594212393204 0.9863097063876541 0.41097418709285405 0.9863097063876541 0.41097418709285405 C 0.9863097063876541 0.41097418709285405 0.9945721333177832 0.3847691167863507 0.9945721333177832 0.3847691167863507 C 0.9945721333177832 0.3847691167863507 1.0005191968526306 0.35794364672789697 1.0005191968526306 0.35794364672789697 C 1.0005191968526306 0.35794364672789697 1.0041056362477603 0.33070193494229944 1.0041056362477603 0.33070193494229944 C 1.0041056362477603 0.33070193494229944 1.0053041565338248 0.30325130730524175 1.0053041565338248 0.30325130730524175 C 1.0053041565338248 0.30325130730524175 1.0041056362477603 0.275800679668184 1.0041056362477603 0.275800679668184 C 1.0041056362477603 0.275800679668184 1.0005191968526306 0.24855896788258647 1.0005191968526306 0.24855896788258647 C 1.0005191968526306 0.24855896788258647 0.9945721333177832 0.2217334978241328 0.9945721333177832 0.2217334978241328 C 0.9945721333177832 0.2217334978241328 0.9863097063876541 0.19552842751762944 0.9863097063876541 0.19552842751762944 C 0.9863097063876541 0.19552842751762944 0.9757947981201713 0.1701431933711631 0.9757947981201713 0.1701431933711631 C 0.9757947981201713 0.1701431933711631 0.9631074333163251 0.1457709923446117 0.9631074333163251 0.1457709923446117 C 0.9631074333163251 0.1457709923446117 0.9483441704831136 0.12259731160412474 0.9483441704831136 0.12259731160412474 C 0.9483441704831136 0.12259731160412474 0.931617366964999 0.10079851685278829 0.931617366964999 0.10079851685278829 C 0.931617366964999 0.10079851685278829 0.9130543238366743 0.08054051008113215 0.9130543238366743 0.08054051008113215 C 0.9130543238366743 0.08054051008113215 0.8986704014995406 0.0670308348642967 0.8986704014995406 0.0670308348642967 C 0.8986704014995406 0.0670308348642967 0.8950744209152571 0.06365341606008774 0.8950744209152571 0.06365341606008774 C 0.8950744209152571 0.06365341606008774 0.8904336601331758 0.05858891436717371 0.8904336601331758 0.05858891436717371 C 0.8904336601331758 0.05858891436717371 0.8862519592536473 0.05313921567933956 0.8862519592536473 0.05313921567933956 C 0.8862519592536473 0.05313921567933956 0.8825611435453444 0.04734579549421782 0.8825611435453444 0.04734579549421782 C 0.8825611435453444 0.04734579549421782 0.8793893023443828 0.04125274523757997 0.8793893023443828 0.04125274523757997 C 0.8793893023443828 0.04125274523757997 0.876760575277512 0.03490643670096336 0.876760575277512 0.03490643670096336 C 0.876760575277512 0.03490643670096336 0.8746949685449796 0.02835516912433756 0.8746949685449796 0.02835516912433756 C 0.8746949685449796 0.02835516912433756 0.8732082026612679 0.021648801609724124 0.8732082026612679 0.021648801609724124 C 0.8732082026612679 0.021648801609724124 0.8723115928124855 0.014838373663324756 0.8723115928124855 0.014838373663324756 C 0.8723115928124855 0.014838373663324756 0.8720119627409694 0.007975716754060334 0.8720119627409694 0.007975716754060334 C 0.8720119627409694 0.007975716754060334 0.8723115928124855 0.0011130598447959134 0.8723115928124855 0.0011130598447959134 C 0.8723115928124855 0.0011130598447959134 0.8732082026612679 -0.005697368101603523 0.8732082026612679 -0.005697368101603523 C 0.8732082026612679 -0.005697368101603523 0.8746949685449796 -0.012403735616216893 0.8746949685449796 -0.012403735616216893 C 0.8746949685449796 -0.012403735616216893 0.876760575277512 -0.018955003192842768 0.876760575277512 -0.018955003192842768 C 0.876760575277512 -0.018955003192842768 0.8793893023443828 -0.0253013117294593 0.8793893023443828 -0.0253013117294593 C 0.8793893023443828 -0.0253013117294593 0.8825611435453444 -0.03139436198609715 0.8825611435453444 -0.03139436198609715 C 0.8825611435453444 -0.03139436198609715 0.8862519592536473 -0.03718778217121889 0.8862519592536473 -0.03718778217121889 C 0.8862519592536473 -0.03718778217121889 0.8904336601331758 -0.042637480859053035 0.8904336601331758 -0.042637480859053035 C 0.8904336601331758 -0.042637480859053035 0.8950744209152571 -0.047701982551967066 0.8950744209152571 -0.047701982551967066 C 0.8950744209152571 -0.047701982551967066 0.8986704014995403 -0.05107940135617575 0.8986704014995403 -0.05107940135617575 C 0.8986704014995403 -0.05107940135617575 0.9130543238366743 -0.06458907657301134 0.9130543238366743 -0.06458907657301134 C 0.9130543238366743 -0.06458907657301134 0.9316173669649986 -0.08484708334466748 0.9316173669649986 -0.08484708334466748 C 0.9316173669649986 -0.08484708334466748 0.9483441704831134 -0.10664587809600393 0.9483441704831134 -0.10664587809600393 C 0.9483441704831134 -0.10664587809600393 0.9631074333163251 -0.12981955883649088 0.9631074333163251 -0.12981955883649088 C 0.9631074333163251 -0.12981955883649088 0.975794798120171 -0.15419175986304215 0.975794798120171 -0.15419175986304215 C 0.975794798120171 -0.15419175986304215 0.9863097063876541 -0.17957699400950855 0.9863097063876541 -0.17957699400950855 C 0.9863097063876541 -0.17957699400950855 0.9945721333177832 -0.2057820643160119 0.9945721333177832 -0.2057820643160119 C 0.9945721333177832 -0.2057820643160119 1.0005191968526301 -0.23260753437446552 1.0005191968526301 -0.23260753437446552 C 1.0005191968526301 -0.23260753437446552 1.00410563624776 -0.2598492461600631 1.00410563624776 -0.2598492461600631 C 1.00410563624776 -0.2598492461600631 1.0053041565338245 -0.2872998737971208 1.0053041565338245 -0.2872998737971208 C 1.0053041565338245 -0.2872998737971208 1.00410563624776 -0.3147505014341785 1.00410563624776 -0.3147505014341785 C 1.00410563624776 -0.3147505014341785 1.0005191968526301 -0.34199221321977613 1.0005191968526301 -0.34199221321977613 C 1.0005191968526301 -0.34199221321977613 0.9945721333177832 -0.3688176832782297 0.9945721333177832 -0.3688176832782297 C 0.9945721333177832 -0.3688176832782297 0.9863097063876541 -0.3950227535847331 0.9863097063876541 -0.3950227535847331 C 0.9863097063876541 -0.3950227535847331 0.975794798120171 -0.4204079877311995 0.975794798120171 -0.4204079877311995 C 0.975794798120171 -0.4204079877311995 0.9631074333163251 -0.44478018875775077 0.9631074333163251 -0.44478018875775077 C 0.9631074333163251 -0.44478018875775077 0.9483441704831134 -0.4679538694982377 0.9483441704831134 -0.4679538694982377 C 0.9483441704831134 -0.4679538694982377 0.9415212006965201 -0.47732612051628087 0.9415212006965201 -0.47732612051628087 C 0.9415212006965201 -0.47732612051628087 0.9398154582498718 -0.4796691832707918 0.9398154582498718 -0.4796691832707918 C 0.9398154582498718 -0.4796691832707918 0.9361246425415689 -0.4854626034559134 0.9361246425415689 -0.4854626034559134 C 0.9361246425415689 -0.4854626034559134 0.9329528013406074 -0.49155565371255133 0.9329528013406074 -0.49155565371255133 C 0.9329528013406074 -0.49155565371255133 0.9303240742737369 -0.49790196224916794 0.9303240742737369 -0.49790196224916794 C 0.9303240742737369 -0.49790196224916794 0.9282584675412044 -0.5044532298257938 0.9282584675412044 -0.5044532298257938 C 0.9282584675412044 -0.5044532298257938 0.9267717016574927 -0.5111595973404073 0.9267717016574927 -0.5111595973404073 C 0.9267717016574927 -0.5111595973404073 0.9258750918087101 -0.5179700252868066 0.9258750918087101 -0.5179700252868066 C 0.9258750918087101 -0.5179700252868066 0.925575461737194 -0.524832682196071 0.925575461737194 -0.524832682196071 C 0.925575461737194 -0.524832682196071 0.9258750918087101 -0.5316953391053355 0.9258750918087101 -0.5316953391053355 C 0.9258750918087101 -0.5316953391053355 0.9267717016574927 -0.538505767051735 0.9267717016574927 -0.538505767051735 C 0.9267717016574927 -0.538505767051735 0.9282584675412044 -0.5452121345663483 0.9282584675412044 -0.5452121345663483 C 0.9282584675412044 -0.5452121345663483 0.9303240742737369 -0.5517634021429741 0.9303240742737369 -0.5517634021429741 C 0.9303240742737369 -0.5517634021429741 0.9329528013406074 -0.5581097106795908 0.9329528013406074 -0.5581097106795908 C 0.9329528013406074 -0.5581097106795908 0.9361246425415689 -0.5642027609362287 0.9361246425415689 -0.5642027609362287 C 0.9361246425415689 -0.5642027609362287 0.9398154582498718 -0.5699961811213503 0.9398154582498718 -0.5699961811213503 C 0.9398154582498718 -0.5699961811213503 0.9439971591294006 -0.5754458798091846 0.9439971591294006 -0.5754458798091846 C 0.9439971591294006 -0.5754458798091846 0.9486379199114816 -0.5805103815020985 0.9486379199114816 -0.5805103815020985 C 0.9486379199114816 -0.5805103815020985 0.9519869371166847 -0.5836690776466396 0.9519869371166847 -0.5836690776466396 C 0.9519869371166847 -0.5836690776466396 0.9687320231427009 -0.5994625583693459 0.9687320231427009 -0.5994625583693459 C 0.9687320231427009 -0.5994625583693459 0.9919358270531067 -0.624785066833916 0.9919358270531067 -0.624785066833916 C 0.9919358270531067 -0.624785066833916 1.01284433145075 -0.6520335602730867 1.01284433145075 -0.6520335602730867 C 1.01284433145075 -0.6520335602730867 1.0312984099922644 -0.6810006611986954 1.0312984099922644 -0.6810006611986954 C 1.0312984099922644 -0.6810006611986954 1.047157615997072 -0.7114659124818845 1.047157615997072 -0.7114659124818845 C 1.047157615997072 -0.7114659124818845 1.0603012513314258 -0.7431974551649675 1.0603012513314258 -0.7431974551649675 C 1.0603012513314258 -0.7431974551649675 1.0706292849940873 -0.7759537930480968 1.0706292849940873 -0.7759537930480968 C 1.0706292849940873 -0.7759537930480968 1.0780631144126462 -0.8094856306211639 1.0780631144126462 -0.8094856306211639 C 1.0780631144126462 -0.8094856306211639 1.0825461636565585 -0.8435377703531607 1.0825461636565585 -0.8435377703531607 C 1.0825461636565585 -0.8435377703531607 1.084044314014139 -0.8778510548994828 1.084044314014139 -0.8778510548994828 C 1.084044314014139 -0.8778510548994828 1.0825461636565585 -0.912164339445805 1.0825461636565585 -0.912164339445805 C 1.0825461636565585 -0.912164339445805 1.0780631144126462 -0.9462164791778018 1.0780631144126462 -0.9462164791778018 C 1.0780631144126462 -0.9462164791778018 1.0706292849940873 -0.9797483167508689 1.0706292849940873 -0.9797483167508689 C 1.0706292849940873 -0.9797483167508689 1.0603012513314258 -1.012504654633998 1.0603012513314258 -1.012504654633998 C 1.0603012513314258 -1.012504654633998 1.047157615997072 -1.0442361973170813 1.047157615997072 -1.0442361973170813 C 1.047157615997072 -1.0442361973170813 1.0312984099922644 -1.0747014486002702 1.0312984099922644 -1.0747014486002702 C 1.0312984099922644 -1.0747014486002702 1.01284433145075 -1.1036685495258791 1.01284433145075 -1.1036685495258791 C 1.01284433145075 -1.1036685495258791 0.9976761052739025 -1.1239140470254672 0.9976761052739025 -1.1239140470254672 C 0.9976761052739025 -1.1239140470254672 0.994642460038533 -1.1279631465253848 0.994642460038533 -1.1279631465253848 C 0.994642460038533 -1.1279631465253848 0.9909516443302301 -1.1337565667105065 0.9909516443302301 -1.1337565667105065 C 0.9909516443302301 -1.1337565667105065 0.9877798031292686 -1.1398496169671444 0.9877798031292686 -1.1398496169671444 C 0.9877798031292686 -1.1398496169671444 0.985151076062398 -1.1461959255037608 0.985151076062398 -1.1461959255037608 C 0.985151076062398 -1.1461959255037608 0.9830854693298656 -1.1527471930803868 0.9830854693298656 -1.1527471930803868 C 0.9830854693298656 -1.1527471930803868 0.9815987034461539 -1.1594535605950003 0.9815987034461539 -1.1594535605950003 C 0.9815987034461539 -1.1594535605950003 0.9807020935973713 -1.1662639885413995 0.9807020935973713 -1.1662639885413995 C 0.9807020935973713 -1.1662639885413995 0.9804024635258551 -1.173126645450664 0.9804024635258551 -1.173126645450664 C 0.9804024635258551 -1.173126645450664 0.9807020935973713 -1.1799893023599284 0.9807020935973713 -1.1799893023599284 C 0.9807020935973713 -1.1799893023599284 0.9815987034461539 -1.1867997303063278 0.9815987034461539 -1.1867997303063278 C 0.9815987034461539 -1.1867997303063278 0.9830854693298656 -1.193506097820941 0.9830854693298656 -1.193506097820941 C 0.9830854693298656 -1.193506097820941 0.985151076062398 -1.200057365397567 0.985151076062398 -1.200057365397567 C 0.985151076062398 -1.200057365397567 0.9877798031292686 -1.206403673934184 0.9877798031292686 -1.206403673934184 C 0.9877798031292686 -1.206403673934184 0.9909516443302301 -1.2124967241908216 0.9909516443302301 -1.2124967241908216 C 0.9909516443302301 -1.2124967241908216 0.994642460038533 -1.2182901443759433 0.994642460038533 -1.2182901443759433 C 0.994642460038533 -1.2182901443759433 0.9976761052739025 -1.222339243875861 0.9976761052739025 -1.222339243875861 C 0.9976761052739025 -1.222339243875861 1.0128443314507498 -1.2425847413754492 1.0128443314507498 -1.2425847413754492 C 1.0128443314507498 -1.2425847413754492 1.0312984099922644 -1.2715518423010579 1.0312984099922644 -1.2715518423010579 C 1.0312984099922644 -1.2715518423010579 1.047157615997072 -1.302017093584247 1.047157615997072 -1.302017093584247 C 1.047157615997072 -1.302017093584247 1.0603012513314256 -1.33374863626733 1.0603012513314256 -1.33374863626733 C 1.0603012513314256 -1.33374863626733 1.0706292849940873 -1.3665049741504594 1.0706292849940873 -1.3665049741504594 C 1.0706292849940873 -1.3665049741504594 1.0780631144126462 -1.4000368117235265 1.0780631144126462 -1.4000368117235265 C 1.0780631144126462 -1.4000368117235265 1.0825461636565585 -1.4340889514555233 1.0825461636565585 -1.4340889514555233 C 1.0825461636565585 -1.4340889514555233 1.084044314014139 -1.4684022360018454 1.084044314014139 -1.4684022360018454 C 1.084044314014139 -1.4684022360018454 1.0825461636565585 -1.5027155205481675 1.0825461636565585 -1.5027155205481675 C 1.0825461636565585 -1.5027155205481675 1.0780631144126462 -1.5367676602801643 1.0780631144126462 -1.5367676602801643 C 1.0780631144126462 -1.5367676602801643 1.0706292849940873 -1.5702994978532314 1.0706292849940873 -1.5702994978532314 C 1.0706292849940873 -1.5702994978532314 1.0603012513314256 -1.6030558357363607 1.0603012513314256 -1.6030558357363607 C 1.0603012513314256 -1.6030558357363607 1.047157615997072 -1.6347873784194438 1.047157615997072 -1.6347873784194438 C 1.047157615997072 -1.6347873784194438 1.0312984099922644 -1.6652526297026329 1.0312984099922644 -1.6652526297026329 C 1.0312984099922644 -1.6652526297026329 1.0128443314507498 -1.6942197306282416 1.0128443314507498 -1.6942197306282416 C 1.0128443314507498 -1.6942197306282416 0.9976761052739025 -1.71446522812783 0.9976761052739025 -1.71446522812783 C 0.9976761052739025 -1.71446522812783 0.994642460038533 -1.7185143276277475 0.994642460038533 -1.7185143276277475 C 0.994642460038533 -1.7185143276277475 0.9909516443302301 -1.7243077478128694 0.9909516443302301 -1.7243077478128694 C 0.9909516443302301 -1.7243077478128694 0.9877798031292686 -1.7304007980695073 0.9877798031292686 -1.7304007980695073 C 0.9877798031292686 -1.7304007980695073 0.985151076062398 -1.7367471066061237 0.985151076062398 -1.7367471066061237 C 0.985151076062398 -1.7367471066061237 0.9830854693298656 -1.7432983741827497 0.9830854693298656 -1.7432983741827497 C 0.9830854693298656 -1.7432983741827497 0.9815987034461539 -1.750004741697363 0.9815987034461539 -1.750004741697363 C 0.9815987034461539 -1.750004741697363 0.9807020935973713 -1.7568151696437624 0.9807020935973713 -1.7568151696437624 C 0.9807020935973713 -1.7568151696437624 0.9804024635258551 -1.7636778265530269 0.9804024635258551 -1.7636778265530269 C 0.9804024635258551 -1.7636778265530269 0.9807020935973713 -1.7705404834622913 0.9807020935973713 -1.7705404834622913 C 0.9807020935973713 -1.7705404834622913 0.9815987034461539 -1.7773509114086907 0.9815987034461539 -1.7773509114086907 C 0.9815987034461539 -1.7773509114086907 0.9830854693298656 -1.784057278923304 0.9830854693298656 -1.784057278923304 C 0.9830854693298656 -1.784057278923304 0.985151076062398 -1.79060854649993 0.985151076062398 -1.79060854649993 C 0.985151076062398 -1.79060854649993 0.9877798031292686 -1.7969548550365466 0.9877798031292686 -1.7969548550365466 C 0.9877798031292686 -1.7969548550365466 0.9909516443302301 -1.8030479052931843 0.9909516443302301 -1.8030479052931843 C 0.9909516443302301 -1.8030479052931843 0.994642460038533 -1.8088413254783062 0.994642460038533 -1.8088413254783062 C 0.994642460038533 -1.8088413254783062 0.9976761052739025 -1.8128904249782236 0.9976761052739025 -1.8128904249782236 C 0.9976761052739025 -1.8128904249782236 1.0128443314507498 -1.833135922477812 1.0128443314507498 -1.833135922477812 C 1.0128443314507498 -1.833135922477812 1.0312984099922644 -1.8621030234034208 1.0312984099922644 -1.8621030234034208 C 1.0312984099922644 -1.8621030234034208 1.047157615997072 -1.89256827468661 1.047157615997072 -1.89256827468661 C 1.047157615997072 -1.89256827468661 1.0603012513314256 -1.9242998173696928 1.0603012513314256 -1.9242998173696928 C 1.0603012513314256 -1.9242998173696928 1.070629284994087 -1.9570561552528218 1.070629284994087 -1.9570561552528218 C 1.070629284994087 -1.9570561552528218 1.0780631144126458 -1.9905879928258892 1.0780631144126458 -1.9905879928258892 C 1.0780631144126458 -1.9905879928258892 1.0825461636565583 -2.024640132557886 1.0825461636565583 -2.024640132557886 C 1.0825461636565583 -2.024640132557886 1.084044314014139 -2.058953417104208 1.084044314014139 -2.058953417104208 C 1.084044314014139 -2.058953417104208 1.0825461636565583 -2.09326670165053 1.0825461636565583 -2.09326670165053 C 1.0825461636565583 -2.09326670165053 1.0780631144126458 -2.127318841382527 1.0780631144126458 -2.127318841382527 C 1.0780631144126458 -2.127318841382527 1.070629284994087 -2.160850678955594 1.070629284994087 -2.160850678955594 C 1.070629284994087 -2.160850678955594 1.0603012513314256 -2.193607016838723 1.0603012513314256 -2.193607016838723 C 1.0603012513314256 -2.193607016838723 1.047157615997072 -2.225338559521806 1.047157615997072 -2.225338559521806 C 1.047157615997072 -2.225338559521806 1.0312984099922644 -2.2558038108049954 1.0312984099922644 -2.2558038108049954 C 1.0312984099922644 -2.2558038108049954 1.0128443314507498 -2.284770911730604 1.0128443314507498 -2.284770911730604 C 1.0128443314507498 -2.284770911730604 0.9919358270531067 -2.3120194051697744 0.9919358270531067 -2.3120194051697744 C 0.9919358270531067 -2.3120194051697744 0.9892399274753946 -2.3151979322686613 0.9892399274753946 -2.3151979322686613" stroke-width="0.01"></path></g></g><g fill="rgb(246,246,246)" stroke="none"><g><path class="fill" d="M1.6610869506023533,5.889534654824612L1.661086950602354,5.550606543074157L1.4913271459385138,5.550606543074157L1.4913271459385138,5.635190696617465L0.9826392295242194,5.635190696617464L0.9826392295242197,5.5506065430741565L0.8128794248603795,5.5506065430741565L0.8128794248603788,5.88953465482461L0.982639229524219,5.889534654824611L0.9826392295242192,5.804950501281303L1.4913271459385133,5.804950501281304L1.4913271459385133,5.889534654824612L1.6610869506023533,5.889534654824612L1.6610869506023533,5.889534654824612Z"></path></g></g><g fill="rgb(246,246,246)" stroke="none"><g><path class="fill" d="M0.8014105620967049,2.488261660751461L0.8014105620967049,2.488261660751461L1.140930171424385,2.488261660751461L1.1666048631358479,2.487004728399856L1.191577151474355,2.483233931345041L1.215847036439906,2.4769492695870152L1.2394145180325014,2.4681507431257796L1.2618914259670864,2.4572080379471L1.2828895899586068,2.444490840036743L1.3024090100070622,2.4299991493947077L1.3204496861124528,2.4137329660209947L1.336845259581184,2.3958401643099103L1.3514293717196606,2.3764686186557618L1.3642020225278828,2.3556183290585477L1.3751632120058508,2.333289295518269L1.3839617384670866,2.309777266823539L1.390246400225112,2.2853779917629695L1.3940171972799273,2.2600914703365613L1.3952741296315323,2.233917702544314L1.3952741296315323,2.233917702544314L1.3952741296315323,2.0641578978804738L1.3940171972799273,2.038464721869723L1.390246400225112,2.013436980633351L1.3839617384670866,1.9890746741713583L1.3751632120058508,1.965377802483745L1.3642020225278828,1.9427899887534297L1.3514293717196606,1.9217548561633329L1.336845259581184,1.9022724047134538L1.3204496861124528,1.8843426344037932L1.3024090100070622,1.8680764510300802L1.2828895899586068,1.853584760388045L1.2618914259670864,1.8408675624776878L1.2394145180325014,1.8299248572990083L1.215847036439906,1.8211263308377728L1.191577151474355,1.814841669079747L1.1666048631358479,1.8110708720249318L1.140930171424385,1.8098139396733268L1.140930171424385,1.8098139396733268L1.0983423458641186,1.8098139396733268L1.0983423458641186,1.9795737443371668L1.140930171424385,1.9795737443371668L1.1577508837767472,1.9811264254773848L1.1733146637775045,1.985784468898039L1.1876215114266564,1.9935478745991295L1.2006714267242034,2.0044166425806558L1.2115401947057296,2.0174665578782025L1.2193036004068198,2.0317734055273546L1.223961643827474,2.0473371855281117L1.225514324967692,2.0641578978804738L1.225514324967692,2.0641578978804738L1.225514324967692,2.233917702544314L1.223961643827474,2.2507384148966763L1.2193036004068198,2.2663021948974333L1.2115401947057296,2.2806090425465855L1.2006714267242034,2.293658957844132L1.1876215114266564,2.304527725825659L1.1733146637775045,2.3122911315267487L1.1577508837767472,2.316949174947403L1.140930171424385,2.318501856087621L1.140930171424385,2.318501856087621L0.8014105620967049,2.318501856087621L0.7845898497443426,2.316949174947403L0.7690260697435856,2.3122911315267487L0.7547192220944337,2.304527725825659L0.7416693067968866,2.293658957844132L0.7308005388153602,2.2806090425465855L0.7230371331142701,2.2663021948974333L0.718379089693616,2.2507384148966763L0.7168264085533979,2.233917702544314L0.7168264085533979,2.233917702544314L0.7168264085533979,2.0641578978804738L0.718379089693616,2.0473371855281117L0.7230371331142701,2.0317734055273546L0.7308005388153602,2.0174665578782025L0.7416693067968866,2.0044166425806558L0.7547192220944337,1.9935478745991295L0.7690260697435856,1.985784468898039L0.7845898497443426,1.9811264254773848L0.8014105620967049,1.9795737443371668L0.8014105620967049,1.9795737443371668L0.8351259239985825,1.9795737443371668L0.8351259239985825,2.149333549001007L1.0048857286624227,2.149333549001007L1.0048857286624227,1.8098139396733268L0.8014105620967049,1.8098139396733268L0.7752367943044578,1.8110708720249318L0.7499502728780496,1.814841669079747L0.7255509978174802,1.8211263308377725L0.7020389691227498,1.8299248572990083L0.6797099355824712,1.8408675624776878L0.6588596459852574,1.853584760388045L0.6394881003311084,1.8680764510300802L0.6215952986200242,1.8843426344037932L0.6053291152463113,1.9022724047134538L0.5908374246042761,1.9217548561633329L0.5781202266939188,1.9427899887534297L0.5671775215152393,1.9653778024837447L0.5583789950540037,1.9890746741713583L0.5520943332959782,2.013436980633351L0.5483235362411628,2.038464721869723L0.5470666038895577,2.0641578978804738L0.5470666038895577,2.0641578978804738L0.5470666038895577,2.233917702544314L0.5483235362411628,2.2600914703365613L0.5520943332959781,2.2853779917629695L0.5583789950540035,2.309777266823539L0.5671775215152391,2.333289295518269L0.5781202266939187,2.3556183290585477L0.5908374246042761,2.3764686186557618L0.6053291152463113,2.3958401643099103L0.6215952986200242,2.4137329660209947L0.6394881003311084,2.4299991493947077L0.6588596459852574,2.444490840036743L0.6797099355824711,2.4572080379471L0.7020389691227498,2.4681507431257796L0.7255509978174802,2.4769492695870152L0.7499502728780496,2.483233931345041L0.7752367943044578,2.487004728399856L0.8014105620967049,2.488261660751461L0.8014105620967049,2.488261660751461Z"></path></g></g></g>
  </g>
</svg>