<svg width="3.543304443359375in" height="1.9685058593750004in" viewBox="0 0 3.543304443359375 1.9685058593750004" xmlns="http://www.w3.org/2000/svg" xmlnsXlink="http://www.w3.org/1999/xlink">
  <g transform="translate(0 1.9685058593750004)">
    <g data-reactroot="" transform="scale(1, -1)"><g fill="none" stroke="rgb(-11,-11,-11)"><g transform="matrix(1,0,0,-1,0.7874015748031518,0.7874015748031482)"><path class="outline" d="M 0.1279527559055118 0 C 0.1279527559055118 0 0.12746585703929947 -0.011151817477554634 0.12746585703929947 -0.011151817477554634 C 0.12746585703929947 -0.011151817477554634 0.12600886603502867 -0.022218762890453707 0.12600886603502867 -0.022218762890453707 C 0.12600886603502867 -0.022218762890453707 0.12359287147399461 -0.033116610101700986 0.12359287147399461 -0.033116610101700986 C 0.12359287147399461 -0.033116610101700986 0.12023626053363014 -0.04376241991371733 0.12023626053363014 -0.04376241991371733 C 0.12023626053363014 -0.04376241991371733 0.11596457904996589 -0.05407517128571933 0.11596457904996589 -0.05407517128571933 C 0.11596457904996589 -0.05407517128571933 0.11081033709840302 -0.06397637795275589 0.11081033709840302 -0.06397637795275589 C 0.11081033709840302 -0.06397637795275589 0.10481276157241276 -0.07339068575358013 0.10481276157241276 -0.07339068575358013 C 0.10481276157241276 -0.07339068575358013 0.09801749764317642 -0.08224644612130982 0.09801749764317642 -0.08224644612130982 C 0.09801749764317642 -0.08224644612130982 0.09047626137229665 -0.09047626137229513 0.09047626137229665 -0.09047626137229513 C 0.09047626137229665 -0.09047626137229513 0.08224644612131135 -0.09801749764317794 0.08224644612131135 -0.09801749764317794 C 0.08224644612131135 -0.09801749764317794 0.07339068575358014 -0.10481276157241123 0.07339068575358014 -0.10481276157241123 C 0.07339068575358014 -0.10481276157241123 0.0639763779527559 -0.110810337098403 0.0639763779527559 -0.110810337098403 C 0.0639763779527559 -0.110810337098403 0.054075171285719335 -0.11596457904996588 0.054075171285719335 -0.11596457904996588 C 0.054075171285719335 -0.11596457904996588 0.043762419913717335 -0.12023626053363164 0.043762419913717335 -0.12023626053363164 C 0.043762419913717335 -0.12023626053363164 0.033116610101700986 -0.12359287147399611 0.033116610101700986 -0.12359287147399611 C 0.033116610101700986 -0.12359287147399611 0.02221876289045371 -0.12600886603502715 0.02221876289045371 -0.12600886603502715 C 0.02221876289045371 -0.12600886603502715 0.01115181747755615 -0.12746585703929944 0.01115181747755615 -0.12746585703929944 C 0.01115181747755615 -0.12746585703929944 0 -0.1279527559055133 0 -0.1279527559055133 C 0 -0.1279527559055133 -0.01115181747755615 -0.12746585703929944 -0.01115181747755615 -0.12746585703929944 C -0.01115181747755615 -0.12746585703929944 -0.02221876289045371 -0.12600886603502715 -0.02221876289045371 -0.12600886603502715 C -0.02221876289045371 -0.12600886603502715 -0.033116610101700986 -0.12359287147399611 -0.033116610101700986 -0.12359287147399611 C -0.033116610101700986 -0.12359287147399611 -0.043762419913717335 -0.12023626053363164 -0.043762419913717335 -0.12023626053363164 C -0.043762419913717335 -0.12023626053363164 -0.054075171285719335 -0.11596457904996588 -0.054075171285719335 -0.11596457904996588 C -0.054075171285719335 -0.11596457904996588 -0.0639763779527559 -0.110810337098403 -0.0639763779527559 -0.110810337098403 C -0.0639763779527559 -0.110810337098403 -0.07339068575358014 -0.10481276157241123 -0.07339068575358014 -0.10481276157241123 C -0.07339068575358014 -0.10481276157241123 -0.08224644612130831 -0.09801749764317794 -0.08224644612130831 -0.09801749764317794 C -0.08224644612130831 -0.09801749764317794 -0.09047626137229665 -0.09047626137229513 -0.09047626137229665 -0.09047626137229513 C -0.09047626137229665 -0.09047626137229513 -0.09801749764317642 -0.08224644612130982 -0.09801749764317642 -0.08224644612130982 C -0.09801749764317642 -0.08224644612130982 -0.10481276157240974 -0.07339068575358013 -0.10481276157240974 -0.07339068575358013 C -0.10481276157240974 -0.07339068575358013 -0.11081033709840302 -0.0639763779527574 -0.11081033709840302 -0.0639763779527574 C -0.11081033709840302 -0.0639763779527574 -0.11596457904996589 -0.05407517128572084 -0.11596457904996589 -0.05407517128572084 C -0.11596457904996589 -0.05407517128572084 -0.12023626053363014 -0.04376241991371885 -0.12023626053363014 -0.04376241991371885 C -0.12023626053363014 -0.04376241991371885 -0.12359287147399461 -0.033116610101700986 -0.12359287147399461 -0.033116610101700986 C -0.12359287147399461 -0.033116610101700986 -0.12600886603502867 -0.022218762890453707 -0.12600886603502867 -0.022218762890453707 C -0.12600886603502867 -0.022218762890453707 -0.12746585703929947 -0.011151817477554634 -0.12746585703929947 -0.011151817477554634 C -0.12746585703929947 -0.011151817477554634 -0.1279527559055118 0 -0.1279527559055118 0 C -0.1279527559055118 0 -0.12746585703929947 0.011151817477554634 -0.12746585703929947 0.011151817477554634 C -0.12746585703929947 0.011151817477554634 -0.12600886603502867 0.022218762890453707 -0.12600886603502867 0.022218762890453707 C -0.12600886603502867 0.022218762890453707 -0.12359287147399764 0.033116610101700986 -0.12359287147399764 0.033116610101700986 C -0.12359287147399764 0.033116610101700986 -0.12023626053363014 0.04376241991371733 -0.12023626053363014 0.04376241991371733 C -0.12023626053363014 0.04376241991371733 -0.11596457904996589 0.05407517128571933 -0.11596457904996589 0.05407517128571933 C -0.11596457904996589 0.05407517128571933 -0.11081033709840302 0.06397637795275589 -0.11081033709840302 0.06397637795275589 C -0.11081033709840302 0.06397637795275589 -0.10481276157241276 0.07339068575357861 -0.10481276157241276 0.07339068575357861 C -0.10481276157241276 0.07339068575357861 -0.09801749764317642 0.08224644612130982 -0.09801749764317642 0.08224644612130982 C -0.09801749764317642 0.08224644612130982 -0.09047626137229665 0.09047626137229513 -0.09047626137229665 0.09047626137229513 C -0.09047626137229665 0.09047626137229513 -0.08224644612131135 0.09801749764317641 -0.08224644612131135 0.09801749764317641 C -0.08224644612131135 0.09801749764317641 -0.07339068575358014 0.10481276157241123 -0.07339068575358014 0.10481276157241123 C -0.07339068575358014 0.10481276157241123 -0.0639763779527559 0.110810337098403 -0.0639763779527559 0.110810337098403 C -0.0639763779527559 0.110810337098403 -0.054075171285719335 0.11596457904996588 -0.054075171285719335 0.11596457904996588 C -0.054075171285719335 0.11596457904996588 -0.043762419913717335 0.12023626053363164 -0.043762419913717335 0.12023626053363164 C -0.043762419913717335 0.12023626053363164 -0.033116610101700986 0.12359287147399611 -0.033116610101700986 0.12359287147399611 C -0.033116610101700986 0.12359287147399611 -0.02221876289045371 0.12600886603502715 -0.02221876289045371 0.12600886603502715 C -0.02221876289045371 0.12600886603502715 -0.01115181747755615 0.12746585703929944 -0.01115181747755615 0.12746585703929944 C -0.01115181747755615 0.12746585703929944 0 0.1279527559055133 0 0.1279527559055133 C 0 0.1279527559055133 0.01115181747755312 0.12746585703929944 0.01115181747755312 0.12746585703929944 C 0.01115181747755312 0.12746585703929944 0.02221876289045371 0.12600886603502715 0.02221876289045371 0.12600886603502715 C 0.02221876289045371 0.12600886603502715 0.033116610101700986 0.12359287147399611 0.033116610101700986 0.12359287147399611 C 0.033116610101700986 0.12359287147399611 0.043762419913717335 0.12023626053363164 0.043762419913717335 0.12023626053363164 C 0.043762419913717335 0.12023626053363164 0.054075171285719335 0.11596457904996588 0.054075171285719335 0.11596457904996588 C 0.054075171285719335 0.11596457904996588 0.0639763779527559 0.11081033709840452 0.0639763779527559 0.11081033709840452 C 0.0639763779527559 0.11081033709840452 0.07339068575358014 0.10481276157241123 0.07339068575358014 0.10481276157241123 C 0.07339068575358014 0.10481276157241123 0.08224644612130831 0.09801749764317794 0.08224644612130831 0.09801749764317794 C 0.08224644612130831 0.09801749764317794 0.09047626137229361 0.09047626137229513 0.09047626137229361 0.09047626137229513 C 0.09047626137229361 0.09047626137229513 0.09801749764317642 0.08224644612130982 0.09801749764317642 0.08224644612130982 C 0.09801749764317642 0.08224644612130982 0.10481276157240974 0.07339068575358013 0.10481276157240974 0.07339068575358013 C 0.10481276157240974 0.07339068575358013 0.11081033709840302 0.0639763779527574 0.11081033709840302 0.0639763779527574 C 0.11081033709840302 0.0639763779527574 0.11596457904996589 0.05407517128572084 0.11596457904996589 0.05407517128572084 C 0.11596457904996589 0.05407517128572084 0.12023626053363014 0.04376241991371885 0.12023626053363014 0.04376241991371885 C 0.12023626053363014 0.04376241991371885 0.12359287147399461 0.033116610101700986 0.12359287147399461 0.033116610101700986 C 0.12359287147399461 0.033116610101700986 0.12600886603502867 0.022218762890455223 0.12600886603502867 0.022218762890455223 C 0.12600886603502867 0.022218762890455223 0.12746585703929947 0.01115181747755615 0.12746585703929947 0.01115181747755615 C 0.12746585703929947 0.01115181747755615 0.1279527559055118 0 0.1279527559055118 0" stroke-width="0.01"></path></g></g><g fill="none" stroke="rgb(-11,-11,-11)"><g transform="matrix(1,0,0,-1,2.755905511811026,0.7874015748031482)"><path class="outline" d="M 0.1279527559055118 0 C 0.1279527559055118 0 0.12746585703929947 -0.011151817477554504 0.12746585703929947 -0.011151817477554504 C 0.12746585703929947 -0.011151817477554504 0.12600886603502867 -0.022218762890453447 0.12600886603502867 -0.022218762890453447 C 0.12600886603502867 -0.022218762890453447 0.12359287147399461 -0.0331166101017006 0.12359287147399461 -0.0331166101017006 C 0.12359287147399461 -0.0331166101017006 0.12023626053363014 -0.043762419913716814 0.12023626053363014 -0.043762419913716814 C 0.12023626053363014 -0.043762419913716814 0.11596457904996589 -0.0540751712857187 0.11596457904996589 -0.0540751712857187 C 0.11596457904996589 -0.0540751712857187 0.11081033709840302 -0.06397637795275514 0.11081033709840302 -0.06397637795275514 C 0.11081033709840302 -0.06397637795275514 0.10481276157241276 -0.07339068575357927 0.10481276157241276 -0.07339068575357927 C 0.10481276157241276 -0.07339068575357927 0.09801749764317642 -0.08224644612130885 0.09801749764317642 -0.08224644612130885 C 0.09801749764317642 -0.08224644612130885 0.09047626137229665 -0.09047626137229406 0.09047626137229665 -0.09047626137229406 C 0.09047626137229665 -0.09047626137229406 0.08224644612131135 -0.09801749764317678 0.08224644612131135 -0.09801749764317678 C 0.08224644612131135 -0.09801749764317678 0.07339068575358014 -0.10481276157241001 0.07339068575358014 -0.10481276157241001 C 0.07339068575358014 -0.10481276157241001 0.0639763779527559 -0.11081033709840171 0.0639763779527559 -0.11081033709840171 C 0.0639763779527559 -0.11081033709840171 0.054075171285719335 -0.11596457904996452 0.054075171285719335 -0.11596457904996452 C 0.054075171285719335 -0.11596457904996452 0.043762419913717335 -0.12023626053363023 0.043762419913717335 -0.12023626053363023 C 0.043762419913717335 -0.12023626053363023 0.033116610101700986 -0.12359287147399466 0.033116610101700986 -0.12359287147399466 C 0.033116610101700986 -0.12359287147399466 0.02221876289045371 -0.12600886603502567 0.02221876289045371 -0.12600886603502567 C 0.02221876289045371 -0.12600886603502567 0.01115181747755615 -0.12746585703929797 0.01115181747755615 -0.12746585703929797 C 0.01115181747755615 -0.12746585703929797 0 -0.1279527559055118 0 -0.1279527559055118 C 0 -0.1279527559055118 -0.01115181747755615 -0.12746585703929797 -0.01115181747755615 -0.12746585703929797 C -0.01115181747755615 -0.12746585703929797 -0.02221876289045371 -0.12600886603502567 -0.02221876289045371 -0.12600886603502567 C -0.02221876289045371 -0.12600886603502567 -0.033116610101700986 -0.12359287147399466 -0.033116610101700986 -0.12359287147399466 C -0.033116610101700986 -0.12359287147399466 -0.043762419913717335 -0.12023626053363023 -0.043762419913717335 -0.12023626053363023 C -0.043762419913717335 -0.12023626053363023 -0.054075171285719335 -0.11596457904996452 -0.054075171285719335 -0.11596457904996452 C -0.054075171285719335 -0.11596457904996452 -0.0639763779527559 -0.11081033709840171 -0.0639763779527559 -0.11081033709840171 C -0.0639763779527559 -0.11081033709840171 -0.07339068575358014 -0.10481276157241001 -0.07339068575358014 -0.10481276157241001 C -0.07339068575358014 -0.10481276157241001 -0.08224644612130831 -0.09801749764317678 -0.08224644612130831 -0.09801749764317678 C -0.08224644612130831 -0.09801749764317678 -0.09047626137229665 -0.09047626137229406 -0.09047626137229665 -0.09047626137229406 C -0.09047626137229665 -0.09047626137229406 -0.09801749764317642 -0.08224644612130885 -0.09801749764317642 -0.08224644612130885 C -0.09801749764317642 -0.08224644612130885 -0.10481276157240974 -0.07339068575357927 -0.10481276157240974 -0.07339068575357927 C -0.10481276157240974 -0.07339068575357927 -0.11081033709840302 -0.06397637795275665 -0.11081033709840302 -0.06397637795275665 C -0.11081033709840302 -0.06397637795275665 -0.11596457904996589 -0.05407517128572021 -0.11596457904996589 -0.05407517128572021 C -0.11596457904996589 -0.05407517128572021 -0.12023626053363014 -0.043762419913718334 -0.12023626053363014 -0.043762419913718334 C -0.12023626053363014 -0.043762419913718334 -0.12359287147399461 -0.0331166101017006 -0.12359287147399461 -0.0331166101017006 C -0.12359287147399461 -0.0331166101017006 -0.12600886603502867 -0.022218762890453447 -0.12600886603502867 -0.022218762890453447 C -0.12600886603502867 -0.022218762890453447 -0.12746585703929947 -0.011151817477554504 -0.12746585703929947 -0.011151817477554504 C -0.12746585703929947 -0.011151817477554504 -0.1279527559055118 0 -0.1279527559055118 0 C -0.1279527559055118 0 -0.12746585703929947 0.011151817477554504 -0.12746585703929947 0.011151817477554504 C -0.12746585703929947 0.011151817477554504 -0.12600886603502867 0.022218762890453447 -0.12600886603502867 0.022218762890453447 C -0.12600886603502867 0.022218762890453447 -0.12359287147399764 0.0331166101017006 -0.12359287147399764 0.0331166101017006 C -0.12359287147399764 0.0331166101017006 -0.12023626053363014 0.043762419913716814 -0.12023626053363014 0.043762419913716814 C -0.12023626053363014 0.043762419913716814 -0.11596457904996589 0.0540751712857187 -0.11596457904996589 0.0540751712857187 C -0.11596457904996589 0.0540751712857187 -0.11081033709840302 0.06397637795275514 -0.11081033709840302 0.06397637795275514 C -0.11081033709840302 0.06397637795275514 -0.10481276157241276 0.07339068575357775 -0.10481276157241276 0.07339068575357775 C -0.10481276157241276 0.07339068575357775 -0.09801749764317642 0.08224644612130885 -0.09801749764317642 0.08224644612130885 C -0.09801749764317642 0.08224644612130885 -0.09047626137229665 0.09047626137229406 -0.09047626137229665 0.09047626137229406 C -0.09047626137229665 0.09047626137229406 -0.08224644612131135 0.09801749764317527 -0.08224644612131135 0.09801749764317527 C -0.08224644612131135 0.09801749764317527 -0.07339068575358014 0.10481276157241001 -0.07339068575358014 0.10481276157241001 C -0.07339068575358014 0.10481276157241001 -0.0639763779527559 0.11081033709840171 -0.0639763779527559 0.11081033709840171 C -0.0639763779527559 0.11081033709840171 -0.054075171285719335 0.11596457904996452 -0.054075171285719335 0.11596457904996452 C -0.054075171285719335 0.11596457904996452 -0.043762419913717335 0.12023626053363023 -0.043762419913717335 0.12023626053363023 C -0.043762419913717335 0.12023626053363023 -0.033116610101700986 0.12359287147399466 -0.033116610101700986 0.12359287147399466 C -0.033116610101700986 0.12359287147399466 -0.02221876289045371 0.12600886603502567 -0.02221876289045371 0.12600886603502567 C -0.02221876289045371 0.12600886603502567 -0.01115181747755615 0.12746585703929797 -0.01115181747755615 0.12746585703929797 C -0.01115181747755615 0.12746585703929797 0 0.1279527559055118 0 0.1279527559055118 C 0 0.1279527559055118 0.01115181747755312 0.12746585703929797 0.01115181747755312 0.12746585703929797 C 0.01115181747755312 0.12746585703929797 0.02221876289045371 0.12600886603502567 0.02221876289045371 0.12600886603502567 C 0.02221876289045371 0.12600886603502567 0.033116610101700986 0.12359287147399466 0.033116610101700986 0.12359287147399466 C 0.033116610101700986 0.12359287147399466 0.043762419913717335 0.12023626053363023 0.043762419913717335 0.12023626053363023 C 0.043762419913717335 0.12023626053363023 0.054075171285719335 0.11596457904996452 0.054075171285719335 0.11596457904996452 C 0.054075171285719335 0.11596457904996452 0.0639763779527559 0.11081033709840322 0.0639763779527559 0.11081033709840322 C 0.0639763779527559 0.11081033709840322 0.07339068575358014 0.10481276157241001 0.07339068575358014 0.10481276157241001 C 0.07339068575358014 0.10481276157241001 0.08224644612130831 0.09801749764317678 0.08224644612130831 0.09801749764317678 C 0.08224644612130831 0.09801749764317678 0.09047626137229361 0.09047626137229406 0.09047626137229361 0.09047626137229406 C 0.09047626137229361 0.09047626137229406 0.09801749764317642 0.08224644612130885 0.09801749764317642 0.08224644612130885 C 0.09801749764317642 0.08224644612130885 0.10481276157240974 0.07339068575357927 0.10481276157240974 0.07339068575357927 C 0.10481276157240974 0.07339068575357927 0.11081033709840302 0.06397637795275665 0.11081033709840302 0.06397637795275665 C 0.11081033709840302 0.06397637795275665 0.11596457904996589 0.05407517128572021 0.11596457904996589 0.05407517128572021 C 0.11596457904996589 0.05407517128572021 0.12023626053363014 0.043762419913718334 0.12023626053363014 0.043762419913718334 C 0.12023626053363014 0.043762419913718334 0.12359287147399461 0.0331166101017006 0.12359287147399461 0.0331166101017006 C 0.12359287147399461 0.0331166101017006 0.12600886603502867 0.02221876289045496 0.12600886603502867 0.02221876289045496 C 0.12600886603502867 0.02221876289045496 0.12746585703929947 0.011151817477556019 0.12746585703929947 0.011151817477556019 C 0.12746585703929947 0.011151817477556019 0.1279527559055118 0 0.1279527559055118 0" stroke-width="0.01"></path></g></g><g fill="none" stroke="rgb(-11,-11,-11)"><g transform="matrix(1,0,0,1,1.7716522216796875,0.9838812554800339)"><path class="outline" d="M -1.3779449462890625 0.4854180609262161 C -1.4474647598574846 0.44528204337543176 -1.484268641129769 0.4170582332730095 -1.5410308837890625 0.3602959906137161 C -1.597793126448356 0.3035337479544227 -1.6260183012793306 0.26672149284745894 -1.6661529541015625 0.1972100531137161 C -1.7062876069237944 0.12769861337997324 -1.724050347523491 0.0848599992018429 -1.7448272705078125 0.007329682019966088 C -1.765604193492134 -0.07020063516191072 -1.7716522216796875 -0.11619278103090207 -1.7716522216796875 -0.1964667046987839 C -1.7716522216796875 -0.27674062836666574 -1.7656047420336232 -0.3227247170598583 -1.7448272705078125 -0.4002630914175339 C -1.7240497989820018 -0.47780146577520954 -1.7062889716523468 -0.520654166520987 -1.6661529541015625 -0.5901739800894089 C -1.6260169365507782 -0.6596937936578309 -1.597793126448356 -0.6964976749301155 -1.5410308837890625 -0.7532599175894089 C -1.484268641129769 -0.8100221602487023 -1.4474647598574846 -0.8382459703511246 -1.3779449462890625 -0.8783819879019089 C -1.3084251327206404 -0.9185180054526932 -1.2655724319748631 -0.9362788327823481 -1.1880340576171875 -0.9570563043081589 C -1.1104956832595119 -0.9778337758339697 -1.064505474837076 -0.9828900582720029 -0.9842376708984375 -0.9838812554800339 C -0.903969866959799 -0.9848724526880649 0.9040121997307955 -0.984872320709625 0.9842681884765625 -0.9838812554800339 C 1.0645241772223295 -0.9828901902504428 1.1105074991583224 -0.9778322200129881 1.1880340576171875 -0.9570563043081589 C 1.2655606160760526 -0.9362803886033297 1.3084251327206404 -0.9185180054526932 1.3779449462890625 -0.8783819879019089 C 1.4474647598574846 -0.8382459703511246 1.484268641129769 -0.8100221602487023 1.5410308837890625 -0.7532599175894089 C 1.597793126448356 -0.6964976749301155 1.6260169365507782 -0.6596937936578309 1.6661529541015625 -0.5901739800894089 C 1.7062889716523468 -0.520654166520987 1.7240497989820018 -0.47780146577520954 1.7448272705078125 -0.4002630914175339 C 1.7656047420336232 -0.3227247170598583 1.7716522216796875 -0.27674062836666574 1.7716522216796875 -0.1964667046987839 C 1.7716522216796875 -0.11619278103090207 1.765604193492134 -0.07020063516191072 1.7448272705078125 0.007329682019966088 C 1.724050347523491 0.0848599992018429 1.7062876069237944 0.12769861337997324 1.6661529541015625 0.1972100531137161 C 1.6260183012793306 0.26672149284745894 1.597793126448356 0.3035337479544227 1.5410308837890625 0.3602959906137161 C 1.484268641129769 0.4170582332730095 1.4474647598574846 0.44528204337543176 1.3779449462890625 0.4854180609262161 C 1.3084251327206404 0.5255540784770004 1.2655606160760526 0.5433164616276369 1.1880340576171875 0.5640923773324661 C 1.1105074991583224 0.5848682930372953 0.9842681884765625 0.5909173285043411 0.9842681884765625 0.5909173285043411 C 0.9842681884765625 0.5909173285043411 0.7873992919921875 0.9846246038949661 0.7873992919921875 0.9846246038949661 C 0.7873992919921875 0.9846246038949661 0.5905609130859375 0.5909173285043411 0.5905609130859375 0.5909173285043411 C 0.5905609130859375 0.5909173285043411 -0.5905609130859375 0.5909173285043411 -0.5905609130859375 0.5909173285043411 C -0.5905609130859375 0.5909173285043411 -0.7873992919921875 0.9846246038949661 -0.7873992919921875 0.9846246038949661 C -0.7873992919921875 0.9846246038949661 -0.9842376708984375 0.5909173285043411 -0.9842376708984375 0.5909173285043411 C -0.9842376708984375 0.5909173285043411 -1.1104956832595119 0.5848698488582769 -1.1880340576171875 0.5640923773324661 C -1.2655724319748631 0.5433149058066553 -1.3084251327206404 0.5255540784770004 -1.3779449462890625 0.4854180609262161" stroke-width="0.01"></path></g></g></g>
  </g>
</svg>