  999
DXF file.  2019-07-22T12:40:00
  0
SECTION
  2
ENTITIES
 0
CIRCLE
 8
const_0
 10
109.07619
 20
230.8842
 40
3
 0
CIRCLE
 8
const_0
 10
159.07619
 20
230.8842
 40
3
 0
LWPOLYLINE
 8
const_0
 90
32
 70
1
 10
159.07619
 20
210.8842
 10
159.07619
 20
210.8842
 10
164.25257
 20
211.56568
 10
169.07619
 20
213.56369
 10
173.21833
 20
216.74206
 10
176.3967
 20
220.8842
 10
178.39471
 20
225.70782
 10
179.07619
 20
230.8842
 10
179.07619
 20
230.8842
 10
179.07619
 20
230.8842
 10
178.39471
 20
236.06058
 10
176.3967
 20
240.8842
 10
173.21833
 20
245.02633
 10
169.07619
 20
248.20471
 10
164.25257
 20
250.20271
 10
159.07619
 20
250.8842
 10
109.07619
 20
250.8842
 10
109.07619
 20
250.8842
 10
103.89981
 20
250.20271
 10
99.07619
 20
248.20471
 10
94.93406
 20
245.02633
 10
91.75568
 20
240.8842
 10
89.75768
 20
236.06058
 10
89.07619
 20
230.8842
 10
89.07619
 20
230.8842
 10
89.07619
 20
230.8842
 10
89.75768
 20
225.70782
 10
91.75568
 20
220.8842
 10
94.93406
 20
216.74206
 10
99.07619
 20
213.56369
 10
103.89981
 20
211.56568
 10
109.07619
 20
210.8842
 0
CIRCLE
 8
const_0
 10
159.07619
 20
230.8842
 40
3
 0
CIRCLE
 8
const_0
 10
201.07619
 20
230.8842
 40
3
 0
LWPOLYLINE
 8
const_0
 90
32
 70
1
 10
201.07619
 20
213.3842
 10
201.07619
 20
213.3842
 10
205.60553
 20
213.9805
 10
209.82619
 20
215.72875
 10
213.45056
 20
218.50983
 10
216.23164
 20
222.1342
 10
217.97989
 20
226.35486
 10
218.57619
 20
230.8842
 10
218.57619
 20
230.8842
 10
218.57619
 20
230.8842
 10
217.97989
 20
235.41353
 10
216.23164
 20
239.6342
 10
213.45056
 20
243.25857
 10
209.82619
 20
246.03964
 10
205.60553
 20
247.7879
 10
201.07619
 20
248.3842
 10
159.07619
 20
248.3842
 10
159.07619
 20
248.3842
 10
154.54686
 20
247.7879
 10
150.32619
 20
246.03964
 10
146.70182
 20
243.25857
 10
143.92075
 20
239.6342
 10
142.17249
 20
235.41353
 10
141.57619
 20
230.8842
 10
141.57619
 20
230.8842
 10
141.57619
 20
230.8842
 10
142.17249
 20
226.35486
 10
143.92075
 20
222.1342
 10
146.70182
 20
218.50983
 10
150.32619
 20
215.72875
 10
154.54686
 20
213.9805
 10
159.07619
 20
213.3842
 0
CIRCLE
 8
const_0
 10
201.07619
 20
230.8842
 40
3
 0
CIRCLE
 8
const_0
 10
251.07619
 20
230.8842
 40
3
 0
LWPOLYLINE
 8
const_0
 90
32
 70
1
 10
251.07619
 20
210.8842
 10
251.07619
 20
210.8842
 10
256.25257
 20
211.56568
 10
261.07619
 20
213.56369
 10
265.21833
 20
216.74206
 10
268.3967
 20
220.8842
 10
270.39471
 20
225.70782
 10
271.07619
 20
230.8842
 10
271.07619
 20
230.8842
 10
271.07619
 20
230.8842
 10
270.39471
 20
236.06058
 10
268.3967
 20
240.8842
 10
265.21833
 20
245.02633
 10
261.07619
 20
248.20471
 10
256.25257
 20
250.20271
 10
251.07619
 20
250.8842
 10
201.07619
 20
250.8842
 10
201.07619
 20
250.8842
 10
195.89981
 20
250.20271
 10
191.07619
 20
248.20471
 10
186.93406
 20
245.02633
 10
183.75568
 20
240.8842
 10
181.75768
 20
236.06058
 10
181.07619
 20
230.8842
 10
181.07619
 20
230.8842
 10
181.07619
 20
230.8842
 10
181.75768
 20
225.70782
 10
183.75568
 20
220.8842
 10
186.93406
 20
216.74206
 10
191.07619
 20
213.56369
 10
195.89981
 20
211.56568
 10
201.07619
 20
210.8842
 0
CIRCLE
 8
const_0
 10
251.07619
 20
230.8842
 40
3
 0
CIRCLE
 8
const_0
 10
293.07619
 20
230.8842
 40
3
 0
LWPOLYLINE
 8
const_0
 90
32
 70
1
 10
293.07619
 20
213.3842
 10
293.07619
 20
213.3842
 10
297.60553
 20
213.9805
 10
301.82619
 20
215.72875
 10
305.45056
 20
218.50983
 10
308.23164
 20
222.1342
 10
309.97989
 20
226.35486
 10
310.57619
 20
230.8842
 10
310.57619
 20
230.8842
 10
310.57619
 20
230.8842
 10
309.97989
 20
235.41353
 10
308.23164
 20
239.6342
 10
305.45056
 20
243.25857
 10
301.82619
 20
246.03964
 10
297.60553
 20
247.7879
 10
293.07619
 20
248.3842
 10
251.07619
 20
248.3842
 10
251.07619
 20
248.3842
 10
246.54686
 20
247.7879
 10
242.32619
 20
246.03964
 10
238.70182
 20
243.25857
 10
235.92075
 20
239.6342
 10
234.17249
 20
235.41353
 10
233.57619
 20
230.8842
 10
233.57619
 20
230.8842
 10
233.57619
 20
230.8842
 10
234.17249
 20
226.35486
 10
235.92075
 20
222.1342
 10
238.70182
 20
218.50983
 10
242.32619
 20
215.72875
 10
246.54686
 20
213.9805
 10
251.07619
 20
213.3842
 0
CIRCLE
 8
const_0
 10
293.07619
 20
230.8842
 40
3
 0
CIRCLE
 8
const_0
 10
343.07619
 20
230.8842
 40
3
 0
LWPOLYLINE
 8
const_0
 90
32
 70
1
 10
343.07619
 20
210.8842
 10
343.07619
 20
210.8842
 10
348.25257
 20
211.56568
 10
353.07619
 20
213.56369
 10
357.21833
 20
216.74206
 10
360.3967
 20
220.8842
 10
362.39471
 20
225.70782
 10
363.07619
 20
230.8842
 10
363.07619
 20
230.8842
 10
363.07619
 20
230.8842
 10
362.39471
 20
236.06058
 10
360.3967
 20
240.8842
 10
357.21833
 20
245.02633
 10
353.07619
 20
248.20471
 10
348.25257
 20
250.20271
 10
343.07619
 20
250.8842
 10
293.07619
 20
250.8842
 10
293.07619
 20
250.8842
 10
287.89981
 20
250.20271
 10
283.07619
 20
248.20471
 10
278.93406
 20
245.02633
 10
275.75568
 20
240.8842
 10
273.75768
 20
236.06058
 10
273.07619
 20
230.8842
 10
273.07619
 20
230.8842
 10
273.07619
 20
230.8842
 10
273.75768
 20
225.70782
 10
275.75568
 20
220.8842
 10
278.93406
 20
216.74206
 10
283.07619
 20
213.56369
 10
287.89981
 20
211.56568
 10
293.07619
 20
210.8842
 0
CIRCLE
 8
const_0
 10
343.07619
 20
230.8842
 40
3
 0
CIRCLE
 8
const_0
 10
385.07619
 20
230.8842
 40
3
 0
LWPOLYLINE
 8
const_0
 90
32
 70
1
 10
385.07619
 20
213.3842
 10
385.07619
 20
213.3842
 10
389.60553
 20
213.9805
 10
393.82619
 20
215.72875
 10
397.45056
 20
218.50983
 10
400.23164
 20
222.1342
 10
401.97989
 20
226.35486
 10
402.57619
 20
230.8842
 10
402.57619
 20
230.8842
 10
402.57619
 20
230.8842
 10
401.97989
 20
235.41353
 10
400.23164
 20
239.6342
 10
397.45056
 20
243.25857
 10
393.82619
 20
246.03964
 10
389.60553
 20
247.7879
 10
385.07619
 20
248.3842
 10
343.07619
 20
248.3842
 10
343.07619
 20
248.3842
 10
338.54686
 20
247.7879
 10
334.32619
 20
246.03964
 10
330.70182
 20
243.25857
 10
327.92075
 20
239.6342
 10
326.17249
 20
235.41353
 10
325.57619
 20
230.8842
 10
325.57619
 20
230.8842
 10
325.57619
 20
230.8842
 10
326.17249
 20
226.35486
 10
327.92075
 20
222.1342
 10
330.70182
 20
218.50983
 10
334.32619
 20
215.72875
 10
338.54686
 20
213.9805
 10
343.07619
 20
213.3842
 0
CIRCLE
 8
const_0
 10
385.07619
 20
230.8842
 40
3
 0
CIRCLE
 8
const_0
 10
435.07619
 20
230.8842
 40
3
 0
LWPOLYLINE
 8
const_0
 90
32
 70
1
 10
435.07619
 20
210.8842
 10
435.07619
 20
210.8842
 10
440.25257
 20
211.56568
 10
445.07619
 20
213.56369
 10
449.21833
 20
216.74206
 10
452.3967
 20
220.8842
 10
454.39471
 20
225.70782
 10
455.07619
 20
230.8842
 10
455.07619
 20
230.8842
 10
455.07619
 20
230.8842
 10
454.39471
 20
236.06058
 10
452.3967
 20
240.8842
 10
449.21833
 20
245.02633
 10
445.07619
 20
248.20471
 10
440.25257
 20
250.20271
 10
435.07619
 20
250.8842
 10
385.07619
 20
250.8842
 10
385.07619
 20
250.8842
 10
379.89981
 20
250.20271
 10
375.07619
 20
248.20471
 10
370.93406
 20
245.02633
 10
367.75568
 20
240.8842
 10
365.75768
 20
236.06058
 10
365.07619
 20
230.8842
 10
365.07619
 20
230.8842
 10
365.07619
 20
230.8842
 10
365.75768
 20
225.70782
 10
367.75568
 20
220.8842
 10
370.93406
 20
216.74206
 10
375.07619
 20
213.56369
 10
379.89981
 20
211.56568
 10
385.07619
 20
210.8842
 0
CIRCLE
 8
const_0
 10
435.07619
 20
230.8842
 40
3
 0
CIRCLE
 8
const_0
 10
477.07619
 20
230.8842
 40
3
 0
LWPOLYLINE
 8
const_0
 90
32
 70
1
 10
477.07619
 20
213.3842
 10
477.07619
 20
213.3842
 10
481.60553
 20
213.9805
 10
485.82619
 20
215.72875
 10
489.45056
 20
218.50983
 10
492.23164
 20
222.1342
 10
493.97989
 20
226.35486
 10
494.57619
 20
230.8842
 10
494.57619
 20
230.8842
 10
494.57619
 20
230.8842
 10
493.97989
 20
235.41353
 10
492.23164
 20
239.6342
 10
489.45056
 20
243.25857
 10
485.82619
 20
246.03964
 10
481.60553
 20
247.7879
 10
477.07619
 20
248.3842
 10
435.07619
 20
248.3842
 10
435.07619
 20
248.3842
 10
430.54686
 20
247.7879
 10
426.32619
 20
246.03964
 10
422.70182
 20
243.25857
 10
419.92075
 20
239.6342
 10
418.17249
 20
235.41353
 10
417.57619
 20
230.8842
 10
417.57619
 20
230.8842
 10
417.57619
 20
230.8842
 10
418.17249
 20
226.35486
 10
419.92075
 20
222.1342
 10
422.70182
 20
218.50983
 10
426.32619
 20
215.72875
 10
430.54686
 20
213.9805
 10
435.07619
 20
213.3842
 0
CIRCLE
 8
const_0
 10
145.98785
 20
27.48418
 40
3
 0
CIRCLE
 8
const_0
 10
195.98785
 20
27.48418
 40
3
 0
LWPOLYLINE
 8
const_0
 90
32
 70
1
 10
195.98785
 20
7.48418
 10
195.98785
 20
7.48418
 10
201.16423
 20
8.16567
 10
205.98785
 20
10.16368
 10
210.12999
 20
13.34205
 10
213.30836
 20
17.48418
 10
215.30637
 20
22.3078
 10
215.98785
 20
27.48418
 10
215.98785
 20
27.48418
 10
215.98785
 20
27.48418
 10
215.30637
 20
32.66056
 10
213.30836
 20
37.48418
 10
210.12999
 20
41.62632
 10
205.98785
 20
44.80469
 10
201.16423
 20
46.8027
 10
195.98785
 20
47.48418
 10
145.98785
 20
47.48418
 10
145.98785
 20
47.48418
 10
140.81147
 20
46.8027
 10
135.98785
 20
44.80469
 10
131.84572
 20
41.62632
 10
128.66734
 20
37.48418
 10
126.66934
 20
32.66056
 10
125.98785
 20
27.48418
 10
125.98785
 20
27.48418
 10
125.98785
 20
27.48418
 10
126.66934
 20
22.3078
 10
128.66734
 20
17.48418
 10
131.84572
 20
13.34205
 10
135.98785
 20
10.16368
 10
140.81147
 20
8.16567
 10
145.98785
 20
7.48418
 0
CIRCLE
 8
const_0
 10
195.98785
 20
27.48418
 40
3
 0
CIRCLE
 8
const_0
 10
237.98785
 20
27.48418
 40
3
 0
LWPOLYLINE
 8
const_0
 90
32
 70
1
 10
237.98785
 20
9.98418
 10
237.98785
 20
9.98418
 10
242.51719
 20
10.58048
 10
246.73785
 20
12.32874
 10
250.36222
 20
15.10982
 10
253.1433
 20
18.73418
 10
254.89155
 20
22.95485
 10
255.48785
 20
27.48418
 10
255.48785
 20
27.48418
 10
255.48785
 20
27.48418
 10
254.89155
 20
32.01352
 10
253.1433
 20
36.23418
 10
250.36222
 20
39.85855
 10
246.73785
 20
42.63963
 10
242.51719
 20
44.38789
 10
237.98785
 20
44.98418
 10
195.98785
 20
44.98418
 10
195.98785
 20
44.98418
 10
191.45852
 20
44.38789
 10
187.23785
 20
42.63963
 10
183.61348
 20
39.85855
 10
180.83241
 20
36.23418
 10
179.08415
 20
32.01352
 10
178.48785
 20
27.48418
 10
178.48785
 20
27.48418
 10
178.48785
 20
27.48418
 10
179.08415
 20
22.95485
 10
180.83241
 20
18.73418
 10
183.61348
 20
15.10982
 10
187.23785
 20
12.32874
 10
191.45852
 20
10.58048
 10
195.98785
 20
9.98418
 0
CIRCLE
 8
const_0
 10
237.98785
 20
27.48418
 40
3
 0
CIRCLE
 8
const_0
 10
287.98785
 20
27.48418
 40
3
 0
LWPOLYLINE
 8
const_0
 90
32
 70
1
 10
287.98785
 20
7.48418
 10
287.98785
 20
7.48418
 10
293.16423
 20
8.16567
 10
297.98785
 20
10.16368
 10
302.12999
 20
13.34205
 10
305.30836
 20
17.48418
 10
307.30637
 20
22.3078
 10
307.98785
 20
27.48418
 10
307.98785
 20
27.48418
 10
307.98785
 20
27.48418
 10
307.30637
 20
32.66056
 10
305.30836
 20
37.48418
 10
302.12999
 20
41.62632
 10
297.98785
 20
44.80469
 10
293.16423
 20
46.8027
 10
287.98785
 20
47.48418
 10
237.98785
 20
47.48418
 10
237.98785
 20
47.48418
 10
232.81147
 20
46.8027
 10
227.98785
 20
44.80469
 10
223.84572
 20
41.62632
 10
220.66734
 20
37.48418
 10
218.66934
 20
32.66056
 10
217.98785
 20
27.48418
 10
217.98785
 20
27.48418
 10
217.98785
 20
27.48418
 10
218.66934
 20
22.3078
 10
220.66734
 20
17.48418
 10
223.84572
 20
13.34205
 10
227.98785
 20
10.16368
 10
232.81147
 20
8.16567
 10
237.98785
 20
7.48418
 0
CIRCLE
 8
const_0
 10
287.98785
 20
27.48418
 40
3
 0
CIRCLE
 8
const_0
 10
329.98785
 20
27.48418
 40
3
 0
LWPOLYLINE
 8
const_0
 90
32
 70
1
 10
329.98785
 20
9.98418
 10
329.98785
 20
9.98418
 10
334.51719
 20
10.58048
 10
338.73785
 20
12.32874
 10
342.36222
 20
15.10982
 10
345.1433
 20
18.73418
 10
346.89155
 20
22.95485
 10
347.48785
 20
27.48418
 10
347.48785
 20
27.48418
 10
347.48785
 20
27.48418
 10
346.89155
 20
32.01352
 10
345.1433
 20
36.23418
 10
342.36222
 20
39.85855
 10
338.73785
 20
42.63963
 10
334.51719
 20
44.38789
 10
329.98785
 20
44.98418
 10
287.98785
 20
44.98418
 10
287.98785
 20
44.98418
 10
283.45852
 20
44.38789
 10
279.23785
 20
42.63963
 10
275.61348
 20
39.85855
 10
272.83241
 20
36.23418
 10
271.08415
 20
32.01352
 10
270.48785
 20
27.48418
 10
270.48785
 20
27.48418
 10
270.48785
 20
27.48418
 10
271.08415
 20
22.95485
 10
272.83241
 20
18.73418
 10
275.61348
 20
15.10982
 10
279.23785
 20
12.32874
 10
283.45852
 20
10.58048
 10
287.98785
 20
9.98418
 0
CIRCLE
 8
const_0
 10
329.98785
 20
27.48418
 40
3
 0
CIRCLE
 8
const_0
 10
379.98785
 20
27.48418
 40
3
 0
LWPOLYLINE
 8
const_0
 90
32
 70
1
 10
379.98785
 20
7.48418
 10
379.98785
 20
7.48418
 10
385.16423
 20
8.16567
 10
389.98785
 20
10.16368
 10
394.12999
 20
13.34205
 10
397.30836
 20
17.48418
 10
399.30637
 20
22.3078
 10
399.98785
 20
27.48418
 10
399.98785
 20
27.48418
 10
399.98785
 20
27.48418
 10
399.30637
 20
32.66056
 10
397.30836
 20
37.48418
 10
394.12999
 20
41.62632
 10
389.98785
 20
44.80469
 10
385.16423
 20
46.8027
 10
379.98785
 20
47.48418
 10
329.98785
 20
47.48418
 10
329.98785
 20
47.48418
 10
324.81147
 20
46.8027
 10
319.98785
 20
44.80469
 10
315.84572
 20
41.62632
 10
312.66734
 20
37.48418
 10
310.66934
 20
32.66056
 10
309.98785
 20
27.48418
 10
309.98785
 20
27.48418
 10
309.98785
 20
27.48418
 10
310.66934
 20
22.3078
 10
312.66734
 20
17.48418
 10
315.84572
 20
13.34205
 10
319.98785
 20
10.16368
 10
324.81147
 20
8.16567
 10
329.98785
 20
7.48418
 0
CIRCLE
 8
const_0
 10
379.98785
 20
27.48418
 40
3
 0
CIRCLE
 8
const_0
 10
421.98785
 20
27.48418
 40
3
 0
LWPOLYLINE
 8
const_0
 90
32
 70
1
 10
421.98785
 20
9.98418
 10
421.98785
 20
9.98418
 10
426.51719
 20
10.58048
 10
430.73785
 20
12.32874
 10
434.36222
 20
15.10982
 10
437.1433
 20
18.73418
 10
438.89155
 20
22.95485
 10
439.48785
 20
27.48418
 10
439.48785
 20
27.48418
 10
439.48785
 20
27.48418
 10
438.89155
 20
32.01352
 10
437.1433
 20
36.23418
 10
434.36222
 20
39.85855
 10
430.73785
 20
42.63963
 10
426.51719
 20
44.38789
 10
421.98785
 20
44.98418
 10
379.98785
 20
44.98418
 10
379.98785
 20
44.98418
 10
375.45852
 20
44.38789
 10
371.23785
 20
42.63963
 10
367.61348
 20
39.85855
 10
364.83241
 20
36.23418
 10
363.08415
 20
32.01352
 10
362.48785
 20
27.48418
 10
362.48785
 20
27.48418
 10
362.48785
 20
27.48418
 10
363.08415
 20
22.95485
 10
364.83241
 20
18.73418
 10
367.61348
 20
15.10982
 10
371.23785
 20
12.32874
 10
375.45852
 20
10.58048
 10
379.98785
 20
9.98418
 0
CIRCLE
 8
const_0
 10
421.98785
 20
27.48418
 40
3
 0
CIRCLE
 8
const_0
 10
471.98785
 20
27.48418
 40
3
 0
LWPOLYLINE
 8
const_0
 90
32
 70
1
 10
471.98785
 20
7.48418
 10
471.98785
 20
7.48418
 10
477.16423
 20
8.16567
 10
481.98785
 20
10.16368
 10
486.12999
 20
13.34205
 10
489.30836
 20
17.48418
 10
491.30637
 20
22.3078
 10
491.98785
 20
27.48418
 10
491.98785
 20
27.48418
 10
491.98785
 20
27.48418
 10
491.30637
 20
32.66056
 10
489.30836
 20
37.48418
 10
486.12999
 20
41.62632
 10
481.98785
 20
44.80469
 10
477.16423
 20
46.8027
 10
471.98785
 20
47.48418
 10
421.98785
 20
47.48418
 10
421.98785
 20
47.48418
 10
416.81147
 20
46.8027
 10
411.98785
 20
44.80469
 10
407.84572
 20
41.62632
 10
404.66734
 20
37.48418
 10
402.66934
 20
32.66056
 10
401.98785
 20
27.48418
 10
401.98785
 20
27.48418
 10
401.98785
 20
27.48418
 10
402.66934
 20
22.3078
 10
404.66734
 20
17.48418
 10
407.84572
 20
13.34205
 10
411.98785
 20
10.16368
 10
416.81147
 20
8.16567
 10
421.98785
 20
7.48418
 0
CIRCLE
 8
const_0
 10
471.98785
 20
27.48418
 40
3
 0
CIRCLE
 8
const_0
 10
513.98785
 20
27.48418
 40
3
 0
LWPOLYLINE
 8
const_0
 90
32
 70
1
 10
513.98785
 20
9.98418
 10
513.98785
 20
9.98418
 10
518.51719
 20
10.58048
 10
522.73785
 20
12.32874
 10
526.36222
 20
15.10982
 10
529.1433
 20
18.73418
 10
530.89155
 20
22.95485
 10
531.48785
 20
27.48418
 10
531.48785
 20
27.48418
 10
531.48785
 20
27.48418
 10
530.89155
 20
32.01352
 10
529.1433
 20
36.23418
 10
526.36222
 20
39.85855
 10
522.73785
 20
42.63963
 10
518.51719
 20
44.38789
 10
513.98785
 20
44.98418
 10
471.98785
 20
44.98418
 10
471.98785
 20
44.98418
 10
467.45852
 20
44.38789
 10
463.23785
 20
42.63963
 10
459.61348
 20
39.85855
 10
456.83241
 20
36.23418
 10
455.08415
 20
32.01352
 10
454.48785
 20
27.48418
 10
454.48785
 20
27.48418
 10
454.48785
 20
27.48418
 10
455.08415
 20
22.95485
 10
456.83241
 20
18.73418
 10
459.61348
 20
15.10982
 10
463.23785
 20
12.32874
 10
467.45852
 20
10.58048
 10
471.98785
 20
9.98418
 0
CIRCLE
 8
const_0
 10
109.07619
 20
230.8842
 40
3
 0
CIRCLE
 8
const_0
 10
70.45603
 20
214.37715
 40
3
 0
LWPOLYLINE
 8
const_0
 90
32
 70
1
 10
63.57809
 20
230.46888
 10
63.57809
 20
230.46888
 10
59.6476
 20
228.14043
 10
56.45369
 20
224.87403
 10
54.21401
 20
220.89229
 10
53.0812
 20
216.46655
 10
53.13246
 20
211.89842
 10
54.36429
 20
207.49921
 10
54.36429
 20
207.49921
 10
54.36429
 20
207.49921
 10
56.69274
 20
203.56872
 10
59.95914
 20
200.37481
 10
63.94089
 20
198.13513
 10
68.36663
 20
197.00233
 10
72.93476
 20
197.05358
 10
77.33396
 20
198.28541
 10
115.95413
 20
214.79246
 10
115.95413
 20
214.79246
 10
119.88462
 20
217.12092
 10
123.07853
 20
220.38731
 10
125.3182
 20
224.36906
 10
126.45101
 20
228.7948
 10
126.39976
 20
233.36293
 10
125.16793
 20
237.76214
 10
125.16793
 20
237.76214
 10
125.16793
 20
237.76214
 10
122.83947
 20
241.69262
 10
119.57307
 20
244.88653
 10
115.59133
 20
247.12621
 10
111.16559
 20
248.25902
 10
106.59746
 20
248.20776
 10
102.19825
 20
246.97593
 0
CIRCLE
 8
const_0
 10
70.45603
 20
214.37715
 40
3
 0
CIRCLE
 8
const_0
 10
37.55909
 20
176.72357
 40
3
 0
LWPOLYLINE
 8
const_0
 90
32
 70
1
 10
22.49766
 20
189.88235
 10
22.49766
 20
189.88235
 10
19.60512
 20
185.53579
 10
17.93612
 20
180.58869
 10
17.60439
 20
175.37819
 10
18.63254
 20
170.25938
 10
20.9505
 20
165.58109
 10
24.40031
 20
161.66214
 10
24.40031
 20
161.66214
 10
24.40031
 20
161.66214
 10
28.74687
 20
158.76961
 10
33.69397
 20
157.10061
 10
38.90447
 20
156.76888
 10
44.02328
 20
157.79703
 10
48.70157
 20
160.11499
 10
52.62052
 20
163.5648
 10
85.51745
 20
201.21837
 10
85.51745
 20
201.21837
 10
88.40999
 20
205.56493
 10
90.07899
 20
210.51203
 10
90.41072
 20
215.72253
 10
89.38257
 20
220.84134
 10
87.06461
 20
225.51963
 10
83.6148
 20
229.43858
 10
83.6148
 20
229.43858
 10
83.6148
 20
229.43858
 10
79.26824
 20
232.33111
 10
74.32114
 20
234.00011
 10
69.11065
 20
234.33184
 10
63.99183
 20
233.30369
 10
59.31354
 20
230.98573
 10
55.3946
 20
227.53592
 0
CIRCLE
 8
const_0
 10
37.55909
 20
176.72357
 40
3
 0
CIRCLE
 8
const_0
 10
26.38554
 20
136.23713
 40
3
 0
LWPOLYLINE
 8
const_0
 90
32
 70
1
 10
9.51619
 20
140.89278
 10
9.51619
 20
140.89278
 10
8.88603
 20
136.36803
 10
9.44843
 20
131.83436
 10
11.16507
 20
127.60074
 10
13.91896
 20
123.95567
 10
17.52242
 20
121.14756
 10
21.7299
 20
119.36778
 10
21.7299
 20
119.36778
 10
21.7299
 20
119.36778
 10
26.25464
 20
118.73762
 10
30.78831
 20
119.30002
 10
35.02194
 20
121.01666
 10
38.667
 20
123.77055
 10
41.47511
 20
127.37402
 10
43.25489
 20
131.58149
 10
54.42844
 20
172.06793
 10
54.42844
 20
172.06793
 10
55.0586
 20
176.59267
 10
54.4962
 20
181.12634
 10
52.77956
 20
185.35997
 10
50.02567
 20
189.00504
 10
46.42221
 20
191.81314
 10
42.21473
 20
193.59292
 10
42.21473
 20
193.59292
 10
42.21473
 20
193.59292
 10
37.68999
 20
194.22308
 10
33.15632
 20
193.66068
 10
28.9227
 20
191.94404
 10
25.27763
 20
189.19015
 10
22.46952
 20
185.58669
 10
20.68974
 20
181.37922
 0
CIRCLE
 8
const_0
 10
26.38554
 20
136.23713
 40
3
 0
CIRCLE
 8
const_0
 10
35.31339
 20
87.04065
 40
3
 0
LWPOLYLINE
 8
const_0
 90
32
 70
1
 10
15.63479
 20
83.46952
 10
15.63479
 20
83.46952
 10
17.2296
 20
78.498
 10
20.05679
 20
74.10866
 10
23.9237
 20
70.60061
 10
28.56679
 20
68.21292
 10
33.66965
 20
67.10831
 10
38.88452
 20
67.36206
 10
38.88452
 20
67.36206
 10
38.88452
 20
67.36206
 10
43.85603
 20
68.95687
 10
48.24538
 20
71.78406
 10
51.75343
 20
75.65096
 10
54.14112
 20
80.29405
 10
55.24572
 20
85.39691
 10
54.99198
 20
90.61179
 10
46.06413
 20
139.80827
 10
46.06413
 20
139.80827
 10
44.46932
 20
144.77978
 10
41.64213
 20
149.16912
 10
37.77523
 20
152.67717
 10
33.13214
 20
155.06486
 10
28.02928
 20
156.16947
 10
22.8144
 20
155.91572
 10
22.8144
 20
155.91572
 10
22.8144
 20
155.91572
 10
17.84289
 20
154.32091
 10
13.45355
 20
151.49372
 10
9.9455
 20
147.62682
 10
7.55781
 20
142.98373
 10
6.4532
 20
137.88087
 10
6.70695
 20
132.66599
 0
CIRCLE
 8
const_0
 10
35.31339
 20
87.04065
 40
3
 0
CIRCLE
 8
const_0
 10
60.00037
 20
53.06194
 40
3
 0
LWPOLYLINE
 8
const_0
 90
32
 70
1
 10
45.84257
 20
42.7757
 10
45.84257
 20
42.7757
 10
48.98726
 20
39.46189
 10
52.88248
 20
37.07489
 10
57.26276
 20
35.77739
 10
61.82961
 20
35.65781
 10
66.27181
 20
36.72428
 10
70.28661
 20
38.90414
 10
70.28661
 20
38.90414
 10
70.28661
 20
38.90414
 10
73.60042
 20
42.04883
 10
75.98741
 20
45.94405
 10
77.28491
 20
50.32434
 10
77.4045
 20
54.89119
 10
76.33802
 20
59.33338
 10
74.15816
 20
63.34818
 10
49.47118
 20
97.3269
 10
49.47118
 20
97.3269
 10
46.32649
 20
100.64071
 10
42.43128
 20
103.0277
 10
38.05099
 20
104.3252
 10
33.48414
 20
104.44479
 10
29.04195
 20
103.37831
 10
25.02714
 20
101.19845
 10
25.02714
 20
101.19845
 10
25.02714
 20
101.19845
 10
21.71333
 20
98.05376
 10
19.32634
 20
94.15854
 10
18.02884
 20
89.77826
 10
17.90925
 20
85.21141
 10
18.97573
 20
80.76921
 10
21.15559
 20
76.75441
 0
CIRCLE
 8
const_0
 10
60.00037
 20
53.06194
 40
3
 0
CIRCLE
 8
const_0
 10
104.03014
 20
29.36851
 40
3
 0
LWPOLYLINE
 8
const_0
 90
32
 70
1
 10
94.55277
 20
11.7566
 10
94.55277
 20
11.7566
 10
99.434
 20
9.90378
 10
104.62845
 20
9.37746
 10
109.78213
 20
10.21349
 10
114.54382
 20
12.35491
 10
118.58902
 20
15.65577
 10
121.64205
 20
19.89113
 10
121.64205
 20
19.89113
 10
121.64205
 20
19.89113
 10
123.49487
 20
24.77236
 10
124.02119
 20
29.96682
 10
123.18516
 20
35.12049
 10
121.04374
 20
39.88218
 10
117.74288
 20
43.92738
 10
113.50752
 20
46.98042
 10
69.47774
 20
70.67385
 10
69.47774
 20
70.67385
 10
64.59651
 20
72.52666
 10
59.40206
 20
73.05299
 10
54.24838
 20
72.21696
 10
49.48669
 20
70.07554
 10
45.44149
 20
66.77468
 10
42.38846
 20
62.53931
 10
42.38846
 20
62.53931
 10
42.38846
 20
62.53931
 10
40.53564
 20
57.65808
 10
40.00932
 20
52.46363
 10
40.84535
 20
47.30995
 10
42.98677
 20
42.54826
 10
46.28763
 20
38.50307
 10
50.52299
 20
35.45003
 0
CIRCLE
 8
const_0
 10
104.03014
 20
29.36851
 40
3
 0
CIRCLE
 8
const_0
 10
145.98785
 20
27.48418
 40
3
 0
LWPOLYLINE
 8
const_0
 90
32
 70
1
 10
145.20272
 20
10.00181
 10
145.20272
 20
10.00181
 10
149.75424
 20
10.39429
 10
154.0491
 20
11.95143
 10
157.79459
 20
14.5671
 10
160.73547
 20
18.06305
 10
162.67133
 20
22.20103
 10
163.47023
 20
26.69905
 10
163.47023
 20
26.69905
 10
163.47023
 20
26.69905
 10
163.07774
 20
31.25057
 10
161.5206
 20
35.54543
 10
158.90493
 20
39.29092
 10
155.40899
 20
42.2318
 10
151.27101
 20
44.16766
 10
146.77299
 20
44.96656
 10
104.81528
 20
46.85089
 10
104.81528
 20
46.85089
 10
100.26375
 20
46.4584
 10
95.9689
 20
44.90126
 10
92.22341
 20
42.28559
 10
89.28253
 20
38.78964
 10
87.34667
 20
34.65166
 10
86.54776
 20
30.15364
 10
86.54776
 20
30.15364
 10
86.54776
 20
30.15364
 10
86.94025
 20
25.60212
 10
88.49739
 20
21.30726
 10
91.11306
 20
17.56177
 10
94.60901
 20
14.62089
 10
98.74699
 20
12.68503
 10
103.24501
 20
11.88613
 0
LINE
 8
const_0
 10
77.85978
 20
129.55049
 30
0
 11
181.2412
 21
129.55049
 31
 0
 0
LINE
 8
const_0
 10
129.55049
 20
77.85978
 30
0
 11
129.55049
 21
181.2412
 31
 0
 0
LWPOLYLINE
 8
const_0
 90
161
 70
1
 10
208.18135
 20
165.16288
 10
207.98927
 20
170.05177
 10
209.15811
 20
174.80276
 10
211.59651
 20
179.0445
 10
215.11388
 20
182.44542
 10
217.48594
 20
184.4007
 10
218.87062
 20
185.71471
 10
219.86803
 20
187.34233
 10
220.4102
 20
189.17265
 10
220.46017
 20
191.08092
 10
220.01454
 20
192.93709
 10
219.10368
 20
194.61469
 10
217.78966
 20
195.99937
 10
216.16204
 20
196.99678
 10
214.33173
 20
197.53894
 10
212.42346
 20
197.58891
 10
210.56728
 20
197.14329
 10
208.88968
 20
196.23243
 10
206.2971
 20
194.58067
 10
201.9757
 20
192.2864
 10
197.18806
 20
191.27811
 10
192.30841
 20
191.63462
 10
187.71816
 20
193.32805
 10
150.73314
 20
213.23053
 10
146.79109
 20
216.12853
 10
143.80538
 20
220.00456
 10
142.00937
 20
224.55566
 10
141.54347
 20
229.42609
 10
141.49373
 20
232.49974
 10
141.32972
 20
234.4016
 10
140.67907
 20
236.19621
 10
139.58611
 20
237.76128
 10
138.12532
 20
238.99013
 10
136.39626
 20
239.79903
 10
134.51675
 20
240.13286
 10
132.61488
 20
239.96885
 10
130.82027
 20
239.3182
 10
129.25521
 20
238.22524
 10
128.02636
 20
236.76445
 10
127.21745
 20
235.03538
 10
126.88363
 20
233.15588
 10
126.55857
 20
230.09906
 10
125.65796
 20
225.29001
 10
123.46123
 20
220.91822
 10
120.14009
 20
217.32543
 10
115.95413
 20
214.79246
 10
77.33396
 20
198.28541
 10
72.61039
 20
197.01026
 10
67.71842
 20
197.0926
 10
63.04044
 20
198.52599
 10
58.9421
 20
201.1984
 10
56.50801
 20
203.0759
 10
54.91882
 20
204.13347
 10
53.11006
 20
204.74369
 10
51.20499
 20
204.86497
 10
49.33345
 20
204.48906
 10
47.62297
 20
203.64157
 10
46.19012
 20
202.38025
 10
45.13255
 20
200.79105
 10
44.52233
 20
198.98229
 10
44.40104
 20
197.07723
 10
44.77696
 20
195.20568
 10
45.62445
 20
193.49521
 10
46.88577
 20
192.06236
 10
49.07302
 20
189.90232
 10
52.27137
 20
186.1998
 10
54.31973
 20
181.75656
 10
55.05799
 20
176.91992
 10
54.42844
 20
172.06793
 10
43.25489
 20
131.58149
 10
41.30674
 20
127.09341
 10
38.19228
 20
123.32005
 10
34.15493
 20
120.55636
 10
29.51029
 20
119.01837
 10
26.52477
 20
118.28592
 10
24.70708
 20
117.70283
 10
23.10225
 20
116.66915
 10
21.81963
 20
115.25533
 10
20.94665
 20
113.55772
 10
20.54278
 20
111.69201
 10
20.63555
 20
109.78534
 10
21.21865
 20
107.96766
 10
22.25233
 20
106.36282
 10
23.66615
 20
105.08021
 10
25.36376
 20
104.20722
 10
27.22947
 20
103.80335
 10
29.13613
 20
103.89612
 10
32.18864
 20
104.25942
 10
37.07753
 20
104.45151
 10
41.82853
 20
103.28267
 10
46.07026
 20
100.84426
 10
49.47118
 20
97.3269
 10
74.15816
 20
63.34818
 10
76.45244
 20
59.02679
 10
77.46073
 20
54.23915
 10
77.10422
 20
49.35949
 10
75.41079
 20
44.76924
 10
74.122
 20
41.9784
 10
73.44457
 20
40.19372
 10
73.25214
 20
38.29452
 10
73.55781
 20
36.41023
 10
74.34075
 20
34.66926
 10
75.54761
 20
33.19025
 10
77.09615
 20
32.074
 10
78.88083
 20
31.39657
 10
80.78003
 20
31.20413
 10
82.66432
 20
31.50981
 10
84.40529
 20
32.29275
 10
85.8843
 20
33.49961
 10
87.00055
 20
35.04815
 10
88.61972
 20
37.66121
 10
91.51772
 20
41.60326
 10
95.39375
 20
44.58898
 10
99.94485
 20
46.38498
 10
104.81528
 20
46.85089
 10
146.77299
 20
44.96656
 10
151.58204
 20
44.06595
 10
155.95383
 20
41.86922
 10
159.54662
 20
38.54808
 10
162.07959
 20
34.36212
 10
163.45801
 20
31.61444
 10
164.43096
 20
29.97208
 10
165.79583
 20
28.6375
 10
167.45961
 20
27.70164
 10
169.30891
 20
27.2283
 10
171.21772
 20
27.24972
 10
173.05593
 20
27.76444
 10
174.6983
 20
28.73739
 10
176.03288
 20
30.10226
 10
176.96873
 20
31.76604
 10
177.44208
 20
33.61534
 10
177.42066
 20
35.52415
 10
176.90594
 20
37.36236
 10
175.8725
 20
40.2575
 10
174.59736
 20
44.98107
 10
174.67969
 20
49.87304
 10
176.11309
 20
54.55102
 10
178.78549
 20
58.64936
 10
206.41892
 20
90.27836
 10
210.12144
 20
93.47672
 10
214.56468
 20
95.52508
 10
219.40132
 20
96.26334
 10
224.25331
 20
95.63379
 10
227.26096
 20
94.99833
 10
229.15164
 20
94.73501
 10
231.04604
 20
94.97002
 10
232.81507
 20
95.68732
 10
234.33817
 20
96.83803
 10
235.51154
 20
98.34375
 10
236.25523
 20
100.10185
 10
236.51854
 20
101.99253
 10
236.28354
 20
103.88693
 10
235.56624
 20
105.65596
 10
234.41552
 20
107.17906
 10
232.90981
 20
108.35243
 10
231.15171
 20
109.09612
 10
228.24386
 20
110.09323
 10
223.75578
 20
112.04138
 10
219.98243
 20
115.15585
 10
217.21874
 20
119.19319
 10
215.68074
 20
123.83783
  0
ENDSEC
  0
EOF
