  999
DXF file.  2019-07-22T12:45:38
  0
SECTION
  2
ENTITIES
 0
LINE
 8
const_0
 10
77.85978
 20
129.55049
 30
0
 11
181.2412
 21
129.55049
 31
 0
 0
LINE
 8
const_0
 10
129.55049
 20
77.85978
 30
0
 11
129.55049
 21
181.2412
 31
 0
 0
LWPOLYLINE
 8
const_0
 90
161
 70
1
 10
208.18135
 20
165.16288
 10
207.98927
 20
170.05177
 10
209.15811
 20
174.80276
 10
211.59651
 20
179.0445
 10
215.11388
 20
182.44542
 10
217.48594
 20
184.4007
 10
218.87062
 20
185.71471
 10
219.86803
 20
187.34233
 10
220.4102
 20
189.17265
 10
220.46017
 20
191.08092
 10
220.01454
 20
192.93709
 10
219.10368
 20
194.61469
 10
217.78966
 20
195.99937
 10
216.16204
 20
196.99678
 10
214.33173
 20
197.53894
 10
212.42346
 20
197.58891
 10
210.56728
 20
197.14329
 10
208.88968
 20
196.23243
 10
206.2971
 20
194.58067
 10
201.9757
 20
192.2864
 10
197.18806
 20
191.27811
 10
192.30841
 20
191.63462
 10
187.71816
 20
193.32805
 10
150.73314
 20
213.23053
 10
146.79109
 20
216.12853
 10
143.80538
 20
220.00456
 10
142.00937
 20
224.55566
 10
141.54347
 20
229.42609
 10
141.49373
 20
232.49974
 10
141.32972
 20
234.4016
 10
140.67907
 20
236.19621
 10
139.58611
 20
237.76128
 10
138.12532
 20
238.99013
 10
136.39626
 20
239.79903
 10
134.51675
 20
240.13286
 10
132.61488
 20
239.96885
 10
130.82027
 20
239.3182
 10
129.25521
 20
238.22524
 10
128.02636
 20
236.76445
 10
127.21745
 20
235.03538
 10
126.88363
 20
233.15588
 10
126.55857
 20
230.09906
 10
125.65796
 20
225.29001
 10
123.46123
 20
220.91822
 10
120.14009
 20
217.32543
 10
115.95413
 20
214.79246
 10
77.33396
 20
198.28541
 10
72.61039
 20
197.01026
 10
67.71842
 20
197.0926
 10
63.04044
 20
198.52599
 10
58.9421
 20
201.1984
 10
56.50801
 20
203.0759
 10
54.91882
 20
204.13347
 10
53.11006
 20
204.74369
 10
51.20499
 20
204.86497
 10
49.33345
 20
204.48906
 10
47.62297
 20
203.64157
 10
46.19012
 20
202.38025
 10
45.13255
 20
200.79105
 10
44.52233
 20
198.98229
 10
44.40104
 20
197.07723
 10
44.77696
 20
195.20568
 10
45.62445
 20
193.49521
 10
46.88577
 20
192.06236
 10
49.07302
 20
189.90232
 10
52.27137
 20
186.1998
 10
54.31973
 20
181.75656
 10
55.05799
 20
176.91992
 10
54.42844
 20
172.06793
 10
43.25489
 20
131.58149
 10
41.30674
 20
127.09341
 10
38.19228
 20
123.32005
 10
34.15493
 20
120.55636
 10
29.51029
 20
119.01837
 10
26.52477
 20
118.28592
 10
24.70708
 20
117.70283
 10
23.10225
 20
116.66915
 10
21.81963
 20
115.25533
 10
20.94665
 20
113.55772
 10
20.54278
 20
111.69201
 10
20.63555
 20
109.78534
 10
21.21865
 20
107.96766
 10
22.25233
 20
106.36282
 10
23.66615
 20
105.08021
 10
25.36376
 20
104.20722
 10
27.22947
 20
103.80335
 10
29.13613
 20
103.89612
 10
32.18864
 20
104.25942
 10
37.07753
 20
104.45151
 10
41.82853
 20
103.28267
 10
46.07026
 20
100.84426
 10
49.47118
 20
97.3269
 10
74.15816
 20
63.34818
 10
76.45244
 20
59.02679
 10
77.46073
 20
54.23915
 10
77.10422
 20
49.35949
 10
75.41079
 20
44.76924
 10
74.122
 20
41.9784
 10
73.44457
 20
40.19372
 10
73.25214
 20
38.29452
 10
73.55781
 20
36.41023
 10
74.34075
 20
34.66926
 10
75.54761
 20
33.19025
 10
77.09615
 20
32.074
 10
78.88083
 20
31.39657
 10
80.78003
 20
31.20413
 10
82.66432
 20
31.50981
 10
84.40529
 20
32.29275
 10
85.8843
 20
33.49961
 10
87.00055
 20
35.04815
 10
88.61972
 20
37.66121
 10
91.51772
 20
41.60326
 10
95.39375
 20
44.58898
 10
99.94485
 20
46.38498
 10
104.81528
 20
46.85089
 10
146.77299
 20
44.96656
 10
151.58204
 20
44.06595
 10
155.95383
 20
41.86922
 10
159.54662
 20
38.54808
 10
162.07959
 20
34.36212
 10
163.45801
 20
31.61444
 10
164.43096
 20
29.97208
 10
165.79583
 20
28.6375
 10
167.45961
 20
27.70164
 10
169.30891
 20
27.2283
 10
171.21772
 20
27.24972
 10
173.05593
 20
27.76444
 10
174.6983
 20
28.73739
 10
176.03288
 20
30.10226
 10
176.96873
 20
31.76604
 10
177.44208
 20
33.61534
 10
177.42066
 20
35.52415
 10
176.90594
 20
37.36236
 10
175.8725
 20
40.2575
 10
174.59736
 20
44.98107
 10
174.67969
 20
49.87304
 10
176.11309
 20
54.55102
 10
178.78549
 20
58.64936
 10
206.41892
 20
90.27836
 10
210.12144
 20
93.47672
 10
214.56468
 20
95.52508
 10
219.40132
 20
96.26334
 10
224.25331
 20
95.63379
 10
227.26096
 20
94.99833
 10
229.15164
 20
94.73501
 10
231.04604
 20
94.97002
 10
232.81507
 20
95.68732
 10
234.33817
 20
96.83803
 10
235.51154
 20
98.34375
 10
236.25523
 20
100.10185
 10
236.51854
 20
101.99253
 10
236.28354
 20
103.88693
 10
235.56624
 20
105.65596
 10
234.41552
 20
107.17906
 10
232.90981
 20
108.35243
 10
231.15171
 20
109.09612
 10
228.24386
 20
110.09323
 10
223.75578
 20
112.04138
 10
219.98243
 20
115.15585
 10
217.21874
 20
119.19319
 10
215.68074
 20
123.83783
  0
ENDSEC
  0
EOF
