<svg width="13.185312643659737in" height="9.996264830321735in" viewBox="0 0 13.185312643659737 9.996264830321735" xmlns="http://www.w3.org/2000/svg" xmlnsXlink="http://www.w3.org/1999/xlink">
  <g transform="translate(0 9.996264830321735)">
    <g transform="scale(1, -1)"><g fill="none" stroke="rgb(-11,-11,-11)"><g transform="matrix(1,0,0,-1,8.1570031496063,4.714656692913386)"><path class="outline" d="M 2.119323790943253 -2.739021817182003 C 2.119323790943253 -2.739021817182003 1.4829124978106636 -2.0633410119081854 1.4829124978106636 -2.0633410119081854 C 1.4829124978106636 -2.0633410119081854 0.8659423454487685 -2.3953467540325537 0.8659423454487685 -2.3953467540325537 C 0.8659423454487685 -2.3953467540325537 1.079250289919981 -3.298709142815501 1.079250289919981 -3.298709142815501 C 1.079250289919981 -3.298709142815501 0.9657951608297055 -3.2878560044480274 0.9657951608297055 -3.2878560044480274 C 0.9657951608297055 -3.2878560044480274 -0.6860831856269868 -3.3620422249204682 -0.6860831856269868 -3.3620422249204682 C -0.6860831856269868 -3.3620422249204682 -0.7981086356342268 -3.3830215209970897 -0.7981086356342268 -3.3830215209970897 C -0.7981086356342268 -3.3830215209970897 -0.6666360610277037 -2.4641750448279187 -0.6666360610277037 -2.4641750448279187 C -0.6666360610277037 -2.4641750448279187 -1.3108832006295699 -2.1888105503413775 -1.3108832006295699 -2.1888105503413775 C -1.3108832006295699 -2.1888105503413775 -1.8841650282243492 -2.9188186535784255 -1.8841650282243492 -2.9188186535784255 C -1.8841650282243492 -2.9188186535784255 -1.9464178312962785 -2.823349311534642 -1.9464178312962785 -2.823349311534642 C -1.9464178312962785 -2.823349311534642 -3.0343481462569084 -1.578113091062201 -3.0343481462569084 -1.578113091062201 C -3.0343481462569084 -1.578113091062201 -3.1205972443599865 -1.5036082496544676 -3.1205972443599865 -1.5036082496544676 C -3.1205972443599865 -1.5036082496544676 -2.3202423322448404 -1.033506240197662 -2.3202423322448404 -1.033506240197662 C -2.3202423322448404 -1.033506240197662 -2.5066352227197903 -0.35812658986060725 -2.5066352227197903 -0.35812658986060725 C -2.5066352227197903 -0.35812658986060725 -3.434813913383569 -0.365069416362733 -3.434813913383569 -0.365069416362733 C -3.434813913383569 -0.365069416362733 -3.3989867289340725 -0.256874114684249 -3.3989867289340725 -0.256874114684249 C -3.3989867289340725 -0.256874114684249 -3.103735154130924 1.3700963577566958 -3.103735154130924 1.3700963577566958 C -3.103735154130924 1.3700963577566958 -3.099260742729683 1.48398147048079 -3.099260742729683 1.48398147048079 C -3.099260742729683 1.48398147048079 -2.2327070661935333 1.1513426117708496 -2.2327070661935333 1.1513426117708496 C -2.2327070661935333 1.1513426117708496 -1.820888059291873 1.7181627660204555 -1.820888059291873 1.7181627660204555 C -1.820888059291873 1.7181627660204555 -2.405026127560011 2.439513306217204 -2.405026127560011 2.439513306217204 C -2.405026127560011 2.439513306217204 -2.2980977525561213 2.4789613183866166 -2.2980977525561213 2.4789613183866166 C -2.2980977525561213 2.4789613183866166 -0.8419946029498213 3.2625235231110254 -0.8419946029498213 3.2625235231110254 C -0.8419946029498213 3.2625235231110254 -0.750165951656251 3.3300316444228093 -0.750165951656251 3.3300316444228093 C -0.750165951656251 3.3300316444228093 -0.46994610360443606 2.4451357627508528 -0.46994610360443606 2.4451357627508528 C -0.46994610360443606 2.4451357627508528 0.22997668890006814 2.4765692837390416 0.22997668890006814 2.4765692837390416 C 0.22997668890006814 2.4765692837390416 0.42974712267855586 3.3830215209970893 0.42974712267855586 3.3830215209970893 C 0.42974712267855586 3.3830215209970893 0.5272577592549023 3.3240168301976403 0.5272577592549023 3.3240168301976403 C 0.5272577592549023 3.3240168301976403 2.0477368931131696 2.6741329719299243 2.0477368931131696 2.6741329719299243 C 2.0477368931131696 2.6741329719299243 2.157770838380957 2.6444288386323334 2.157770838380957 2.6444288386323334 C 2.157770838380957 2.6444288386323334 1.6406455969222293 1.8736205814837585 1.6406455969222293 1.8736205814837585 C 1.6406455969222293 1.8736205814837585 2.101616036450656 1.3459973867794477 2.101616036450656 1.3459973867794477 C 2.101616036450656 1.3459973867794477 2.9348637610663624 1.754974298187554 2.9348637610663624 1.754974298187554 C 2.9348637610663624 1.754974298187554 2.949529019097422 1.6419487199614198 2.949529019097422 1.6419487199614198 C 2.949529019097422 1.6419487199614198 3.389432562404508 0.04799438925275907 3.389432562404508 0.04799438925275907 C 3.389432562404508 0.04799438925275907 3.4348139133835685 -0.056554050381874305 3.4348139133835685 -0.056554050381874305 C 3.4348139133835685 -0.056554050381874305 2.5097494366652477 -0.1328403437512056 2.5097494366652477 -0.1328403437512056 C 2.5097494366652477 -0.1328403437512056 2.3846473801693713 -0.8222092269839143 2.3846473801693713 -0.8222092269839143 C 2.3846473801693713 -0.8222092269839143 3.2239198638306545 -1.2186755973246888 3.2239198638306545 -1.2186755973246888 C 3.2239198638306545 -1.2186755973246888 3.1446967356328552 -1.300611516259052 3.1446967356328552 -1.300611516259052 C 3.1446967356328552 -1.300611516259052 2.172768389176162 -2.638356398148815 2.172768389176162 -2.638356398148815 C 2.172768389176162 -2.638356398148815 2.119323790943253 -2.739021817182003 2.119323790943253 -2.739021817182003" stroke-width="0.01"></path></g></g><g fill="rgb(255,255,255)" stroke="none"><g transform="matrix(1,0,0,1,11.296964593175868,6.9806730183727)"><path class="fill" d="M -1 -1 C -1 -1 1 -1 1 -1 C 1 -1 1 1 1 1 C 1 1 -1 1 -1 1 C -1 1 -1 -1 -1 -1"></path></g></g><g fill="rgb(255,255,255)" stroke="none"><g transform="matrix(1,0,0,1,5.221407637795297,7.2541999475065575)"><path class="fill" d="M -1 -1 C -1 -1 1 -1 1 -1 C 1 -1 1 1 1 1 C 1 1 -1 1 -1 1 C -1 1 -1 -1 -1 -1"></path></g></g><g fill="rgb(255,255,255)" stroke="none"><g transform="matrix(0.7291255381784794,-0.6843799745579517,0.6843799745579517,0.7291255381784794,8.328540446194246,8.582759317585303)"><path class="fill" d="M -1 -1 C -1 -1 1 -1 1 -1 C 1 -1 1 1 1 1 C 1 1 -1 1 -1 1 C -1 1 -1 -1 -1 -1"></path></g></g><g fill="rgb(255,255,255)" stroke="none"><g transform="matrix(-0.9247647650941349,-0.3805392611024382,0.3805392611024382,-0.9247647650941349,6.274980511221643,1.358746141982996)"><path class="fill" d="M -1 -1 C -1 -1 1 -1 1 -1 C 1 -1 1 1 1 1 C 1 1 -1 1 -1 1 C -1 1 -1 -1 -1 -1"></path></g></g><g fill="rgb(255,255,255)" stroke="none"><g transform="matrix(-0.9247647650941349,-0.3805392611024382,0.3805392611024382,-0.9247647650941349,11.880008617463163,3.756438418653348)"><path class="fill" d="M -1 -1 C -1 -1 1 -1 1 -1 C 1 -1 1 1 1 1 C 1 1 -1 1 -1 1 C -1 1 -1 -1 -1 -1"></path></g></g><g fill="rgb(255,255,255)" stroke="none"><g transform="matrix(-0.9347030568693442,0.3554295928578593,-0.3554295928578593,-0.9347030568693442,9.655486687307002,1.2151965831784162)"><path class="fill" d="M -1 -1 C -1 -1 1 -1 1 -1 C 1 -1 1 1 1 1 C 1 1 -1 1 -1 1 C -1 1 -1 -1 -1 -1"></path></g></g><g fill="rgb(255,255,255)" stroke="none"><g transform="matrix(-0.9347030568693442,0.3554295928578593,-0.3554295928578593,-0.9347030568693442,4.2774208581524835,4.106766976879204)"><path class="fill" d="M -1 -1 C -1 -1 1 -1 1 -1 C 1 -1 1 1 1 1 C 1 1 -1 1 -1 1 C -1 1 -1 -1 -1 -1"></path></g></g></g>
  </g>
</svg>