<svg width="11.580732218891855in" height="12.368035330710951in" viewBox="0 0 11.580732218891855 12.368035330710951" xmlns="http://www.w3.org/2000/svg" xmlnsXlink="http://www.w3.org/1999/xlink">
  <g transform="translate(0 12.368035330710951)">
    <g transform="scale(1, -1)"><g fill="none" stroke="rgb(0,0,0)"><g transform="matrix(6.123233995736766e-17,1,1,-6.123233995736766e-17,10.89138527410875,4.628170729331567)"><path class="outline" d="M 0.8464566240462154 0.6889763416773601 C 0.8464566240462159 0.6889763416773601 0.8464566240462154 0.6889763416773615 0.8464566240462154 0.6889763416773615 C 0.8464566240462154 0.6889763416773615 0.9537738904008519 0.6838292678998142 1.0196810334950377 0.6661692550631887 C 1.0855881765892235 0.6485092422265631 1.122011463727825 0.6334229344469373 1.1811022933375572 0.5993070503387788 C 1.2401931229472896 0.5651911662306204 1.2714690848107892 0.5411922273694835 1.319716466565904 0.4929448456143678 C 1.3679638483210188 0.44469746385925213 1.391962787182152 0.4134215019957539 1.4260786712903095 0.35433067238602106 C 1.460194555398467 0.29523984277628823 1.4752808631780927 0.25881655563768524 1.492940876014718 0.1929094125435015 C 1.5106008888513434 0.12700226944931775 1.5141079496554561 0.03497225677198983 1.5157479626288934 0.019685003094684777 C 1.5173879756023307 0.004397749417379722 1.5157479626288934 -0.01968507564547325 1.5157479626288934 -0.01968507564547325 C 1.5157479626288934 -0.01968507564547325 1.5157479626288934 -0.01968507564547325 1.5157479626288934 -0.01968507564547325 C 1.5157479626288934 -0.01968507564547325 1.5106006711296214 -0.12700709154514478 1.492940876014718 -0.19291342210216803 C 1.4752810808998147 -0.25881975265919127 1.4601944993883091 -0.2952407877175037 1.4260786712903095 -0.3543307449368123 C 1.39196284319231 -0.4134207021561209 1.3679634606314792 -0.44469714872361854 1.319716466565904 -0.49294491816515906 C 1.2714694725003288 -0.5411926876066996 1.2401933388064483 -0.5651942757822981 1.1811022933375601 -0.5993110598974426 C 1.122011247868672 -0.6334278440125871 1.085588176589365 -0.6485140271633414 1.0196810334950348 -0.666173264621851 C 0.9537738904007046 -0.6838325020803606 0.9146834892329293 -0.6881427204795117 0.8464566240462154 -0.6889764142281514 C 0.7782297588595014 -0.689810107976791 -0.8464567617805551 -0.68897641422815 -0.8464567617805551 -0.68897641422815 C -0.8464567617805551 -0.68897641422815 -0.8464567617805511 -0.6889764142281515 -0.8464567617805523 -0.6889764142281514 C -0.8464567617805535 -0.6889764142281513 -0.9537785838391294 -0.6838323363061707 -1.0196851082372498 -0.666173264621851 C -1.0855916326353703 -0.6485141929375313 -1.1220126157539865 -0.6334271337730738 -1.1811024310718943 -0.5993110598974426 C -1.240192246389802 -0.5651949860218114 -1.2714731595529936 -0.5411922999202758 -1.3197205413081106 -0.49294491816515906 C -1.3679679230632276 -0.4446975364100423 -1.3919669179345249 -0.4134207021561209 -1.4260827460325245 -0.3543307449368123 C -1.4601985741305241 -0.2952407877175037 -1.475285879072613 -0.2588199465002884 -1.492944950756933 -0.19291342210216803 C -1.510604022441253 -0.1270068977040477 -1.5141083972920706 -0.034972362565844003 -1.5157481003632334 -0.01968507564547325 C -1.5173878034343962 -0.004397788725102497 -1.5157481003632334 0.019685003094684777 -1.5157481003632334 0.019685003094684777 C -1.5157481003632334 0.019685003094684777 -1.5157481003632334 0.019685003094684777 -1.5157481003632334 0.019685003094684777 C -1.5157481003632334 0.019685003094684777 -1.510604188215443 0.12700226944917248 -1.492944950756933 0.1929094125435015 C -1.475285713298423 0.2588165556378305 -1.4601986301406835 0.29523984277628756 -1.4260827460325245 0.35433067238602106 C -1.3919668619243655 0.41342150199575456 -1.3679683107496547 0.4446978515487919 -1.3197205413081134 0.4929448456143678 C -1.2714727718665721 0.5411918396799437 -1.2401925821346003 0.5651915579873766 -1.1811024310718943 0.5993070503387788 C -1.1220122800091883 0.6334225426901811 -1.0855914387942733 0.648509459948286 -1.0196851082372498 0.6661692550631887 C -0.9537787776802261 0.6838290501780914 -0.9146853501243144 0.6881424846894374 -0.8464567617805523 0.6889763416773601 C -0.7782281734367902 0.6898101986652828 0.8464566240462148 0.6889763416773601 0.8464566240462154 0.6889763416773601" stroke-width="0.01"></path></g></g><g fill="none" stroke="rgb(0,0,0)"><g transform="matrix(6.123233995736766e-17,1,1,-6.123233995736766e-17,9.43395122706223,1.5164768572837521)"><path class="outline" d="M 0.8464566240462154 0.6889763416773601 C 0.8464566240462159 0.6889763416773601 0.8464566240462154 0.6889763416773615 0.8464566240462154 0.6889763416773615 C 0.8464566240462154 0.6889763416773615 0.9537738904008519 0.6838292678998142 1.0196810334950377 0.6661692550631887 C 1.0855881765892235 0.6485092422265631 1.122011463727825 0.6334229344469373 1.1811022933375572 0.5993070503387788 C 1.2401931229472896 0.5651911662306204 1.2714690848107892 0.5411922273694835 1.319716466565904 0.4929448456143678 C 1.3679638483210188 0.44469746385925213 1.391962787182152 0.4134215019957539 1.4260786712903095 0.35433067238602106 C 1.460194555398467 0.29523984277628823 1.4752808631780927 0.25881655563768524 1.492940876014718 0.1929094125435015 C 1.5106008888513434 0.12700226944931775 1.5141079496554561 0.03497225677198983 1.5157479626288934 0.019685003094684777 C 1.5173879756023307 0.004397749417379722 1.5157479626288934 -0.01968507564547325 1.5157479626288934 -0.01968507564547325 C 1.5157479626288934 -0.01968507564547325 1.5157479626288934 -0.01968507564547325 1.5157479626288934 -0.01968507564547325 C 1.5157479626288934 -0.01968507564547325 1.5106006711296214 -0.12700709154514478 1.492940876014718 -0.19291342210216803 C 1.4752810808998147 -0.25881975265919127 1.4601944993883091 -0.2952407877175037 1.4260786712903095 -0.3543307449368123 C 1.39196284319231 -0.4134207021561209 1.3679634606314792 -0.44469714872361854 1.319716466565904 -0.49294491816515906 C 1.2714694725003288 -0.5411926876066996 1.2401933388064483 -0.5651942757822981 1.1811022933375601 -0.5993110598974426 C 1.122011247868672 -0.6334278440125871 1.085588176589365 -0.6485140271633414 1.0196810334950348 -0.666173264621851 C 0.9537738904007046 -0.6838325020803606 0.9146834892329293 -0.6881427204795117 0.8464566240462154 -0.6889764142281514 C 0.7782297588595014 -0.689810107976791 -0.8464567617805551 -0.68897641422815 -0.8464567617805551 -0.68897641422815 C -0.8464567617805551 -0.68897641422815 -0.8464567617805511 -0.6889764142281515 -0.8464567617805523 -0.6889764142281514 C -0.8464567617805535 -0.6889764142281513 -0.9537785838391294 -0.6838323363061707 -1.0196851082372498 -0.666173264621851 C -1.0855916326353703 -0.6485141929375313 -1.1220126157539865 -0.6334271337730738 -1.1811024310718943 -0.5993110598974426 C -1.240192246389802 -0.5651949860218114 -1.2714731595529936 -0.5411922999202758 -1.3197205413081106 -0.49294491816515906 C -1.3679679230632276 -0.4446975364100423 -1.3919669179345249 -0.4134207021561209 -1.4260827460325245 -0.3543307449368123 C -1.4601985741305241 -0.2952407877175037 -1.475285879072613 -0.2588199465002884 -1.492944950756933 -0.19291342210216803 C -1.510604022441253 -0.1270068977040477 -1.5141083972920706 -0.034972362565844003 -1.5157481003632334 -0.01968507564547325 C -1.5173878034343962 -0.004397788725102497 -1.5157481003632334 0.019685003094684777 -1.5157481003632334 0.019685003094684777 C -1.5157481003632334 0.019685003094684777 -1.5157481003632334 0.019685003094684777 -1.5157481003632334 0.019685003094684777 C -1.5157481003632334 0.019685003094684777 -1.510604188215443 0.12700226944917248 -1.492944950756933 0.1929094125435015 C -1.475285713298423 0.2588165556378305 -1.4601986301406835 0.29523984277628756 -1.4260827460325245 0.35433067238602106 C -1.3919668619243655 0.41342150199575456 -1.3679683107496547 0.4446978515487919 -1.3197205413081134 0.4929448456143678 C -1.2714727718665721 0.5411918396799437 -1.2401925821346003 0.5651915579873766 -1.1811024310718943 0.5993070503387788 C -1.1220122800091883 0.6334225426901811 -1.0855914387942733 0.648509459948286 -1.0196851082372498 0.6661692550631887 C -0.9537787776802261 0.6838290501780914 -0.9146853501243144 0.6881424846894374 -0.8464567617805523 0.6889763416773601 C -0.7782281734367902 0.6898101986652828 0.8464566240462148 0.6889763416773601 0.8464566240462154 0.6889763416773601" stroke-width="0.01"></path></g></g><g fill="none" stroke="rgb(0,0,0)"><g transform="matrix(6.123233995736766e-17,1,1,-6.123233995736766e-17,7.976517180015708,1.5164768572837513)"><path class="outline" d="M 0.8464566240462154 0.6889763416773601 C 0.8464566240462159 0.6889763416773601 0.8464566240462154 0.6889763416773615 0.8464566240462154 0.6889763416773615 C 0.8464566240462154 0.6889763416773615 0.9537738904008519 0.6838292678998142 1.0196810334950377 0.6661692550631887 C 1.0855881765892235 0.6485092422265631 1.122011463727825 0.6334229344469373 1.1811022933375572 0.5993070503387788 C 1.2401931229472896 0.5651911662306204 1.2714690848107892 0.5411922273694835 1.319716466565904 0.4929448456143678 C 1.3679638483210188 0.44469746385925213 1.391962787182152 0.4134215019957539 1.4260786712903095 0.35433067238602106 C 1.460194555398467 0.29523984277628823 1.4752808631780927 0.25881655563768524 1.492940876014718 0.1929094125435015 C 1.5106008888513434 0.12700226944931775 1.5141079496554561 0.03497225677198983 1.5157479626288934 0.019685003094684777 C 1.5173879756023307 0.004397749417379722 1.5157479626288934 -0.01968507564547325 1.5157479626288934 -0.01968507564547325 C 1.5157479626288934 -0.01968507564547325 1.5157479626288934 -0.01968507564547325 1.5157479626288934 -0.01968507564547325 C 1.5157479626288934 -0.01968507564547325 1.5106006711296214 -0.12700709154514478 1.492940876014718 -0.19291342210216803 C 1.4752810808998147 -0.25881975265919127 1.4601944993883091 -0.2952407877175037 1.4260786712903095 -0.3543307449368123 C 1.39196284319231 -0.4134207021561209 1.3679634606314792 -0.44469714872361854 1.319716466565904 -0.49294491816515906 C 1.2714694725003288 -0.5411926876066996 1.2401933388064483 -0.5651942757822981 1.1811022933375601 -0.5993110598974426 C 1.122011247868672 -0.6334278440125871 1.085588176589365 -0.6485140271633414 1.0196810334950348 -0.666173264621851 C 0.9537738904007046 -0.6838325020803606 0.9146834892329293 -0.6881427204795117 0.8464566240462154 -0.6889764142281514 C 0.7782297588595014 -0.689810107976791 -0.8464567617805551 -0.68897641422815 -0.8464567617805551 -0.68897641422815 C -0.8464567617805551 -0.68897641422815 -0.8464567617805511 -0.6889764142281515 -0.8464567617805523 -0.6889764142281514 C -0.8464567617805535 -0.6889764142281513 -0.9537785838391294 -0.6838323363061707 -1.0196851082372498 -0.666173264621851 C -1.0855916326353703 -0.6485141929375313 -1.1220126157539865 -0.6334271337730738 -1.1811024310718943 -0.5993110598974426 C -1.240192246389802 -0.5651949860218114 -1.2714731595529936 -0.5411922999202758 -1.3197205413081106 -0.49294491816515906 C -1.3679679230632276 -0.4446975364100423 -1.3919669179345249 -0.4134207021561209 -1.4260827460325245 -0.3543307449368123 C -1.4601985741305241 -0.2952407877175037 -1.475285879072613 -0.2588199465002884 -1.492944950756933 -0.19291342210216803 C -1.510604022441253 -0.1270068977040477 -1.5141083972920706 -0.034972362565844003 -1.5157481003632334 -0.01968507564547325 C -1.5173878034343962 -0.004397788725102497 -1.5157481003632334 0.019685003094684777 -1.5157481003632334 0.019685003094684777 C -1.5157481003632334 0.019685003094684777 -1.5157481003632334 0.019685003094684777 -1.5157481003632334 0.019685003094684777 C -1.5157481003632334 0.019685003094684777 -1.510604188215443 0.12700226944917248 -1.492944950756933 0.1929094125435015 C -1.475285713298423 0.2588165556378305 -1.4601986301406835 0.29523984277628756 -1.4260827460325245 0.35433067238602106 C -1.3919668619243655 0.41342150199575456 -1.3679683107496547 0.4446978515487919 -1.3197205413081134 0.4929448456143678 C -1.2714727718665721 0.5411918396799437 -1.2401925821346003 0.5651915579873766 -1.1811024310718943 0.5993070503387788 C -1.1220122800091883 0.6334225426901811 -1.0855914387942733 0.648509459948286 -1.0196851082372498 0.6661692550631887 C -0.9537787776802261 0.6838290501780914 -0.9146853501243144 0.6881424846894374 -0.8464567617805523 0.6889763416773601 C -0.7782281734367902 0.6898101986652828 0.8464566240462148 0.6889763416773601 0.8464566240462154 0.6889763416773601" stroke-width="0.01"></path></g></g><g fill="none" stroke="rgb(0,0,0)"><g transform="matrix(6.123233995736766e-17,1,1,-6.123233995736766e-17,7.976517180015708,4.6281707293315675)"><path class="outline" d="M 0.8464566240462154 0.6889763416773601 C 0.8464566240462159 0.6889763416773601 0.8464566240462154 0.6889763416773615 0.8464566240462154 0.6889763416773615 C 0.8464566240462154 0.6889763416773615 0.9537738904008519 0.6838292678998142 1.0196810334950377 0.6661692550631887 C 1.0855881765892235 0.6485092422265631 1.122011463727825 0.6334229344469373 1.1811022933375572 0.5993070503387788 C 1.2401931229472896 0.5651911662306204 1.2714690848107892 0.5411922273694835 1.319716466565904 0.4929448456143678 C 1.3679638483210188 0.44469746385925213 1.391962787182152 0.4134215019957539 1.4260786712903095 0.35433067238602106 C 1.460194555398467 0.29523984277628823 1.4752808631780927 0.25881655563768524 1.492940876014718 0.1929094125435015 C 1.5106008888513434 0.12700226944931775 1.5141079496554561 0.03497225677198983 1.5157479626288934 0.019685003094684777 C 1.5173879756023307 0.004397749417379722 1.5157479626288934 -0.01968507564547325 1.5157479626288934 -0.01968507564547325 C 1.5157479626288934 -0.01968507564547325 1.5157479626288934 -0.01968507564547325 1.5157479626288934 -0.01968507564547325 C 1.5157479626288934 -0.01968507564547325 1.5106006711296214 -0.12700709154514478 1.492940876014718 -0.19291342210216803 C 1.4752810808998147 -0.25881975265919127 1.4601944993883091 -0.2952407877175037 1.4260786712903095 -0.3543307449368123 C 1.39196284319231 -0.4134207021561209 1.3679634606314792 -0.44469714872361854 1.319716466565904 -0.49294491816515906 C 1.2714694725003288 -0.5411926876066996 1.2401933388064483 -0.5651942757822981 1.1811022933375601 -0.5993110598974426 C 1.122011247868672 -0.6334278440125871 1.085588176589365 -0.6485140271633414 1.0196810334950348 -0.666173264621851 C 0.9537738904007046 -0.6838325020803606 0.9146834892329293 -0.6881427204795117 0.8464566240462154 -0.6889764142281514 C 0.7782297588595014 -0.689810107976791 -0.8464567617805551 -0.68897641422815 -0.8464567617805551 -0.68897641422815 C -0.8464567617805551 -0.68897641422815 -0.8464567617805511 -0.6889764142281515 -0.8464567617805523 -0.6889764142281514 C -0.8464567617805535 -0.6889764142281513 -0.9537785838391294 -0.6838323363061707 -1.0196851082372498 -0.666173264621851 C -1.0855916326353703 -0.6485141929375313 -1.1220126157539865 -0.6334271337730738 -1.1811024310718943 -0.5993110598974426 C -1.240192246389802 -0.5651949860218114 -1.2714731595529936 -0.5411922999202758 -1.3197205413081106 -0.49294491816515906 C -1.3679679230632276 -0.4446975364100423 -1.3919669179345249 -0.4134207021561209 -1.4260827460325245 -0.3543307449368123 C -1.4601985741305241 -0.2952407877175037 -1.475285879072613 -0.2588199465002884 -1.492944950756933 -0.19291342210216803 C -1.510604022441253 -0.1270068977040477 -1.5141083972920706 -0.034972362565844003 -1.5157481003632334 -0.01968507564547325 C -1.5173878034343962 -0.004397788725102497 -1.5157481003632334 0.019685003094684777 -1.5157481003632334 0.019685003094684777 C -1.5157481003632334 0.019685003094684777 -1.5157481003632334 0.019685003094684777 -1.5157481003632334 0.019685003094684777 C -1.5157481003632334 0.019685003094684777 -1.510604188215443 0.12700226944917248 -1.492944950756933 0.1929094125435015 C -1.475285713298423 0.2588165556378305 -1.4601986301406835 0.29523984277628756 -1.4260827460325245 0.35433067238602106 C -1.3919668619243655 0.41342150199575456 -1.3679683107496547 0.4446978515487919 -1.3197205413081134 0.4929448456143678 C -1.2714727718665721 0.5411918396799437 -1.2401925821346003 0.5651915579873766 -1.1811024310718943 0.5993070503387788 C -1.1220122800091883 0.6334225426901811 -1.0855914387942733 0.648509459948286 -1.0196851082372498 0.6661692550631887 C -0.9537787776802261 0.6838290501780914 -0.9146853501243144 0.6881424846894374 -0.8464567617805523 0.6889763416773601 C -0.7782281734367902 0.6898101986652828 0.8464566240462148 0.6889763416773601 0.8464566240462154 0.6889763416773601" stroke-width="0.01"></path></g></g><g fill="none" stroke="rgb(0,0,0)"><g transform="matrix(6.123233995736766e-17,1,1,-6.123233995736766e-17,6.51908313296919,1.5164768572837513)"><path class="outline" d="M 0.8464566240462154 0.6889763416773601 C 0.8464566240462159 0.6889763416773601 0.8464566240462154 0.6889763416773615 0.8464566240462154 0.6889763416773615 C 0.8464566240462154 0.6889763416773615 0.9537738904008519 0.6838292678998142 1.0196810334950377 0.6661692550631887 C 1.0855881765892235 0.6485092422265631 1.122011463727825 0.6334229344469373 1.1811022933375572 0.5993070503387788 C 1.2401931229472896 0.5651911662306204 1.2714690848107892 0.5411922273694835 1.319716466565904 0.4929448456143678 C 1.3679638483210188 0.44469746385925213 1.391962787182152 0.4134215019957539 1.4260786712903095 0.35433067238602106 C 1.460194555398467 0.29523984277628823 1.4752808631780927 0.25881655563768524 1.492940876014718 0.1929094125435015 C 1.5106008888513434 0.12700226944931775 1.5141079496554561 0.03497225677198983 1.5157479626288934 0.019685003094684777 C 1.5173879756023307 0.004397749417379722 1.5157479626288934 -0.01968507564547325 1.5157479626288934 -0.01968507564547325 C 1.5157479626288934 -0.01968507564547325 1.5157479626288934 -0.01968507564547325 1.5157479626288934 -0.01968507564547325 C 1.5157479626288934 -0.01968507564547325 1.5106006711296214 -0.12700709154514478 1.492940876014718 -0.19291342210216803 C 1.4752810808998147 -0.25881975265919127 1.4601944993883091 -0.2952407877175037 1.4260786712903095 -0.3543307449368123 C 1.39196284319231 -0.4134207021561209 1.3679634606314792 -0.44469714872361854 1.319716466565904 -0.49294491816515906 C 1.2714694725003288 -0.5411926876066996 1.2401933388064483 -0.5651942757822981 1.1811022933375601 -0.5993110598974426 C 1.122011247868672 -0.6334278440125871 1.085588176589365 -0.6485140271633414 1.0196810334950348 -0.666173264621851 C 0.9537738904007046 -0.6838325020803606 0.9146834892329293 -0.6881427204795117 0.8464566240462154 -0.6889764142281514 C 0.7782297588595014 -0.689810107976791 -0.8464567617805551 -0.68897641422815 -0.8464567617805551 -0.68897641422815 C -0.8464567617805551 -0.68897641422815 -0.8464567617805511 -0.6889764142281515 -0.8464567617805523 -0.6889764142281514 C -0.8464567617805535 -0.6889764142281513 -0.9537785838391294 -0.6838323363061707 -1.0196851082372498 -0.666173264621851 C -1.0855916326353703 -0.6485141929375313 -1.1220126157539865 -0.6334271337730738 -1.1811024310718943 -0.5993110598974426 C -1.240192246389802 -0.5651949860218114 -1.2714731595529936 -0.5411922999202758 -1.3197205413081106 -0.49294491816515906 C -1.3679679230632276 -0.4446975364100423 -1.3919669179345249 -0.4134207021561209 -1.4260827460325245 -0.3543307449368123 C -1.4601985741305241 -0.2952407877175037 -1.475285879072613 -0.2588199465002884 -1.492944950756933 -0.19291342210216803 C -1.510604022441253 -0.1270068977040477 -1.5141083972920706 -0.034972362565844003 -1.5157481003632334 -0.01968507564547325 C -1.5173878034343962 -0.004397788725102497 -1.5157481003632334 0.019685003094684777 -1.5157481003632334 0.019685003094684777 C -1.5157481003632334 0.019685003094684777 -1.5157481003632334 0.019685003094684777 -1.5157481003632334 0.019685003094684777 C -1.5157481003632334 0.019685003094684777 -1.510604188215443 0.12700226944917248 -1.492944950756933 0.1929094125435015 C -1.475285713298423 0.2588165556378305 -1.4601986301406835 0.29523984277628756 -1.4260827460325245 0.35433067238602106 C -1.3919668619243655 0.41342150199575456 -1.3679683107496547 0.4446978515487919 -1.3197205413081134 0.4929448456143678 C -1.2714727718665721 0.5411918396799437 -1.2401925821346003 0.5651915579873766 -1.1811024310718943 0.5993070503387788 C -1.1220122800091883 0.6334225426901811 -1.0855914387942733 0.648509459948286 -1.0196851082372498 0.6661692550631887 C -0.9537787776802261 0.6838290501780914 -0.9146853501243144 0.6881424846894374 -0.8464567617805523 0.6889763416773601 C -0.7782281734367902 0.6898101986652828 0.8464566240462148 0.6889763416773601 0.8464566240462154 0.6889763416773601" stroke-width="0.01"></path></g></g><g fill="none" stroke="rgb(0,0,0)"><g transform="matrix(6.123233995736766e-17,1,1,-6.123233995736766e-17,5.061649085922667,4.6281707293315675)"><path class="outline" d="M 0.8464566240462154 0.6889763416773601 C 0.8464566240462159 0.6889763416773601 0.8464566240462154 0.6889763416773615 0.8464566240462154 0.6889763416773615 C 0.8464566240462154 0.6889763416773615 0.9537738904008519 0.6838292678998142 1.0196810334950377 0.6661692550631887 C 1.0855881765892235 0.6485092422265631 1.122011463727825 0.6334229344469373 1.1811022933375572 0.5993070503387788 C 1.2401931229472896 0.5651911662306204 1.2714690848107892 0.5411922273694835 1.319716466565904 0.4929448456143678 C 1.3679638483210188 0.44469746385925213 1.391962787182152 0.4134215019957539 1.4260786712903095 0.35433067238602106 C 1.460194555398467 0.29523984277628823 1.4752808631780927 0.25881655563768524 1.492940876014718 0.1929094125435015 C 1.5106008888513434 0.12700226944931775 1.5141079496554561 0.03497225677198983 1.5157479626288934 0.019685003094684777 C 1.5173879756023307 0.004397749417379722 1.5157479626288934 -0.01968507564547325 1.5157479626288934 -0.01968507564547325 C 1.5157479626288934 -0.01968507564547325 1.5157479626288934 -0.01968507564547325 1.5157479626288934 -0.01968507564547325 C 1.5157479626288934 -0.01968507564547325 1.5106006711296214 -0.12700709154514478 1.492940876014718 -0.19291342210216803 C 1.4752810808998147 -0.25881975265919127 1.4601944993883091 -0.2952407877175037 1.4260786712903095 -0.3543307449368123 C 1.39196284319231 -0.4134207021561209 1.3679634606314792 -0.44469714872361854 1.319716466565904 -0.49294491816515906 C 1.2714694725003288 -0.5411926876066996 1.2401933388064483 -0.5651942757822981 1.1811022933375601 -0.5993110598974426 C 1.122011247868672 -0.6334278440125871 1.085588176589365 -0.6485140271633414 1.0196810334950348 -0.666173264621851 C 0.9537738904007046 -0.6838325020803606 0.9146834892329293 -0.6881427204795117 0.8464566240462154 -0.6889764142281514 C 0.7782297588595014 -0.689810107976791 -0.8464567617805551 -0.68897641422815 -0.8464567617805551 -0.68897641422815 C -0.8464567617805551 -0.68897641422815 -0.8464567617805511 -0.6889764142281515 -0.8464567617805523 -0.6889764142281514 C -0.8464567617805535 -0.6889764142281513 -0.9537785838391294 -0.6838323363061707 -1.0196851082372498 -0.666173264621851 C -1.0855916326353703 -0.6485141929375313 -1.1220126157539865 -0.6334271337730738 -1.1811024310718943 -0.5993110598974426 C -1.240192246389802 -0.5651949860218114 -1.2714731595529936 -0.5411922999202758 -1.3197205413081106 -0.49294491816515906 C -1.3679679230632276 -0.4446975364100423 -1.3919669179345249 -0.4134207021561209 -1.4260827460325245 -0.3543307449368123 C -1.4601985741305241 -0.2952407877175037 -1.475285879072613 -0.2588199465002884 -1.492944950756933 -0.19291342210216803 C -1.510604022441253 -0.1270068977040477 -1.5141083972920706 -0.034972362565844003 -1.5157481003632334 -0.01968507564547325 C -1.5173878034343962 -0.004397788725102497 -1.5157481003632334 0.019685003094684777 -1.5157481003632334 0.019685003094684777 C -1.5157481003632334 0.019685003094684777 -1.5157481003632334 0.019685003094684777 -1.5157481003632334 0.019685003094684777 C -1.5157481003632334 0.019685003094684777 -1.510604188215443 0.12700226944917248 -1.492944950756933 0.1929094125435015 C -1.475285713298423 0.2588165556378305 -1.4601986301406835 0.29523984277628756 -1.4260827460325245 0.35433067238602106 C -1.3919668619243655 0.41342150199575456 -1.3679683107496547 0.4446978515487919 -1.3197205413081134 0.4929448456143678 C -1.2714727718665721 0.5411918396799437 -1.2401925821346003 0.5651915579873766 -1.1811024310718943 0.5993070503387788 C -1.1220122800091883 0.6334225426901811 -1.0855914387942733 0.648509459948286 -1.0196851082372498 0.6661692550631887 C -0.9537787776802261 0.6838290501780914 -0.9146853501243144 0.6881424846894374 -0.8464567617805523 0.6889763416773601 C -0.7782281734367902 0.6898101986652828 0.8464566240462148 0.6889763416773601 0.8464566240462154 0.6889763416773601" stroke-width="0.01"></path></g></g><g fill="none" stroke="rgb(0,0,0)"><g transform="matrix(6.123233995736766e-17,1,1,-6.123233995736766e-17,3.6042150388761467,1.5164768572837513)"><path class="outline" d="M 0.8464566240462154 0.6889763416773601 C 0.8464566240462159 0.6889763416773601 0.8464566240462154 0.6889763416773615 0.8464566240462154 0.6889763416773615 C 0.8464566240462154 0.6889763416773615 0.9537738904008519 0.6838292678998142 1.0196810334950377 0.6661692550631887 C 1.0855881765892235 0.6485092422265631 1.122011463727825 0.6334229344469373 1.1811022933375572 0.5993070503387788 C 1.2401931229472896 0.5651911662306204 1.2714690848107892 0.5411922273694835 1.319716466565904 0.4929448456143678 C 1.3679638483210188 0.44469746385925213 1.391962787182152 0.4134215019957539 1.4260786712903095 0.35433067238602106 C 1.460194555398467 0.29523984277628823 1.4752808631780927 0.25881655563768524 1.492940876014718 0.1929094125435015 C 1.5106008888513434 0.12700226944931775 1.5141079496554561 0.03497225677198983 1.5157479626288934 0.019685003094684777 C 1.5173879756023307 0.004397749417379722 1.5157479626288934 -0.01968507564547325 1.5157479626288934 -0.01968507564547325 C 1.5157479626288934 -0.01968507564547325 1.5157479626288934 -0.01968507564547325 1.5157479626288934 -0.01968507564547325 C 1.5157479626288934 -0.01968507564547325 1.5106006711296214 -0.12700709154514478 1.492940876014718 -0.19291342210216803 C 1.4752810808998147 -0.25881975265919127 1.4601944993883091 -0.2952407877175037 1.4260786712903095 -0.3543307449368123 C 1.39196284319231 -0.4134207021561209 1.3679634606314792 -0.44469714872361854 1.319716466565904 -0.49294491816515906 C 1.2714694725003288 -0.5411926876066996 1.2401933388064483 -0.5651942757822981 1.1811022933375601 -0.5993110598974426 C 1.122011247868672 -0.6334278440125871 1.085588176589365 -0.6485140271633414 1.0196810334950348 -0.666173264621851 C 0.9537738904007046 -0.6838325020803606 0.9146834892329293 -0.6881427204795117 0.8464566240462154 -0.6889764142281514 C 0.7782297588595014 -0.689810107976791 -0.8464567617805551 -0.68897641422815 -0.8464567617805551 -0.68897641422815 C -0.8464567617805551 -0.68897641422815 -0.8464567617805511 -0.6889764142281515 -0.8464567617805523 -0.6889764142281514 C -0.8464567617805535 -0.6889764142281513 -0.9537785838391294 -0.6838323363061707 -1.0196851082372498 -0.666173264621851 C -1.0855916326353703 -0.6485141929375313 -1.1220126157539865 -0.6334271337730738 -1.1811024310718943 -0.5993110598974426 C -1.240192246389802 -0.5651949860218114 -1.2714731595529936 -0.5411922999202758 -1.3197205413081106 -0.49294491816515906 C -1.3679679230632276 -0.4446975364100423 -1.3919669179345249 -0.4134207021561209 -1.4260827460325245 -0.3543307449368123 C -1.4601985741305241 -0.2952407877175037 -1.475285879072613 -0.2588199465002884 -1.492944950756933 -0.19291342210216803 C -1.510604022441253 -0.1270068977040477 -1.5141083972920706 -0.034972362565844003 -1.5157481003632334 -0.01968507564547325 C -1.5173878034343962 -0.004397788725102497 -1.5157481003632334 0.019685003094684777 -1.5157481003632334 0.019685003094684777 C -1.5157481003632334 0.019685003094684777 -1.5157481003632334 0.019685003094684777 -1.5157481003632334 0.019685003094684777 C -1.5157481003632334 0.019685003094684777 -1.510604188215443 0.12700226944917248 -1.492944950756933 0.1929094125435015 C -1.475285713298423 0.2588165556378305 -1.4601986301406835 0.29523984277628756 -1.4260827460325245 0.35433067238602106 C -1.3919668619243655 0.41342150199575456 -1.3679683107496547 0.4446978515487919 -1.3197205413081134 0.4929448456143678 C -1.2714727718665721 0.5411918396799437 -1.2401925821346003 0.5651915579873766 -1.1811024310718943 0.5993070503387788 C -1.1220122800091883 0.6334225426901811 -1.0855914387942733 0.648509459948286 -1.0196851082372498 0.6661692550631887 C -0.9537787776802261 0.6838290501780914 -0.9146853501243144 0.6881424846894374 -0.8464567617805523 0.6889763416773601 C -0.7782281734367902 0.6898101986652828 0.8464566240462148 0.6889763416773601 0.8464566240462154 0.6889763416773601" stroke-width="0.01"></path></g></g><g fill="none" stroke="rgb(0,0,0)"><g transform="matrix(6.123233995736766e-17,1,1,-6.123233995736766e-17,2.146780991829626,4.6281707293315675)"><path class="outline" d="M 0.8464566240462154 0.6889763416773601 C 0.8464566240462159 0.6889763416773601 0.8464566240462154 0.6889763416773615 0.8464566240462154 0.6889763416773615 C 0.8464566240462154 0.6889763416773615 0.9537738904008519 0.6838292678998142 1.0196810334950377 0.6661692550631887 C 1.0855881765892235 0.6485092422265631 1.122011463727825 0.6334229344469373 1.1811022933375572 0.5993070503387788 C 1.2401931229472896 0.5651911662306204 1.2714690848107892 0.5411922273694835 1.319716466565904 0.4929448456143678 C 1.3679638483210188 0.44469746385925213 1.391962787182152 0.4134215019957539 1.4260786712903095 0.35433067238602106 C 1.460194555398467 0.29523984277628823 1.4752808631780927 0.25881655563768524 1.492940876014718 0.1929094125435015 C 1.5106008888513434 0.12700226944931775 1.5141079496554561 0.03497225677198983 1.5157479626288934 0.019685003094684777 C 1.5173879756023307 0.004397749417379722 1.5157479626288934 -0.01968507564547325 1.5157479626288934 -0.01968507564547325 C 1.5157479626288934 -0.01968507564547325 1.5157479626288934 -0.01968507564547325 1.5157479626288934 -0.01968507564547325 C 1.5157479626288934 -0.01968507564547325 1.5106006711296214 -0.12700709154514478 1.492940876014718 -0.19291342210216803 C 1.4752810808998147 -0.25881975265919127 1.4601944993883091 -0.2952407877175037 1.4260786712903095 -0.3543307449368123 C 1.39196284319231 -0.4134207021561209 1.3679634606314792 -0.44469714872361854 1.319716466565904 -0.49294491816515906 C 1.2714694725003288 -0.5411926876066996 1.2401933388064483 -0.5651942757822981 1.1811022933375601 -0.5993110598974426 C 1.122011247868672 -0.6334278440125871 1.085588176589365 -0.6485140271633414 1.0196810334950348 -0.666173264621851 C 0.9537738904007046 -0.6838325020803606 0.9146834892329293 -0.6881427204795117 0.8464566240462154 -0.6889764142281514 C 0.7782297588595014 -0.689810107976791 -0.8464567617805551 -0.68897641422815 -0.8464567617805551 -0.68897641422815 C -0.8464567617805551 -0.68897641422815 -0.8464567617805511 -0.6889764142281515 -0.8464567617805523 -0.6889764142281514 C -0.8464567617805535 -0.6889764142281513 -0.9537785838391294 -0.6838323363061707 -1.0196851082372498 -0.666173264621851 C -1.0855916326353703 -0.6485141929375313 -1.1220126157539865 -0.6334271337730738 -1.1811024310718943 -0.5993110598974426 C -1.240192246389802 -0.5651949860218114 -1.2714731595529936 -0.5411922999202758 -1.3197205413081106 -0.49294491816515906 C -1.3679679230632276 -0.4446975364100423 -1.3919669179345249 -0.4134207021561209 -1.4260827460325245 -0.3543307449368123 C -1.4601985741305241 -0.2952407877175037 -1.475285879072613 -0.2588199465002884 -1.492944950756933 -0.19291342210216803 C -1.510604022441253 -0.1270068977040477 -1.5141083972920706 -0.034972362565844003 -1.5157481003632334 -0.01968507564547325 C -1.5173878034343962 -0.004397788725102497 -1.5157481003632334 0.019685003094684777 -1.5157481003632334 0.019685003094684777 C -1.5157481003632334 0.019685003094684777 -1.5157481003632334 0.019685003094684777 -1.5157481003632334 0.019685003094684777 C -1.5157481003632334 0.019685003094684777 -1.510604188215443 0.12700226944917248 -1.492944950756933 0.1929094125435015 C -1.475285713298423 0.2588165556378305 -1.4601986301406835 0.29523984277628756 -1.4260827460325245 0.35433067238602106 C -1.3919668619243655 0.41342150199575456 -1.3679683107496547 0.4446978515487919 -1.3197205413081134 0.4929448456143678 C -1.2714727718665721 0.5411918396799437 -1.2401925821346003 0.5651915579873766 -1.1811024310718943 0.5993070503387788 C -1.1220122800091883 0.6334225426901811 -1.0855914387942733 0.648509459948286 -1.0196851082372498 0.6661692550631887 C -0.9537787776802261 0.6838290501780914 -0.9146853501243144 0.6881424846894374 -0.8464567617805523 0.6889763416773601 C -0.7782281734367902 0.6898101986652828 0.8464566240462148 0.6889763416773601 0.8464566240462154 0.6889763416773601" stroke-width="0.01"></path></g></g><g fill="none" stroke="rgb(0,0,0)"><g transform="matrix(6.123233995736766e-17,1,1,-6.123233995736766e-17,0.6893469447831038,1.5164768572837504)"><path class="outline" d="M 0.8464566240462154 0.6889763416773601 C 0.8464566240462159 0.6889763416773601 0.8464566240462154 0.6889763416773615 0.8464566240462154 0.6889763416773615 C 0.8464566240462154 0.6889763416773615 0.9537738904008519 0.6838292678998142 1.0196810334950377 0.6661692550631887 C 1.0855881765892235 0.6485092422265631 1.122011463727825 0.6334229344469373 1.1811022933375572 0.5993070503387788 C 1.2401931229472896 0.5651911662306204 1.2714690848107892 0.5411922273694835 1.319716466565904 0.4929448456143678 C 1.3679638483210188 0.44469746385925213 1.391962787182152 0.4134215019957539 1.4260786712903095 0.35433067238602106 C 1.460194555398467 0.29523984277628823 1.4752808631780927 0.25881655563768524 1.492940876014718 0.1929094125435015 C 1.5106008888513434 0.12700226944931775 1.5141079496554561 0.03497225677198983 1.5157479626288934 0.019685003094684777 C 1.5173879756023307 0.004397749417379722 1.5157479626288934 -0.01968507564547325 1.5157479626288934 -0.01968507564547325 C 1.5157479626288934 -0.01968507564547325 1.5157479626288934 -0.01968507564547325 1.5157479626288934 -0.01968507564547325 C 1.5157479626288934 -0.01968507564547325 1.5106006711296214 -0.12700709154514478 1.492940876014718 -0.19291342210216803 C 1.4752810808998147 -0.25881975265919127 1.4601944993883091 -0.2952407877175037 1.4260786712903095 -0.3543307449368123 C 1.39196284319231 -0.4134207021561209 1.3679634606314792 -0.44469714872361854 1.319716466565904 -0.49294491816515906 C 1.2714694725003288 -0.5411926876066996 1.2401933388064483 -0.5651942757822981 1.1811022933375601 -0.5993110598974426 C 1.122011247868672 -0.6334278440125871 1.085588176589365 -0.6485140271633414 1.0196810334950348 -0.666173264621851 C 0.9537738904007046 -0.6838325020803606 0.9146834892329293 -0.6881427204795117 0.8464566240462154 -0.6889764142281514 C 0.7782297588595014 -0.689810107976791 -0.8464567617805551 -0.68897641422815 -0.8464567617805551 -0.68897641422815 C -0.8464567617805551 -0.68897641422815 -0.8464567617805511 -0.6889764142281515 -0.8464567617805523 -0.6889764142281514 C -0.8464567617805535 -0.6889764142281513 -0.9537785838391294 -0.6838323363061707 -1.0196851082372498 -0.666173264621851 C -1.0855916326353703 -0.6485141929375313 -1.1220126157539865 -0.6334271337730738 -1.1811024310718943 -0.5993110598974426 C -1.240192246389802 -0.5651949860218114 -1.2714731595529936 -0.5411922999202758 -1.3197205413081106 -0.49294491816515906 C -1.3679679230632276 -0.4446975364100423 -1.3919669179345249 -0.4134207021561209 -1.4260827460325245 -0.3543307449368123 C -1.4601985741305241 -0.2952407877175037 -1.475285879072613 -0.2588199465002884 -1.492944950756933 -0.19291342210216803 C -1.510604022441253 -0.1270068977040477 -1.5141083972920706 -0.034972362565844003 -1.5157481003632334 -0.01968507564547325 C -1.5173878034343962 -0.004397788725102497 -1.5157481003632334 0.019685003094684777 -1.5157481003632334 0.019685003094684777 C -1.5157481003632334 0.019685003094684777 -1.5157481003632334 0.019685003094684777 -1.5157481003632334 0.019685003094684777 C -1.5157481003632334 0.019685003094684777 -1.510604188215443 0.12700226944917248 -1.492944950756933 0.1929094125435015 C -1.475285713298423 0.2588165556378305 -1.4601986301406835 0.29523984277628756 -1.4260827460325245 0.35433067238602106 C -1.3919668619243655 0.41342150199575456 -1.3679683107496547 0.4446978515487919 -1.3197205413081134 0.4929448456143678 C -1.2714727718665721 0.5411918396799437 -1.2401925821346003 0.5651915579873766 -1.1811024310718943 0.5993070503387788 C -1.1220122800091883 0.6334225426901811 -1.0855914387942733 0.648509459948286 -1.0196851082372498 0.6661692550631887 C -0.9537787776802261 0.6838290501780914 -0.9146853501243144 0.6881424846894374 -0.8464567617805523 0.6889763416773601 C -0.7782281734367902 0.6898101986652828 0.8464566240462148 0.6889763416773601 0.8464566240462154 0.6889763416773601" stroke-width="0.01"></path></g></g><g fill="none" stroke="rgb(0,0,0)"><g transform="matrix(6.123233995736766e-17,1,1,-6.123233995736766e-17,0.6893469447831038,4.6281707293315675)"><path class="outline" d="M 0.8464566240462154 0.6889763416773601 C 0.8464566240462159 0.6889763416773601 0.8464566240462154 0.6889763416773615 0.8464566240462154 0.6889763416773615 C 0.8464566240462154 0.6889763416773615 0.9537738904008519 0.6838292678998142 1.0196810334950377 0.6661692550631887 C 1.0855881765892235 0.6485092422265631 1.122011463727825 0.6334229344469373 1.1811022933375572 0.5993070503387788 C 1.2401931229472896 0.5651911662306204 1.2714690848107892 0.5411922273694835 1.319716466565904 0.4929448456143678 C 1.3679638483210188 0.44469746385925213 1.391962787182152 0.4134215019957539 1.4260786712903095 0.35433067238602106 C 1.460194555398467 0.29523984277628823 1.4752808631780927 0.25881655563768524 1.492940876014718 0.1929094125435015 C 1.5106008888513434 0.12700226944931775 1.5141079496554561 0.03497225677198983 1.5157479626288934 0.019685003094684777 C 1.5173879756023307 0.004397749417379722 1.5157479626288934 -0.01968507564547325 1.5157479626288934 -0.01968507564547325 C 1.5157479626288934 -0.01968507564547325 1.5157479626288934 -0.01968507564547325 1.5157479626288934 -0.01968507564547325 C 1.5157479626288934 -0.01968507564547325 1.5106006711296214 -0.12700709154514478 1.492940876014718 -0.19291342210216803 C 1.4752810808998147 -0.25881975265919127 1.4601944993883091 -0.2952407877175037 1.4260786712903095 -0.3543307449368123 C 1.39196284319231 -0.4134207021561209 1.3679634606314792 -0.44469714872361854 1.319716466565904 -0.49294491816515906 C 1.2714694725003288 -0.5411926876066996 1.2401933388064483 -0.5651942757822981 1.1811022933375601 -0.5993110598974426 C 1.122011247868672 -0.6334278440125871 1.085588176589365 -0.6485140271633414 1.0196810334950348 -0.666173264621851 C 0.9537738904007046 -0.6838325020803606 0.9146834892329293 -0.6881427204795117 0.8464566240462154 -0.6889764142281514 C 0.7782297588595014 -0.689810107976791 -0.8464567617805551 -0.68897641422815 -0.8464567617805551 -0.68897641422815 C -0.8464567617805551 -0.68897641422815 -0.8464567617805511 -0.6889764142281515 -0.8464567617805523 -0.6889764142281514 C -0.8464567617805535 -0.6889764142281513 -0.9537785838391294 -0.6838323363061707 -1.0196851082372498 -0.666173264621851 C -1.0855916326353703 -0.6485141929375313 -1.1220126157539865 -0.6334271337730738 -1.1811024310718943 -0.5993110598974426 C -1.240192246389802 -0.5651949860218114 -1.2714731595529936 -0.5411922999202758 -1.3197205413081106 -0.49294491816515906 C -1.3679679230632276 -0.4446975364100423 -1.3919669179345249 -0.4134207021561209 -1.4260827460325245 -0.3543307449368123 C -1.4601985741305241 -0.2952407877175037 -1.475285879072613 -0.2588199465002884 -1.492944950756933 -0.19291342210216803 C -1.510604022441253 -0.1270068977040477 -1.5141083972920706 -0.034972362565844003 -1.5157481003632334 -0.01968507564547325 C -1.5173878034343962 -0.004397788725102497 -1.5157481003632334 0.019685003094684777 -1.5157481003632334 0.019685003094684777 C -1.5157481003632334 0.019685003094684777 -1.5157481003632334 0.019685003094684777 -1.5157481003632334 0.019685003094684777 C -1.5157481003632334 0.019685003094684777 -1.510604188215443 0.12700226944917248 -1.492944950756933 0.1929094125435015 C -1.475285713298423 0.2588165556378305 -1.4601986301406835 0.29523984277628756 -1.4260827460325245 0.35433067238602106 C -1.3919668619243655 0.41342150199575456 -1.3679683107496547 0.4446978515487919 -1.3197205413081134 0.4929448456143678 C -1.2714727718665721 0.5411918396799437 -1.2401925821346003 0.5651915579873766 -1.1811024310718943 0.5993070503387788 C -1.1220122800091883 0.6334225426901811 -1.0855914387942733 0.648509459948286 -1.0196851082372498 0.6661692550631887 C -0.9537787776802261 0.6838290501780914 -0.9146853501243144 0.6881424846894374 -0.8464567617805523 0.6889763416773601 C -0.7782281734367902 0.6898101986652828 0.8464566240462148 0.6889763416773601 0.8464566240462154 0.6889763416773601" stroke-width="0.01"></path></g></g><g fill="none" stroke="rgb(0,0,0)"><g transform="matrix(6.123233995736766e-17,1,1,-6.123233995736766e-17,10.891385274108748,7.739864601379384)"><path class="outline" d="M 0.8464566240462154 0.6889763416773601 C 0.8464566240462159 0.6889763416773601 0.8464566240462154 0.6889763416773615 0.8464566240462154 0.6889763416773615 C 0.8464566240462154 0.6889763416773615 0.9537738904008519 0.6838292678998142 1.0196810334950377 0.6661692550631887 C 1.0855881765892235 0.6485092422265631 1.122011463727825 0.6334229344469373 1.1811022933375572 0.5993070503387788 C 1.2401931229472896 0.5651911662306204 1.2714690848107892 0.5411922273694835 1.319716466565904 0.4929448456143678 C 1.3679638483210188 0.44469746385925213 1.391962787182152 0.4134215019957539 1.4260786712903095 0.35433067238602106 C 1.460194555398467 0.29523984277628823 1.4752808631780927 0.25881655563768524 1.492940876014718 0.1929094125435015 C 1.5106008888513434 0.12700226944931775 1.5141079496554561 0.03497225677198983 1.5157479626288934 0.019685003094684777 C 1.5173879756023307 0.004397749417379722 1.5157479626288934 -0.01968507564547325 1.5157479626288934 -0.01968507564547325 C 1.5157479626288934 -0.01968507564547325 1.5157479626288934 -0.01968507564547325 1.5157479626288934 -0.01968507564547325 C 1.5157479626288934 -0.01968507564547325 1.5106006711296214 -0.12700709154514478 1.492940876014718 -0.19291342210216803 C 1.4752810808998147 -0.25881975265919127 1.4601944993883091 -0.2952407877175037 1.4260786712903095 -0.3543307449368123 C 1.39196284319231 -0.4134207021561209 1.3679634606314792 -0.44469714872361854 1.319716466565904 -0.49294491816515906 C 1.2714694725003288 -0.5411926876066996 1.2401933388064483 -0.5651942757822981 1.1811022933375601 -0.5993110598974426 C 1.122011247868672 -0.6334278440125871 1.085588176589365 -0.6485140271633414 1.0196810334950348 -0.666173264621851 C 0.9537738904007046 -0.6838325020803606 0.9146834892329293 -0.6881427204795117 0.8464566240462154 -0.6889764142281514 C 0.7782297588595014 -0.689810107976791 -0.8464567617805551 -0.68897641422815 -0.8464567617805551 -0.68897641422815 C -0.8464567617805551 -0.68897641422815 -0.8464567617805511 -0.6889764142281515 -0.8464567617805523 -0.6889764142281514 C -0.8464567617805535 -0.6889764142281513 -0.9537785838391294 -0.6838323363061707 -1.0196851082372498 -0.666173264621851 C -1.0855916326353703 -0.6485141929375313 -1.1220126157539865 -0.6334271337730738 -1.1811024310718943 -0.5993110598974426 C -1.240192246389802 -0.5651949860218114 -1.2714731595529936 -0.5411922999202758 -1.3197205413081106 -0.49294491816515906 C -1.3679679230632276 -0.4446975364100423 -1.3919669179345249 -0.4134207021561209 -1.4260827460325245 -0.3543307449368123 C -1.4601985741305241 -0.2952407877175037 -1.475285879072613 -0.2588199465002884 -1.492944950756933 -0.19291342210216803 C -1.510604022441253 -0.1270068977040477 -1.5141083972920706 -0.034972362565844003 -1.5157481003632334 -0.01968507564547325 C -1.5173878034343962 -0.004397788725102497 -1.5157481003632334 0.019685003094684777 -1.5157481003632334 0.019685003094684777 C -1.5157481003632334 0.019685003094684777 -1.5157481003632334 0.019685003094684777 -1.5157481003632334 0.019685003094684777 C -1.5157481003632334 0.019685003094684777 -1.510604188215443 0.12700226944917248 -1.492944950756933 0.1929094125435015 C -1.475285713298423 0.2588165556378305 -1.4601986301406835 0.29523984277628756 -1.4260827460325245 0.35433067238602106 C -1.3919668619243655 0.41342150199575456 -1.3679683107496547 0.4446978515487919 -1.3197205413081134 0.4929448456143678 C -1.2714727718665721 0.5411918396799437 -1.2401925821346003 0.5651915579873766 -1.1811024310718943 0.5993070503387788 C -1.1220122800091883 0.6334225426901811 -1.0855914387942733 0.648509459948286 -1.0196851082372498 0.6661692550631887 C -0.9537787776802261 0.6838290501780914 -0.9146853501243144 0.6881424846894374 -0.8464567617805523 0.6889763416773601 C -0.7782281734367902 0.6898101986652828 0.8464566240462148 0.6889763416773601 0.8464566240462154 0.6889763416773601" stroke-width="0.01"></path></g></g><g fill="none" stroke="rgb(0,0,0)"><g transform="matrix(6.123233995736766e-17,1,1,-6.123233995736766e-17,10.891385274108751,10.8515584734272)"><path class="outline" d="M 0.8464566240462154 0.6889763416773601 C 0.8464566240462159 0.6889763416773601 0.8464566240462154 0.6889763416773615 0.8464566240462154 0.6889763416773615 C 0.8464566240462154 0.6889763416773615 0.9537738904008519 0.6838292678998142 1.0196810334950377 0.6661692550631887 C 1.0855881765892235 0.6485092422265631 1.122011463727825 0.6334229344469373 1.1811022933375572 0.5993070503387788 C 1.2401931229472896 0.5651911662306204 1.2714690848107892 0.5411922273694835 1.319716466565904 0.4929448456143678 C 1.3679638483210188 0.44469746385925213 1.391962787182152 0.4134215019957539 1.4260786712903095 0.35433067238602106 C 1.460194555398467 0.29523984277628823 1.4752808631780927 0.25881655563768524 1.492940876014718 0.1929094125435015 C 1.5106008888513434 0.12700226944931775 1.5141079496554561 0.03497225677198983 1.5157479626288934 0.019685003094684777 C 1.5173879756023307 0.004397749417379722 1.5157479626288934 -0.01968507564547325 1.5157479626288934 -0.01968507564547325 C 1.5157479626288934 -0.01968507564547325 1.5157479626288934 -0.01968507564547325 1.5157479626288934 -0.01968507564547325 C 1.5157479626288934 -0.01968507564547325 1.5106006711296214 -0.12700709154514478 1.492940876014718 -0.19291342210216803 C 1.4752810808998147 -0.25881975265919127 1.4601944993883091 -0.2952407877175037 1.4260786712903095 -0.3543307449368123 C 1.39196284319231 -0.4134207021561209 1.3679634606314792 -0.44469714872361854 1.319716466565904 -0.49294491816515906 C 1.2714694725003288 -0.5411926876066996 1.2401933388064483 -0.5651942757822981 1.1811022933375601 -0.5993110598974426 C 1.122011247868672 -0.6334278440125871 1.085588176589365 -0.6485140271633414 1.0196810334950348 -0.666173264621851 C 0.9537738904007046 -0.6838325020803606 0.9146834892329293 -0.6881427204795117 0.8464566240462154 -0.6889764142281514 C 0.7782297588595014 -0.689810107976791 -0.8464567617805551 -0.68897641422815 -0.8464567617805551 -0.68897641422815 C -0.8464567617805551 -0.68897641422815 -0.8464567617805511 -0.6889764142281515 -0.8464567617805523 -0.6889764142281514 C -0.8464567617805535 -0.6889764142281513 -0.9537785838391294 -0.6838323363061707 -1.0196851082372498 -0.666173264621851 C -1.0855916326353703 -0.6485141929375313 -1.1220126157539865 -0.6334271337730738 -1.1811024310718943 -0.5993110598974426 C -1.240192246389802 -0.5651949860218114 -1.2714731595529936 -0.5411922999202758 -1.3197205413081106 -0.49294491816515906 C -1.3679679230632276 -0.4446975364100423 -1.3919669179345249 -0.4134207021561209 -1.4260827460325245 -0.3543307449368123 C -1.4601985741305241 -0.2952407877175037 -1.475285879072613 -0.2588199465002884 -1.492944950756933 -0.19291342210216803 C -1.510604022441253 -0.1270068977040477 -1.5141083972920706 -0.034972362565844003 -1.5157481003632334 -0.01968507564547325 C -1.5173878034343962 -0.004397788725102497 -1.5157481003632334 0.019685003094684777 -1.5157481003632334 0.019685003094684777 C -1.5157481003632334 0.019685003094684777 -1.5157481003632334 0.019685003094684777 -1.5157481003632334 0.019685003094684777 C -1.5157481003632334 0.019685003094684777 -1.510604188215443 0.12700226944917248 -1.492944950756933 0.1929094125435015 C -1.475285713298423 0.2588165556378305 -1.4601986301406835 0.29523984277628756 -1.4260827460325245 0.35433067238602106 C -1.3919668619243655 0.41342150199575456 -1.3679683107496547 0.4446978515487919 -1.3197205413081134 0.4929448456143678 C -1.2714727718665721 0.5411918396799437 -1.2401925821346003 0.5651915579873766 -1.1811024310718943 0.5993070503387788 C -1.1220122800091883 0.6334225426901811 -1.0855914387942733 0.648509459948286 -1.0196851082372498 0.6661692550631887 C -0.9537787776802261 0.6838290501780914 -0.9146853501243144 0.6881424846894374 -0.8464567617805523 0.6889763416773601 C -0.7782281734367902 0.6898101986652828 0.8464566240462148 0.6889763416773601 0.8464566240462154 0.6889763416773601" stroke-width="0.01"></path></g></g><g fill="none" stroke="rgb(0,0,0)"><g transform="matrix(6.123233995736766e-17,1,1,-6.123233995736766e-17,9.433951227062229,7.739864601379383)"><path class="outline" d="M 0.8464566240462154 0.6889763416773601 C 0.8464566240462159 0.6889763416773601 0.8464566240462154 0.6889763416773615 0.8464566240462154 0.6889763416773615 C 0.8464566240462154 0.6889763416773615 0.9537738904008519 0.6838292678998142 1.0196810334950377 0.6661692550631887 C 1.0855881765892235 0.6485092422265631 1.122011463727825 0.6334229344469373 1.1811022933375572 0.5993070503387788 C 1.2401931229472896 0.5651911662306204 1.2714690848107892 0.5411922273694835 1.319716466565904 0.4929448456143678 C 1.3679638483210188 0.44469746385925213 1.391962787182152 0.4134215019957539 1.4260786712903095 0.35433067238602106 C 1.460194555398467 0.29523984277628823 1.4752808631780927 0.25881655563768524 1.492940876014718 0.1929094125435015 C 1.5106008888513434 0.12700226944931775 1.5141079496554561 0.03497225677198983 1.5157479626288934 0.019685003094684777 C 1.5173879756023307 0.004397749417379722 1.5157479626288934 -0.01968507564547325 1.5157479626288934 -0.01968507564547325 C 1.5157479626288934 -0.01968507564547325 1.5157479626288934 -0.01968507564547325 1.5157479626288934 -0.01968507564547325 C 1.5157479626288934 -0.01968507564547325 1.5106006711296214 -0.12700709154514478 1.492940876014718 -0.19291342210216803 C 1.4752810808998147 -0.25881975265919127 1.4601944993883091 -0.2952407877175037 1.4260786712903095 -0.3543307449368123 C 1.39196284319231 -0.4134207021561209 1.3679634606314792 -0.44469714872361854 1.319716466565904 -0.49294491816515906 C 1.2714694725003288 -0.5411926876066996 1.2401933388064483 -0.5651942757822981 1.1811022933375601 -0.5993110598974426 C 1.122011247868672 -0.6334278440125871 1.085588176589365 -0.6485140271633414 1.0196810334950348 -0.666173264621851 C 0.9537738904007046 -0.6838325020803606 0.9146834892329293 -0.6881427204795117 0.8464566240462154 -0.6889764142281514 C 0.7782297588595014 -0.689810107976791 -0.8464567617805551 -0.68897641422815 -0.8464567617805551 -0.68897641422815 C -0.8464567617805551 -0.68897641422815 -0.8464567617805511 -0.6889764142281515 -0.8464567617805523 -0.6889764142281514 C -0.8464567617805535 -0.6889764142281513 -0.9537785838391294 -0.6838323363061707 -1.0196851082372498 -0.666173264621851 C -1.0855916326353703 -0.6485141929375313 -1.1220126157539865 -0.6334271337730738 -1.1811024310718943 -0.5993110598974426 C -1.240192246389802 -0.5651949860218114 -1.2714731595529936 -0.5411922999202758 -1.3197205413081106 -0.49294491816515906 C -1.3679679230632276 -0.4446975364100423 -1.3919669179345249 -0.4134207021561209 -1.4260827460325245 -0.3543307449368123 C -1.4601985741305241 -0.2952407877175037 -1.475285879072613 -0.2588199465002884 -1.492944950756933 -0.19291342210216803 C -1.510604022441253 -0.1270068977040477 -1.5141083972920706 -0.034972362565844003 -1.5157481003632334 -0.01968507564547325 C -1.5173878034343962 -0.004397788725102497 -1.5157481003632334 0.019685003094684777 -1.5157481003632334 0.019685003094684777 C -1.5157481003632334 0.019685003094684777 -1.5157481003632334 0.019685003094684777 -1.5157481003632334 0.019685003094684777 C -1.5157481003632334 0.019685003094684777 -1.510604188215443 0.12700226944917248 -1.492944950756933 0.1929094125435015 C -1.475285713298423 0.2588165556378305 -1.4601986301406835 0.29523984277628756 -1.4260827460325245 0.35433067238602106 C -1.3919668619243655 0.41342150199575456 -1.3679683107496547 0.4446978515487919 -1.3197205413081134 0.4929448456143678 C -1.2714727718665721 0.5411918396799437 -1.2401925821346003 0.5651915579873766 -1.1811024310718943 0.5993070503387788 C -1.1220122800091883 0.6334225426901811 -1.0855914387942733 0.648509459948286 -1.0196851082372498 0.6661692550631887 C -0.9537787776802261 0.6838290501780914 -0.9146853501243144 0.6881424846894374 -0.8464567617805523 0.6889763416773601 C -0.7782281734367902 0.6898101986652828 0.8464566240462148 0.6889763416773601 0.8464566240462154 0.6889763416773601" stroke-width="0.01"></path></g></g><g fill="none" stroke="rgb(0,0,0)"><g transform="matrix(6.123233995736766e-17,1,1,-6.123233995736766e-17,7.97651718001571,10.8515584734272)"><path class="outline" d="M 0.8464566240462154 0.6889763416773601 C 0.8464566240462159 0.6889763416773601 0.8464566240462154 0.6889763416773615 0.8464566240462154 0.6889763416773615 C 0.8464566240462154 0.6889763416773615 0.9537738904008519 0.6838292678998142 1.0196810334950377 0.6661692550631887 C 1.0855881765892235 0.6485092422265631 1.122011463727825 0.6334229344469373 1.1811022933375572 0.5993070503387788 C 1.2401931229472896 0.5651911662306204 1.2714690848107892 0.5411922273694835 1.319716466565904 0.4929448456143678 C 1.3679638483210188 0.44469746385925213 1.391962787182152 0.4134215019957539 1.4260786712903095 0.35433067238602106 C 1.460194555398467 0.29523984277628823 1.4752808631780927 0.25881655563768524 1.492940876014718 0.1929094125435015 C 1.5106008888513434 0.12700226944931775 1.5141079496554561 0.03497225677198983 1.5157479626288934 0.019685003094684777 C 1.5173879756023307 0.004397749417379722 1.5157479626288934 -0.01968507564547325 1.5157479626288934 -0.01968507564547325 C 1.5157479626288934 -0.01968507564547325 1.5157479626288934 -0.01968507564547325 1.5157479626288934 -0.01968507564547325 C 1.5157479626288934 -0.01968507564547325 1.5106006711296214 -0.12700709154514478 1.492940876014718 -0.19291342210216803 C 1.4752810808998147 -0.25881975265919127 1.4601944993883091 -0.2952407877175037 1.4260786712903095 -0.3543307449368123 C 1.39196284319231 -0.4134207021561209 1.3679634606314792 -0.44469714872361854 1.319716466565904 -0.49294491816515906 C 1.2714694725003288 -0.5411926876066996 1.2401933388064483 -0.5651942757822981 1.1811022933375601 -0.5993110598974426 C 1.122011247868672 -0.6334278440125871 1.085588176589365 -0.6485140271633414 1.0196810334950348 -0.666173264621851 C 0.9537738904007046 -0.6838325020803606 0.9146834892329293 -0.6881427204795117 0.8464566240462154 -0.6889764142281514 C 0.7782297588595014 -0.689810107976791 -0.8464567617805551 -0.68897641422815 -0.8464567617805551 -0.68897641422815 C -0.8464567617805551 -0.68897641422815 -0.8464567617805511 -0.6889764142281515 -0.8464567617805523 -0.6889764142281514 C -0.8464567617805535 -0.6889764142281513 -0.9537785838391294 -0.6838323363061707 -1.0196851082372498 -0.666173264621851 C -1.0855916326353703 -0.6485141929375313 -1.1220126157539865 -0.6334271337730738 -1.1811024310718943 -0.5993110598974426 C -1.240192246389802 -0.5651949860218114 -1.2714731595529936 -0.5411922999202758 -1.3197205413081106 -0.49294491816515906 C -1.3679679230632276 -0.4446975364100423 -1.3919669179345249 -0.4134207021561209 -1.4260827460325245 -0.3543307449368123 C -1.4601985741305241 -0.2952407877175037 -1.475285879072613 -0.2588199465002884 -1.492944950756933 -0.19291342210216803 C -1.510604022441253 -0.1270068977040477 -1.5141083972920706 -0.034972362565844003 -1.5157481003632334 -0.01968507564547325 C -1.5173878034343962 -0.004397788725102497 -1.5157481003632334 0.019685003094684777 -1.5157481003632334 0.019685003094684777 C -1.5157481003632334 0.019685003094684777 -1.5157481003632334 0.019685003094684777 -1.5157481003632334 0.019685003094684777 C -1.5157481003632334 0.019685003094684777 -1.510604188215443 0.12700226944917248 -1.492944950756933 0.1929094125435015 C -1.475285713298423 0.2588165556378305 -1.4601986301406835 0.29523984277628756 -1.4260827460325245 0.35433067238602106 C -1.3919668619243655 0.41342150199575456 -1.3679683107496547 0.4446978515487919 -1.3197205413081134 0.4929448456143678 C -1.2714727718665721 0.5411918396799437 -1.2401925821346003 0.5651915579873766 -1.1811024310718943 0.5993070503387788 C -1.1220122800091883 0.6334225426901811 -1.0855914387942733 0.648509459948286 -1.0196851082372498 0.6661692550631887 C -0.9537787776802261 0.6838290501780914 -0.9146853501243144 0.6881424846894374 -0.8464567617805523 0.6889763416773601 C -0.7782281734367902 0.6898101986652828 0.8464566240462148 0.6889763416773601 0.8464566240462154 0.6889763416773601" stroke-width="0.01"></path></g></g><g fill="none" stroke="rgb(0,0,0)"><g transform="matrix(6.123233995736766e-17,1,1,-6.123233995736766e-17,6.519083132969188,7.739864601379384)"><path class="outline" d="M 0.8464566240462154 0.6889763416773601 C 0.8464566240462159 0.6889763416773601 0.8464566240462154 0.6889763416773615 0.8464566240462154 0.6889763416773615 C 0.8464566240462154 0.6889763416773615 0.9537738904008519 0.6838292678998142 1.0196810334950377 0.6661692550631887 C 1.0855881765892235 0.6485092422265631 1.122011463727825 0.6334229344469373 1.1811022933375572 0.5993070503387788 C 1.2401931229472896 0.5651911662306204 1.2714690848107892 0.5411922273694835 1.319716466565904 0.4929448456143678 C 1.3679638483210188 0.44469746385925213 1.391962787182152 0.4134215019957539 1.4260786712903095 0.35433067238602106 C 1.460194555398467 0.29523984277628823 1.4752808631780927 0.25881655563768524 1.492940876014718 0.1929094125435015 C 1.5106008888513434 0.12700226944931775 1.5141079496554561 0.03497225677198983 1.5157479626288934 0.019685003094684777 C 1.5173879756023307 0.004397749417379722 1.5157479626288934 -0.01968507564547325 1.5157479626288934 -0.01968507564547325 C 1.5157479626288934 -0.01968507564547325 1.5157479626288934 -0.01968507564547325 1.5157479626288934 -0.01968507564547325 C 1.5157479626288934 -0.01968507564547325 1.5106006711296214 -0.12700709154514478 1.492940876014718 -0.19291342210216803 C 1.4752810808998147 -0.25881975265919127 1.4601944993883091 -0.2952407877175037 1.4260786712903095 -0.3543307449368123 C 1.39196284319231 -0.4134207021561209 1.3679634606314792 -0.44469714872361854 1.319716466565904 -0.49294491816515906 C 1.2714694725003288 -0.5411926876066996 1.2401933388064483 -0.5651942757822981 1.1811022933375601 -0.5993110598974426 C 1.122011247868672 -0.6334278440125871 1.085588176589365 -0.6485140271633414 1.0196810334950348 -0.666173264621851 C 0.9537738904007046 -0.6838325020803606 0.9146834892329293 -0.6881427204795117 0.8464566240462154 -0.6889764142281514 C 0.7782297588595014 -0.689810107976791 -0.8464567617805551 -0.68897641422815 -0.8464567617805551 -0.68897641422815 C -0.8464567617805551 -0.68897641422815 -0.8464567617805511 -0.6889764142281515 -0.8464567617805523 -0.6889764142281514 C -0.8464567617805535 -0.6889764142281513 -0.9537785838391294 -0.6838323363061707 -1.0196851082372498 -0.666173264621851 C -1.0855916326353703 -0.6485141929375313 -1.1220126157539865 -0.6334271337730738 -1.1811024310718943 -0.5993110598974426 C -1.240192246389802 -0.5651949860218114 -1.2714731595529936 -0.5411922999202758 -1.3197205413081106 -0.49294491816515906 C -1.3679679230632276 -0.4446975364100423 -1.3919669179345249 -0.4134207021561209 -1.4260827460325245 -0.3543307449368123 C -1.4601985741305241 -0.2952407877175037 -1.475285879072613 -0.2588199465002884 -1.492944950756933 -0.19291342210216803 C -1.510604022441253 -0.1270068977040477 -1.5141083972920706 -0.034972362565844003 -1.5157481003632334 -0.01968507564547325 C -1.5173878034343962 -0.004397788725102497 -1.5157481003632334 0.019685003094684777 -1.5157481003632334 0.019685003094684777 C -1.5157481003632334 0.019685003094684777 -1.5157481003632334 0.019685003094684777 -1.5157481003632334 0.019685003094684777 C -1.5157481003632334 0.019685003094684777 -1.510604188215443 0.12700226944917248 -1.492944950756933 0.1929094125435015 C -1.475285713298423 0.2588165556378305 -1.4601986301406835 0.29523984277628756 -1.4260827460325245 0.35433067238602106 C -1.3919668619243655 0.41342150199575456 -1.3679683107496547 0.4446978515487919 -1.3197205413081134 0.4929448456143678 C -1.2714727718665721 0.5411918396799437 -1.2401925821346003 0.5651915579873766 -1.1811024310718943 0.5993070503387788 C -1.1220122800091883 0.6334225426901811 -1.0855914387942733 0.648509459948286 -1.0196851082372498 0.6661692550631887 C -0.9537787776802261 0.6838290501780914 -0.9146853501243144 0.6881424846894374 -0.8464567617805523 0.6889763416773601 C -0.7782281734367902 0.6898101986652828 0.8464566240462148 0.6889763416773601 0.8464566240462154 0.6889763416773601" stroke-width="0.01"></path></g></g></g>
  </g>
</svg>