<svg width="6.615523622047247in" height="7.553232283464566in" viewBox="0 0 6.615523622047247 7.553232283464566" xmlns="http://www.w3.org/2000/svg" xmlnsXlink="http://www.w3.org/1999/xlink">
  <g transform="translate(0 7.553232283464566)">
    <g transform="scale(1, -1)"><g fill="none" stroke="rgb(10,10,10)"><g transform="matrix(6.123233995736766e-17,-1,-1,-6.123233995736766e-17,3.307761811023624,3.7766161417322825)"><path class="outline" d="M 2.7084901574803153 0.7318326771653543 C 2.7084901574803153 0.7318326771653543 2.761566457847204 0.6147935661506244 2.8121437007874013 0.5510295275590553 C 2.8627209437275987 0.4872654889674862 2.8974392131324365 0.4549076509779285 2.964604330708662 0.4089429133858274 C 3.031769448284887 0.36297817579372627 3.0745037440255456 0.342331142536152 3.1522539370078713 0.3182736220472455 C 3.230004129990197 0.29421610155833905 3.358316929133858 0.2871200787401571 3.358316929133858 0.2871200787401571 C 3.358316929133858 0.2871200787401571 3.499580708661418 0.27703740157480333 3.499580708661418 0.27703740157480333 C 3.499580708661418 0.27703740157480333 3.5712814960629915 0.2675964566929136 3.5712814960629915 0.2675964566929136 C 3.5712814960629915 0.2675964566929136 3.6380964566929137 0.23991929133858236 3.6380964566929137 0.23991929133858236 C 3.6380964566929137 0.23991929133858236 3.695474409448819 0.19589566929133834 3.695474409448819 0.19589566929133834 C 3.695474409448819 0.19589566929133834 3.7394980314960624 0.13851771653543285 3.7394980314960624 0.13851771653543285 C 3.7394980314960624 0.13851771653543285 3.767175196850393 0.07170275590551149 3.767175196850393 0.07170275590551149 C 3.767175196850393 0.07170275590551149 3.7766161417322834 -0.000001968503936933351 3.7766161417322834 -0.000001968503936933351 C 3.7766161417322834 -0.000001968503936933351 3.767175196850393 -0.07170275590551219 3.767175196850393 -0.07170275590551219 C 3.767175196850393 -0.07170275590551219 3.7394980314960624 -0.13851771653543285 3.7394980314960624 -0.13851771653543285 C 3.7394980314960624 -0.13851771653543285 3.695474409448819 -0.19589566929133834 3.695474409448819 -0.19589566929133834 C 3.695474409448819 -0.19589566929133834 3.6380964566929137 -0.23991929133858306 3.6380964566929137 -0.23991929133858306 C 3.6380964566929137 -0.23991929133858306 3.5712814960629915 -0.2675964566929136 3.5712814960629915 -0.2675964566929136 C 3.5712814960629915 -0.2675964566929136 3.499580708661418 -0.27703740157480333 3.499580708661418 -0.27703740157480333 C 3.499580708661418 -0.27703740157480333 3.358316929133858 -0.28712401574803165 3.358316929133858 -0.28712401574803165 C 3.358316929133858 -0.28712401574803165 3.230004129985091 -0.29421687903852173 3.152253937007873 -0.318273622047242 C 3.0745037440306553 -0.3423303650559623 3.0317694482848876 -0.36297817579372516 2.964604330708662 -0.40894291338582595 C 2.897439213132436 -0.45490765097792674 2.862720943727597 -0.48726548896748406 2.8121437007873995 -0.5510295275590532 C 2.761566457847202 -0.6147935661506224 2.749157193194702 -0.6613326576350571 2.7084901574803153 -0.7318326771653543 C 2.6678231217659287 -0.8023326966956514 1.9880295275590556 -1.9797066929133853 1.9880295275590556 -1.9797066929133853 C 1.9880295275590556 -1.9797066929133853 1.913209775417212 -2.084188999124619 1.8832775590551176 -2.159872047244095 C 1.8533453426930233 -2.2355550953635706 1.8426831725300756 -2.281802008625346 1.8364586614173226 -2.3629507874015743 C 1.8302341503045696 -2.4440995661778024 1.8337173019235542 -2.491430805903421 1.8517578740157477 -2.5707933070866145 C 1.869798446107941 -2.650155808269808 1.9278129921259846 -2.7648287401574807 1.9278129921259846 -2.7648287401574807 C 1.9278129921259846 -2.7648287401574807 1.9897106299212597 -2.892206692913385 1.9897106299212597 -2.892206692913385 C 1.9897106299212597 -2.892206692913385 2.01738779527559 -2.9590216535433074 2.01738779527559 -2.9590216535433074 C 2.01738779527559 -2.9590216535433074 2.026824803149607 -3.0307224409448814 2.026824803149607 -3.0307224409448814 C 2.026824803149607 -3.0307224409448814 2.01738779527559 -3.1024271653543303 2.01738779527559 -3.1024271653543303 C 2.01738779527559 -3.1024271653543303 1.9897106299212597 -3.1692421259842525 1.9897106299212597 -3.1692421259842525 C 1.9897106299212597 -3.1692421259842525 1.945683070866141 -3.226620078740158 1.945683070866141 -3.226620078740158 C 1.945683070866141 -3.226620078740158 1.8883090551181094 -3.270643700787401 1.8883090551181094 -3.270643700787401 C 1.8883090551181094 -3.270643700787401 1.821490157480315 -3.2983208661417316 1.821490157480315 -3.2983208661417316 C 1.821490157480315 -3.2983208661417316 1.7497893700787404 -3.307761811023622 1.7497893700787404 -3.307761811023622 C 1.7497893700787404 -3.307761811023622 1.6780885826771652 -3.2983208661417316 1.6780885826771652 -3.2983208661417316 C 1.6780885826771652 -3.2983208661417316 1.61126968503937 -3.270643700787401 1.61126968503937 -3.270643700787401 C 1.61126968503937 -3.270643700787401 1.5538956692913384 -3.226620078740158 1.5538956692913384 -3.226620078740158 C 1.5538956692913384 -3.226620078740158 1.5098681102362204 -3.1692421259842525 1.5098681102362204 -3.1692421259842525 C 1.5098681102362204 -3.1692421259842525 1.430505905511811 -3.0519507874015748 1.430505905511811 -3.0519507874015748 C 1.430505905511811 -3.0519507874015748 1.3588201071437676 -2.947593583067667 1.3004940944881889 -2.892206692913385 C 1.2421680818326102 -2.8368198027591034 1.200838820023426 -2.7995540773633834 1.1281476377952753 -2.7648287401574807 C 1.0554564555671246 -2.730103402951578 1.009303697359126 -2.7234465713102884 0.9288641732283451 -2.7115374015748026 C 0.8484246490975642 -2.6996282318393168 0.7204625984251972 -2.7115374015748026 0.7204625984251972 -2.7115374015748026 C 0.7204625984251972 -2.7115374015748026 -0.7204586614173226 -2.7115374015748026 -0.7204586614173226 -2.7115374015748026 C -0.7204586614173226 -2.7115374015748026 -0.8483539360298313 -2.698980082514383 -0.9288641732283466 -2.7108996062992126 C -1.0093744104268618 -2.722819130084042 -1.0549997593211067 -2.736209014424584 -1.128147637795276 -2.7718956692913386 C -1.2012955162694452 -2.8075823241580933 -1.2414849646925332 -2.8375495997744467 -1.3004940944881895 -2.892206692913385 C -1.3595032242838458 -2.9468637860523237 -1.3973948702112866 -3.0076486204077573 -1.4305019685039375 -3.0519507874015748 C -1.4636090667965884 -3.0962529543953923 -1.5098681102362204 -3.1692421259842525 -1.5098681102362204 -3.1692421259842525 C -1.5098681102362204 -3.1692421259842525 -1.5538956692913384 -3.226620078740158 -1.5538956692913384 -3.226620078740158 C -1.5538956692913384 -3.226620078740158 -1.61126968503937 -3.270643700787401 -1.61126968503937 -3.270643700787401 C -1.61126968503937 -3.270643700787401 -1.6780846456692913 -3.2983208661417316 -1.6780846456692913 -3.2983208661417316 C -1.6780846456692913 -3.2983208661417316 -1.7497893700787401 -3.307761811023622 -1.7497893700787401 -3.307761811023622 C -1.7497893700787401 -3.307761811023622 -1.8214901574803146 -3.2983208661417316 -1.8214901574803146 -3.2983208661417316 C -1.8214901574803146 -3.2983208661417316 -1.88830905511811 -3.270643700787401 -1.88830905511811 -3.270643700787401 C -1.88830905511811 -3.270643700787401 -1.9456830708661415 -3.226620078740158 -1.9456830708661415 -3.226620078740158 C -1.9456830708661415 -3.226620078740158 -1.9897106299212597 -3.1692421259842525 -1.9897106299212597 -3.1692421259842525 C -1.9897106299212597 -3.1692421259842525 -2.017383858267716 -3.1024271653543303 -2.017383858267716 -3.1024271653543303 C -2.017383858267716 -3.1024271653543303 -2.026824803149606 -3.0307224409448814 -2.026824803149606 -3.0307224409448814 C -2.026824803149606 -3.0307224409448814 -2.017383858267716 -2.9590216535433074 -2.017383858267716 -2.9590216535433074 C -2.017383858267716 -2.9590216535433074 -1.9897106299212597 -2.892206692913385 -1.9897106299212597 -2.892206692913385 C -1.9897106299212597 -2.892206692913385 -1.94962651101336 -2.815651624530952 -1.9278129921259846 -2.7648287401574807 C -1.9059994732386092 -2.714005855784009 -1.8697984461079409 -2.6501558082698082 -1.8517578740157477 -2.5707933070866145 C -1.8337173019235544 -2.4914308059034207 -1.830234923238531 -2.4440996254619414 -1.8364586614173233 -2.362950787401573 C -1.8426823995961155 -2.2818019493412045 -1.8587334710326664 -2.2346533573356164 -1.8883090551181105 -2.159872047244095 C -1.9178846392035547 -2.0850907371525733 -1.988029527559055 -1.9797066929133853 -1.988029527559055 -1.9797066929133853 C -1.988029527559055 -1.9797066929133853 -2.7084901574803144 -0.7318326771653543 -2.7084901574803144 -0.7318326771653543 C -2.7084901574803144 -0.7318326771653543 -2.761562421746709 -0.6147936910792529 -2.8121397637795273 -0.5510295275590532 C -2.8627171058123455 -0.48726536403885357 -2.8974386206610325 -0.4549075243665726 -2.9646043307086614 -0.4089429133858253 C -3.03177004075629 -0.36297830240507795 -3.074503744030656 -0.34233036505596204 -3.1522539370078735 -0.318273622047242 C -3.230004129985091 -0.294216879038522 -3.358316929133858 -0.28712401574803165 -3.358316929133858 -0.28712401574803165 C -3.358316929133858 -0.28712401574803165 -3.499576771653543 -0.27703740157480333 -3.499576771653543 -0.27703740157480333 C -3.499576771653543 -0.27703740157480333 -3.5712814960629915 -0.2675964566929136 -3.5712814960629915 -0.2675964566929136 C -3.5712814960629915 -0.2675964566929136 -3.638096456692913 -0.23991929133858306 -3.638096456692913 -0.23991929133858306 C -3.638096456692913 -0.23991929133858306 -3.6954744094488183 -0.19589566929133834 -3.6954744094488183 -0.19589566929133834 C -3.6954744094488183 -0.19589566929133834 -3.7394980314960624 -0.13851771653543285 -3.7394980314960624 -0.13851771653543285 C -3.7394980314960624 -0.13851771653543285 -3.7671751968503937 -0.07170275590551219 -3.7671751968503937 -0.07170275590551219 C -3.7671751968503937 -0.07170275590551219 -3.7766161417322825 -0.000001968503936933351 -3.7766161417322825 -0.000001968503936933351 C -3.7766161417322825 -0.000001968503936933351 -3.7671751968503937 0.07170275590551149 -3.7671751968503937 0.07170275590551149 C -3.7671751968503937 0.07170275590551149 -3.7394980314960624 0.13851771653543285 -3.7394980314960624 0.13851771653543285 C -3.7394980314960624 0.13851771653543285 -3.6954744094488183 0.19589566929133834 -3.6954744094488183 0.19589566929133834 C -3.6954744094488183 0.19589566929133834 -3.638096456692913 0.23991929133858236 -3.638096456692913 0.23991929133858236 C -3.638096456692913 0.23991929133858236 -3.5712814960629915 0.2675964566929136 -3.5712814960629915 0.2675964566929136 C -3.5712814960629915 0.2675964566929136 -3.499576771653543 0.27703740157480333 -3.499576771653543 0.27703740157480333 C -3.499576771653543 0.27703740157480333 -3.358316929133858 0.2871200787401571 -3.358316929133858 0.2871200787401571 C -3.358316929133858 0.2871200787401571 -3.2300041299901983 0.29421610155833905 -3.1522539370078735 0.3182736220472455 C -3.0745037440255487 0.342331142536152 -3.03177004075629 0.36297830240508006 -2.9646043307086614 0.40894291338582806 C -2.8974386206610325 0.45490752436657605 -2.862717105812345 0.48726536403885723 -2.8121397637795273 0.5510295275590561 C -2.7615624217467096 0.614793691079255 -2.7084901574803144 0.7318326771653543 -2.7084901574803144 0.7318326771653543 C -2.7084901574803144 0.7318326771653543 -1.988029527559055 1.9797066929133857 -1.988029527559055 1.9797066929133857 C -1.988029527559055 1.9797066929133857 -1.9132058678491686 2.084188924686559 -1.8832736220472435 2.1598720472440958 C -1.8533413762453184 2.2355551698016325 -1.845646391182481 2.2823049118226804 -1.8364586614173226 2.3629507874015756 C -1.8272709316521643 2.443596662980471 -1.8184667669254577 2.491644944129963 -1.836458661417323 2.570793307086615 C -1.8544505559091884 2.6499416700432668 -1.927812992125984 2.7648287401574803 -1.927812992125984 2.7648287401574803 C -1.927812992125984 2.7648287401574803 -1.9897106299212597 2.892206692913385 -1.9897106299212597 2.892206692913385 C -1.9897106299212597 2.892206692913385 -2.017383858267716 2.959021653543307 -2.017383858267716 2.959021653543307 C -2.017383858267716 2.959021653543307 -2.026824803149606 3.0307224409448814 -2.026824803149606 3.0307224409448814 C -2.026824803149606 3.0307224409448814 -2.017383858267716 3.1024271653543303 -2.017383858267716 3.1024271653543303 C -2.017383858267716 3.1024271653543303 -1.9897106299212597 3.1692421259842516 -1.9897106299212597 3.1692421259842516 C -1.9897106299212597 3.1692421259842516 -1.9456830708661415 3.226616141732283 -1.9456830708661415 3.226616141732283 C -1.9456830708661415 3.226616141732283 -1.88830905511811 3.270643700787401 -1.88830905511811 3.270643700787401 C -1.88830905511811 3.270643700787401 -1.8214901574803146 3.2983208661417316 -1.8214901574803146 3.2983208661417316 C -1.8214901574803146 3.2983208661417316 -1.7497893700787401 3.3077618110236213 -1.7497893700787401 3.3077618110236213 C -1.7497893700787401 3.3077618110236213 -1.6780846456692913 3.2983208661417316 -1.6780846456692913 3.2983208661417316 C -1.6780846456692913 3.2983208661417316 -1.61126968503937 3.270643700787401 -1.61126968503937 3.270643700787401 C -1.61126968503937 3.270643700787401 -1.5538956692913384 3.226616141732283 -1.5538956692913384 3.226616141732283 C -1.5538956692913384 3.226616141732283 -1.5098681102362204 3.1692421259842516 -1.5098681102362204 3.1692421259842516 C -1.5098681102362204 3.1692421259842516 -1.4305019685039368 3.0519507874015743 -1.4305019685039368 3.0519507874015743 C -1.4305019685039368 3.0519507874015743 -1.359503224283845 2.946863786052325 -1.3004940944881889 2.892206692913387 C -1.2414849646925328 2.837549599774449 -1.201521593342387 2.8069471744451193 -1.1281476377952753 2.7718956692913395 C -1.0547736822481635 2.7368441641375596 -1.0093037140205567 2.72344645877146 -0.9288641732283459 2.7115374015748035 C -0.8484246324361351 2.699628344378147 -0.7204586614173226 2.7115374015748026 -0.7204586614173226 2.7115374015748026 C -0.7204586614173226 2.7115374015748026 0.7204625984251972 2.7115374015748026 0.7204625984251972 2.7115374015748026 C 0.7204625984251972 2.7115374015748026 0.8483554736177116 2.698980195049497 0.9288641732283459 2.7108996062992134 C 1.0093728728389801 2.7228190175489297 1.0549997593211067 2.7362090144245834 1.128147637795276 2.771895669291338 C 1.2012955162694452 2.807582324158093 1.2414838978739549 2.8375493233388216 1.3004940944881895 2.892206692913386 C 1.3595042911024242 2.9468640624879505 1.430505905511811 3.0519507874015743 1.430505905511811 3.0519507874015743 C 1.430505905511811 3.0519507874015743 1.5098681102362204 3.1692421259842516 1.5098681102362204 3.1692421259842516 C 1.5098681102362204 3.1692421259842516 1.5538956692913384 3.226616141732283 1.5538956692913384 3.226616141732283 C 1.5538956692913384 3.226616141732283 1.61126968503937 3.270643700787401 1.61126968503937 3.270643700787401 C 1.61126968503937 3.270643700787401 1.6780885826771652 3.2983208661417316 1.6780885826771652 3.2983208661417316 C 1.6780885826771652 3.2983208661417316 1.7497893700787404 3.3077618110236213 1.7497893700787404 3.3077618110236213 C 1.7497893700787404 3.3077618110236213 1.821490157480315 3.2983208661417316 1.821490157480315 3.2983208661417316 C 1.821490157480315 3.2983208661417316 1.8883090551181094 3.270643700787401 1.8883090551181094 3.270643700787401 C 1.8883090551181094 3.270643700787401 1.945683070866141 3.226616141732283 1.945683070866141 3.226616141732283 C 1.945683070866141 3.226616141732283 1.9897106299212597 3.1692421259842516 1.9897106299212597 3.1692421259842516 C 1.9897106299212597 3.1692421259842516 2.01738779527559 3.1024271653543303 2.01738779527559 3.1024271653543303 C 2.01738779527559 3.1024271653543303 2.026824803149607 3.0307224409448814 2.026824803149607 3.0307224409448814 C 2.026824803149607 3.0307224409448814 2.01738779527559 2.959021653543307 2.01738779527559 2.959021653543307 C 2.01738779527559 2.959021653543307 1.9897106299212597 2.892206692913385 1.9897106299212597 2.892206692913385 C 1.9897106299212597 2.892206692913385 1.9278129921259846 2.7648287401574803 1.9278129921259846 2.7648287401574803 C 1.9278129921259846 2.7648287401574803 1.869798446107941 2.6501558082698073 1.8517578740157477 2.5707933070866145 C 1.8337173019235542 2.4914308059034216 1.8302341503045696 2.444099566177803 1.8364586614173226 2.362950787401575 C 1.8426831725300756 2.2818020086253474 1.8533453426930233 2.2355550953635706 1.8832775590551176 2.159872047244095 C 1.913209775417212 2.084188999124619 1.9880295275590556 1.9797066929133857 1.9880295275590556 1.9797066929133857 C 1.9880295275590556 1.9797066929133857 2.7084901574803153 0.7318326771653543 2.7084901574803153 0.7318326771653543" stroke-width="0.01"></path></g></g><g fill="rgb(112,112,112)" stroke="none"><g transform="matrix(6.123233995736766e-17,1,-1,6.123233995736766e-17,3.3077618110236227,3.776616141732284)"><path class="fill" d="M 0 0.4232283464566929 C 0.23374256143110234 0.4232283464566929 0.4232283464566929 0.23374256143110234 0.4232283464566929 0 C 0.4232283464566929 -0.23374256143110234 0.23374256143110234 -0.4232283464566929 0 -0.4232283464566929 C -0.23374256143110234 -0.4232283464566929 -0.4232283464566929 -0.23374256143110234 -0.4232283464566929 0 C -0.4232283464566929 0.23374256143110234 -0.23374256143110234 0.4232283464566929 0 0.4232283464566929"></path></g></g><g fill="rgb(10,10,10)" stroke="none"><g transform="matrix(6.123233995736766e-17,1,-1,6.123233995736766e-17,3.3077618110236227,3.776616141732284)"><path class="fill" d="M 0 0.2755905511811024 C 0.15220445860629922 0.2755905511811024 0.2755905511811024 0.15220445860629922 0.2755905511811024 0 C 0.2755905511811024 -0.15220445860629922 0.15220445860629922 -0.2755905511811024 0 -0.2755905511811024 C -0.15220445860629922 -0.2755905511811024 -0.2755905511811024 -0.15220445860629922 -0.2755905511811024 0 C -0.2755905511811024 0.15220445860629922 -0.15220445860629922 0.2755905511811024 0 0.2755905511811024"></path></g></g></g>
  </g>
</svg>