<svg width="3.032953714567501in" height="1.3786938895662062in" viewBox="0 0 3.032953714567501 1.3786938895662062" xmlns="http://www.w3.org/2000/svg" xmlnsXlink="http://www.w3.org/1999/xlink">
  <g transform="translate(0 1.3786938895662062)">
    <g data-reactroot="" transform="scale(1, -1)"><g fill="none" stroke="rgb(-11,-11,-11)"><g transform="matrix(1,0,0,-1,0.6897051348732737,0.6893469810584971)"><path class="outline" d="M 0.1377952755905512 0 C 0.1377952755905512 0 0.13727092296539944 -0.012009649591212685 0.13727092296539944 -0.012009649591212685 C 0.13727092296539944 -0.012009649591212685 0.1357018557300309 -0.023927898497411688 0.1357018557300309 -0.023927898497411688 C 0.1357018557300309 -0.023927898497411688 0.13310001543353267 -0.03566404164798568 0.13310001543353267 -0.03566404164798568 C 0.13310001543353267 -0.03566404164798568 0.1294852036516017 -0.04712875990708021 0.1294852036516017 -0.04712875990708021 C 0.1294852036516017 -0.04712875990708021 0.12488493128457866 -0.058234799846159285 0.12488493128457866 -0.058234799846159285 C 0.12488493128457866 -0.058234799846159285 0.11933420918289557 -0.06889763779527558 0.11933420918289557 -0.06889763779527558 C 0.11933420918289557 -0.06889763779527558 0.11287528169336761 -0.07903612311924015 0.11287528169336761 -0.07903612311924015 C 0.11287528169336761 -0.07903612311924015 0.10555730515419001 -0.08857309582294905 0.10555730515419001 -0.08857309582294905 C 0.10555730515419001 -0.08857309582294905 0.09743597378555026 -0.09743597378554861 0.09743597378555026 -0.09743597378554861 C 0.09743597378555026 -0.09743597378554861 0.0885730958229507 -0.10555730515419164 0.0885730958229507 -0.10555730515419164 C 0.0885730958229507 -0.10555730515419164 0.07903612311924016 -0.11287528169336597 0.07903612311924016 -0.11287528169336597 C 0.07903612311924016 -0.11287528169336597 0.0688976377952756 -0.11933420918289556 0.0688976377952756 -0.11933420918289556 C 0.0688976377952756 -0.11933420918289556 0.05823479984615929 -0.12488493128457864 0.05823479984615929 -0.12488493128457864 C 0.05823479984615929 -0.12488493128457864 0.047128759907080216 -0.12948520365160332 0.047128759907080216 -0.12948520365160332 C 0.047128759907080216 -0.12948520365160332 0.035664041647985686 -0.13310001543353428 0.035664041647985686 -0.13310001543353428 C 0.035664041647985686 -0.13310001543353428 0.02392789849741169 -0.13570185573002927 0.02392789849741169 -0.13570185573002927 C 0.02392789849741169 -0.13570185573002927 0.012009649591214318 -0.13727092296539942 0.012009649591214318 -0.13727092296539942 C 0.012009649591214318 -0.13727092296539942 0 -0.1377952755905528 0 -0.1377952755905528 C 0 -0.1377952755905528 -0.012009649591214318 -0.13727092296539942 -0.012009649591214318 -0.13727092296539942 C -0.012009649591214318 -0.13727092296539942 -0.02392789849741169 -0.13570185573002927 -0.02392789849741169 -0.13570185573002927 C -0.02392789849741169 -0.13570185573002927 -0.035664041647985686 -0.13310001543353428 -0.035664041647985686 -0.13310001543353428 C -0.035664041647985686 -0.13310001543353428 -0.047128759907080216 -0.12948520365160332 -0.047128759907080216 -0.12948520365160332 C -0.047128759907080216 -0.12948520365160332 -0.05823479984615929 -0.12488493128457864 -0.05823479984615929 -0.12488493128457864 C -0.05823479984615929 -0.12488493128457864 -0.0688976377952756 -0.11933420918289556 -0.0688976377952756 -0.11933420918289556 C -0.0688976377952756 -0.11933420918289556 -0.07903612311924016 -0.11287528169336597 -0.07903612311924016 -0.11287528169336597 C -0.07903612311924016 -0.11287528169336597 -0.08857309582294744 -0.10555730515419164 -0.08857309582294744 -0.10555730515419164 C -0.08857309582294744 -0.10555730515419164 -0.09743597378555026 -0.09743597378554861 -0.09743597378555026 -0.09743597378554861 C -0.09743597378555026 -0.09743597378554861 -0.10555730515419001 -0.08857309582294905 -0.10555730515419001 -0.08857309582294905 C -0.10555730515419001 -0.08857309582294905 -0.11287528169336435 -0.07903612311924015 -0.11287528169336435 -0.07903612311924015 C -0.11287528169336435 -0.07903612311924015 -0.11933420918289557 -0.06889763779527722 -0.11933420918289557 -0.06889763779527722 C -0.11933420918289557 -0.06889763779527722 -0.12488493128457866 -0.058234799846160916 -0.12488493128457866 -0.058234799846160916 C -0.12488493128457866 -0.058234799846160916 -0.1294852036516017 -0.04712875990708184 -0.1294852036516017 -0.04712875990708184 C -0.1294852036516017 -0.04712875990708184 -0.13310001543353267 -0.03566404164798568 -0.13310001543353267 -0.03566404164798568 C -0.13310001543353267 -0.03566404164798568 -0.1357018557300309 -0.023927898497411688 -0.1357018557300309 -0.023927898497411688 C -0.1357018557300309 -0.023927898497411688 -0.13727092296539944 -0.012009649591212685 -0.13727092296539944 -0.012009649591212685 C -0.13727092296539944 -0.012009649591212685 -0.1377952755905512 0 -0.1377952755905512 0 C -0.1377952755905512 0 -0.13727092296539944 0.012009649591212685 -0.13727092296539944 0.012009649591212685 C -0.13727092296539944 0.012009649591212685 -0.1357018557300309 0.023927898497411688 -0.1357018557300309 0.023927898497411688 C -0.1357018557300309 0.023927898497411688 -0.13310001543353595 0.03566404164798568 -0.13310001543353595 0.03566404164798568 C -0.13310001543353595 0.03566404164798568 -0.1294852036516017 0.04712875990708021 -0.1294852036516017 0.04712875990708021 C -0.1294852036516017 0.04712875990708021 -0.12488493128457866 0.058234799846159285 -0.12488493128457866 0.058234799846159285 C -0.12488493128457866 0.058234799846159285 -0.11933420918289557 0.06889763779527558 -0.11933420918289557 0.06889763779527558 C -0.11933420918289557 0.06889763779527558 -0.11287528169336761 0.07903612311923851 -0.11287528169336761 0.07903612311923851 C -0.11287528169336761 0.07903612311923851 -0.10555730515419001 0.08857309582294905 -0.10555730515419001 0.08857309582294905 C -0.10555730515419001 0.08857309582294905 -0.09743597378555026 0.09743597378554861 -0.09743597378555026 0.09743597378554861 C -0.09743597378555026 0.09743597378554861 -0.0885730958229507 0.10555730515419 -0.0885730958229507 0.10555730515419 C -0.0885730958229507 0.10555730515419 -0.07903612311924016 0.11287528169336597 -0.07903612311924016 0.11287528169336597 C -0.07903612311924016 0.11287528169336597 -0.0688976377952756 0.11933420918289556 -0.0688976377952756 0.11933420918289556 C -0.0688976377952756 0.11933420918289556 -0.05823479984615929 0.12488493128457864 -0.05823479984615929 0.12488493128457864 C -0.05823479984615929 0.12488493128457864 -0.047128759907080216 0.12948520365160332 -0.047128759907080216 0.12948520365160332 C -0.047128759907080216 0.12948520365160332 -0.035664041647985686 0.13310001543353428 -0.035664041647985686 0.13310001543353428 C -0.035664041647985686 0.13310001543353428 -0.02392789849741169 0.13570185573002927 -0.02392789849741169 0.13570185573002927 C -0.02392789849741169 0.13570185573002927 -0.012009649591214318 0.13727092296539942 -0.012009649591214318 0.13727092296539942 C -0.012009649591214318 0.13727092296539942 0 0.1377952755905528 0 0.1377952755905528 C 0 0.1377952755905528 0.012009649591211055 0.13727092296539942 0.012009649591211055 0.13727092296539942 C 0.012009649591211055 0.13727092296539942 0.02392789849741169 0.13570185573002927 0.02392789849741169 0.13570185573002927 C 0.02392789849741169 0.13570185573002927 0.035664041647985686 0.13310001543353428 0.035664041647985686 0.13310001543353428 C 0.035664041647985686 0.13310001543353428 0.047128759907080216 0.12948520365160332 0.047128759907080216 0.12948520365160332 C 0.047128759907080216 0.12948520365160332 0.05823479984615929 0.12488493128457864 0.05823479984615929 0.12488493128457864 C 0.05823479984615929 0.12488493128457864 0.0688976377952756 0.1193342091828972 0.0688976377952756 0.1193342091828972 C 0.0688976377952756 0.1193342091828972 0.07903612311924016 0.11287528169336597 0.07903612311924016 0.11287528169336597 C 0.07903612311924016 0.11287528169336597 0.08857309582294744 0.10555730515419164 0.08857309582294744 0.10555730515419164 C 0.08857309582294744 0.10555730515419164 0.09743597378554698 0.09743597378554861 0.09743597378554698 0.09743597378554861 C 0.09743597378554698 0.09743597378554861 0.10555730515419001 0.08857309582294905 0.10555730515419001 0.08857309582294905 C 0.10555730515419001 0.08857309582294905 0.11287528169336435 0.07903612311924015 0.11287528169336435 0.07903612311924015 C 0.11287528169336435 0.07903612311924015 0.11933420918289557 0.06889763779527722 0.11933420918289557 0.06889763779527722 C 0.11933420918289557 0.06889763779527722 0.12488493128457866 0.058234799846160916 0.12488493128457866 0.058234799846160916 C 0.12488493128457866 0.058234799846160916 0.1294852036516017 0.04712875990708184 0.1294852036516017 0.04712875990708184 C 0.1294852036516017 0.04712875990708184 0.13310001543353267 0.03566404164798568 0.13310001543353267 0.03566404164798568 C 0.13310001543353267 0.03566404164798568 0.1357018557300309 0.02392789849741332 0.1357018557300309 0.02392789849741332 C 0.1357018557300309 0.02392789849741332 0.13727092296539944 0.012009649591214316 0.13727092296539944 0.012009649591214316 C 0.13727092296539944 0.012009649591214316 0.1377952755905512 0 0.1377952755905512 0" stroke-width="0.01"></path></g></g><g fill="none" stroke="rgb(-11,-11,-11)"><g transform="matrix(1,0,0,-1,2.343248441959889,0.6893469810584971)"><path class="outline" d="M 0.1377952755905512 0 C 0.1377952755905512 0 0.13727092296539944 -0.012009649591212685 0.13727092296539944 -0.012009649591212685 C 0.13727092296539944 -0.012009649591212685 0.1357018557300309 -0.023927898497411688 0.1357018557300309 -0.023927898497411688 C 0.1357018557300309 -0.023927898497411688 0.13310001543353267 -0.03566404164798568 0.13310001543353267 -0.03566404164798568 C 0.13310001543353267 -0.03566404164798568 0.1294852036516017 -0.04712875990708021 0.1294852036516017 -0.04712875990708021 C 0.1294852036516017 -0.04712875990708021 0.12488493128457866 -0.058234799846159285 0.12488493128457866 -0.058234799846159285 C 0.12488493128457866 -0.058234799846159285 0.11933420918289557 -0.06889763779527558 0.11933420918289557 -0.06889763779527558 C 0.11933420918289557 -0.06889763779527558 0.11287528169336761 -0.07903612311924015 0.11287528169336761 -0.07903612311924015 C 0.11287528169336761 -0.07903612311924015 0.10555730515419001 -0.08857309582294905 0.10555730515419001 -0.08857309582294905 C 0.10555730515419001 -0.08857309582294905 0.09743597378555026 -0.09743597378554861 0.09743597378555026 -0.09743597378554861 C 0.09743597378555026 -0.09743597378554861 0.0885730958229507 -0.10555730515419164 0.0885730958229507 -0.10555730515419164 C 0.0885730958229507 -0.10555730515419164 0.07903612311924016 -0.11287528169336597 0.07903612311924016 -0.11287528169336597 C 0.07903612311924016 -0.11287528169336597 0.0688976377952756 -0.11933420918289556 0.0688976377952756 -0.11933420918289556 C 0.0688976377952756 -0.11933420918289556 0.05823479984615929 -0.12488493128457864 0.05823479984615929 -0.12488493128457864 C 0.05823479984615929 -0.12488493128457864 0.047128759907080216 -0.12948520365160332 0.047128759907080216 -0.12948520365160332 C 0.047128759907080216 -0.12948520365160332 0.035664041647985686 -0.13310001543353428 0.035664041647985686 -0.13310001543353428 C 0.035664041647985686 -0.13310001543353428 0.02392789849741169 -0.13570185573002927 0.02392789849741169 -0.13570185573002927 C 0.02392789849741169 -0.13570185573002927 0.012009649591214318 -0.13727092296539942 0.012009649591214318 -0.13727092296539942 C 0.012009649591214318 -0.13727092296539942 0 -0.1377952755905528 0 -0.1377952755905528 C 0 -0.1377952755905528 -0.012009649591214318 -0.13727092296539942 -0.012009649591214318 -0.13727092296539942 C -0.012009649591214318 -0.13727092296539942 -0.02392789849741169 -0.13570185573002927 -0.02392789849741169 -0.13570185573002927 C -0.02392789849741169 -0.13570185573002927 -0.035664041647985686 -0.13310001543353428 -0.035664041647985686 -0.13310001543353428 C -0.035664041647985686 -0.13310001543353428 -0.047128759907080216 -0.12948520365160332 -0.047128759907080216 -0.12948520365160332 C -0.047128759907080216 -0.12948520365160332 -0.05823479984615929 -0.12488493128457864 -0.05823479984615929 -0.12488493128457864 C -0.05823479984615929 -0.12488493128457864 -0.0688976377952756 -0.11933420918289556 -0.0688976377952756 -0.11933420918289556 C -0.0688976377952756 -0.11933420918289556 -0.07903612311924016 -0.11287528169336597 -0.07903612311924016 -0.11287528169336597 C -0.07903612311924016 -0.11287528169336597 -0.08857309582294744 -0.10555730515419164 -0.08857309582294744 -0.10555730515419164 C -0.08857309582294744 -0.10555730515419164 -0.09743597378555026 -0.09743597378554861 -0.09743597378555026 -0.09743597378554861 C -0.09743597378555026 -0.09743597378554861 -0.10555730515419001 -0.08857309582294905 -0.10555730515419001 -0.08857309582294905 C -0.10555730515419001 -0.08857309582294905 -0.11287528169336435 -0.07903612311924015 -0.11287528169336435 -0.07903612311924015 C -0.11287528169336435 -0.07903612311924015 -0.11933420918289557 -0.06889763779527722 -0.11933420918289557 -0.06889763779527722 C -0.11933420918289557 -0.06889763779527722 -0.12488493128457866 -0.058234799846160916 -0.12488493128457866 -0.058234799846160916 C -0.12488493128457866 -0.058234799846160916 -0.1294852036516017 -0.04712875990708184 -0.1294852036516017 -0.04712875990708184 C -0.1294852036516017 -0.04712875990708184 -0.13310001543353267 -0.03566404164798568 -0.13310001543353267 -0.03566404164798568 C -0.13310001543353267 -0.03566404164798568 -0.1357018557300309 -0.023927898497411688 -0.1357018557300309 -0.023927898497411688 C -0.1357018557300309 -0.023927898497411688 -0.13727092296539944 -0.012009649591212685 -0.13727092296539944 -0.012009649591212685 C -0.13727092296539944 -0.012009649591212685 -0.1377952755905512 0 -0.1377952755905512 0 C -0.1377952755905512 0 -0.13727092296539944 0.012009649591212685 -0.13727092296539944 0.012009649591212685 C -0.13727092296539944 0.012009649591212685 -0.1357018557300309 0.023927898497411688 -0.1357018557300309 0.023927898497411688 C -0.1357018557300309 0.023927898497411688 -0.13310001543353595 0.03566404164798568 -0.13310001543353595 0.03566404164798568 C -0.13310001543353595 0.03566404164798568 -0.1294852036516017 0.04712875990708021 -0.1294852036516017 0.04712875990708021 C -0.1294852036516017 0.04712875990708021 -0.12488493128457866 0.058234799846159285 -0.12488493128457866 0.058234799846159285 C -0.12488493128457866 0.058234799846159285 -0.11933420918289557 0.06889763779527558 -0.11933420918289557 0.06889763779527558 C -0.11933420918289557 0.06889763779527558 -0.11287528169336761 0.07903612311923851 -0.11287528169336761 0.07903612311923851 C -0.11287528169336761 0.07903612311923851 -0.10555730515419001 0.08857309582294905 -0.10555730515419001 0.08857309582294905 C -0.10555730515419001 0.08857309582294905 -0.09743597378555026 0.09743597378554861 -0.09743597378555026 0.09743597378554861 C -0.09743597378555026 0.09743597378554861 -0.0885730958229507 0.10555730515419 -0.0885730958229507 0.10555730515419 C -0.0885730958229507 0.10555730515419 -0.07903612311924016 0.11287528169336597 -0.07903612311924016 0.11287528169336597 C -0.07903612311924016 0.11287528169336597 -0.0688976377952756 0.11933420918289556 -0.0688976377952756 0.11933420918289556 C -0.0688976377952756 0.11933420918289556 -0.05823479984615929 0.12488493128457864 -0.05823479984615929 0.12488493128457864 C -0.05823479984615929 0.12488493128457864 -0.047128759907080216 0.12948520365160332 -0.047128759907080216 0.12948520365160332 C -0.047128759907080216 0.12948520365160332 -0.035664041647985686 0.13310001543353428 -0.035664041647985686 0.13310001543353428 C -0.035664041647985686 0.13310001543353428 -0.02392789849741169 0.13570185573002927 -0.02392789849741169 0.13570185573002927 C -0.02392789849741169 0.13570185573002927 -0.012009649591214318 0.13727092296539942 -0.012009649591214318 0.13727092296539942 C -0.012009649591214318 0.13727092296539942 0 0.1377952755905528 0 0.1377952755905528 C 0 0.1377952755905528 0.012009649591211055 0.13727092296539942 0.012009649591211055 0.13727092296539942 C 0.012009649591211055 0.13727092296539942 0.02392789849741169 0.13570185573002927 0.02392789849741169 0.13570185573002927 C 0.02392789849741169 0.13570185573002927 0.035664041647985686 0.13310001543353428 0.035664041647985686 0.13310001543353428 C 0.035664041647985686 0.13310001543353428 0.047128759907080216 0.12948520365160332 0.047128759907080216 0.12948520365160332 C 0.047128759907080216 0.12948520365160332 0.05823479984615929 0.12488493128457864 0.05823479984615929 0.12488493128457864 C 0.05823479984615929 0.12488493128457864 0.0688976377952756 0.1193342091828972 0.0688976377952756 0.1193342091828972 C 0.0688976377952756 0.1193342091828972 0.07903612311924016 0.11287528169336597 0.07903612311924016 0.11287528169336597 C 0.07903612311924016 0.11287528169336597 0.08857309582294744 0.10555730515419164 0.08857309582294744 0.10555730515419164 C 0.08857309582294744 0.10555730515419164 0.09743597378554698 0.09743597378554861 0.09743597378554698 0.09743597378554861 C 0.09743597378554698 0.09743597378554861 0.10555730515419001 0.08857309582294905 0.10555730515419001 0.08857309582294905 C 0.10555730515419001 0.08857309582294905 0.11287528169336435 0.07903612311924015 0.11287528169336435 0.07903612311924015 C 0.11287528169336435 0.07903612311924015 0.11933420918289557 0.06889763779527722 0.11933420918289557 0.06889763779527722 C 0.11933420918289557 0.06889763779527722 0.12488493128457866 0.058234799846160916 0.12488493128457866 0.058234799846160916 C 0.12488493128457866 0.058234799846160916 0.1294852036516017 0.04712875990708184 0.1294852036516017 0.04712875990708184 C 0.1294852036516017 0.04712875990708184 0.13310001543353267 0.03566404164798568 0.13310001543353267 0.03566404164798568 C 0.13310001543353267 0.03566404164798568 0.1357018557300309 0.02392789849741332 0.1357018557300309 0.02392789849741332 C 0.1357018557300309 0.02392789849741332 0.13727092296539944 0.012009649591214316 0.13727092296539944 0.012009649591214316 C 0.13727092296539944 0.012009649591214316 0.1377952755905512 0 0.1377952755905512 0" stroke-width="0.01"></path></g></g><g fill="none" stroke="rgb(-11,-11,-11)"><g transform="matrix(1,0,0,-1,1.5164768572837506,0.6893469447831029)"><path class="outline" d="M 0.8464566240462154 0.6889763416773601 C 0.8464566240462159 0.6889763416773601 0.8464566240462154 0.6889763416773615 0.8464566240462154 0.6889763416773615 C 0.8464566240462154 0.6889763416773615 0.9537738904008519 0.6838292678998142 1.0196810334950377 0.6661692550631887 C 1.0855881765892235 0.6485092422265631 1.122011463727825 0.6334229344469373 1.1811022933375572 0.5993070503387788 C 1.2401931229472896 0.5651911662306204 1.2714690848107892 0.5411922273694835 1.319716466565904 0.4929448456143678 C 1.3679638483210188 0.44469746385925213 1.391962787182152 0.4134215019957539 1.4260786712903095 0.35433067238602106 C 1.460194555398467 0.29523984277628823 1.4752808631780927 0.25881655563768524 1.492940876014718 0.1929094125435015 C 1.5106008888513434 0.12700226944931775 1.5141079496554561 0.03497225677198983 1.5157479626288934 0.019685003094684777 C 1.5173879756023307 0.004397749417379722 1.5157479626288934 -0.01968507564547325 1.5157479626288934 -0.01968507564547325 C 1.5157479626288934 -0.01968507564547325 1.5157479626288934 -0.01968507564547325 1.5157479626288934 -0.01968507564547325 C 1.5157479626288934 -0.01968507564547325 1.5106006711296214 -0.12700709154514478 1.492940876014718 -0.19291342210216803 C 1.4752810808998147 -0.25881975265919127 1.4601944993883091 -0.2952407877175037 1.4260786712903095 -0.3543307449368123 C 1.39196284319231 -0.4134207021561209 1.3679634606314792 -0.44469714872361854 1.319716466565904 -0.49294491816515906 C 1.2714694725003288 -0.5411926876066996 1.2401933388064483 -0.5651942757822981 1.1811022933375601 -0.5993110598974426 C 1.122011247868672 -0.6334278440125871 1.085588176589365 -0.6485140271633414 1.0196810334950348 -0.666173264621851 C 0.9537738904007046 -0.6838325020803606 0.9146834892329293 -0.6881427204795117 0.8464566240462154 -0.6889764142281514 C 0.7782297588595014 -0.689810107976791 -0.8464567617805551 -0.68897641422815 -0.8464567617805551 -0.68897641422815 C -0.8464567617805551 -0.68897641422815 -0.8464567617805511 -0.6889764142281515 -0.8464567617805523 -0.6889764142281514 C -0.8464567617805535 -0.6889764142281513 -0.9537785838391294 -0.6838323363061707 -1.0196851082372498 -0.666173264621851 C -1.0855916326353703 -0.6485141929375313 -1.1220126157539865 -0.6334271337730738 -1.1811024310718943 -0.5993110598974426 C -1.240192246389802 -0.5651949860218114 -1.2714731595529936 -0.5411922999202758 -1.3197205413081106 -0.49294491816515906 C -1.3679679230632276 -0.4446975364100423 -1.3919669179345249 -0.4134207021561209 -1.4260827460325245 -0.3543307449368123 C -1.4601985741305241 -0.2952407877175037 -1.475285879072613 -0.2588199465002884 -1.492944950756933 -0.19291342210216803 C -1.510604022441253 -0.1270068977040477 -1.5141083972920706 -0.034972362565844003 -1.5157481003632334 -0.01968507564547325 C -1.5173878034343962 -0.004397788725102497 -1.5157481003632334 0.019685003094684777 -1.5157481003632334 0.019685003094684777 C -1.5157481003632334 0.019685003094684777 -1.5157481003632334 0.019685003094684777 -1.5157481003632334 0.019685003094684777 C -1.5157481003632334 0.019685003094684777 -1.510604188215443 0.12700226944917248 -1.492944950756933 0.1929094125435015 C -1.475285713298423 0.2588165556378305 -1.4601986301406835 0.29523984277628756 -1.4260827460325245 0.35433067238602106 C -1.3919668619243655 0.41342150199575456 -1.3679683107496547 0.4446978515487919 -1.3197205413081134 0.4929448456143678 C -1.2714727718665721 0.5411918396799437 -1.2401925821346003 0.5651915579873766 -1.1811024310718943 0.5993070503387788 C -1.1220122800091883 0.6334225426901811 -1.0855914387942733 0.648509459948286 -1.0196851082372498 0.6661692550631887 C -0.9537787776802261 0.6838290501780914 -0.9146853501243144 0.6881424846894374 -0.8464567617805523 0.6889763416773601 C -0.7782281734367902 0.6898101986652828 0.8464566240462148 0.6889763416773601 0.8464566240462154 0.6889763416773601" stroke-width="0.01"></path></g></g></g>
  </g>
</svg>