  999
DXF file created by gear template generator.  2019-08-12T10:54:29
  0
SECTION
  2
ENTITIES
 0
LINE
 8
const_1
 10
4.41259
 20
0
 30
0
 11
4.41259
 21
88.82519
 31
 0
 0
LINE
 8
const_1
 10
14.41259
 20
0
 30
0
 11
14.41259
 21
88.82519
 31
 0
 0
LINE
 8
const_1
 10
24.41259
 20
0
 30
0
 11
24.41259
 21
88.82519
 31
 0
 0
LINE
 8
const_1
 10
34.41259
 20
0
 30
0
 11
34.41259
 21
88.82519
 31
 0
 0
LINE
 8
const_1
 10
44.41259
 20
0
 30
0
 11
44.41259
 21
88.82519
 31
 0
 0
LINE
 8
const_1
 10
54.41259
 20
0
 30
0
 11
54.41259
 21
88.82519
 31
 0
 0
LINE
 8
const_1
 10
64.41259
 20
0
 30
0
 11
64.41259
 21
88.82519
 31
 0
 0
LINE
 8
const_1
 10
74.41259
 20
0
 30
0
 11
74.41259
 21
88.82519
 31
 0
 0
LINE
 8
const_1
 10
84.41259
 20
0
 30
0
 11
84.41259
 21
88.82519
 31
 0
 0
LINE
 8
const_1
 10
0
 20
4.41259
 30
0
 11
88.82519
 21
4.41259
 31
 0
 0
LINE
 8
const_1
 10
0
 20
14.41259
 30
0
 11
88.82519
 21
14.41259
 31
 0
 0
LINE
 8
const_1
 10
0
 20
24.41259
 30
0
 11
88.82519
 21
24.41259
 31
 0
 0
LINE
 8
const_1
 10
0
 20
34.41259
 30
0
 11
88.82519
 21
34.41259
 31
 0
 0
LINE
 8
const_1
 10
0
 20
44.41259
 30
0
 11
88.82519
 21
44.41259
 31
 0
 0
LINE
 8
const_1
 10
0
 20
54.41259
 30
0
 11
88.82519
 21
54.41259
 31
 0
 0
LINE
 8
const_1
 10
0
 20
64.41259
 30
0
 11
88.82519
 21
64.41259
 31
 0
 0
LINE
 8
const_1
 10
0
 20
74.41259
 30
0
 11
88.82519
 21
74.41259
 31
 0
 0
LINE
 8
const_1
 10
0
 20
84.41259
 30
0
 11
88.82519
 21
84.41259
 31
 0
 0
LWPOLYLINE
 8
const_0
 90
660
 70
1
 10
80.23925
 20
50.26608
 10
80.4529
 20
49.77379
 10
80.61617
 20
49.59107
 10
80.77089
 20
49.46188
 10
80.92112
 20
49.36144
 10
81.06844
 20
49.28005
 10
81.21365
 20
49.21269
 10
81.49956
 20
49.10902
 10
81.78114
 20
49.03626
 10
82.06545
 20
48.93839
 10
82.60959
 20
48.94191
 10
83.15967
 20
48.89366
 10
83.71336
 20
48.8103
 10
84.26971
 20
48.69748
 10
84.82802
 20
48.55836
 10
85.38776
 20
48.39494
 10
85.94845
 20
48.20867
 10
86.50965
 20
48.00061
 10
87.07097
 20
47.77157
 10
87.63201
 20
47.52223
 10
88.19241
 20
47.25311
 10
88.7518
 20
46.96468
 10
88.7518
 20
41.86051
 10
88.19241
 20
41.57208
 10
87.63201
 20
41.30296
 10
87.07097
 20
41.05362
 10
86.50965
 20
40.82458
 10
85.94845
 20
40.61652
 10
85.38776
 20
40.43025
 10
84.82802
 20
40.26683
 10
84.26971
 20
40.12771
 10
83.71336
 20
40.01489
 10
83.15967
 20
39.93153
 10
82.60959
 20
39.88328
 10
82.06545
 20
39.8868
 10
81.78114
 20
39.78893
 10
81.49956
 20
39.71617
 10
81.21365
 20
39.6125
 10
81.06844
 20
39.54514
 10
80.92112
 20
39.46375
 10
80.77089
 20
39.36331
 10
80.61617
 20
39.23412
 10
80.4529
 20
39.0514
 10
80.23925
 20
38.55911
 10
79.5227
 20
35.18801
 10
79.51764
 20
34.65138
 10
79.59248
 20
34.41805
 10
79.68128
 20
34.23709
 10
79.77767
 20
34.08423
 10
79.87915
 20
33.94997
 10
79.98441
 20
33.82937
 10
80.20343
 20
33.61836
 10
80.43108
 20
33.43736
 10
80.65099
 20
33.23232
 10
81.14953
 20
33.01421
 10
81.63242
 20
32.7464
 10
82.10434
 20
32.44503
 10
82.5667
 20
32.11569
 10
83.02016
 20
31.7615
 10
83.46504
 20
31.38455
 10
83.90149
 20
30.98633
 10
84.32955
 20
30.56799
 10
84.74918
 20
30.13045
 10
85.1603
 20
29.67447
 10
85.56279
 20
29.20068
 10
85.9565
 20
28.70966
 10
83.88045
 20
24.04677
 10
83.2521
 20
24.0108
 10
82.63069
 20
23.99288
 10
82.01674
 20
23.99329
 10
81.41079
 20
24.01237
 10
80.81348
 20
24.05055
 10
80.22551
 20
24.10844
 10
79.64769
 20
24.18682
 10
79.08106
 20
24.28681
 10
78.52693
 20
24.41003
 10
77.98719
 20
24.55909
 10
77.46505
 20
24.73874
 10
76.96938
 20
24.96328
 10
76.66985
 20
24.98951
 10
76.38302
 20
25.03757
 10
76.07965
 20
25.05915
 10
75.9196
 20
25.05668
 10
75.75192
 20
25.04224
 10
75.57383
 20
25.01159
 10
75.37993
 20
24.9565
 10
75.15645
 20
24.85599
 10
74.76105
 20
24.49315
 10
72.7353
 20
21.70495
 10
72.51241
 20
21.21677
 10
72.48587
 20
20.97318
 10
72.49339
 20
20.77174
 10
72.51928
 20
20.59289
 10
72.55737
 20
20.42896
 10
72.60448
 20
20.27598
 10
72.71874
 20
19.99413
 10
72.85308
 20
19.73618
 10
72.97059
 20
19.45942
 10
73.33731
 20
19.0574
 10
73.66953
 20
18.61633
 10
73.97807
 20
18.14907
 10
74.2665
 20
17.66014
 10
74.5367
 20
17.15213
 10
74.7898
 20
16.62682
 10
75.02654
 20
16.08551
 10
75.24744
 20
15.52923
 10
75.45283
 20
14.95884
 10
75.64294
 20
14.37506
 10
75.81793
 20
13.77853
 10
75.97788
 20
13.16982
 10
72.18475
 20
9.75447
 10
71.59609
 20
9.97717
 10
71.02112
 20
10.21356
 10
70.46041
 20
10.46365
 10
69.91461
 20
10.72754
 10
69.38447
 20
11.00537
 10
68.87087
 20
11.2974
 10
68.37489
 20
11.60402
 10
67.89792
 20
11.92584
 10
67.44181
 20
12.2638
 10
67.00937
 20
12.61949
 10
66.60544
 20
12.99599
 10
66.24395
 20
13.40272
 10
65.98098
 20
13.54852
 10
65.7385
 20
13.70909
 10
65.47014
 20
13.85219
 10
65.32291
 20
13.91503
 10
65.16386
 20
13.97005
 10
64.9887
 20
14.01448
 10
64.78915
 20
14.04302
 10
64.54412
 20
14.04209
 10
64.03532
 20
13.87145
 10
61.05064
 20
12.14825
 10
60.64846
 20
11.79293
 10
60.52514
 20
11.58119
 10
60.45008
 20
11.39411
 10
60.40098
 20
11.2202
 10
60.3691
 20
11.05495
 10
60.34991
 20
10.89603
 10
60.33966
 20
10.59207
 10
60.35747
 20
10.30178
 10
60.35225
 20
10.00115
 10
60.52375
 20
9.48473
 10
60.64784
 20
8.94667
 10
60.73966
 20
8.39431
 10
60.80429
 20
7.83033
 10
60.8445
 20
7.25635
 10
60.86206
 20
6.67351
 10
60.85816
 20
6.0827
 10
60.8337
 20
5.48467
 10
60.78934
 20
4.88005
 10
60.72557
 20
4.26942
 10
60.6428
 20
3.65328
 10
60.54134
 20
3.03214
 10
55.68699
 20
1.45486
 10
55.23981
 20
1.89775
 10
54.81069
 20
2.34756
 10
54.40018
 20
2.80409
 10
54.0089
 20
3.26716
 10
53.6376
 20
3.7366
 10
53.28718
 20
4.21228
 10
52.9588
 20
4.69413
 10
52.65395
 20
5.18212
 10
52.37474
 20
5.67638
 10
52.12435
 20
6.17722
 10
51.90848
 20
6.68546
 10
51.74368
 20
7.20406
 10
51.56275
 20
7.4442
 10
51.40653
 20
7.68952
 10
51.21958
 20
7.9294
 10
51.11064
 20
8.04669
 10
50.98772
 20
8.16164
 10
50.84577
 20
8.27348
 10
50.67509
 20
8.38072
 10
50.45086
 20
8.47953
 10
49.91664
 20
8.53059
 10
46.48911
 20
8.17034
 10
45.97718
 20
8.00933
 10
45.7784
 20
7.86605
 10
45.63374
 20
7.72568
 10
45.51815
 20
7.58677
 10
45.42181
 20
7.44877
 10
45.33964
 20
7.31139
 10
45.20665
 20
7.03788
 10
45.10485
 20
6.76545
 10
44.9778
 20
6.49294
 10
44.92442
 20
5.9514
 10
44.81894
 20
5.40939
 10
44.67816
 20
4.86743
 10
44.50781
 20
4.32593
 10
44.31108
 20
3.78522
 10
44.09006
 20
3.24563
 10
43.8462
 20
2.70748
 10
43.58061
 20
2.1711
 10
43.29416
 20
1.6368
 10
42.98754
 20
1.10489
 10
42.66132
 20
0.57569
 10
42.31599
 20
0.04952
 10
37.23978
 20
0.58305
 10
37.0114
 20
1.16952
 10
36.80234
 20
1.75498
 10
36.613
 20
2.33902
 10
36.4439
 20
2.9212
 10
36.29563
 20
3.50108
 10
36.16899
 20
4.07816
 10
36.06498
 20
4.65192
 10
35.98498
 20
5.22171
 10
35.93094
 20
5.7868
 10
35.90591
 20
6.34618
 10
35.91542
 20
6.89829
 10
35.9758
 20
7.43908
 10
35.90819
 20
7.73206
 10
35.86526
 20
8.0197
 10
35.79203
 20
8.31489
 10
35.74022
 20
8.46635
 10
35.67468
 20
8.62136
 10
35.59049
 20
8.78126
 10
35.47818
 20
8.94865
 10
35.31353
 20
9.13012
 10
34.84627
 20
9.39406
 10
31.56854
 20
10.45905
 10
31.03538
 20
10.52018
 10
30.7955
 20
10.47014
 10
30.60625
 20
10.40074
 10
30.44416
 20
10.32086
 10
30.30002
 20
10.23398
 10
30.16908
 20
10.1419
 10
29.93633
 20
9.94613
 10
29.73253
 20
9.73865
 10
29.50562
 20
9.54137
 10
29.2366
 20
9.06837
 10
28.91977
 20
8.61612
 10
28.57073
 20
8.17828
 10
28.19486
 20
7.75288
 10
27.79522
 20
7.33893
 10
27.37383
 20
6.93588
 10
26.93217
 20
6.54345
 10
26.47138
 20
6.16147
 10
25.99237
 20
5.78987
 10
25.49591
 20
5.42867
 10
24.98265
 20
5.0779
 10
24.45316
 20
4.73767
 10
20.03282
 20
7.28975
 10
20.06273
 20
7.91842
 10
20.10986
 20
8.5383
 10
20.17445
 20
9.14885
 10
20.25676
 20
9.74948
 10
20.35717
 20
10.33953
 10
20.4762
 20
10.91823
 10
20.61454
 20
11.48469
 10
20.77321
 20
12.03777
 10
20.95369
 20
12.57598
 10
21.15834
 20
13.09718
 10
21.39159
 20
13.59768
 10
21.66671
 20
14.06717
 10
21.72411
 20
14.36231
 10
21.80189
 20
14.64255
 10
21.85506
 20
14.942
 10
21.86933
 20
15.10144
 10
21.8725
 20
15.2697
 10
21.86064
 20
15.45003
 10
21.82612
 20
15.64862
 10
21.74951
 20
15.88138
 10
21.43
 20
16.31254
 10
18.86881
 20
18.61864
 10
18.40661
 20
18.89134
 10
18.16712
 20
18.94319
 10
17.96601
 20
18.95677
 10
17.78543
 20
18.94972
 10
17.61842
 20
18.92897
 10
17.46134
 20
18.89812
 10
17.1691
 20
18.81394
 10
16.89852
 20
18.70729
 10
16.61099
 20
18.61936
 10
16.17284
 20
18.29667
 10
15.69946
 20
18.01238
 10
15.20251
 20
17.75437
 10
14.68611
 20
17.51862
 10
14.15264
 20
17.30301
 10
13.60375
 20
17.10621
 10
13.04066
 20
16.92734
 10
12.46434
 20
16.7658
 10
11.8756
 20
16.62116
 10
11.27515
 20
16.49311
 10
10.6636
 20
16.38144
 10
10.0415
 20
16.28598
 10
7.04135
 20
20.41534
 10
7.32437
 20
20.97749
 10
7.61956
 20
21.52461
 10
7.92689
 20
22.0561
 10
8.24638
 20
22.57133
 10
8.57811
 20
23.06952
 10
8.92222
 20
23.54978
 10
9.27901
 20
24.01099
 10
9.64892
 20
24.45172
 10
10.0327
 20
24.87
 10
10.43165
 20
25.26289
 10
10.84831
 20
25.62526
 10
11.2906
 20
25.94225
 10
11.46308
 20
26.18853
 10
11.64812
 20
26.41291
 10
11.81849
 20
26.66484
 10
11.89638
 20
26.80469
 10
11.96772
 20
26.95712
 10
12.03022
 20
27.12668
 10
12.07946
 20
27.32215
 10
12.10415
 20
27.56594
 10
11.98762
 20
28.08979
 10
10.58584
 20
31.23824
 10
10.27452
 20
31.67536
 10
10.07683
 20
31.82013
 10
9.89862
 20
31.91433
 10
9.73079
 20
31.98134
 10
9.56977
 20
32.03032
 10
9.41373
 20
32.06602
 10
9.11251
 20
32.10799
 10
8.82195
 20
32.12061
 10
8.52351
 20
32.15723
 10
7.99199
 20
32.04065
 10
7.44391
 20
31.97348
 10
6.88497
 20
31.93991
 10
6.31733
 20
31.93458
 10
5.74229
 20
31.95459
 10
5.16081
 20
31.99805
 10
4.57365
 20
32.06368
 10
3.98145
 20
32.15052
 10
3.38478
 20
32.25784
 10
2.78416
 20
32.38509
 10
2.18005
 20
32.53181
 10
1.57291
 20
32.69764
 10
0.5117
 20
37.69027
 10
0.9989
 20
38.08871
 10
1.4911
 20
38.46845
 10
1.98804
 20
38.829
 10
2.48947
 20
39.16973
 10
2.99515
 20
39.48993
 10
3.50486
 20
39.7887
 10
4.01839
 20
40.06492
 10
4.53558
 20
40.31709
 10
5.05631
 20
40.54311
 10
5.58058
 20
40.73977
 10
6.1086
 20
40.90133
 10
6.64158
 20
41.01102
 10
6.89933
 20
41.16586
 10
7.15963
 20
41.29558
 10
7.41774
 20
41.45643
 10
7.54577
 20
41.55251
 10
7.67294
 20
41.66275
 10
7.79901
 20
41.79222
 10
7.92349
 20
41.95077
 10
8.04521
 20
42.16343
 10
8.15183
 20
42.68939
 10
8.15183
 20
46.1358
 10
8.04521
 20
46.66175
 10
7.92349
 20
46.87442
 10
7.79901
 20
47.03297
 10
7.67294
 20
47.16244
 10
7.54577
 20
47.27268
 10
7.41774
 20
47.36876
 10
7.15963
 20
47.52961
 10
6.89933
 20
47.65933
 10
6.64158
 20
47.81417
 10
6.1086
 20
47.92386
 10
5.58058
 20
48.08542
 10
5.05631
 20
48.28208
 10
4.53558
 20
48.5081
 10
4.01839
 20
48.76027
 10
3.50486
 20
49.03649
 10
2.99515
 20
49.33526
 10
2.48947
 20
49.65546
 10
1.98804
 20
49.99619
 10
1.4911
 20
50.35674
 10
0.9989
 20
50.73648
 10
0.5117
 20
51.13492
 10
1.57291
 20
56.12755
 10
2.18005
 20
56.29338
 10
2.78416
 20
56.4401
 10
3.38478
 20
56.56735
 10
3.98145
 20
56.67467
 10
4.57365
 20
56.76151
 10
5.16081
 20
56.82714
 10
5.74229
 20
56.8706
 10
6.31733
 20
56.89061
 10
6.88497
 20
56.88528
 10
7.44391
 20
56.85171
 10
7.99199
 20
56.78454
 10
8.52351
 20
56.66796
 10
8.82195
 20
56.70458
 10
9.11251
 20
56.7172
 10
9.41373
 20
56.75917
 10
9.56977
 20
56.79487
 10
9.73079
 20
56.84385
 10
9.89862
 20
56.91086
 10
10.07683
 20
57.00506
 10
10.27452
 20
57.14983
 10
10.58584
 20
57.58695
 10
11.98762
 20
60.7354
 10
12.10415
 20
61.25925
 10
12.07946
 20
61.50304
 10
12.03022
 20
61.69851
 10
11.96772
 20
61.86807
 10
11.89638
 20
62.0205
 10
11.81849
 20
62.16035
 10
11.64812
 20
62.41228
 10
11.46308
 20
62.63666
 10
11.2906
 20
62.88294
 10
10.84831
 20
63.19993
 10
10.43165
 20
63.56229
 10
10.0327
 20
63.95519
 10
9.64892
 20
64.37347
 10
9.27901
 20
64.8142
 10
8.92222
 20
65.27541
 10
8.57811
 20
65.75567
 10
8.24638
 20
66.25386
 10
7.92689
 20
66.76909
 10
7.61956
 20
67.30058
 10
7.32437
 20
67.8477
 10
7.04135
 20
68.40985
 10
10.0415
 20
72.53921
 10
10.6636
 20
72.44375
 10
11.27515
 20
72.33208
 10
11.8756
 20
72.20403
 10
12.46434
 20
72.05939
 10
13.04066
 20
71.89785
 10
13.60375
 20
71.71898
 10
14.15264
 20
71.52218
 10
14.68611
 20
71.30657
 10
15.20251
 20
71.07082
 10
15.69946
 20
70.81281
 10
16.17284
 20
70.52852
 10
16.61099
 20
70.20583
 10
16.89852
 20
70.1179
 10
17.1691
 20
70.01125
 10
17.46134
 20
69.92707
 10
17.61842
 20
69.89622
 10
17.78543
 20
69.87547
 10
17.96601
 20
69.86842
 10
18.16712
 20
69.882
 10
18.40661
 20
69.93385
 10
18.86881
 20
70.20655
 10
21.43
 20
72.51265
 10
21.74951
 20
72.94381
 10
21.82612
 20
73.17657
 10
21.86064
 20
73.37516
 10
21.8725
 20
73.55549
 10
21.86933
 20
73.72375
 10
21.85506
 20
73.88319
 10
21.80189
 20
74.18264
 10
21.72411
 20
74.46288
 10
21.66671
 20
74.75802
 10
21.39159
 20
75.22751
 10
21.15834
 20
75.72801
 10
20.95369
 20
76.24921
 10
20.77321
 20
76.78742
 10
20.61454
 20
77.3405
 10
20.4762
 20
77.90696
 10
20.35717
 20
78.48566
 10
20.25676
 20
79.07571
 10
20.17445
 20
79.67634
 10
20.10986
 20
80.28689
 10
20.06273
 20
80.90677
 10
20.03282
 20
81.53544
 10
24.45316
 20
84.08752
 10
24.98265
 20
83.74729
 10
25.49591
 20
83.39652
 10
25.99237
 20
83.03532
 10
26.47138
 20
82.66372
 10
26.93217
 20
82.28174
 10
27.37383
 20
81.8893
 10
27.79522
 20
81.48626
 10
28.19486
 20
81.07231
 10
28.57073
 20
80.64691
 10
28.91977
 20
80.20907
 10
29.2366
 20
79.75682
 10
29.50562
 20
79.28382
 10
29.73253
 20
79.08654
 10
29.93633
 20
78.87906
 10
30.16908
 20
78.68329
 10
30.30002
 20
78.59121
 10
30.44416
 20
78.50433
 10
30.60625
 20
78.42445
 10
30.7955
 20
78.35505
 10
31.03538
 20
78.30501
 10
31.56854
 20
78.36614
 10
34.84627
 20
79.43113
 10
35.31353
 20
79.69507
 10
35.47818
 20
79.87654
 10
35.59049
 20
80.04393
 10
35.67468
 20
80.20383
 10
35.74022
 20
80.35884
 10
35.79203
 20
80.5103
 10
35.86526
 20
80.80549
 10
35.90819
 20
81.09313
 10
35.9758
 20
81.38611
 10
35.91542
 20
81.9269
 10
35.90591
 20
82.47901
 10
35.93094
 20
83.03839
 10
35.98498
 20
83.60348
 10
36.06498
 20
84.17327
 10
36.16899
 20
84.74703
 10
36.29563
 20
85.32411
 10
36.4439
 20
85.90399
 10
36.613
 20
86.48617
 10
36.80234
 20
87.07021
 10
37.0114
 20
87.65566
 10
37.23978
 20
88.24214
 10
42.31599
 20
88.77567
 10
42.66132
 20
88.2495
 10
42.98754
 20
87.7203
 10
43.29416
 20
87.18839
 10
43.58061
 20
86.65409
 10
43.8462
 20
86.11771
 10
44.09006
 20
85.57956
 10
44.31108
 20
85.03997
 10
44.50781
 20
84.49926
 10
44.67816
 20
83.95776
 10
44.81894
 20
83.4158
 10
44.92442
 20
82.87379
 10
44.9778
 20
82.33225
 10
45.10485
 20
82.05974
 10
45.20665
 20
81.78731
 10
45.33964
 20
81.5138
 10
45.42181
 20
81.37642
 10
45.51815
 20
81.23842
 10
45.63374
 20
81.09951
 10
45.7784
 20
80.95914
 10
45.97718
 20
80.81586
 10
46.48911
 20
80.65485
 10
49.91664
 20
80.2946
 10
50.45086
 20
80.34566
 10
50.67509
 20
80.44447
 10
50.84577
 20
80.55171
 10
50.98772
 20
80.66355
 10
51.11064
 20
80.7785
 10
51.21958
 20
80.89579
 10
51.40653
 20
81.13567
 10
51.56275
 20
81.38099
 10
51.74368
 20
81.62113
 10
51.90848
 20
82.13973
 10
52.12435
 20
82.64797
 10
52.37474
 20
83.14881
 10
52.65395
 20
83.64307
 10
52.9588
 20
84.13106
 10
53.28718
 20
84.61291
 10
53.6376
 20
85.08859
 10
54.0089
 20
85.55803
 10
54.40018
 20
86.0211
 10
54.81069
 20
86.47763
 10
55.23981
 20
86.92744
 10
55.68699
 20
87.37033
 10
60.54134
 20
85.79305
 10
60.6428
 20
85.17191
 10
60.72557
 20
84.55577
 10
60.78934
 20
83.94514
 10
60.8337
 20
83.34052
 10
60.85816
 20
82.74249
 10
60.86206
 20
82.15168
 10
60.8445
 20
81.56884
 10
60.80429
 20
80.99486
 10
60.73966
 20
80.43088
 10
60.64784
 20
79.87852
 10
60.52375
 20
79.34046
 10
60.35225
 20
78.82404
 10
60.35747
 20
78.52341
 10
60.33966
 20
78.23312
 10
60.34991
 20
77.92916
 10
60.3691
 20
77.77024
 10
60.40098
 20
77.60499
 10
60.45008
 20
77.43108
 10
60.52514
 20
77.244
 10
60.64846
 20
77.03226
 10
61.05064
 20
76.67694
 10
64.03532
 20
74.95374
 10
64.54412
 20
74.7831
 10
64.78915
 20
74.78217
 10
64.9887
 20
74.81071
 10
65.16386
 20
74.85514
 10
65.32291
 20
74.91016
 10
65.47014
 20
74.973
 10
65.7385
 20
75.1161
 10
65.98098
 20
75.27667
 10
66.24395
 20
75.42247
 10
66.60544
 20
75.8292
 10
67.00937
 20
76.2057
 10
67.44181
 20
76.56139
 10
67.89792
 20
76.89935
 10
68.37489
 20
77.22117
 10
68.87087
 20
77.52779
 10
69.38447
 20
77.81982
 10
69.91461
 20
78.09765
 10
70.46041
 20
78.36154
 10
71.02112
 20
78.61163
 10
71.59609
 20
78.84802
 10
72.18475
 20
79.07072
 10
75.97788
 20
75.65537
 10
75.81793
 20
75.04666
 10
75.64294
 20
74.45013
 10
75.45283
 20
73.86635
 10
75.24744
 20
73.29596
 10
75.02654
 20
72.73968
 10
74.7898
 20
72.19837
 10
74.5367
 20
71.67306
 10
74.2665
 20
71.16505
 10
73.97807
 20
70.67612
 10
73.66953
 20
70.20886
 10
73.33731
 20
69.76779
 10
72.97059
 20
69.36577
 10
72.85308
 20
69.08901
 10
72.71874
 20
68.83106
 10
72.60448
 20
68.54921
 10
72.55737
 20
68.39623
 10
72.51928
 20
68.2323
 10
72.49339
 20
68.05345
 10
72.48587
 20
67.85201
 10
72.51241
 20
67.60842
 10
72.7353
 20
67.12024
 10
74.76105
 20
64.33204
 10
75.15645
 20
63.9692
 10
75.37993
 20
63.86869
 10
75.57383
 20
63.8136
 10
75.75192
 20
63.78295
 10
75.9196
 20
63.76851
 10
76.07965
 20
63.76604
 10
76.38302
 20
63.78762
 10
76.66985
 20
63.83568
 10
76.96938
 20
63.86191
 10
77.46505
 20
64.08645
 10
77.98719
 20
64.2661
 10
78.52693
 20
64.41516
 10
79.08106
 20
64.53838
 10
79.64769
 20
64.63837
 10
80.22551
 20
64.71675
 10
80.81348
 20
64.77464
 10
81.41079
 20
64.81282
 10
82.01674
 20
64.8319
 10
82.63069
 20
64.83231
 10
83.2521
 20
64.81439
 10
83.88045
 20
64.77842
 10
85.9565
 20
60.11553
 10
85.56279
 20
59.62451
 10
85.1603
 20
59.15072
 10
84.74918
 20
58.69474
 10
84.32955
 20
58.2572
 10
83.90149
 20
57.83886
 10
83.46504
 20
57.44064
 10
83.02016
 20
57.06369
 10
82.5667
 20
56.7095
 10
82.10434
 20
56.38016
 10
81.63242
 20
56.07879
 10
81.14953
 20
55.81098
 10
80.65099
 20
55.59287
 10
80.43108
 20
55.38783
 10
80.20343
 20
55.20683
 10
79.98441
 20
54.99582
 10
79.87915
 20
54.87522
 10
79.77767
 20
54.74096
 10
79.68128
 20
54.5881
 10
79.59248
 20
54.40714
 10
79.51764
 20
54.17381
 10
79.5227
 20
53.63718
 0
CIRCLE
 8
const_0
 10
44.41259
 20
44.41259
 40
30
  0
ENDSEC
  0
EOF
