  0
SECTION
  2
HEADER
  9
$ACADVER
  1
AC1014
  9
$HANDSEED
  5
FFFF
  9
$MEASUREMENT
 70
     1
  0
ENDSEC
  0
SECTION
  2
TABLES
  0
TABLE
  2
VPORT
  5
8
330
0
100
AcDbSymbolTable
 70
     4
  0
VPORT
  5
2E
330
8
100
AcDbSymbolTableRecord
100
AcDbViewportTableRecord
  2
*ACTIVE
 70
     0
 10
0.0
 20
0.0
 11
1.0
 21
1.0
 12
210.0
 22
148.5
 13
0.0
 23
0.0
 14
10.0
 24
10.0
 15
10.0
 25
10.0
 16
0.0
 26
0.0
 36
1.0
 17
0.0
 27
0.0
 37
0.0
 40
341.0
 41
1.24
 42
50.0
 43
0.0
 44
0.0
 50
0.0
 51
0.0
 71
     0
 72
   100
 73
     1
 74
     3
 75
     0
 76
     0
 77
     0
 78
     0
  0
ENDTAB
  0
TABLE
  2
LTYPE
  5
5
330
0
100
AcDbSymbolTable
 70
     1
  0
LTYPE
  5
14
330
5
100
AcDbSymbolTableRecord
100
AcDbLinetypeTableRecord
  2
BYBLOCK
 70
     0
  3

 72
    65
 73
     0
 40
0.0
  0
LTYPE
  5
15
330
5
100
AcDbSymbolTableRecord
100
AcDbLinetypeTableRecord
  2
BYLAYER
 70
     0
  3

 72
    65
 73
     0
 40
0.0
  0
LTYPE
  5
16
330
5
100
AcDbSymbolTableRecord
100
AcDbLinetypeTableRecord
  2
CONTINUOUS
 70
     0
  3
Solid line
 72
    65
 73
     0
 40
0.0
  0
ENDTAB
  0
TABLE
  2
LAYER
  5
2
100
AcDbSymbolTable
 70
1
  0
LAYER
  5
50
100
AcDbSymbolTableRecord
100
AcDbLayerTableRecord
  2
0
 70
0
  6
CONTINUOUS
  0
ENDTAB
  0
TABLE
  2
STYLE
  5
3
330
0
100
AcDbSymbolTable
 70
     1
  0
STYLE
  5
11
330
3
100
AcDbSymbolTableRecord
100
AcDbTextStyleTableRecord
  2
STANDARD
 70
     0
 40
0.0
 41
1.0
 50
0.0
 71
     0
 42
2.5
  3
txt
  4

  0
ENDTAB
  0
TABLE
  2
VIEW
  5
6
330
0
100
AcDbSymbolTable
 70
     0
  0
ENDTAB
  0
TABLE
  2
UCS
  5
7
330
0
100
AcDbSymbolTable
 70
     0
  0
ENDTAB
  0
TABLE
  2
APPID
  5
9
330
0
100
AcDbSymbolTable
 70
     2
  0
APPID
  5
12
330
9
100
AcDbSymbolTableRecord
100
AcDbRegAppTableRecord
  2
ACAD
 70
     0
  0
ENDTAB
  0
TABLE
  2
DIMSTYLE
  5
A
330
0
100
AcDbSymbolTable
 70
     1
  0
DIMSTYLE
105
27
330
A
100
AcDbSymbolTableRecord
100
AcDbDimStyleTableRecord
  2
ISO-25
 70
     0
  3

  4

  5

  6

  7

 40
1.0
 41
2.5
 42
0.625
 43
3.75
 44
1.25
 45
0.0
 46
0.0
 47
0.0
 48
0.0
140
2.5
141
2.5
142
0.0
143
0.03937007874016
144
1.0
145
0.0
146
1.0
147
0.625
 71
     0
 72
     0
 73
     0
 74
     0
 75
     0
 76
     0
 77
     1
 78
     8
170
     0
171
     3
172
     1
173
     0
174
     0
175
     0
176
     0
177
     0
178
     0
270
     2
271
     2
272
     2
273
     2
274
     3
340
11
275
     0
280
     0
281
     0
282
     0
283
     0
284
     8
285
     0
286
     0
287
     3
288
     0
  0
ENDTAB
  0
TABLE
  2
BLOCK_RECORD
  5
1
330
0
100
AcDbSymbolTable
 70
     1
  0
BLOCK_RECORD
  5
1F
330
1
100
AcDbSymbolTableRecord
100
AcDbBlockTableRecord
  2
*MODEL_SPACE
  0
BLOCK_RECORD
  5
1B
330
1
100
AcDbSymbolTableRecord
100
AcDbBlockTableRecord
  2
*PAPER_SPACE
  0
ENDTAB
  0
ENDSEC
  0
SECTION
  2
BLOCKS
  0
BLOCK
  5
20
330
1F
100
AcDbEntity
  8
0
100
AcDbBlockBegin
  2
*MODEL_SPACE
 70
     0
 10
0.0
 20
0.0
 30
0.0
  3
*MODEL_SPACE
  1

  0
ENDBLK
  5
21
330
1F
100
AcDbEntity
  8
0
100
AcDbBlockEnd
  0
BLOCK
  5
1C
330
1B
100
AcDbEntity
 67
     1
  8
0
100
AcDbBlockBegin
  2
*PAPER_SPACE
  1

  0
ENDBLK
  5
1D
330
1B
100
AcDbEntity
 67
     1
  8
0
100
AcDbBlockEnd
  0
ENDSEC
  0
SECTION
  2
ENTITIES
  0
LWPOLYLINE
  5
100
100
AcDbEntity
  8
0
 62
7
100
AcDbPolyline
 90
18
 70
1
 10
310.581471
 20
787.272162
 30
0.0
 10
310.465957
 20
787.473056
 30
0.0
 10
310.696985
 20
787.473056
 30
0.0
 10
310.696985
 20
813.390892
 30
0.0
 10
310.465957
 20
813.390892
 30
0.0
 10
310.581471
 20
813.591786
 30
0.0
 10
288.136589
 20
826.551960
 30
0.0
 10
288.021075
 20
826.348555
 30
0.0
 10
287.903050
 20
826.551960
 30
0.0
 10
265.458169
 20
813.591786
 30
0.0
 10
265.573683
 20
813.390892
 30
0.0
 10
265.342654
 20
813.390892
 30
0.0
 10
265.342654
 20
787.473056
 30
0.0
 10
265.573683
 20
787.473056
 30
0.0
 10
265.458169
 20
787.272162
 30
0.0
 10
287.903050
 20
774.314499
 30
0.0
 10
288.021075
 20
774.517904
 30
0.0
 10
288.136589
 20
774.314499
 30
0.0
  0
LWPOLYLINE
  5
101
100
AcDbEntity
  8
0
 62
7
100
AcDbPolyline
 90
276
 70
1
 10
254.107996
 20
805.205346
 30
0.0
 10
253.963429
 20
806.674514
 30
0.0
 10
253.692551
 20
807.286344
 30
0.0
 10
253.397974
 20
807.749213
 30
0.0
 10
253.089678
 20
808.131550
 30
0.0
 10
252.771574
 20
808.460199
 30
0.0
 10
252.445732
 20
808.748965
 30
0.0
 10
251.775395
 20
809.237176
 30
0.0
 10
251.084818
 20
809.634876
 30
0.0
 10
250.377291
 20
809.962023
 30
0.0
 10
248.919716
 20
810.447966
 30
0.0
 10
247.414576
 20
810.749742
 30
0.0
 10
245.886985
 20
810.962596
 30
0.0
 10
244.492878
 20
811.695125
 30
0.0
 10
243.156570
 20
812.629169
 30
0.0
 10
241.872390
 20
813.720536
 30
0.0
 10
240.641048
 20
814.949922
 30
0.0
 10
239.465181
 20
816.305733
 30
0.0
 10
238.348274
 20
817.779749
 30
0.0
 10
237.294296
 20
819.365478
 30
0.0
 10
236.307499
 20
821.057421
 30
0.0
 10
235.392248
 20
822.850703
 30
0.0
 10
238.433852
 20
828.924895
 30
0.0
 10
242.173429
 20
834.596086
 30
0.0
 10
244.184100
 20
834.700089
 30
0.0
 10
246.142784
 20
834.691472
 30
0.0
 10
248.043045
 20
834.571566
 30
0.0
 10
249.878025
 20
834.341308
 30
0.0
 10
251.640126
 20
834.000867
 30
0.0
 10
253.320503
 20
833.549194
 30
0.0
 10
254.907707
 20
832.982747
 30
0.0
 10
256.384784
 20
832.292511
 30
0.0
 10
257.716217
 20
831.451415
 30
0.0
 10
258.664349
 20
830.234927
 30
0.0
 10
259.678274
 20
829.082303
 30
0.0
 10
260.827892
 20
828.062993
 30
0.0
 10
261.464951
 20
827.613843
 30
0.0
 10
262.154677
 20
827.214612
 30
0.0
 10
262.912661
 20
826.878224
 30
0.0
 10
263.325669
 20
826.740404
 30
0.0
 10
263.769319
 20
826.629229
 30
0.0
 10
264.254611
 20
826.553402
 30
0.0
 10
264.802718
 20
826.529733
 30
0.0
 10
265.468037
 20
826.601081
 30
0.0
 10
266.812652
 20
827.210445
 30
0.0
 10
270.886406
 20
829.970426
 30
0.0
 10
275.313527
 20
832.118435
 30
0.0
 10
276.513546
 20
832.978212
 30
0.0
 10
276.907987
 20
833.518722
 30
0.0
 10
277.161546
 20
834.005232
 30
0.0
 10
277.338541
 20
834.463424
 30
0.0
 10
277.464088
 20
834.903220
 30
0.0
 10
277.551225
 20
835.329805
 30
0.0
 10
277.638900
 20
836.154432
 30
0.0
 10
277.638022
 20
836.951365
 30
0.0
 10
277.567581
 20
837.727661
 30
0.0
 10
277.259625
 20
839.232914
 30
0.0
 10
276.768381
 20
840.687286
 30
0.0
 10
276.188922
 20
842.116656
 30
0.0
 10
276.126248
 20
843.690253
 30
0.0
 10
276.267017
 20
845.314561
 30
0.0
 10
276.570069
 20
846.972347
 30
0.0
 10
277.019105
 20
848.653434
 30
0.0
 10
277.605338
 20
850.349686
 30
0.0
 10
278.323411
 20
852.053960
 30
0.0
 10
279.169694
 20
853.759566
 30
0.0
 10
280.141581
 20
855.460155
 30
0.0
 10
281.236973
 20
857.149434
 30
0.0
 10
288.018154
 20
857.552407
 30
0.0
 10
294.799363
 20
857.149434
 30
0.0
 10
295.894755
 20
855.460155
 30
0.0
 10
296.866642
 20
853.759566
 30
0.0
 10
297.712926
 20
852.053960
 30
0.0
 10
298.430998
 20
850.349686
 30
0.0
 10
299.017231
 20
848.653434
 30
0.0
 10
299.466267
 20
846.972347
 30
0.0
 10
299.769319
 20
845.314561
 30
0.0
 10
299.910059
 20
843.690253
 30
0.0
 10
299.847414
 20
842.116656
 30
0.0
 10
299.267955
 20
840.687286
 30
0.0
 10
298.776711
 20
839.232914
 30
0.0
 10
298.468755
 20
837.727661
 30
0.0
 10
298.398314
 20
836.951365
 30
0.0
 10
298.397436
 20
836.154432
 30
0.0
 10
298.485111
 20
835.329805
 30
0.0
 10
298.572248
 20
834.903220
 30
0.0
 10
298.697795
 20
834.463424
 30
0.0
 10
298.874790
 20
834.005232
 30
0.0
 10
299.128349
 20
833.518722
 30
0.0
 10
299.522790
 20
832.978212
 30
0.0
 10
300.722809
 20
832.118435
 30
0.0
 10
305.149930
 20
829.970426
 30
0.0
 10
309.223685
 20
827.210445
 30
0.0
 10
310.568299
 20
826.601081
 30
0.0
 10
311.233618
 20
826.529733
 30
0.0
 10
311.781726
 20
826.553402
 30
0.0
 10
312.267017
 20
826.629229
 30
0.0
 10
312.710667
 20
826.740404
 30
0.0
 10
313.123675
 20
826.878224
 30
0.0
 10
313.881659
 20
827.214612
 30
0.0
 10
314.571385
 20
827.613843
 30
0.0
 10
315.208444
 20
828.062993
 30
0.0
 10
316.358063
 20
829.082303
 30
0.0
 10
317.371987
 20
830.234927
 30
0.0
 10
318.320119
 20
831.451415
 30
0.0
 10
319.651552
 20
832.292511
 30
0.0
 10
321.128629
 20
832.982747
 30
0.0
 10
322.715833
 20
833.549194
 30
0.0
 10
324.396211
 20
834.000867
 30
0.0
 10
326.158311
 20
834.341308
 30
0.0
 10
327.993291
 20
834.571566
 30
0.0
 10
329.893552
 20
834.691472
 30
0.0
 10
331.852236
 20
834.700089
 30
0.0
 10
333.862907
 20
834.596086
 30
0.0
 10
337.602485
 20
828.924895
 30
0.0
 10
340.644088
 20
822.850703
 30
0.0
 10
339.728837
 20
821.057421
 30
0.0
 10
338.742040
 20
819.365478
 30
0.0
 10
337.688063
 20
817.779749
 30
0.0
 10
336.571155
 20
816.305733
 30
0.0
 10
335.395288
 20
814.949922
 30
0.0
 10
334.163946
 20
813.720536
 30
0.0
 10
332.879766
 20
812.629169
 30
0.0
 10
331.543458
 20
811.695125
 30
0.0
 10
330.149351
 20
810.962596
 30
0.0
 10
328.621760
 20
810.749742
 30
0.0
 10
327.116620
 20
810.447966
 30
0.0
 10
325.659045
 20
809.962023
 30
0.0
 10
324.951518
 20
809.634876
 30
0.0
 10
324.260941
 20
809.237176
 30
0.0
 10
323.590604
 20
808.748965
 30
0.0
 10
323.264762
 20
808.460199
 30
0.0
 10
322.946658
 20
808.131550
 30
0.0
 10
322.638362
 20
807.749213
 30
0.0
 10
322.343785
 20
807.286344
 30
0.0
 10
322.072907
 20
806.674514
 30
0.0
 10
321.928340
 20
805.205346
 30
0.0
 10
322.281678
 20
800.297355
 30
0.0
 10
321.928340
 20
795.389393
 30
0.0
 10
322.072907
 20
793.920224
 30
0.0
 10
322.343785
 20
793.308394
 30
0.0
 10
322.638362
 20
792.845525
 30
0.0
 10
322.946658
 20
792.463188
 30
0.0
 10
323.264762
 20
792.134539
 30
0.0
 10
323.590604
 20
791.845774
 30
0.0
 10
324.260941
 20
791.357563
 30
0.0
 10
324.951518
 20
790.959862
 30
0.0
 10
325.659045
 20
790.632716
 30
0.0
 10
327.116620
 20
790.146772
 30
0.0
 10
328.621760
 20
789.844996
 30
0.0
 10
330.149351
 20
789.632142
 30
0.0
 10
331.543458
 20
788.899613
 30
0.0
 10
332.879766
 20
787.965569
 30
0.0
 10
334.163946
 20
786.874202
 30
0.0
 10
335.395288
 20
785.644816
 30
0.0
 10
336.571155
 20
784.289005
 30
0.0
 10
337.688063
 20
782.814990
 30
0.0
 10
338.742040
 20
781.229261
 30
0.0
 10
339.728837
 20
779.537317
 30
0.0
 10
340.644088
 20
777.744035
 30
0.0
 10
337.602485
 20
771.669843
 30
0.0
 10
333.862907
 20
765.998653
 30
0.0
 10
331.852236
 20
765.894650
 30
0.0
 10
329.893552
 20
765.903267
 30
0.0
 10
327.993291
 20
766.023172
 30
0.0
 10
326.158311
 20
766.253431
 30
0.0
 10
324.396211
 20
766.593872
 30
0.0
 10
322.715833
 20
767.045544
 30
0.0
 10
321.128629
 20
767.611991
 30
0.0
 10
319.651552
 20
768.302228
 30
0.0
 10
318.320119
 20
769.143324
 30
0.0
 10
317.371987
 20
770.359812
 30
0.0
 10
316.358063
 20
771.512435
 30
0.0
 10
315.208444
 20
772.531746
 30
0.0
 10
314.571385
 20
772.980895
 30
0.0
 10
313.881659
 20
773.380127
 30
0.0
 10
313.123675
 20
773.716514
 30
0.0
 10
312.710667
 20
773.854335
 30
0.0
 10
312.267017
 20
773.965509
 30
0.0
 10
311.781726
 20
774.041336
 30
0.0
 10
311.233618
 20
774.065005
 30
0.0
 10
310.568299
 20
773.993657
 30
0.0
 10
309.223685
 20
773.384294
 30
0.0
 10
305.149930
 20
770.624313
 30
0.0
 10
300.722809
 20
768.476303
 30
0.0
 10
299.522790
 20
767.616527
 30
0.0
 10
299.128349
 20
767.076016
 30
0.0
 10
298.874790
 20
766.589506
 30
0.0
 10
298.697795
 20
766.131314
 30
0.0
 10
298.572248
 20
765.691519
 30
0.0
 10
298.485111
 20
765.264933
 30
0.0
 10
298.397436
 20
764.440306
 30
0.0
 10
298.398314
 20
763.643374
 30
0.0
 10
298.468755
 20
762.867078
 30
0.0
 10
298.776711
 20
761.361824
 30
0.0
 10
299.267955
 20
759.907453
 30
0.0
 10
299.847414
 20
758.478083
 30
0.0
 10
299.910059
 20
756.904486
 30
0.0
 10
299.769319
 20
755.280177
 30
0.0
 10
299.466267
 20
753.622391
 30
0.0
 10
299.017231
 20
751.941305
 30
0.0
 10
298.430998
 20
750.245053
 30
0.0
 10
297.712926
 20
748.540779
 30
0.0
 10
296.866642
 20
746.835172
 30
0.0
 10
295.894755
 20
745.134583
 30
0.0
 10
294.799363
 20
743.445305
 30
0.0
 10
288.018154
 20
743.042331
 30
0.0
 10
281.236973
 20
743.445305
 30
0.0
 10
280.141581
 20
745.134583
 30
0.0
 10
279.169694
 20
746.835172
 30
0.0
 10
278.323411
 20
748.540779
 30
0.0
 10
277.605338
 20
750.245053
 30
0.0
 10
277.019105
 20
751.941305
 30
0.0
 10
276.570069
 20
753.622391
 30
0.0
 10
276.267017
 20
755.280177
 30
0.0
 10
276.126248
 20
756.904486
 30
0.0
 10
276.188922
 20
758.478083
 30
0.0
 10
276.768381
 20
759.907453
 30
0.0
 10
277.259625
 20
761.361824
 30
0.0
 10
277.567581
 20
762.867078
 30
0.0
 10
277.638022
 20
763.643374
 30
0.0
 10
277.638900
 20
764.440306
 30
0.0
 10
277.551225
 20
765.264933
 30
0.0
 10
277.464088
 20
765.691519
 30
0.0
 10
277.338541
 20
766.131314
 30
0.0
 10
277.161546
 20
766.589506
 30
0.0
 10
276.907987
 20
767.076016
 30
0.0
 10
276.513546
 20
767.616527
 30
0.0
 10
275.313527
 20
768.476303
 30
0.0
 10
270.886406
 20
770.624313
 30
0.0
 10
266.812652
 20
773.384294
 30
0.0
 10
265.468037
 20
773.993657
 30
0.0
 10
264.802718
 20
774.065005
 30
0.0
 10
264.254611
 20
774.041336
 30
0.0
 10
263.769319
 20
773.965509
 30
0.0
 10
263.325669
 20
773.854335
 30
0.0
 10
262.912661
 20
773.716514
 30
0.0
 10
262.154677
 20
773.380127
 30
0.0
 10
261.464951
 20
772.980895
 30
0.0
 10
260.827892
 20
772.531746
 30
0.0
 10
259.678274
 20
771.512435
 30
0.0
 10
258.664349
 20
770.359812
 30
0.0
 10
257.716217
 20
769.143324
 30
0.0
 10
256.384784
 20
768.302228
 30
0.0
 10
254.907707
 20
767.611991
 30
0.0
 10
253.320503
 20
767.045544
 30
0.0
 10
251.640126
 20
766.593872
 30
0.0
 10
249.878025
 20
766.253431
 30
0.0
 10
248.043045
 20
766.023172
 30
0.0
 10
246.142784
 20
765.903267
 30
0.0
 10
244.184100
 20
765.894650
 30
0.0
 10
242.173429
 20
765.998653
 30
0.0
 10
238.433852
 20
771.669843
 30
0.0
 10
235.392248
 20
777.744035
 30
0.0
 10
236.307499
 20
779.537317
 30
0.0
 10
237.294296
 20
781.229261
 30
0.0
 10
238.348274
 20
782.814990
 30
0.0
 10
239.465181
 20
784.289005
 30
0.0
 10
240.641048
 20
785.644816
 30
0.0
 10
241.872390
 20
786.874202
 30
0.0
 10
243.156570
 20
787.965569
 30
0.0
 10
244.492878
 20
788.899613
 30
0.0
 10
245.886985
 20
789.632142
 30
0.0
 10
247.414576
 20
789.844996
 30
0.0
 10
248.919716
 20
790.146772
 30
0.0
 10
250.377291
 20
790.632716
 30
0.0
 10
251.084818
 20
790.959862
 30
0.0
 10
251.775395
 20
791.357563
 30
0.0
 10
252.445732
 20
791.845774
 30
0.0
 10
252.771574
 20
792.134539
 30
0.0
 10
253.089678
 20
792.463188
 30
0.0
 10
253.397974
 20
792.845525
 30
0.0
 10
253.692551
 20
793.308394
 30
0.0
 10
253.963429
 20
793.920224
 30
0.0
 10
254.107996
 20
795.389393
 30
0.0
 10
253.754658
 20
800.297355
 30
0.0
  0
LWPOLYLINE
  5
102
100
AcDbEntity
  8
0
 62
7
100
AcDbPolyline
 90
72
 70
1
 10
302.900044
 20
800.297355
 30
0.0
 10
302.843414
 20
801.594397
 30
0.0
 10
302.673954
 20
802.881568
 30
0.0
 10
302.392956
 20
804.149072
 30
0.0
 10
302.002556
 20
805.387261
 30
0.0
 10
301.505726
 20
806.586713
 30
0.0
 10
300.906248
 20
807.738300
 30
0.0
 10
300.208684
 20
808.833256
 30
0.0
 10
299.418343
 20
809.863249
 30
0.0
 10
298.541239
 20
810.820440
 30
0.0
 10
297.584048
 20
811.697544
 30
0.0
 10
296.554055
 20
812.487885
 30
0.0
 10
295.459099
 20
813.185450
 30
0.0
 10
294.307512
 20
813.784928
 30
0.0
 10
293.108060
 20
814.281757
 30
0.0
 10
291.869870
 20
814.672157
 30
0.0
 10
290.602367
 20
814.953155
 30
0.0
 10
289.315196
 20
815.122615
 30
0.0
 10
288.018154
 20
815.179245
 30
0.0
 10
286.721112
 20
815.122615
 30
0.0
 10
285.433941
 20
814.953155
 30
0.0
 10
284.166437
 20
814.672157
 30
0.0
 10
282.928248
 20
814.281757
 30
0.0
 10
281.728795
 20
813.784928
 30
0.0
 10
280.577209
 20
813.185450
 30
0.0
 10
279.482253
 20
812.487885
 30
0.0
 10
278.452260
 20
811.697544
 30
0.0
 10
277.495069
 20
810.820440
 30
0.0
 10
276.617965
 20
809.863249
 30
0.0
 10
275.827623
 20
808.833256
 30
0.0
 10
275.130059
 20
807.738300
 30
0.0
 10
274.530581
 20
806.586713
 30
0.0
 10
274.033752
 20
805.387261
 30
0.0
 10
273.643352
 20
804.149072
 30
0.0
 10
273.362353
 20
802.881568
 30
0.0
 10
273.192894
 20
801.594397
 30
0.0
 10
273.136264
 20
800.297355
 30
0.0
 10
273.192894
 20
799.000313
 30
0.0
 10
273.362353
 20
797.713142
 30
0.0
 10
273.643352
 20
796.445639
 30
0.0
 10
274.033752
 20
795.207449
 30
0.0
 10
274.530581
 20
794.007997
 30
0.0
 10
275.130059
 20
792.856410
 30
0.0
 10
275.827623
 20
791.761454
 30
0.0
 10
276.617965
 20
790.731461
 30
0.0
 10
277.495069
 20
789.774270
 30
0.0
 10
278.452260
 20
788.897166
 30
0.0
 10
279.482253
 20
788.106825
 30
0.0
 10
280.577209
 20
787.409260
 30
0.0
 10
281.728795
 20
786.809782
 30
0.0
 10
282.928248
 20
786.312953
 30
0.0
 10
284.166437
 20
785.922553
 30
0.0
 10
285.433941
 20
785.641555
 30
0.0
 10
286.721112
 20
785.472095
 30
0.0
 10
288.018154
 20
785.415465
 30
0.0
 10
289.315196
 20
785.472095
 30
0.0
 10
290.602367
 20
785.641555
 30
0.0
 10
291.869870
 20
785.922553
 30
0.0
 10
293.108060
 20
786.312953
 30
0.0
 10
294.307512
 20
786.809782
 30
0.0
 10
295.459099
 20
787.409260
 30
0.0
 10
296.554055
 20
788.106825
 30
0.0
 10
297.584048
 20
788.897166
 30
0.0
 10
298.541239
 20
789.774270
 30
0.0
 10
299.418343
 20
790.731461
 30
0.0
 10
300.208684
 20
791.761454
 30
0.0
 10
300.906248
 20
792.856410
 30
0.0
 10
301.505726
 20
794.007997
 30
0.0
 10
302.002556
 20
795.207449
 30
0.0
 10
302.392956
 20
796.445639
 30
0.0
 10
302.673954
 20
797.713142
 30
0.0
 10
302.843414
 20
799.000313
 30
0.0
  0
LWPOLYLINE
  5
103
100
AcDbEntity
  8
0
 62
7
100
AcDbPolyline
 90
18
 70
1
 10
556.418674
 20
773.023645
 30
0.0
 10
556.303160
 20
773.224539
 30
0.0
 10
556.534188
 20
773.224539
 30
0.0
 10
556.534188
 20
799.142376
 30
0.0
 10
556.303160
 20
799.142376
 30
0.0
 10
556.418674
 20
799.343270
 30
0.0
 10
533.973792
 20
812.303444
 30
0.0
 10
533.858278
 20
812.100039
 30
0.0
 10
533.740253
 20
812.303444
 30
0.0
 10
511.295371
 20
799.343270
 30
0.0
 10
511.410885
 20
799.142376
 30
0.0
 10
511.179857
 20
799.142376
 30
0.0
 10
511.179857
 20
773.224539
 30
0.0
 10
511.410885
 20
773.224539
 30
0.0
 10
511.295371
 20
773.023645
 30
0.0
 10
533.740253
 20
760.065982
 30
0.0
 10
533.858278
 20
760.269388
 30
0.0
 10
533.973792
 20
760.065982
 30
0.0
  0
LWPOLYLINE
  5
104
100
AcDbEntity
  8
0
 62
7
100
AcDbPolyline
 90
276
 70
1
 10
499.945199
 20
790.956829
 30
0.0
 10
499.800632
 20
792.425998
 30
0.0
 10
499.529753
 20
793.037828
 30
0.0
 10
499.235177
 20
793.500697
 30
0.0
 10
498.926881
 20
793.883034
 30
0.0
 10
498.608777
 20
794.211683
 30
0.0
 10
498.282934
 20
794.500448
 30
0.0
 10
497.612597
 20
794.988659
 30
0.0
 10
496.922021
 20
795.386360
 30
0.0
 10
496.214493
 20
795.713506
 30
0.0
 10
494.756919
 20
796.199450
 30
0.0
 10
493.251778
 20
796.501226
 30
0.0
 10
491.724188
 20
796.714079
 30
0.0
 10
490.330081
 20
797.446609
 30
0.0
 10
488.993772
 20
798.380653
 30
0.0
 10
487.709593
 20
799.472020
 30
0.0
 10
486.478251
 20
800.701405
 30
0.0
 10
485.302383
 20
802.057216
 30
0.0
 10
484.185476
 20
803.531232
 30
0.0
 10
483.131498
 20
805.116961
 30
0.0
 10
482.144701
 20
806.808905
 30
0.0
 10
481.229451
 20
808.602187
 30
0.0
 10
484.271054
 20
814.676379
 30
0.0
 10
488.010632
 20
820.347569
 30
0.0
 10
490.021303
 20
820.451572
 30
0.0
 10
491.979986
 20
820.442955
 30
0.0
 10
493.880248
 20
820.323050
 30
0.0
 10
495.715227
 20
820.092791
 30
0.0
 10
497.477328
 20
819.752350
 30
0.0
 10
499.157706
 20
819.300678
 30
0.0
 10
500.744909
 20
818.734231
 30
0.0
 10
502.221986
 20
818.043994
 30
0.0
 10
503.553419
 20
817.202898
 30
0.0
 10
504.501552
 20
815.986410
 30
0.0
 10
505.515476
 20
814.833787
 30
0.0
 10
506.665095
 20
813.814476
 30
0.0
 10
507.302153
 20
813.365327
 30
0.0
 10
507.991879
 20
812.966095
 30
0.0
 10
508.749863
 20
812.629708
 30
0.0
 10
509.162871
 20
812.491887
 30
0.0
 10
509.606522
 20
812.380713
 30
0.0
 10
510.091813
 20
812.304886
 30
0.0
 10
510.639920
 20
812.281216
 30
0.0
 10
511.305240
 20
812.352565
 30
0.0
 10
512.649854
 20
812.961928
 30
0.0
 10
516.723608
 20
815.721909
 30
0.0
 10
521.150730
 20
817.869919
 30
0.0
 10
522.350749
 20
818.729695
 30
0.0
 10
522.745189
 20
819.270205
 30
0.0
 10
522.998749
 20
819.756716
 30
0.0
 10
523.175744
 20
820.214908
 30
0.0
 10
523.301290
 20
820.654703
 30
0.0
 10
523.388427
 20
821.081289
 30
0.0
 10
523.476103
 20
821.905916
 30
0.0
 10
523.475224
 20
822.702848
 30
0.0
 10
523.404783
 20
823.479144
 30
0.0
 10
523.096827
 20
824.984398
 30
0.0
 10
522.605583
 20
826.438769
 30
0.0
 10
522.026125
 20
827.868139
 30
0.0
 10
521.963451
 20
829.441736
 30
0.0
 10
522.104219
 20
831.066045
 30
0.0
 10
522.407271
 20
832.723831
 30
0.0
 10
522.856308
 20
834.404917
 30
0.0
 10
523.442541
 20
836.101169
 30
0.0
 10
524.160613
 20
837.805443
 30
0.0
 10
525.006897
 20
839.511050
 30
0.0
 10
525.978783
 20
841.211639
 30
0.0
 10
527.074175
 20
842.900917
 30
0.0
 10
533.855356
 20
843.303890
 30
0.0
 10
540.636566
 20
842.900917
 30
0.0
 10
541.731958
 20
841.211639
 30
0.0
 10
542.703845
 20
839.511050
 30
0.0
 10
543.550128
 20
837.805443
 30
0.0
 10
544.268200
 20
836.101169
 30
0.0
 10
544.854434
 20
834.404917
 30
0.0
 10
545.303470
 20
832.723831
 30
0.0
 10
545.606522
 20
831.066045
 30
0.0
 10
545.747262
 20
829.441736
 30
0.0
 10
545.684616
 20
827.868139
 30
0.0
 10
545.105158
 20
826.438769
 30
0.0
 10
544.613914
 20
824.984398
 30
0.0
 10
544.305958
 20
823.479144
 30
0.0
 10
544.235517
 20
822.702848
 30
0.0
 10
544.234638
 20
821.905916
 30
0.0
 10
544.322314
 20
821.081289
 30
0.0
 10
544.409451
 20
820.654703
 30
0.0
 10
544.534997
 20
820.214908
 30
0.0
 10
544.711993
 20
819.756716
 30
0.0
 10
544.965552
 20
819.270205
 30
0.0
 10
545.359993
 20
818.729695
 30
0.0
 10
546.560012
 20
817.869919
 30
0.0
 10
550.987133
 20
815.721909
 30
0.0
 10
555.060887
 20
812.961928
 30
0.0
 10
556.405501
 20
812.352565
 30
0.0
 10
557.070821
 20
812.281216
 30
0.0
 10
557.618928
 20
812.304886
 30
0.0
 10
558.104219
 20
812.380713
 30
0.0
 10
558.547870
 20
812.491887
 30
0.0
 10
558.960878
 20
812.629708
 30
0.0
 10
559.718862
 20
812.966095
 30
0.0
 10
560.408588
 20
813.365327
 30
0.0
 10
561.045646
 20
813.814476
 30
0.0
 10
562.195265
 20
814.833787
 30
0.0
 10
563.209189
 20
815.986410
 30
0.0
 10
564.157322
 20
817.202898
 30
0.0
 10
565.488755
 20
818.043994
 30
0.0
 10
566.965832
 20
818.734231
 30
0.0
 10
568.553035
 20
819.300678
 30
0.0
 10
570.233413
 20
819.752350
 30
0.0
 10
571.995514
 20
820.092791
 30
0.0
 10
573.830493
 20
820.323050
 30
0.0
 10
575.730755
 20
820.442955
 30
0.0
 10
577.689438
 20
820.451572
 30
0.0
 10
579.700109
 20
820.347569
 30
0.0
 10
583.439687
 20
814.676379
 30
0.0
 10
586.481290
 20
808.602187
 30
0.0
 10
585.566040
 20
806.808905
 30
0.0
 10
584.579243
 20
805.116961
 30
0.0
 10
583.525265
 20
803.531232
 30
0.0
 10
582.408358
 20
802.057216
 30
0.0
 10
581.232490
 20
800.701405
 30
0.0
 10
580.001149
 20
799.472020
 30
0.0
 10
578.716969
 20
798.380653
 30
0.0
 10
577.380660
 20
797.446609
 30
0.0
 10
575.986553
 20
796.714079
 30
0.0
 10
574.458963
 20
796.501226
 30
0.0
 10
572.953823
 20
796.199450
 30
0.0
 10
571.496248
 20
795.713506
 30
0.0
 10
570.788720
 20
795.386360
 30
0.0
 10
570.098144
 20
794.988659
 30
0.0
 10
569.427807
 20
794.500448
 30
0.0
 10
569.101964
 20
794.211683
 30
0.0
 10
568.783860
 20
793.883034
 30
0.0
 10
568.475564
 20
793.500697
 30
0.0
 10
568.180988
 20
793.037828
 30
0.0
 10
567.910109
 20
792.425998
 30
0.0
 10
567.765542
 20
790.956829
 30
0.0
 10
568.118881
 20
786.048839
 30
0.0
 10
567.765542
 20
781.140876
 30
0.0
 10
567.910109
 20
779.671708
 30
0.0
 10
568.180988
 20
779.059878
 30
0.0
 10
568.475564
 20
778.597009
 30
0.0
 10
568.783860
 20
778.214672
 30
0.0
 10
569.101964
 20
777.886023
 30
0.0
 10
569.427807
 20
777.597257
 30
0.0
 10
570.098144
 20
777.109046
 30
0.0
 10
570.788720
 20
776.711346
 30
0.0
 10
571.496248
 20
776.384199
 30
0.0
 10
572.953823
 20
775.898256
 30
0.0
 10
574.458963
 20
775.596479
 30
0.0
 10
575.986553
 20
775.383626
 30
0.0
 10
577.380660
 20
774.651097
 30
0.0
 10
578.716969
 20
773.717053
 30
0.0
 10
580.001149
 20
772.625686
 30
0.0
 10
581.232490
 20
771.396300
 30
0.0
 10
582.408358
 20
770.040489
 30
0.0
 10
583.525265
 20
768.566473
 30
0.0
 10
584.579243
 20
766.980744
 30
0.0
 10
585.566040
 20
765.288801
 30
0.0
 10
586.481290
 20
763.495519
 30
0.0
 10
583.439687
 20
757.421327
 30
0.0
 10
579.700109
 20
751.750136
 30
0.0
 10
577.689438
 20
751.646133
 30
0.0
 10
575.730755
 20
751.654750
 30
0.0
 10
573.830493
 20
751.774656
 30
0.0
 10
571.995514
 20
752.004914
 30
0.0
 10
570.233413
 20
752.345355
 30
0.0
 10
568.553035
 20
752.797028
 30
0.0
 10
566.965832
 20
753.363475
 30
0.0
 10
565.488755
 20
754.053711
 30
0.0
 10
564.157322
 20
754.894807
 30
0.0
 10
563.209189
 20
756.111295
 30
0.0
 10
562.195265
 20
757.263919
 30
0.0
 10
561.045646
 20
758.283229
 30
0.0
 10
560.408588
 20
758.732379
 30
0.0
 10
559.718862
 20
759.131610
 30
0.0
 10
558.960878
 20
759.467998
 30
0.0
 10
558.547870
 20
759.605818
 30
0.0
 10
558.104219
 20
759.716993
 30
0.0
 10
557.618928
 20
759.792820
 30
0.0
 10
557.070821
 20
759.816489
 30
0.0
 10
556.405501
 20
759.745141
 30
0.0
 10
555.060887
 20
759.135777
 30
0.0
 10
550.987133
 20
756.375796
 30
0.0
 10
546.560012
 20
754.227787
 30
0.0
 10
545.359993
 20
753.368010
 30
0.0
 10
544.965552
 20
752.827500
 30
0.0
 10
544.711993
 20
752.340990
 30
0.0
 10
544.534997
 20
751.882798
 30
0.0
 10
544.409451
 20
751.443002
 30
0.0
 10
544.322314
 20
751.016416
 30
0.0
 10
544.234638
 20
750.191790
 30
0.0
 10
544.235517
 20
749.394857
 30
0.0
 10
544.305958
 20
748.618561
 30
0.0
 10
544.613914
 20
747.113308
 30
0.0
 10
545.105158
 20
745.658936
 30
0.0
 10
545.684616
 20
744.229566
 30
0.0
 10
545.747262
 20
742.655969
 30
0.0
 10
545.606522
 20
741.031661
 30
0.0
 10
545.303470
 20
739.373875
 30
0.0
 10
544.854434
 20
737.692788
 30
0.0
 10
544.268200
 20
735.996536
 30
0.0
 10
543.550128
 20
734.292262
 30
0.0
 10
542.703845
 20
732.586656
 30
0.0
 10
541.731958
 20
730.886067
 30
0.0
 10
540.636566
 20
729.196788
 30
0.0
 10
533.855356
 20
728.793815
 30
0.0
 10
527.074175
 20
729.196788
 30
0.0
 10
525.978783
 20
730.886067
 30
0.0
 10
525.006897
 20
732.586656
 30
0.0
 10
524.160613
 20
734.292262
 30
0.0
 10
523.442541
 20
735.996536
 30
0.0
 10
522.856308
 20
737.692788
 30
0.0
 10
522.407271
 20
739.373875
 30
0.0
 10
522.104219
 20
741.031661
 30
0.0
 10
521.963451
 20
742.655969
 30
0.0
 10
522.026125
 20
744.229566
 30
0.0
 10
522.605583
 20
745.658936
 30
0.0
 10
523.096827
 20
747.113308
 30
0.0
 10
523.404783
 20
748.618561
 30
0.0
 10
523.475224
 20
749.394857
 30
0.0
 10
523.476103
 20
750.191790
 30
0.0
 10
523.388427
 20
751.016416
 30
0.0
 10
523.301290
 20
751.443002
 30
0.0
 10
523.175744
 20
751.882798
 30
0.0
 10
522.998749
 20
752.340990
 30
0.0
 10
522.745189
 20
752.827500
 30
0.0
 10
522.350749
 20
753.368010
 30
0.0
 10
521.150730
 20
754.227787
 30
0.0
 10
516.723608
 20
756.375796
 30
0.0
 10
512.649854
 20
759.135777
 30
0.0
 10
511.305240
 20
759.745141
 30
0.0
 10
510.639920
 20
759.816489
 30
0.0
 10
510.091813
 20
759.792820
 30
0.0
 10
509.606522
 20
759.716993
 30
0.0
 10
509.162871
 20
759.605818
 30
0.0
 10
508.749863
 20
759.467998
 30
0.0
 10
507.991879
 20
759.131610
 30
0.0
 10
507.302153
 20
758.732379
 30
0.0
 10
506.665095
 20
758.283229
 30
0.0
 10
505.515476
 20
757.263919
 30
0.0
 10
504.501552
 20
756.111295
 30
0.0
 10
503.553419
 20
754.894807
 30
0.0
 10
502.221986
 20
754.053711
 30
0.0
 10
500.744909
 20
753.363475
 30
0.0
 10
499.157706
 20
752.797028
 30
0.0
 10
497.477328
 20
752.345355
 30
0.0
 10
495.715227
 20
752.004914
 30
0.0
 10
493.880248
 20
751.774656
 30
0.0
 10
491.979986
 20
751.654750
 30
0.0
 10
490.021303
 20
751.646133
 30
0.0
 10
488.010632
 20
751.750136
 30
0.0
 10
484.271054
 20
757.421327
 30
0.0
 10
481.229451
 20
763.495519
 30
0.0
 10
482.144701
 20
765.288801
 30
0.0
 10
483.131498
 20
766.980744
 30
0.0
 10
484.185476
 20
768.566473
 30
0.0
 10
485.302383
 20
770.040489
 30
0.0
 10
486.478251
 20
771.396300
 30
0.0
 10
487.709593
 20
772.625686
 30
0.0
 10
488.993772
 20
773.717053
 30
0.0
 10
490.330081
 20
774.651097
 30
0.0
 10
491.724188
 20
775.383626
 30
0.0
 10
493.251778
 20
775.596479
 30
0.0
 10
494.756919
 20
775.898256
 30
0.0
 10
496.214493
 20
776.384199
 30
0.0
 10
496.922021
 20
776.711346
 30
0.0
 10
497.612597
 20
777.109046
 30
0.0
 10
498.282934
 20
777.597257
 30
0.0
 10
498.608777
 20
777.886023
 30
0.0
 10
498.926881
 20
778.214672
 30
0.0
 10
499.235177
 20
778.597009
 30
0.0
 10
499.529753
 20
779.059878
 30
0.0
 10
499.800632
 20
779.671708
 30
0.0
 10
499.945199
 20
781.140876
 30
0.0
 10
499.591860
 20
786.048839
 30
0.0
  0
LWPOLYLINE
  5
105
100
AcDbEntity
  8
0
 62
7
100
AcDbPolyline
 90
72
 70
1
 10
548.737246
 20
786.048839
 30
0.0
 10
548.680616
 20
787.345881
 30
0.0
 10
548.511157
 20
788.633052
 30
0.0
 10
548.230158
 20
789.900555
 30
0.0
 10
547.839758
 20
791.138745
 30
0.0
 10
547.342929
 20
792.338197
 30
0.0
 10
546.743451
 20
793.489783
 30
0.0
 10
546.045887
 20
794.584740
 30
0.0
 10
545.255545
 20
795.614733
 30
0.0
 10
544.378442
 20
796.571924
 30
0.0
 10
543.421251
 20
797.449027
 30
0.0
 10
542.391258
 20
798.239369
 30
0.0
 10
541.296301
 20
798.936933
 30
0.0
 10
540.144715
 20
799.536411
 30
0.0
 10
538.945262
 20
800.033241
 30
0.0
 10
537.707073
 20
800.423640
 30
0.0
 10
536.439569
 20
800.704639
 30
0.0
 10
535.152399
 20
800.874098
 30
0.0
 10
533.855356
 20
800.930728
 30
0.0
 10
532.558314
 20
800.874098
 30
0.0
 10
531.271143
 20
800.704639
 30
0.0
 10
530.003640
 20
800.423640
 30
0.0
 10
528.765450
 20
800.033241
 30
0.0
 10
527.565998
 20
799.536411
 30
0.0
 10
526.414412
 20
798.936933
 30
0.0
 10
525.319455
 20
798.239369
 30
0.0
 10
524.289462
 20
797.449027
 30
0.0
 10
523.332271
 20
796.571924
 30
0.0
 10
522.455167
 20
795.614733
 30
0.0
 10
521.664826
 20
794.584740
 30
0.0
 10
520.967262
 20
793.489783
 30
0.0
 10
520.367784
 20
792.338197
 30
0.0
 10
519.870954
 20
791.138745
 30
0.0
 10
519.480555
 20
789.900555
 30
0.0
 10
519.199556
 20
788.633052
 30
0.0
 10
519.030097
 20
787.345881
 30
0.0
 10
518.973467
 20
786.048839
 30
0.0
 10
519.030097
 20
784.751796
 30
0.0
 10
519.199556
 20
783.464625
 30
0.0
 10
519.480555
 20
782.197122
 30
0.0
 10
519.870954
 20
780.958932
 30
0.0
 10
520.367784
 20
779.759480
 30
0.0
 10
520.967262
 20
778.607894
 30
0.0
 10
521.664826
 20
777.512937
 30
0.0
 10
522.455167
 20
776.482944
 30
0.0
 10
523.332271
 20
775.525753
 30
0.0
 10
524.289462
 20
774.648650
 30
0.0
 10
525.319455
 20
773.858308
 30
0.0
 10
526.414412
 20
773.160744
 30
0.0
 10
527.565998
 20
772.561266
 30
0.0
 10
528.765450
 20
772.064437
 30
0.0
 10
530.003640
 20
771.674037
 30
0.0
 10
531.271143
 20
771.393038
 30
0.0
 10
532.558314
 20
771.223579
 30
0.0
 10
533.855356
 20
771.166949
 30
0.0
 10
535.152399
 20
771.223579
 30
0.0
 10
536.439569
 20
771.393038
 30
0.0
 10
537.707073
 20
771.674037
 30
0.0
 10
538.945262
 20
772.064437
 30
0.0
 10
540.144715
 20
772.561266
 30
0.0
 10
541.296301
 20
773.160744
 30
0.0
 10
542.391258
 20
773.858308
 30
0.0
 10
543.421251
 20
774.648650
 30
0.0
 10
544.378442
 20
775.525753
 30
0.0
 10
545.255545
 20
776.482944
 30
0.0
 10
546.045887
 20
777.512937
 30
0.0
 10
546.743451
 20
778.607894
 30
0.0
 10
547.342929
 20
779.759480
 30
0.0
 10
547.839758
 20
780.958932
 30
0.0
 10
548.230158
 20
782.197122
 30
0.0
 10
548.511157
 20
783.464625
 30
0.0
 10
548.680616
 20
784.751796
 30
0.0
  0
LWPOLYLINE
  5
106
100
AcDbEntity
  8
0
 62
7
100
AcDbPolyline
 90
276
 70
1
 10
18.715748
 20
827.053071
 30
0.0
 10
18.571181
 20
828.522239
 30
0.0
 10
18.300302
 20
829.134069
 30
0.0
 10
18.005726
 20
829.596939
 30
0.0
 10
17.697430
 20
829.979276
 30
0.0
 10
17.379326
 20
830.307925
 30
0.0
 10
17.053483
 20
830.596690
 30
0.0
 10
16.383146
 20
831.084901
 30
0.0
 10
15.692570
 20
831.482602
 30
0.0
 10
14.985043
 20
831.809748
 30
0.0
 10
13.527468
 20
832.295691
 30
0.0
 10
12.022328
 20
832.597468
 30
0.0
 10
10.494737
 20
832.810321
 30
0.0
 10
9.100630
 20
833.542850
 30
0.0
 10
7.764321
 20
834.476895
 30
0.0
 10
6.480142
 20
835.568262
 30
0.0
 10
5.248800
 20
836.797647
 30
0.0
 10
4.072932
 20
838.153458
 30
0.0
 10
2.956025
 20
839.627474
 30
0.0
 10
1.902047
 20
841.213203
 30
0.0
 10
0.915250
 20
842.905147
 30
0.0
 10
-0.000000
 20
844.698428
 30
0.0
 10
3.041603
 20
850.772621
 30
0.0
 10
6.781181
 20
856.443811
 30
0.0
 10
8.791852
 20
856.547814
 30
0.0
 10
10.750535
 20
856.539197
 30
0.0
 10
12.650797
 20
856.419291
 30
0.0
 10
14.485776
 20
856.189033
 30
0.0
 10
16.247877
 20
855.848592
 30
0.0
 10
17.928255
 20
855.396920
 30
0.0
 10
19.515458
 20
854.830473
 30
0.0
 10
20.992535
 20
854.140236
 30
0.0
 10
22.323969
 20
853.299140
 30
0.0
 10
23.272101
 20
852.082652
 30
0.0
 10
24.286025
 20
850.930028
 30
0.0
 10
25.435644
 20
849.910718
 30
0.0
 10
26.072702
 20
849.461569
 30
0.0
 10
26.762428
 20
849.062337
 30
0.0
 10
27.520413
 20
848.725950
 30
0.0
 10
27.933420
 20
848.588129
 30
0.0
 10
28.377071
 20
848.476954
 30
0.0
 10
28.862362
 20
848.401128
 30
0.0
 10
29.410469
 20
848.377458
 30
0.0
 10
30.075789
 20
848.448806
 30
0.0
 10
31.420403
 20
849.058170
 30
0.0
 10
35.494157
 20
851.818151
 30
0.0
 10
39.921279
 20
853.966161
 30
0.0
 10
41.121298
 20
854.825937
 30
0.0
 10
41.515739
 20
855.366447
 30
0.0
 10
41.769298
 20
855.852958
 30
0.0
 10
41.946293
 20
856.311150
 30
0.0
 10
42.071839
 20
856.750945
 30
0.0
 10
42.158976
 20
857.177531
 30
0.0
 10
42.246652
 20
858.002158
 30
0.0
 10
42.245773
 20
858.799090
 30
0.0
 10
42.175332
 20
859.575386
 30
0.0
 10
41.867376
 20
861.080639
 30
0.0
 10
41.376132
 20
862.535011
 30
0.0
 10
40.796674
 20
863.964381
 30
0.0
 10
40.734000
 20
865.537978
 30
0.0
 10
40.874769
 20
867.162287
 30
0.0
 10
41.177820
 20
868.820073
 30
0.0
 10
41.626857
 20
870.501159
 30
0.0
 10
42.213090
 20
872.197411
 30
0.0
 10
42.931162
 20
873.901685
 30
0.0
 10
43.777446
 20
875.607291
 30
0.0
 10
44.749332
 20
877.307880
 30
0.0
 10
45.844724
 20
878.997159
 30
0.0
 10
52.625906
 20
879.400132
 30
0.0
 10
59.407115
 20
878.997159
 30
0.0
 10
60.502507
 20
877.307880
 30
0.0
 10
61.474394
 20
875.607291
 30
0.0
 10
62.320677
 20
873.901685
 30
0.0
 10
63.038750
 20
872.197411
 30
0.0
 10
63.624983
 20
870.501159
 30
0.0
 10
64.074019
 20
868.820073
 30
0.0
 10
64.377071
 20
867.162287
 30
0.0
 10
64.517811
 20
865.537978
 30
0.0
 10
64.455165
 20
863.964381
 30
0.0
 10
63.875707
 20
862.535011
 30
0.0
 10
63.384463
 20
861.080639
 30
0.0
 10
63.076507
 20
859.575386
 30
0.0
 10
63.006066
 20
858.799090
 30
0.0
 10
63.005187
 20
858.002158
 30
0.0
 10
63.092863
 20
857.177531
 30
0.0
 10
63.180000
 20
856.750945
 30
0.0
 10
63.305546
 20
856.311150
 30
0.0
 10
63.482542
 20
855.852958
 30
0.0
 10
63.736101
 20
855.366447
 30
0.0
 10
64.130542
 20
854.825937
 30
0.0
 10
65.330561
 20
853.966161
 30
0.0
 10
69.757682
 20
851.818151
 30
0.0
 10
73.831436
 20
849.058170
 30
0.0
 10
75.176050
 20
848.448806
 30
0.0
 10
75.841370
 20
848.377458
 30
0.0
 10
76.389477
 20
848.401128
 30
0.0
 10
76.874769
 20
848.476954
 30
0.0
 10
77.318419
 20
848.588129
 30
0.0
 10
77.731427
 20
848.725950
 30
0.0
 10
78.489411
 20
849.062337
 30
0.0
 10
79.179137
 20
849.461569
 30
0.0
 10
79.816195
 20
849.910718
 30
0.0
 10
80.965814
 20
850.930028
 30
0.0
 10
81.979739
 20
852.082652
 30
0.0
 10
82.927871
 20
853.299140
 30
0.0
 10
84.259304
 20
854.140236
 30
0.0
 10
85.736381
 20
854.830473
 30
0.0
 10
87.323584
 20
855.396920
 30
0.0
 10
89.003962
 20
855.848592
 30
0.0
 10
90.766063
 20
856.189033
 30
0.0
 10
92.601043
 20
856.419291
 30
0.0
 10
94.501304
 20
856.539197
 30
0.0
 10
96.459987
 20
856.547814
 30
0.0
 10
98.470658
 20
856.443811
 30
0.0
 10
102.210236
 20
850.772621
 30
0.0
 10
105.251839
 20
844.698428
 30
0.0
 10
104.336589
 20
842.905147
 30
0.0
 10
103.349792
 20
841.213203
 30
0.0
 10
102.295814
 20
839.627474
 30
0.0
 10
101.178907
 20
838.153458
 30
0.0
 10
100.003039
 20
836.797647
 30
0.0
 10
98.771698
 20
835.568262
 30
0.0
 10
97.487518
 20
834.476895
 30
0.0
 10
96.151209
 20
833.542850
 30
0.0
 10
94.757102
 20
832.810321
 30
0.0
 10
93.229512
 20
832.597468
 30
0.0
 10
91.724372
 20
832.295691
 30
0.0
 10
90.266797
 20
831.809748
 30
0.0
 10
89.559269
 20
831.482602
 30
0.0
 10
88.868693
 20
831.084901
 30
0.0
 10
88.198356
 20
830.596690
 30
0.0
 10
87.872513
 20
830.307925
 30
0.0
 10
87.554409
 20
829.979276
 30
0.0
 10
87.246113
 20
829.596939
 30
0.0
 10
86.951537
 20
829.134069
 30
0.0
 10
86.680658
 20
828.522239
 30
0.0
 10
86.536091
 20
827.053071
 30
0.0
 10
86.889430
 20
822.145080
 30
0.0
 10
86.536091
 20
817.237118
 30
0.0
 10
86.680658
 20
815.767950
 30
0.0
 10
86.951537
 20
815.156120
 30
0.0
 10
87.246113
 20
814.693250
 30
0.0
 10
87.554409
 20
814.310913
 30
0.0
 10
87.872513
 20
813.982265
 30
0.0
 10
88.198356
 20
813.693499
 30
0.0
 10
88.868693
 20
813.205288
 30
0.0
 10
89.559269
 20
812.807588
 30
0.0
 10
90.266797
 20
812.480441
 30
0.0
 10
91.724372
 20
811.994498
 30
0.0
 10
93.229512
 20
811.692721
 30
0.0
 10
94.757102
 20
811.479868
 30
0.0
 10
96.151209
 20
810.747339
 30
0.0
 10
97.487518
 20
809.813295
 30
0.0
 10
98.771698
 20
808.721928
 30
0.0
 10
100.003039
 20
807.492542
 30
0.0
 10
101.178907
 20
806.136731
 30
0.0
 10
102.295814
 20
804.662715
 30
0.0
 10
103.349792
 20
803.076986
 30
0.0
 10
104.336589
 20
801.385043
 30
0.0
 10
105.251839
 20
799.591761
 30
0.0
 10
102.210236
 20
793.517569
 30
0.0
 10
98.470658
 20
787.846378
 30
0.0
 10
96.459987
 20
787.742375
 30
0.0
 10
94.501304
 20
787.750992
 30
0.0
 10
92.601043
 20
787.870898
 30
0.0
 10
90.766063
 20
788.101156
 30
0.0
 10
89.003962
 20
788.441597
 30
0.0
 10
87.323584
 20
788.893269
 30
0.0
 10
85.736381
 20
789.459717
 30
0.0
 10
84.259304
 20
790.149953
 30
0.0
 10
82.927871
 20
790.991049
 30
0.0
 10
81.979739
 20
792.207537
 30
0.0
 10
80.965814
 20
793.360161
 30
0.0
 10
79.816195
 20
794.379471
 30
0.0
 10
79.179137
 20
794.828621
 30
0.0
 10
78.489411
 20
795.227852
 30
0.0
 10
77.731427
 20
795.564239
 30
0.0
 10
77.318419
 20
795.702060
 30
0.0
 10
76.874769
 20
795.813235
 30
0.0
 10
76.389477
 20
795.889062
 30
0.0
 10
75.841370
 20
795.912731
 30
0.0
 10
75.176050
 20
795.841383
 30
0.0
 10
73.831436
 20
795.232019
 30
0.0
 10
69.757682
 20
792.472038
 30
0.0
 10
65.330561
 20
790.324028
 30
0.0
 10
64.130542
 20
789.464252
 30
0.0
 10
63.736101
 20
788.923742
 30
0.0
 10
63.482542
 20
788.437232
 30
0.0
 10
63.305546
 20
787.979039
 30
0.0
 10
63.180000
 20
787.539244
 30
0.0
 10
63.092863
 20
787.112658
 30
0.0
 10
63.005187
 20
786.288032
 30
0.0
 10
63.006066
 20
785.491099
 30
0.0
 10
63.076507
 20
784.714803
 30
0.0
 10
63.384463
 20
783.209550
 30
0.0
 10
63.875707
 20
781.755178
 30
0.0
 10
64.455165
 20
780.325808
 30
0.0
 10
64.517811
 20
778.752211
 30
0.0
 10
64.377071
 20
777.127902
 30
0.0
 10
64.074019
 20
775.470117
 30
0.0
 10
63.624983
 20
773.789030
 30
0.0
 10
63.038750
 20
772.092778
 30
0.0
 10
62.320677
 20
770.388504
 30
0.0
 10
61.474394
 20
768.682898
 30
0.0
 10
60.502507
 20
766.982309
 30
0.0
 10
59.407115
 20
765.293030
 30
0.0
 10
52.625906
 20
764.890057
 30
0.0
 10
45.844724
 20
765.293030
 30
0.0
 10
44.749332
 20
766.982309
 30
0.0
 10
43.777446
 20
768.682898
 30
0.0
 10
42.931162
 20
770.388504
 30
0.0
 10
42.213090
 20
772.092778
 30
0.0
 10
41.626857
 20
773.789030
 30
0.0
 10
41.177820
 20
775.470117
 30
0.0
 10
40.874769
 20
777.127902
 30
0.0
 10
40.734000
 20
778.752211
 30
0.0
 10
40.796674
 20
780.325808
 30
0.0
 10
41.376132
 20
781.755178
 30
0.0
 10
41.867376
 20
783.209550
 30
0.0
 10
42.175332
 20
784.714803
 30
0.0
 10
42.245773
 20
785.491099
 30
0.0
 10
42.246652
 20
786.288032
 30
0.0
 10
42.158976
 20
787.112658
 30
0.0
 10
42.071839
 20
787.539244
 30
0.0
 10
41.946293
 20
787.979039
 30
0.0
 10
41.769298
 20
788.437232
 30
0.0
 10
41.515739
 20
788.923742
 30
0.0
 10
41.121298
 20
789.464252
 30
0.0
 10
39.921279
 20
790.324028
 30
0.0
 10
35.494157
 20
792.472038
 30
0.0
 10
31.420403
 20
795.232019
 30
0.0
 10
30.075789
 20
795.841383
 30
0.0
 10
29.410469
 20
795.912731
 30
0.0
 10
28.862362
 20
795.889062
 30
0.0
 10
28.377071
 20
795.813235
 30
0.0
 10
27.933420
 20
795.702060
 30
0.0
 10
27.520413
 20
795.564239
 30
0.0
 10
26.762428
 20
795.227852
 30
0.0
 10
26.072702
 20
794.828621
 30
0.0
 10
25.435644
 20
794.379471
 30
0.0
 10
24.286025
 20
793.360161
 30
0.0
 10
23.272101
 20
792.207537
 30
0.0
 10
22.323969
 20
790.991049
 30
0.0
 10
20.992535
 20
790.149953
 30
0.0
 10
19.515458
 20
789.459717
 30
0.0
 10
17.928255
 20
788.893269
 30
0.0
 10
16.247877
 20
788.441597
 30
0.0
 10
14.485776
 20
788.101156
 30
0.0
 10
12.650797
 20
787.870898
 30
0.0
 10
10.750535
 20
787.750992
 30
0.0
 10
8.791852
 20
787.742375
 30
0.0
 10
6.781181
 20
787.846378
 30
0.0
 10
3.041603
 20
793.517569
 30
0.0
 10
-0.000000
 20
799.591761
 30
0.0
 10
0.915250
 20
801.385043
 30
0.0
 10
1.902047
 20
803.076986
 30
0.0
 10
2.956025
 20
804.662715
 30
0.0
 10
4.072932
 20
806.136731
 30
0.0
 10
5.248800
 20
807.492542
 30
0.0
 10
6.480142
 20
808.721928
 30
0.0
 10
7.764321
 20
809.813295
 30
0.0
 10
9.100630
 20
810.747339
 30
0.0
 10
10.494737
 20
811.479868
 30
0.0
 10
12.022328
 20
811.692721
 30
0.0
 10
13.527468
 20
811.994498
 30
0.0
 10
14.985043
 20
812.480441
 30
0.0
 10
15.692570
 20
812.807588
 30
0.0
 10
16.383146
 20
813.205288
 30
0.0
 10
17.053483
 20
813.693499
 30
0.0
 10
17.379326
 20
813.982265
 30
0.0
 10
17.697430
 20
814.310913
 30
0.0
 10
18.005726
 20
814.693250
 30
0.0
 10
18.300302
 20
815.156120
 30
0.0
 10
18.571181
 20
815.767950
 30
0.0
 10
18.715748
 20
817.237118
 30
0.0
 10
18.362409
 20
822.145080
 30
0.0
  0
LWPOLYLINE
  5
107
100
AcDbEntity
  8
0
 62
7
100
AcDbPolyline
 90
72
 70
1
 10
67.507795
 20
822.145080
 30
0.0
 10
67.451165
 20
823.442123
 30
0.0
 10
67.281706
 20
824.729293
 30
0.0
 10
67.000707
 20
825.996797
 30
0.0
 10
66.610308
 20
827.234986
 30
0.0
 10
66.113478
 20
828.434439
 30
0.0
 10
65.514000
 20
829.586025
 30
0.0
 10
64.816436
 20
830.680982
 30
0.0
 10
64.026094
 20
831.710975
 30
0.0
 10
63.148991
 20
832.668166
 30
0.0
 10
62.191800
 20
833.545269
 30
0.0
 10
61.161807
 20
834.335611
 30
0.0
 10
60.066850
 20
835.033175
 30
0.0
 10
58.915264
 20
835.632653
 30
0.0
 10
57.715812
 20
836.129482
 30
0.0
 10
56.477622
 20
836.519882
 30
0.0
 10
55.210119
 20
836.800881
 30
0.0
 10
53.922948
 20
836.970340
 30
0.0
 10
52.625906
 20
837.026970
 30
0.0
 10
51.328863
 20
836.970340
 30
0.0
 10
50.041692
 20
836.800881
 30
0.0
 10
48.774189
 20
836.519882
 30
0.0
 10
47.535999
 20
836.129482
 30
0.0
 10
46.336547
 20
835.632653
 30
0.0
 10
45.184961
 20
835.033175
 30
0.0
 10
44.090004
 20
834.335611
 30
0.0
 10
43.060011
 20
833.545269
 30
0.0
 10
42.102820
 20
832.668166
 30
0.0
 10
41.225717
 20
831.710975
 30
0.0
 10
40.435375
 20
830.680982
 30
0.0
 10
39.737811
 20
829.586025
 30
0.0
 10
39.138333
 20
828.434439
 30
0.0
 10
38.641504
 20
827.234986
 30
0.0
 10
38.251104
 20
825.996797
 30
0.0
 10
37.970105
 20
824.729293
 30
0.0
 10
37.800646
 20
823.442123
 30
0.0
 10
37.744016
 20
822.145080
 30
0.0
 10
37.800646
 20
820.848038
 30
0.0
 10
37.970105
 20
819.560867
 30
0.0
 10
38.251104
 20
818.293364
 30
0.0
 10
38.641504
 20
817.055174
 30
0.0
 10
39.138333
 20
815.855722
 30
0.0
 10
39.737811
 20
814.704136
 30
0.0
 10
40.435375
 20
813.609179
 30
0.0
 10
41.225717
 20
812.579186
 30
0.0
 10
42.102820
 20
811.621995
 30
0.0
 10
43.060011
 20
810.744891
 30
0.0
 10
44.090004
 20
809.954550
 30
0.0
 10
45.184961
 20
809.256986
 30
0.0
 10
46.336547
 20
808.657508
 30
0.0
 10
47.535999
 20
808.160678
 30
0.0
 10
48.774189
 20
807.770279
 30
0.0
 10
50.041692
 20
807.489280
 30
0.0
 10
51.328863
 20
807.319821
 30
0.0
 10
52.625906
 20
807.263191
 30
0.0
 10
53.922948
 20
807.319821
 30
0.0
 10
55.210119
 20
807.489280
 30
0.0
 10
56.477622
 20
807.770279
 30
0.0
 10
57.715812
 20
808.160678
 30
0.0
 10
58.915264
 20
808.657508
 30
0.0
 10
60.066850
 20
809.256986
 30
0.0
 10
61.161807
 20
809.954550
 30
0.0
 10
62.191800
 20
810.744891
 30
0.0
 10
63.148991
 20
811.621995
 30
0.0
 10
64.026094
 20
812.579186
 30
0.0
 10
64.816436
 20
813.609179
 30
0.0
 10
65.514000
 20
814.704136
 30
0.0
 10
66.113478
 20
815.855722
 30
0.0
 10
66.610308
 20
817.055174
 30
0.0
 10
67.000707
 20
818.293364
 30
0.0
 10
67.281706
 20
819.560867
 30
0.0
 10
67.451165
 20
820.848038
 30
0.0
  0
LWPOLYLINE
  5
108
100
AcDbEntity
  8
0
 62
7
100
AcDbPolyline
 90
276
 70
1
 10
131.566796
 20
853.650302
 30
0.0
 10
131.422229
 20
855.119470
 30
0.0
 10
131.151351
 20
855.731300
 30
0.0
 10
130.856774
 20
856.194170
 30
0.0
 10
130.548478
 20
856.576507
 30
0.0
 10
130.230374
 20
856.905155
 30
0.0
 10
129.904532
 20
857.193921
 30
0.0
 10
129.234195
 20
857.682132
 30
0.0
 10
128.543618
 20
858.079833
 30
0.0
 10
127.836091
 20
858.406979
 30
0.0
 10
126.378516
 20
858.892922
 30
0.0
 10
124.873376
 20
859.194699
 30
0.0
 10
123.345785
 20
859.407552
 30
0.0
 10
121.951678
 20
860.140081
 30
0.0
 10
120.615369
 20
861.074125
 30
0.0
 10
119.331190
 20
862.165492
 30
0.0
 10
118.099848
 20
863.394878
 30
0.0
 10
116.923980
 20
864.750689
 30
0.0
 10
115.807073
 20
866.224705
 30
0.0
 10
114.753095
 20
867.810434
 30
0.0
 10
113.766299
 20
869.502377
 30
0.0
 10
112.851048
 20
871.295659
 30
0.0
 10
115.892651
 20
877.369851
 30
0.0
 10
119.632229
 20
883.041042
 30
0.0
 10
121.642900
 20
883.145045
 30
0.0
 10
123.601584
 20
883.136428
 30
0.0
 10
125.501845
 20
883.016522
 30
0.0
 10
127.336825
 20
882.786264
 30
0.0
 10
129.098925
 20
882.445823
 30
0.0
 10
130.779303
 20
881.994151
 30
0.0
 10
132.366506
 20
881.427703
 30
0.0
 10
133.843584
 20
880.737467
 30
0.0
 10
135.175017
 20
879.896371
 30
0.0
 10
136.123149
 20
878.679883
 30
0.0
 10
137.137073
 20
877.527259
 30
0.0
 10
138.286692
 20
876.507949
 30
0.0
 10
138.923751
 20
876.058799
 30
0.0
 10
139.613477
 20
875.659568
 30
0.0
 10
140.371461
 20
875.323181
 30
0.0
 10
140.784469
 20
875.185360
 30
0.0
 10
141.228119
 20
875.074185
 30
0.0
 10
141.713410
 20
874.998359
 30
0.0
 10
142.261517
 20
874.974689
 30
0.0
 10
142.926837
 20
875.046037
 30
0.0
 10
144.271451
 20
875.655401
 30
0.0
 10
148.345206
 20
878.415382
 30
0.0
 10
152.772327
 20
880.563392
 30
0.0
 10
153.972346
 20
881.423168
 30
0.0
 10
154.366787
 20
881.963678
 30
0.0
 10
154.620346
 20
882.450188
 30
0.0
 10
154.797341
 20
882.908381
 30
0.0
 10
154.922888
 20
883.348176
 30
0.0
 10
155.010025
 20
883.774762
 30
0.0
 10
155.097700
 20
884.599388
 30
0.0
 10
155.096821
 20
885.396321
 30
0.0
 10
155.026380
 20
886.172617
 30
0.0
 10
154.718425
 20
887.677870
 30
0.0
 10
154.227180
 20
889.132242
 30
0.0
 10
153.647722
 20
890.561612
 30
0.0
 10
153.585048
 20
892.135209
 30
0.0
 10
153.725817
 20
893.759518
 30
0.0
 10
154.028869
 20
895.417303
 30
0.0
 10
154.477905
 20
897.098390
 30
0.0
 10
155.064138
 20
898.794642
 30
0.0
 10
155.782210
 20
900.498916
 30
0.0
 10
156.628494
 20
902.204522
 30
0.0
 10
157.600380
 20
903.905111
 30
0.0
 10
158.695773
 20
905.594390
 30
0.0
 10
165.476954
 20
905.997363
 30
0.0
 10
172.258163
 20
905.594390
 30
0.0
 10
173.353555
 20
903.905111
 30
0.0
 10
174.325442
 20
902.204522
 30
0.0
 10
175.171725
 20
900.498916
 30
0.0
 10
175.889798
 20
898.794642
 30
0.0
 10
176.476031
 20
897.098390
 30
0.0
 10
176.925067
 20
895.417303
 30
0.0
 10
177.228119
 20
893.759518
 30
0.0
 10
177.368859
 20
892.135209
 30
0.0
 10
177.306214
 20
890.561612
 30
0.0
 10
176.726755
 20
889.132242
 30
0.0
 10
176.235511
 20
887.677870
 30
0.0
 10
175.927555
 20
886.172617
 30
0.0
 10
175.857114
 20
885.396321
 30
0.0
 10
175.856236
 20
884.599388
 30
0.0
 10
175.943911
 20
883.774762
 30
0.0
 10
176.031048
 20
883.348176
 30
0.0
 10
176.156595
 20
882.908381
 30
0.0
 10
176.333590
 20
882.450188
 30
0.0
 10
176.587149
 20
881.963678
 30
0.0
 10
176.981590
 20
881.423168
 30
0.0
 10
178.181609
 20
880.563392
 30
0.0
 10
182.608730
 20
878.415382
 30
0.0
 10
186.682484
 20
875.655401
 30
0.0
 10
188.027099
 20
875.046037
 30
0.0
 10
188.692418
 20
874.974689
 30
0.0
 10
189.240525
 20
874.998359
 30
0.0
 10
189.725817
 20
875.074185
 30
0.0
 10
190.169467
 20
875.185360
 30
0.0
 10
190.582475
 20
875.323181
 30
0.0
 10
191.340459
 20
875.659568
 30
0.0
 10
192.030185
 20
876.058799
 30
0.0
 10
192.667243
 20
876.507949
 30
0.0
 10
193.816862
 20
877.527259
 30
0.0
 10
194.830787
 20
878.679883
 30
0.0
 10
195.778919
 20
879.896371
 30
0.0
 10
197.110352
 20
880.737467
 30
0.0
 10
198.587429
 20
881.427703
 30
0.0
 10
200.174632
 20
881.994151
 30
0.0
 10
201.855010
 20
882.445823
 30
0.0
 10
203.617111
 20
882.786264
 30
0.0
 10
205.452091
 20
883.016522
 30
0.0
 10
207.352352
 20
883.136428
 30
0.0
 10
209.311036
 20
883.145045
 30
0.0
 10
211.321706
 20
883.041042
 30
0.0
 10
215.061284
 20
877.369851
 30
0.0
 10
218.102888
 20
871.295659
 30
0.0
 10
217.187637
 20
869.502377
 30
0.0
 10
216.200840
 20
867.810434
 30
0.0
 10
215.146862
 20
866.224705
 30
0.0
 10
214.029955
 20
864.750689
 30
0.0
 10
212.854088
 20
863.394878
 30
0.0
 10
211.622746
 20
862.165492
 30
0.0
 10
210.338566
 20
861.074125
 30
0.0
 10
209.002258
 20
860.140081
 30
0.0
 10
207.608151
 20
859.407552
 30
0.0
 10
206.080560
 20
859.194699
 30
0.0
 10
204.575420
 20
858.892922
 30
0.0
 10
203.117845
 20
858.406979
 30
0.0
 10
202.410317
 20
858.079833
 30
0.0
 10
201.719741
 20
857.682132
 30
0.0
 10
201.049404
 20
857.193921
 30
0.0
 10
200.723562
 20
856.905155
 30
0.0
 10
200.405458
 20
856.576507
 30
0.0
 10
200.097162
 20
856.194170
 30
0.0
 10
199.802585
 20
855.731300
 30
0.0
 10
199.531706
 20
855.119470
 30
0.0
 10
199.387140
 20
853.650302
 30
0.0
 10
199.740478
 20
848.742311
 30
0.0
 10
199.387140
 20
843.834349
 30
0.0
 10
199.531706
 20
842.365181
 30
0.0
 10
199.802585
 20
841.753351
 30
0.0
 10
200.097162
 20
841.290481
 30
0.0
 10
200.405458
 20
840.908144
 30
0.0
 10
200.723562
 20
840.579496
 30
0.0
 10
201.049404
 20
840.290730
 30
0.0
 10
201.719741
 20
839.802519
 30
0.0
 10
202.410317
 20
839.404818
 30
0.0
 10
203.117845
 20
839.077672
 30
0.0
 10
204.575420
 20
838.591729
 30
0.0
 10
206.080560
 20
838.289952
 30
0.0
 10
207.608151
 20
838.077099
 30
0.0
 10
209.002258
 20
837.344570
 30
0.0
 10
210.338566
 20
836.410525
 30
0.0
 10
211.622746
 20
835.319159
 30
0.0
 10
212.854088
 20
834.089773
 30
0.0
 10
214.029955
 20
832.733962
 30
0.0
 10
215.146862
 20
831.259946
 30
0.0
 10
216.200840
 20
829.674217
 30
0.0
 10
217.187637
 20
827.982273
 30
0.0
 10
218.102888
 20
826.188992
 30
0.0
 10
215.061284
 20
820.114799
 30
0.0
 10
211.321706
 20
814.443609
 30
0.0
 10
209.311036
 20
814.339606
 30
0.0
 10
207.352352
 20
814.348223
 30
0.0
 10
205.452091
 20
814.468129
 30
0.0
 10
203.617111
 20
814.698387
 30
0.0
 10
201.855010
 20
815.038828
 30
0.0
 10
200.174632
 20
815.490500
 30
0.0
 10
198.587429
 20
816.056948
 30
0.0
 10
197.110352
 20
816.747184
 30
0.0
 10
195.778919
 20
817.588280
 30
0.0
 10
194.830787
 20
818.804768
 30
0.0
 10
193.816862
 20
819.957392
 30
0.0
 10
192.667243
 20
820.976702
 30
0.0
 10
192.030185
 20
821.425851
 30
0.0
 10
191.340459
 20
821.825083
 30
0.0
 10
190.582475
 20
822.161470
 30
0.0
 10
190.169467
 20
822.299291
 30
0.0
 10
189.725817
 20
822.410466
 30
0.0
 10
189.240525
 20
822.486292
 30
0.0
 10
188.692418
 20
822.509962
 30
0.0
 10
188.027099
 20
822.438614
 30
0.0
 10
186.682484
 20
821.829250
 30
0.0
 10
182.608730
 20
819.069269
 30
0.0
 10
178.181609
 20
816.921259
 30
0.0
 10
176.981590
 20
816.061483
 30
0.0
 10
176.587149
 20
815.520973
 30
0.0
 10
176.333590
 20
815.034462
 30
0.0
 10
176.156595
 20
814.576270
 30
0.0
 10
176.031048
 20
814.136475
 30
0.0
 10
175.943911
 20
813.709889
 30
0.0
 10
175.856236
 20
812.885262
 30
0.0
 10
175.857114
 20
812.088330
 30
0.0
 10
175.927555
 20
811.312034
 30
0.0
 10
176.235511
 20
809.806781
 30
0.0
 10
176.726755
 20
808.352409
 30
0.0
 10
177.306214
 20
806.923039
 30
0.0
 10
177.368859
 20
805.349442
 30
0.0
 10
177.228119
 20
803.725133
 30
0.0
 10
176.925067
 20
802.067348
 30
0.0
 10
176.476031
 20
800.386261
 30
0.0
 10
175.889798
 20
798.690009
 30
0.0
 10
175.171725
 20
796.985735
 30
0.0
 10
174.325442
 20
795.280129
 30
0.0
 10
173.353555
 20
793.579540
 30
0.0
 10
172.258163
 20
791.890261
 30
0.0
 10
165.476954
 20
791.487288
 30
0.0
 10
158.695773
 20
791.890261
 30
0.0
 10
157.600380
 20
793.579540
 30
0.0
 10
156.628494
 20
795.280129
 30
0.0
 10
155.782210
 20
796.985735
 30
0.0
 10
155.064138
 20
798.690009
 30
0.0
 10
154.477905
 20
800.386261
 30
0.0
 10
154.028869
 20
802.067348
 30
0.0
 10
153.725817
 20
803.725133
 30
0.0
 10
153.585048
 20
805.349442
 30
0.0
 10
153.647722
 20
806.923039
 30
0.0
 10
154.227180
 20
808.352409
 30
0.0
 10
154.718425
 20
809.806781
 30
0.0
 10
155.026380
 20
811.312034
 30
0.0
 10
155.096821
 20
812.088330
 30
0.0
 10
155.097700
 20
812.885262
 30
0.0
 10
155.010025
 20
813.709889
 30
0.0
 10
154.922888
 20
814.136475
 30
0.0
 10
154.797341
 20
814.576270
 30
0.0
 10
154.620346
 20
815.034462
 30
0.0
 10
154.366787
 20
815.520973
 30
0.0
 10
153.972346
 20
816.061483
 30
0.0
 10
152.772327
 20
816.921259
 30
0.0
 10
148.345206
 20
819.069269
 30
0.0
 10
144.271451
 20
821.829250
 30
0.0
 10
142.926837
 20
822.438614
 30
0.0
 10
142.261517
 20
822.509962
 30
0.0
 10
141.713410
 20
822.486292
 30
0.0
 10
141.228119
 20
822.410466
 30
0.0
 10
140.784469
 20
822.299291
 30
0.0
 10
140.371461
 20
822.161470
 30
0.0
 10
139.613477
 20
821.825083
 30
0.0
 10
138.923751
 20
821.425851
 30
0.0
 10
138.286692
 20
820.976702
 30
0.0
 10
137.137073
 20
819.957392
 30
0.0
 10
136.123149
 20
818.804768
 30
0.0
 10
135.175017
 20
817.588280
 30
0.0
 10
133.843584
 20
816.747184
 30
0.0
 10
132.366506
 20
816.056948
 30
0.0
 10
130.779303
 20
815.490500
 30
0.0
 10
129.098925
 20
815.038828
 30
0.0
 10
127.336825
 20
814.698387
 30
0.0
 10
125.501845
 20
814.468129
 30
0.0
 10
123.601584
 20
814.348223
 30
0.0
 10
121.642900
 20
814.339606
 30
0.0
 10
119.632229
 20
814.443609
 30
0.0
 10
115.892651
 20
820.114799
 30
0.0
 10
112.851048
 20
826.188992
 30
0.0
 10
113.766299
 20
827.982273
 30
0.0
 10
114.753095
 20
829.674217
 30
0.0
 10
115.807073
 20
831.259946
 30
0.0
 10
116.923980
 20
832.733962
 30
0.0
 10
118.099848
 20
834.089773
 30
0.0
 10
119.331190
 20
835.319159
 30
0.0
 10
120.615369
 20
836.410525
 30
0.0
 10
121.951678
 20
837.344570
 30
0.0
 10
123.345785
 20
838.077099
 30
0.0
 10
124.873376
 20
838.289952
 30
0.0
 10
126.378516
 20
838.591729
 30
0.0
 10
127.836091
 20
839.077672
 30
0.0
 10
128.543618
 20
839.404818
 30
0.0
 10
129.234195
 20
839.802519
 30
0.0
 10
129.904532
 20
840.290730
 30
0.0
 10
130.230374
 20
840.579496
 30
0.0
 10
130.548478
 20
840.908144
 30
0.0
 10
130.856774
 20
841.290481
 30
0.0
 10
131.151351
 20
841.753351
 30
0.0
 10
131.422229
 20
842.365181
 30
0.0
 10
131.566796
 20
843.834349
 30
0.0
 10
131.213458
 20
848.742311
 30
0.0
  0
LWPOLYLINE
  5
109
100
AcDbEntity
  8
0
 62
7
100
AcDbPolyline
 90
72
 70
1
 10
180.358843
 20
848.742311
 30
0.0
 10
180.302213
 20
850.039353
 30
0.0
 10
180.132754
 20
851.326524
 30
0.0
 10
179.851755
 20
852.594028
 30
0.0
 10
179.461356
 20
853.832217
 30
0.0
 10
178.964526
 20
855.031670
 30
0.0
 10
178.365048
 20
856.183256
 30
0.0
 10
177.667484
 20
857.278213
 30
0.0
 10
176.877143
 20
858.308206
 30
0.0
 10
176.000039
 20
859.265396
 30
0.0
 10
175.042848
 20
860.142500
 30
0.0
 10
174.012855
 20
860.932842
 30
0.0
 10
172.917899
 20
861.630406
 30
0.0
 10
171.766312
 20
862.229884
 30
0.0
 10
170.566860
 20
862.726713
 30
0.0
 10
169.328670
 20
863.117113
 30
0.0
 10
168.061167
 20
863.398112
 30
0.0
 10
166.773996
 20
863.567571
 30
0.0
 10
165.476954
 20
863.624201
 30
0.0
 10
164.179912
 20
863.567571
 30
0.0
 10
162.892741
 20
863.398112
 30
0.0
 10
161.625237
 20
863.117113
 30
0.0
 10
160.387048
 20
862.726713
 30
0.0
 10
159.187595
 20
862.229884
 30
0.0
 10
158.036009
 20
861.630406
 30
0.0
 10
156.941052
 20
860.932842
 30
0.0
 10
155.911059
 20
860.142500
 30
0.0
 10
154.953869
 20
859.265396
 30
0.0
 10
154.076765
 20
858.308206
 30
0.0
 10
153.286423
 20
857.278213
 30
0.0
 10
152.588859
 20
856.183256
 30
0.0
 10
151.989381
 20
855.031670
 30
0.0
 10
151.492552
 20
853.832217
 30
0.0
 10
151.102152
 20
852.594028
 30
0.0
 10
150.821153
 20
851.326524
 30
0.0
 10
150.651694
 20
850.039353
 30
0.0
 10
150.595064
 20
848.742311
 30
0.0
 10
150.651694
 20
847.445269
 30
0.0
 10
150.821153
 20
846.158098
 30
0.0
 10
151.102152
 20
844.890595
 30
0.0
 10
151.492552
 20
843.652405
 30
0.0
 10
151.989381
 20
842.452953
 30
0.0
 10
152.588859
 20
841.301366
 30
0.0
 10
153.286423
 20
840.206410
 30
0.0
 10
154.076765
 20
839.176417
 30
0.0
 10
154.953869
 20
838.219226
 30
0.0
 10
155.911059
 20
837.342122
 30
0.0
 10
156.941052
 20
836.551781
 30
0.0
 10
158.036009
 20
835.854217
 30
0.0
 10
159.187595
 20
835.254739
 30
0.0
 10
160.387048
 20
834.757909
 30
0.0
 10
161.625237
 20
834.367510
 30
0.0
 10
162.892741
 20
834.086511
 30
0.0
 10
164.179912
 20
833.917052
 30
0.0
 10
165.476954
 20
833.860422
 30
0.0
 10
166.773996
 20
833.917052
 30
0.0
 10
168.061167
 20
834.086511
 30
0.0
 10
169.328670
 20
834.367510
 30
0.0
 10
170.566860
 20
834.757909
 30
0.0
 10
171.766312
 20
835.254739
 30
0.0
 10
172.917899
 20
835.854217
 30
0.0
 10
174.012855
 20
836.551781
 30
0.0
 10
175.042848
 20
837.342122
 30
0.0
 10
176.000039
 20
838.219226
 30
0.0
 10
176.877143
 20
839.176417
 30
0.0
 10
177.667484
 20
840.206410
 30
0.0
 10
178.365048
 20
841.301366
 30
0.0
 10
178.964526
 20
842.452953
 30
0.0
 10
179.461356
 20
843.652405
 30
0.0
 10
179.851755
 20
844.890595
 30
0.0
 10
180.132754
 20
846.158098
 30
0.0
 10
180.302213
 20
847.445269
 30
0.0
  0
ENDSEC
  0
SECTION
  2
OBJECTS
  0
DICTIONARY
  5
C
330
0
100
AcDbDictionary
  3
ACAD_GROUP
350
D
  3
ACAD_MLINESTYLE
350
17
  0
DICTIONARY
  5
D
330
C
100
AcDbDictionary
  0
DICTIONARY
  5
1A
330
C
100
AcDbDictionary
  0
DICTIONARY
  5
17
330
C
100
AcDbDictionary
  3
STANDARD
350
18
  0
DICTIONARY
  5
19
330
C
100
AcDbDictionary
  0
ENDSEC
  0
EOF
